<svg width="28" height="28" viewBox="0 0 28 28" fill="none" xmlns="http://www.w3.org/2000/svg">
<path d="M3.5 12.3213C3.5 11.6512 3.5 11.3161 3.58637 11.0076C3.66287 10.7343 3.78859 10.4772 3.95736 10.249C4.14789 9.99143 4.41236 9.78573 4.94129 9.37434L12.854 3.22003C13.2639 2.90123 13.4688 2.74183 13.6951 2.68056C13.8948 2.6265 14.1052 2.6265 14.3049 2.68056C14.5312 2.74183 14.7361 2.90123 15.146 3.22003L23.0587 9.37434C23.5876 9.78573 23.8521 9.99143 24.0426 10.249C24.2114 10.4772 24.3371 10.7343 24.4136 11.0076C24.5 11.3161 24.5 11.6512 24.5 12.3213V20.762C24.5 22.0688 24.5 22.7222 24.2457 23.2213C24.022 23.6604 23.665 24.0173 23.226 24.241C22.7269 24.4953 22.0735 24.4953 20.7667 24.4953H7.23333C5.92654 24.4953 5.27315 24.4953 4.77402 24.241C4.33498 24.0173 3.97802 23.6604 3.75432 23.2213C3.5 22.7222 3.5 22.0688 3.5 20.762V12.3213Z" fill="#5A42DE" stroke="#5A42DE" stroke-width="1.5" stroke-linecap="round"/>
<path d="M9.33398 19.8333H18.6673" stroke="white" stroke-width="1.5" stroke-linecap="round"/>
</svg>
