<svg width="28" height="28" viewBox="0 0 28 28" fill="none" xmlns="http://www.w3.org/2000/svg">
<path d="M9.33333 19.8333H18.6667M12.854 3.22467L4.94129 9.37898C4.41236 9.79037 4.14789 9.99606 3.95736 10.2537C3.78859 10.4819 3.66287 10.7389 3.58637 11.0122C3.5 11.3208 3.5 11.6558 3.5 12.3259V20.7666C3.5 22.0734 3.5 22.7268 3.75432 23.226C3.97802 23.665 4.33498 24.022 4.77402 24.2457C5.27315 24.5 5.92654 24.5 7.23333 24.5H20.7667C22.0735 24.5 22.7269 24.5 23.226 24.2457C23.665 24.022 24.022 23.665 24.2457 23.226C24.5 22.7268 24.5 22.0734 24.5 20.7666V12.3259C24.5 11.6558 24.5 11.3208 24.4136 11.0122C24.3371 10.7389 24.2114 10.4819 24.0426 10.2537C23.8521 9.99606 23.5876 9.79037 23.0587 9.37898L15.146 3.22467C14.7361 2.90587 14.5312 2.74647 14.3049 2.6852C14.1052 2.63114 13.8948 2.63114 13.6951 2.6852C13.4688 2.74647 13.2639 2.90587 12.854 3.22467Z" stroke="#71717A" stroke-width="1.5" stroke-linecap="round"/>
</svg>
