<svg width="28" height="28" viewBox="0 0 28 28" fill="none" xmlns="http://www.w3.org/2000/svg">
<path d="M14 2.625C11.7502 2.625 9.551 3.29213 7.68039 4.54203C5.80978 5.79193 4.35182 7.56847 3.49088 9.64698C2.62993 11.7255 2.40467 14.0126 2.84357 16.2192C3.28248 18.4257 4.36584 20.4525 5.95667 22.0433C7.54749 23.6342 9.57432 24.7175 11.7809 25.1564C13.9874 25.5953 16.2745 25.3701 18.353 24.5091C20.4315 23.6482 22.2081 22.1902 23.458 20.3196C24.7079 18.449 25.375 16.2498 25.375 14C25.3712 10.9843 24.1716 8.09323 22.0392 5.96082C19.9068 3.8284 17.0157 2.62876 14 2.625ZM9.1875 15.3125C8.92792 15.3125 8.67416 15.2355 8.45832 15.0913C8.24248 14.9471 8.07425 14.7421 7.97491 14.5023C7.87557 14.2624 7.84958 13.9985 7.90022 13.7439C7.95087 13.4893 8.07587 13.2555 8.25943 13.0719C8.44298 12.8884 8.67685 12.7634 8.93145 12.7127C9.18605 12.6621 9.44995 12.6881 9.68978 12.7874C9.92961 12.8867 10.1346 13.055 10.2788 13.2708C10.423 13.4867 10.5 13.7404 10.5 14C10.5 14.3481 10.3617 14.6819 10.1156 14.9281C9.86944 15.1742 9.5356 15.3125 9.1875 15.3125ZM14 15.3125C13.7404 15.3125 13.4867 15.2355 13.2708 15.0913C13.055 14.9471 12.8868 14.7421 12.7874 14.5023C12.6881 14.2624 12.6621 13.9985 12.7127 13.7439C12.7634 13.4893 12.8884 13.2555 13.0719 13.0719C13.2555 12.8884 13.4893 12.7634 13.7439 12.7127C13.9985 12.6621 14.2624 12.6881 14.5023 12.7874C14.7421 12.8867 14.9471 13.055 15.0913 13.2708C15.2355 13.4867 15.3125 13.7404 15.3125 14C15.3125 14.3481 15.1742 14.6819 14.9281 14.9281C14.6819 15.1742 14.3481 15.3125 14 15.3125ZM18.8125 15.3125C18.5529 15.3125 18.2992 15.2355 18.0833 15.0913C17.8675 14.9471 17.6993 14.7421 17.5999 14.5023C17.5006 14.2624 17.4746 13.9985 17.5252 13.7439C17.5759 13.4893 17.7009 13.2555 17.8844 13.0719C18.068 12.8884 18.3018 12.7634 18.5564 12.7127C18.8111 12.6621 19.0749 12.6881 19.3148 12.7874C19.5546 12.8867 19.7596 13.055 19.9038 13.2708C20.048 13.4867 20.125 13.7404 20.125 14C20.125 14.3481 19.9867 14.6819 19.7406 14.9281C19.4944 15.1742 19.1606 15.3125 18.8125 15.3125Z" fill="#5A42DE"/>
</svg>
