<svg width="28" height="28" viewBox="0 0 28 28" fill="none" xmlns="http://www.w3.org/2000/svg">
<path d="M24.0619 18.4949L13.9994 24.3628L3.93687 18.4949C3.73764 18.3957 3.50809 18.3761 3.29495 18.4402C3.08181 18.5043 2.9011 18.6472 2.7896 18.8398C2.6781 19.0324 2.64419 19.2603 2.69477 19.477C2.74535 19.6938 2.87663 19.8831 3.06187 20.0064L13.5619 26.1314C13.6957 26.2095 13.8478 26.2506 14.0026 26.2506C14.1575 26.2506 14.3096 26.2095 14.4434 26.1314L24.9434 20.0064C25.0443 19.9494 25.1328 19.8729 25.2038 19.7813C25.2749 19.6898 25.327 19.585 25.3573 19.4732C25.3875 19.3613 25.3952 19.2446 25.3799 19.1297C25.3647 19.0148 25.3268 18.9041 25.2684 18.8041C25.21 18.704 25.1324 18.6165 25.0399 18.5466C24.9474 18.4768 24.842 18.426 24.7298 18.3973C24.6175 18.3685 24.5007 18.3623 24.386 18.3791C24.2714 18.3958 24.1612 18.4352 24.0619 18.4949Z" fill="#5A42DE"/>
<path d="M24.0619 13.2449L13.9994 19.1128L3.93687 13.2449C3.73764 13.1457 3.50809 13.1261 3.29495 13.1902C3.08181 13.2543 2.9011 13.3972 2.7896 13.5898C2.6781 13.7824 2.64419 14.0103 2.69477 14.227C2.74535 14.4438 2.87663 14.6331 3.06187 14.7564L13.5619 20.8814C13.6957 20.9595 13.8478 21.0006 14.0026 21.0006C14.1575 21.0006 14.3096 20.9595 14.4434 20.8814L24.9434 14.7564C25.0443 14.6994 25.1328 14.6229 25.2038 14.5313C25.2749 14.4398 25.327 14.335 25.3573 14.2232C25.3875 14.1113 25.3952 13.9946 25.3799 13.8797C25.3647 13.7648 25.3268 13.6541 25.2684 13.5541C25.21 13.454 25.1324 13.3665 25.0399 13.2966C24.9474 13.2268 24.842 13.176 24.7298 13.1473C24.6175 13.1185 24.5007 13.1123 24.386 13.1291C24.2714 13.1458 24.1612 13.1852 24.0619 13.2449Z" fill="#5A42DE"/>
<path d="M3.06298 9.50576L13.563 15.6308C13.6968 15.7088 13.8489 15.7499 14.0038 15.7499C14.1586 15.7499 14.3107 15.7088 14.4445 15.6308L24.9445 9.50576C25.0766 9.4287 25.1862 9.31836 25.2624 9.18576C25.3385 9.05315 25.3786 8.9029 25.3786 8.74997C25.3786 8.59705 25.3385 8.4468 25.2624 8.31419C25.1862 8.18159 25.0766 8.07125 24.9445 7.99419L14.4445 1.86919C14.3107 1.79117 14.1586 1.75006 14.0038 1.75006C13.8489 1.75006 13.6968 1.79117 13.563 1.86919L3.06298 7.99419C2.93089 8.07125 2.8213 8.18159 2.74514 8.31419C2.66898 8.4468 2.62891 8.59705 2.62891 8.74997C2.62891 8.9029 2.66898 9.05315 2.74514 9.18576C2.8213 9.31836 2.93089 9.4287 3.06298 9.50576Z" fill="#5A42DE"/>
</svg>
