<svg width="201" height="200" viewBox="0 0 201 200" fill="none" xmlns="http://www.w3.org/2000/svg">
<path d="M100.5 170.936C138.259 170.936 168.869 158.928 168.869 144.115C168.869 129.303 138.259 117.295 100.5 117.295C62.7411 117.295 32.1315 129.303 32.1315 144.115C32.1315 158.928 62.7411 170.936 100.5 170.936Z" fill="#F7F7F8"/>
<path d="M106.019 61.0566L103.722 75.4529H88.7963L105.931 61.0566H106.019Z" fill="#D4D4D8"/>
<path d="M103.722 75.8703H88.7963C88.6204 75.8703 88.4648 75.761 88.4056 75.5962C88.3463 75.4314 88.3945 75.248 88.5296 75.1351L105.665 60.7388C105.741 60.6758 105.835 60.6406 105.933 60.6406H106.02C106.143 60.6406 106.257 60.6943 106.337 60.7869C106.417 60.8795 106.45 61.0017 106.431 61.1221L104.135 75.5184C104.102 75.7221 103.928 75.8703 103.722 75.8703ZM89.9408 75.0369H103.367L105.444 62.011L89.9408 75.0369Z" fill="#F7F7F8"/>
<path d="M152.465 65.9766L151.528 71.8469L141.3 135.975L145.796 136.858L155.337 77.0414L156.274 71.1692L152.465 65.9766Z" fill="#D4D4D8"/>
<path d="M145.796 137.274C145.77 137.274 145.743 137.272 145.717 137.266L141.22 136.383C141 136.34 140.854 136.129 140.889 135.909L152.054 65.909C152.08 65.7423 152.204 65.609 152.367 65.5701C152.53 65.5312 152.702 65.5923 152.8 65.7294L156.609 70.922C156.676 71.0109 156.702 71.1238 156.685 71.2331L146.209 136.922C146.191 137.033 146.13 137.133 146.037 137.198C145.965 137.248 145.881 137.274 145.796 137.274ZM141.776 135.642L145.454 136.365L155.835 71.2738L152.719 67.0257L141.776 135.642Z" fill="#F7F7F8"/>
<path d="M152.465 65.9746L151.528 71.8468L139.572 146.812L123.319 145.28L75.7481 142.028C75.7481 142.028 86.3204 86.9283 86.4056 86.1228L87.3222 80.3709H102.248L104.544 65.9746H152.465Z" fill="#F7F7F8"/>
<path d="M139.572 147.227C139.559 147.227 139.546 147.227 139.533 147.225L123.28 145.694L75.7204 142.442C75.6018 142.434 75.4907 142.375 75.4185 142.281C75.3463 142.186 75.3167 142.066 75.3389 141.947C78.9815 122.968 85.8926 86.8658 85.9907 86.0751C85.9907 86.0695 85.9926 86.0602 85.9926 86.0547L86.9093 80.3028C86.9407 80.101 87.1167 79.951 87.3204 79.951H101.891L104.13 65.9065C104.161 65.7047 104.337 65.5547 104.541 65.5547H152.461C152.583 65.5547 152.698 65.6084 152.778 65.701C152.857 65.7936 152.891 65.9158 152.872 66.0362L139.98 146.871C139.952 147.081 139.776 147.227 139.572 147.227ZM76.2463 141.644L123.348 144.864L139.222 146.36L151.976 66.3917H104.9L102.661 80.4362C102.63 80.638 102.454 80.788 102.25 80.788H87.6796L86.8185 86.1862C86.6222 87.5491 77.3296 135.994 76.2463 141.644Z" fill="#F7F7F8"/>
<path d="M99.6556 56.4609L97.3593 70.8554H82.4333L99.5685 56.4609H99.6556Z" fill="#D4D4D8"/>
<path d="M97.3593 71.2726H82.4333C82.2574 71.2726 82.1018 71.1633 82.0426 70.9985C81.9833 70.8337 82.0315 70.6504 82.1667 70.5374L99.3019 56.1411C99.3778 56.0782 99.4722 56.043 99.5704 56.043H99.6574C99.7796 56.043 99.8944 56.0967 99.9741 56.1893C100.054 56.2819 100.087 56.4041 100.069 56.5245L97.7722 70.9207C97.7389 71.1245 97.5648 71.2726 97.3593 71.2726ZM83.5778 70.4393H97.0037L99.0815 57.4133L83.5778 70.4393Z" fill="#F7F7F8"/>
<path d="M146.839 58.9199L145.902 64.7903L135.674 128.918L140.17 129.801L149.711 69.9847L150.648 64.1125L146.839 58.9199Z" fill="#D4D4D8"/>
<path d="M140.17 130.217C140.144 130.217 140.117 130.215 140.091 130.21L135.594 129.326C135.374 129.284 135.228 129.073 135.263 128.852L146.428 58.8524C146.454 58.6857 146.578 58.5524 146.741 58.5135C146.904 58.4746 147.076 58.5357 147.174 58.6727L150.983 63.8653C151.05 63.9542 151.076 64.0672 151.059 64.1783L140.583 129.867C140.565 129.978 140.504 130.078 140.411 130.143C140.339 130.191 140.256 130.217 140.17 130.217ZM136.15 128.586L139.828 129.308L150.209 64.2172L147.093 59.969L136.15 128.586Z" fill="#F7F7F8"/>
<path d="M146.839 58.918L145.902 64.7902L133.946 139.755L117.693 138.224L70.1222 134.972C70.1222 134.972 80.6945 79.8717 80.7796 79.0661L81.6963 73.3143H96.6222L98.9185 58.918H146.839Z" fill="#F7F7F8"/>
<path d="M133.946 140.17C133.933 140.17 133.92 140.17 133.907 140.168L117.654 138.637L70.0945 135.385C69.9759 135.378 69.8648 135.318 69.7926 135.224C69.7204 135.13 69.6907 135.009 69.713 134.891C73.3556 115.911 80.2667 79.8092 80.3648 79.0184C80.3648 79.0129 80.3667 79.0036 80.3667 78.998L81.2833 73.2462C81.3148 73.0443 81.4908 72.8943 81.6945 72.8943H96.2648L98.5056 58.8499C98.537 58.648 98.713 58.498 98.9167 58.498H146.837C146.959 58.498 147.074 58.5517 147.154 58.6443C147.233 58.7369 147.267 58.8592 147.248 58.9795L134.356 139.815C134.326 140.024 134.15 140.17 133.946 140.17ZM70.6204 134.587L117.722 137.807L133.596 139.304L146.35 59.3351H99.2741L97.0333 73.3795C97.0019 73.5814 96.8259 73.7314 96.6222 73.7314H82.0519L81.1908 79.1295C80.9963 80.4925 71.7037 128.937 70.6204 134.587Z" fill="#F7F7F8"/>
<path d="M93.2926 51.8633L90.9963 66.2577H76.0704L93.2056 51.8633H93.2926Z" fill="#D4D4D8"/>
<path d="M90.9963 66.6749H76.0704C75.8944 66.6749 75.7389 66.5657 75.6796 66.4009C75.6204 66.2361 75.6685 66.0527 75.8037 65.9398L92.9389 51.5435C93.0148 51.4805 93.1093 51.4453 93.2074 51.4453H93.2944C93.4167 51.4453 93.5315 51.499 93.6111 51.5916C93.6907 51.6842 93.7241 51.8064 93.7056 51.9268L91.4093 66.3231C91.3759 66.5268 91.2019 66.6749 90.9963 66.6749ZM77.2148 65.8416H90.6407L92.7185 52.8157L77.2148 65.8416Z" fill="#F7F7F8"/>
<path d="M141.213 51.8652L140.276 57.7356L130.048 121.863L134.546 122.747L144.085 62.9301L145.022 57.0578L141.213 51.8652Z" fill="#D4D4D8"/>
<path d="M134.546 123.162C134.52 123.162 134.493 123.161 134.467 123.155L129.97 122.272C129.75 122.229 129.604 122.018 129.639 121.798L140.804 51.7977C140.83 51.631 140.954 51.4977 141.117 51.4588C141.28 51.4199 141.452 51.481 141.55 51.6181L145.359 56.8106C145.426 56.8995 145.452 57.0125 145.435 57.1236L134.959 122.812C134.941 122.924 134.88 123.024 134.787 123.088C134.713 123.137 134.63 123.162 134.546 123.162ZM130.524 121.531L134.202 122.253L144.583 57.1625L141.467 52.9143L130.524 121.531Z" fill="#F7F7F8"/>
<path d="M141.213 51.8633L140.276 57.7355L128.32 132.7L112.067 131.169L64.4963 127.917C64.4963 127.917 75.0685 72.817 75.1537 72.0114L76.0704 66.2596H90.9963L93.2926 51.8633H141.213Z" fill="#F7F7F8"/>
<path d="M128.32 133.116C128.307 133.116 128.294 133.116 128.281 133.114L112.028 131.582L64.4685 128.33C64.35 128.323 64.2389 128.264 64.1667 128.169C64.0944 128.075 64.0648 127.954 64.087 127.836C67.7278 108.856 74.6407 72.7545 74.7389 71.9637C74.7389 71.9582 74.7407 71.9489 74.7407 71.9434L75.6574 66.1915C75.6889 65.9897 75.8648 65.8397 76.0685 65.8397H90.6389L92.8796 51.7952C92.9111 51.5934 93.087 51.4434 93.2907 51.4434H141.211C141.333 51.4434 141.448 51.4971 141.528 51.5897C141.607 51.6822 141.641 51.8045 141.622 51.9248L128.73 132.76C128.7 132.969 128.524 133.116 128.32 133.116ZM64.9944 127.532L112.096 130.753L127.97 132.249L140.724 52.2804H93.6482L91.4074 66.3248C91.3759 66.5267 91.2 66.6767 90.9963 66.6767H76.4259L75.5648 72.0748C75.3704 73.4434 66.0796 121.882 64.9944 127.532Z" fill="#F7F7F8"/>
<path d="M80.7148 72.2344L84.5241 77.427C85.0852 78.1918 85.3389 79.1862 85.1648 80.2751C84.9907 81.364 85.2444 82.3603 85.8056 83.1251L81.9963 77.9325C81.4352 77.1677 81.1815 76.1714 81.3556 75.0825C81.5296 73.9936 81.2759 72.9992 80.7148 72.2344Z" fill="#D4D4D8"/>
<path d="M85.8074 83.5413C85.6796 83.5413 85.5519 83.482 85.4704 83.3709L81.6611 78.1783C81.0148 77.2969 80.7593 76.1728 80.9444 75.0154C81.0926 74.082 80.8926 73.182 80.3796 72.482L80.3778 72.4802C80.2426 72.295 80.2815 72.0339 80.4667 71.8969C80.6519 71.7617 80.913 71.8006 81.05 71.9857C81.05 71.9876 81.0519 71.9876 81.0519 71.9876L84.8593 77.1783C85.5056 78.0598 85.7593 79.182 85.5759 80.3376C85.4278 81.2728 85.6278 82.1728 86.1389 82.8728L86.1407 82.8765C86.2759 83.0617 86.237 83.3228 86.0519 83.4598C85.9796 83.5154 85.8926 83.5413 85.8074 83.5413ZM81.8259 74.4524C81.8241 74.682 81.8056 74.9135 81.7685 75.1469C81.6185 76.082 81.8204 76.9839 82.3352 77.6857L84.6963 80.9061C84.6982 80.6765 84.7167 80.4432 84.7556 80.2098C84.9056 79.2746 84.7037 78.3746 84.1907 77.6746L81.8259 74.4524Z" fill="#F7F7F8"/>
<mask id="mask0_4667_190626" style="mask-type:luminance" maskUnits="userSpaceOnUse" x="80" y="72" width="6" height="12">
<mask id="mask1_4667_190626" style="mask-type:luminance" maskUnits="userSpaceOnUse" x="80" y="72" width="6" height="12">
<path d="M80.7148 72.2344L84.5241 77.427C85.0852 78.1918 85.3389 79.1862 85.1648 80.2751C84.9907 81.364 85.2444 82.3603 85.8056 83.1251L81.9963 77.9325C81.4352 77.1677 81.1815 76.1714 81.3556 75.0825C81.5296 73.9936 81.2759 72.9992 80.7148 72.2344Z" fill="white"/>
</mask>
<g mask="url(#mask1_4667_190626)">
<path d="M85.8074 83.5413C85.6796 83.5413 85.5519 83.482 85.4704 83.3709L81.6611 78.1783C81.0148 77.2969 80.7593 76.1728 80.9444 75.0154C81.0926 74.082 80.8926 73.182 80.3796 72.482L80.3778 72.4802C80.2426 72.295 80.2815 72.0339 80.4667 71.8969C80.6519 71.7617 80.913 71.8006 81.05 71.9857C81.05 71.9876 81.0519 71.9876 81.0519 71.9876L84.8593 77.1783C85.5056 78.0598 85.7593 79.182 85.5759 80.3376C85.4278 81.2728 85.6278 82.1728 86.1389 82.8728L86.1407 82.8765C86.2759 83.0617 86.237 83.3228 86.0519 83.4598C85.9796 83.5154 85.8926 83.5413 85.8074 83.5413ZM81.8259 74.4524C81.8241 74.682 81.8056 74.9135 81.7685 75.1469C81.6185 76.082 81.8204 76.9839 82.3352 77.6857L84.6963 80.9061C84.6982 80.6765 84.7167 80.4432 84.7556 80.2098C84.9056 79.2746 84.7037 78.3746 84.1907 77.6746L81.8259 74.4524Z" fill="white"/>
</g>
</mask>
<g mask="url(#mask0_4667_190626)">
<path d="M80.7148 72.2344L84.5241 77.427C84.5537 77.4677 84.5833 77.5103 84.613 77.5529L80.8037 72.3603C80.7759 72.3177 80.7463 72.2751 80.7148 72.2344Z" fill="#D4D4D8"/>
<path d="M84.613 77.97C84.4852 77.97 84.3574 77.9107 84.2759 77.7996L80.4667 72.607C80.4315 72.5552 80.4056 72.5181 80.3778 72.4811C80.2426 72.2959 80.2815 72.0348 80.4667 71.8996C80.6519 71.7626 80.913 71.8033 81.05 71.9885L84.8593 77.1811C84.8926 77.2274 84.9259 77.2737 84.9574 77.3218C85.0833 77.5107 85.0352 77.7644 84.85 77.8941C84.7796 77.9459 84.6963 77.97 84.613 77.97Z" fill="#F7F7F8"/>
<path d="M80.8037 72.3613L84.613 77.5539C84.687 77.665 84.7556 77.7817 84.8185 77.9021L81.0093 72.7095C80.9463 72.5891 80.8778 72.4724 80.8037 72.3613Z" fill="#D4D4D8"/>
<path d="M84.8185 78.3185C84.6907 78.3185 84.563 78.2593 84.4815 78.1482L80.6722 72.9556C80.6593 72.937 80.6481 72.9185 80.637 72.9C80.5833 72.7944 80.5222 72.6907 80.4556 72.5926C80.3296 72.4037 80.3778 72.15 80.563 72.0204C80.7482 71.8907 81.0037 71.9333 81.137 72.1148L84.9463 77.3074C85.0407 77.4463 85.1167 77.5778 85.1852 77.7111C85.2852 77.9037 85.2185 78.1407 85.0333 78.2556C84.9685 78.2982 84.8926 78.3185 84.8185 78.3185Z" fill="#F7F7F8"/>
<path d="M81.0093 72.709L84.8185 77.9016C84.887 78.0349 84.9463 78.172 84.9981 78.3145L81.1889 73.1219C81.137 72.9794 81.0759 72.8423 81.0093 72.709Z" fill="#D4D4D8"/>
<path d="M84.9981 78.7313C84.8685 78.7313 84.7426 78.672 84.6611 78.5609L80.8519 73.3683C80.8278 73.3368 80.8093 73.3017 80.7963 73.2646C80.7519 73.1405 80.6981 73.0183 80.637 72.8998C80.537 72.7072 80.6037 72.4702 80.7889 72.3554C80.9741 72.2405 81.2148 72.2887 81.3444 72.4628L85.1537 77.6554C85.1667 77.6739 85.1778 77.6924 85.1889 77.7109C85.2648 77.8591 85.3333 78.0146 85.3889 78.172C85.4593 78.3665 85.3759 78.5831 85.1926 78.6813C85.1315 78.7165 85.0648 78.7313 84.9981 78.7313Z" fill="#F7F7F8"/>
<path d="M81.1889 73.1211L84.9981 78.3137C85.0611 78.4878 85.1111 78.6674 85.1481 78.8526L81.3389 73.66C81.3019 73.4748 81.2519 73.2952 81.1889 73.1211Z" fill="#D4D4D8"/>
<path d="M85.1482 79.2712C85.0185 79.2712 84.8926 79.2101 84.8111 79.1009L81.0018 73.9083C80.9667 73.8583 80.9407 73.8027 80.9296 73.7416C80.8981 73.5786 80.8537 73.4175 80.7963 73.2638C80.7259 73.0694 80.8093 72.8527 80.9926 72.7546C81.1759 72.6564 81.4019 72.7083 81.5241 72.8749L85.3333 78.0675C85.3574 78.099 85.3759 78.1342 85.3889 78.1712C85.4593 78.3657 85.5148 78.5675 85.5556 78.7731C85.5926 78.9638 85.4926 79.1564 85.3148 79.2342C85.2611 79.2601 85.2037 79.2712 85.1482 79.2712Z" fill="#F7F7F8"/>
<path d="M81.3389 73.6602L85.1481 78.8527C85.2352 79.2972 85.2463 79.7768 85.1667 80.2731C85.087 80.7713 85.0963 81.249 85.1852 81.6935L81.3759 76.5009C81.2889 76.0565 81.2778 75.5787 81.3574 75.0805C81.4352 74.5842 81.4259 74.1065 81.3389 73.6602Z" fill="#D4D4D8"/>
<path d="M85.1833 82.1124C85.0537 82.1124 84.9278 82.0513 84.8463 81.9421L81.037 76.7495C81 76.6995 80.9759 76.6439 80.9648 76.5828C80.8667 76.0791 80.8593 75.5513 80.9444 75.0161C81.0148 74.5772 81.0093 74.1495 80.9296 73.7421C80.8926 73.5513 80.9926 73.3587 81.1704 73.2809C81.3482 73.2032 81.5574 73.2587 81.6741 73.4161L85.4833 78.6087C85.5185 78.6587 85.5444 78.7143 85.5556 78.7754C85.6556 79.2791 85.663 79.8069 85.5759 80.3421C85.5056 80.7809 85.5111 81.2087 85.5907 81.6161C85.6278 81.8069 85.5278 81.9995 85.35 82.0772C85.2963 82.1013 85.2407 82.1124 85.1833 82.1124ZM81.7667 76.3328L84.7296 80.3735C84.737 80.3198 84.7444 80.2643 84.7537 80.2087C84.8185 79.8032 84.8185 79.4032 84.7537 79.0235L81.7907 74.9828C81.7833 75.0365 81.7759 75.0921 81.7667 75.1458C81.7037 75.5532 81.7037 75.9513 81.7667 76.3328Z" fill="#F7F7F8"/>
<path d="M81.3741 76.502L85.1833 81.6945C85.2204 81.8797 85.2704 82.0612 85.3333 82.2353L81.5241 77.0427C81.4611 76.8686 81.4111 76.689 81.3741 76.502Z" fill="#D4D4D8"/>
<path d="M85.3333 82.6542C85.2037 82.6542 85.0778 82.595 84.9963 82.4839L81.187 77.2913C81.163 77.2598 81.1444 77.2246 81.1315 77.1857C81.0611 76.9913 81.0056 76.7894 80.9648 76.5839C80.9278 76.3931 81.0278 76.2005 81.2056 76.1227C81.3852 76.045 81.5926 76.1005 81.7093 76.2579L85.5185 81.4505C85.5556 81.5005 85.5796 81.5561 85.5907 81.6172C85.6222 81.7802 85.6667 81.9413 85.7241 82.0968C85.7944 82.2913 85.7111 82.5079 85.5278 82.6061C85.4667 82.6376 85.4 82.6542 85.3333 82.6542Z" fill="#F7F7F8"/>
<path d="M81.5241 77.041L85.3333 82.2336C85.3852 82.3762 85.4444 82.5151 85.513 82.6466L81.7037 77.454C81.6352 77.3225 81.5759 77.1836 81.5241 77.041Z" fill="#D4D4D8"/>
<path d="M85.513 83.0653C85.3852 83.0653 85.2574 83.0061 85.1759 82.8949L81.3667 77.7024C81.3537 77.6838 81.3426 77.6653 81.3315 77.6468C81.2556 77.4987 81.187 77.3431 81.1315 77.1857C81.0611 76.9912 81.1444 76.7746 81.3278 76.6764C81.5111 76.5783 81.737 76.6301 81.8593 76.7968L85.6685 81.9894C85.6926 82.0209 85.7111 82.0561 85.7241 82.0949C85.7685 82.219 85.8222 82.3431 85.8833 82.4598C85.9833 82.6524 85.9167 82.8894 85.7315 83.0042C85.6648 83.0449 85.5889 83.0653 85.513 83.0653Z" fill="#F7F7F8"/>
<path d="M81.7037 77.457L85.513 82.6496C85.5741 82.77 85.6426 82.8867 85.7185 82.9978L81.9093 77.8052C81.8333 77.6922 81.7667 77.5774 81.7037 77.457Z" fill="#D4D4D8"/>
<path d="M85.7185 83.4144C85.5907 83.4144 85.463 83.3552 85.3815 83.2441L81.5722 78.0515C81.4778 77.9126 81.4019 77.7811 81.3333 77.6459C81.2333 77.4533 81.3 77.2163 81.4852 77.1015C81.6704 76.9866 81.9111 77.0348 82.0407 77.2089L85.85 82.4015C85.863 82.42 85.8741 82.4385 85.8852 82.457C85.9389 82.5626 86 82.6663 86.0667 82.7644C86.1926 82.9533 86.1444 83.207 85.9593 83.3366C85.8833 83.3904 85.8 83.4144 85.7185 83.4144Z" fill="#F7F7F8"/>
<path d="M81.9093 77.8047L85.7185 82.9973C85.7481 83.0399 85.7778 83.0825 85.8074 83.1251L81.9981 77.9325C81.9667 77.8899 81.937 77.8473 81.9093 77.8047Z" fill="#D4D4D8"/>
<path d="M85.8074 83.5414C85.6796 83.5414 85.5537 83.4821 85.4722 83.371V83.3692C85.4722 83.3673 85.4704 83.3673 85.4704 83.3655L81.6648 78.1766C81.6315 78.1303 81.5981 78.0821 81.5648 78.034C81.4389 77.8451 81.487 77.5914 81.6722 77.4618C81.8574 77.3322 82.113 77.3747 82.2463 77.5562L86.0556 82.7488C86.0907 82.8007 86.1148 82.8359 86.1407 82.871L86.1426 82.8747C86.2778 83.0599 86.2389 83.321 86.0537 83.4562C85.9796 83.5155 85.8926 83.5414 85.8074 83.5414Z" fill="#F7F7F8"/>
</g>
<path d="M88.9963 85.0597C87.5426 85.0597 86.2574 84.4449 85.4704 83.3708L81.6611 78.1783C81.5259 77.9931 81.5648 77.732 81.75 77.5949C81.9352 77.4579 82.1963 77.4986 82.3333 77.6838L82.3352 77.6857C82.963 78.5412 84.0019 79.032 85.187 79.032C85.3204 79.032 85.4445 79.0949 85.5222 79.2023L89.3315 84.3949C89.4241 84.5208 89.4389 84.6894 89.3667 84.8301C89.2963 84.9708 89.1537 85.0597 88.9963 85.0597ZM83.7833 79.6616L86.1426 82.8783C86.6074 83.5116 87.2945 83.9449 88.1019 84.1283L84.9722 79.8616C84.5574 79.8431 84.1593 79.7764 83.7833 79.6616Z" fill="#F7F7F8"/>
<mask id="mask2_4667_190626" style="mask-type:luminance" maskUnits="userSpaceOnUse" x="81" y="77" width="9" height="9">
<path d="M88.9963 85.0597C87.5426 85.0597 86.2574 84.4449 85.4704 83.3708L81.6611 78.1783C81.5259 77.9931 81.5648 77.732 81.75 77.5949C81.9352 77.4579 82.1963 77.4986 82.3333 77.6838L82.3352 77.6857C82.963 78.5412 84.0019 79.032 85.187 79.032C85.3204 79.032 85.4445 79.0949 85.5222 79.2023L89.3315 84.3949C89.4241 84.5208 89.4389 84.6894 89.3667 84.8301C89.2963 84.9708 89.1537 85.0597 88.9963 85.0597ZM83.7833 79.6616L86.1426 82.8783C86.6074 83.5116 87.2945 83.9449 88.1019 84.1283L84.9722 79.8616C84.5574 79.8431 84.1593 79.7764 83.7833 79.6616Z" fill="white"/>
</mask>
<g mask="url(#mask2_4667_190626)">
<path d="M85.187 79.4482L88.9963 84.6408C87.6241 84.6408 86.4889 84.0519 85.8074 83.1223L81.9982 77.9297C82.6796 78.8612 83.8148 79.4482 85.187 79.4482Z" fill="#D4D4D8"/>
<path d="M88.9963 85.0597C87.5426 85.0597 86.2574 84.4449 85.4704 83.3708L81.6611 78.1783C81.5259 77.9931 81.5648 77.732 81.75 77.5949C81.9352 77.4579 82.1963 77.4986 82.3333 77.6838L82.3352 77.6857C82.963 78.5412 84.0019 79.032 85.187 79.032C85.3204 79.032 85.4445 79.0949 85.5222 79.2023L89.3315 84.3949C89.4241 84.5208 89.4389 84.6894 89.3667 84.8301C89.2963 84.9708 89.1537 85.0597 88.9963 85.0597ZM83.7833 79.6616L86.1426 82.8783C86.6074 83.5116 87.2945 83.9449 88.1019 84.1283L84.9722 79.8616C84.5574 79.8431 84.1593 79.7764 83.7833 79.6616Z" fill="#F7F7F8"/>
</g>
<path d="M121.172 79.4473L124.981 84.6417H88.9963L85.187 79.4473H121.172Z" fill="#D4D4D8"/>
<path d="M124.981 85.0591H88.9963C88.863 85.0591 88.7389 84.9962 88.6611 84.8888L84.8519 79.6962C84.7593 79.5702 84.7445 79.4017 84.8167 79.261C84.887 79.1202 85.0315 79.0332 85.1889 79.0332H121.174C121.307 79.0332 121.431 79.0962 121.509 79.2036L125.319 84.3962C125.411 84.5221 125.426 84.6906 125.354 84.8313C125.281 84.9702 125.139 85.0591 124.981 85.0591ZM89.2074 84.2258H124.159L120.961 79.8665H86.0093L89.2074 84.2258Z" fill="#F7F7F8"/>
<path d="M128.172 86.5777C128.044 86.5777 127.917 86.5184 127.835 86.4073C127.207 85.5499 126.167 85.0591 124.981 85.0591C124.848 85.0591 124.724 84.9962 124.646 84.8888L120.837 79.6962C120.744 79.5702 120.73 79.4017 120.802 79.261C120.872 79.1202 121.017 79.0332 121.174 79.0332C122.628 79.0332 123.913 79.648 124.7 80.7221L128.509 85.9147C128.644 86.0999 128.606 86.361 128.42 86.498C128.343 86.5517 128.257 86.5777 128.172 86.5777ZM125.196 84.2314C125.611 84.248 126.009 84.3165 126.385 84.4314L124.026 81.2147C123.561 80.5814 122.872 80.148 122.067 79.9647L125.196 84.2314Z" fill="#F7F7F8"/>
<mask id="mask3_4667_190626" style="mask-type:luminance" maskUnits="userSpaceOnUse" x="120" y="79" width="9" height="8">
<path d="M128.172 86.5777C128.044 86.5777 127.917 86.5184 127.835 86.4073C127.207 85.5499 126.167 85.0591 124.981 85.0591C124.848 85.0591 124.724 84.9962 124.646 84.8888L120.837 79.6962C120.744 79.5702 120.73 79.4017 120.802 79.261C120.872 79.1202 121.017 79.0332 121.174 79.0332C122.628 79.0332 123.913 79.648 124.7 80.7221L128.509 85.9147C128.644 86.0999 128.606 86.361 128.42 86.498C128.343 86.5517 128.257 86.5777 128.172 86.5777ZM125.196 84.2314C125.611 84.248 126.009 84.3165 126.385 84.4314L124.026 81.2147C123.561 80.5814 122.872 80.148 122.067 79.9647L125.196 84.2314Z" fill="white"/>
</mask>
<g mask="url(#mask3_4667_190626)">
<path d="M124.361 80.9677L128.17 86.1603C127.489 85.2307 126.354 84.6418 124.981 84.6418L121.172 79.4492C122.544 79.4492 123.68 80.0381 124.361 80.9677Z" fill="#D4D4D8"/>
<path d="M128.172 86.5777C128.044 86.5777 127.917 86.5184 127.835 86.4073C127.207 85.5499 126.167 85.0591 124.981 85.0591C124.848 85.0591 124.724 84.9962 124.646 84.8888L120.837 79.6962C120.744 79.5702 120.73 79.4017 120.802 79.261C120.872 79.1202 121.017 79.0332 121.174 79.0332C122.628 79.0332 123.913 79.648 124.7 80.7221L128.509 85.9147C128.644 86.0999 128.606 86.361 128.42 86.498C128.343 86.5517 128.257 86.5777 128.172 86.5777ZM125.196 84.2314C125.611 84.248 126.009 84.3165 126.385 84.4314L124.026 81.2147C123.561 80.5814 122.872 80.148 122.067 79.9647L125.196 84.2314Z" fill="#F7F7F8"/>
</g>
<path d="M104.759 104.844L102.733 117.553H65.0241L67.0519 104.844H104.759Z" fill="#F7F7F8"/>
<path d="M128.859 88.4966C128.863 88.4133 128.865 88.3281 128.863 88.2448C128.861 88.1948 128.857 88.1485 128.854 88.0985C128.85 88.0244 128.844 87.9503 128.835 87.8781C128.83 87.8281 128.82 87.7781 128.813 87.7281C128.806 87.6818 128.802 87.6355 128.793 87.5911C128.787 87.5651 128.78 87.5392 128.774 87.5133C128.767 87.4781 128.757 87.4429 128.75 87.4096C128.73 87.33 128.707 87.2503 128.683 87.1744C128.674 87.1448 128.665 87.117 128.656 87.0874C128.652 87.0763 128.648 87.0633 128.644 87.0522C128.635 87.0244 128.62 87.0003 128.609 86.9726C128.572 86.8781 128.533 86.7855 128.489 86.6966C128.48 86.6781 128.474 86.6577 128.463 86.6392C128.45 86.6133 128.433 86.5892 128.419 86.5633C128.381 86.4966 128.343 86.43 128.302 86.3651C128.287 86.3411 128.274 86.3151 128.257 86.2911C128.23 86.2485 128.2 86.2059 128.169 86.1633L124.359 80.9707C124.407 81.0355 124.45 81.104 124.493 81.1726C124.533 81.2374 124.572 81.3022 124.609 81.3707C124.633 81.4151 124.657 81.4596 124.68 81.504C124.724 81.5929 124.763 81.6855 124.8 81.78C124.815 81.8189 124.831 81.8559 124.846 81.8948C124.856 81.9226 124.865 81.9522 124.874 81.9818C124.898 82.0596 124.922 82.1374 124.941 82.217C124.95 82.2522 124.957 82.2855 124.965 82.3207C124.98 82.3911 124.993 82.4633 125.004 82.5355C125.011 82.5855 125.02 82.6355 125.026 82.6855C125.035 82.7577 125.039 82.8318 125.044 82.9059C125.048 82.954 125.052 83.0022 125.054 83.0522C125.056 83.1355 125.052 83.2188 125.05 83.304C125.048 83.3466 125.05 83.3874 125.046 83.43C125.037 83.5577 125.024 83.6855 125.004 83.817L117.452 131.169L121.261 136.361L128.813 89.0096C128.833 88.88 128.848 88.7503 128.856 88.6226C128.859 88.58 128.857 88.5392 128.859 88.4966Z" fill="#D4D4D8"/>
<path d="M121.259 136.779C121.128 136.779 121.004 136.718 120.924 136.609L117.115 131.416C117.048 131.328 117.022 131.215 117.039 131.103L124.591 83.7516C124.609 83.6386 124.622 83.5238 124.63 83.4016C124.631 83.3831 124.631 83.3646 124.631 83.346L124.633 83.2886C124.637 83.2127 124.639 83.1368 124.637 83.0627C124.637 83.0349 124.635 83.009 124.633 82.9812L124.63 82.9331C124.626 82.8664 124.622 82.7997 124.615 82.7349C124.611 82.7016 124.606 82.6683 124.6 82.6349L124.594 82.5997C124.585 82.5368 124.574 82.472 124.559 82.409C124.552 82.3794 124.544 82.3479 124.537 82.3183C124.519 82.246 124.5 82.1775 124.478 82.109L124.454 82.0312C124.448 82.0164 124.441 81.9997 124.435 81.9831L124.413 81.9294C124.378 81.8368 124.343 81.7572 124.307 81.6849C124.287 81.6442 124.267 81.6053 124.246 81.5664C124.215 81.5072 124.18 81.4497 124.144 81.3923L124.124 81.3609C124.093 81.3109 124.061 81.2609 124.028 81.2146C123.893 81.0294 123.932 80.7683 124.117 80.6312C124.302 80.496 124.563 80.5349 124.7 80.7201L128.509 85.9127C128.544 85.959 128.576 86.0072 128.609 86.0553C128.624 86.0775 128.637 86.1016 128.65 86.1238C128.704 86.209 128.746 86.2831 128.787 86.359C128.811 86.3979 128.824 86.4201 128.837 86.446C128.846 86.4646 128.856 86.4868 128.865 86.509C128.909 86.6016 128.954 86.7034 128.998 86.8164C129.015 86.8534 129.028 86.8794 129.037 86.9053C129.043 86.9201 129.046 86.9331 129.05 86.946C129.057 86.9701 129.065 86.9923 129.072 87.0164L129.08 87.0423C129.107 87.1275 129.133 87.2164 129.156 87.3053C129.165 87.3442 129.174 87.3812 129.183 87.422L129.189 87.4442C129.194 87.4646 129.2 87.4868 129.204 87.5072C129.211 87.5442 129.217 87.5812 129.22 87.6164L129.231 87.6905C129.239 87.7349 129.246 87.7794 129.252 87.8257C129.261 87.9072 129.267 87.9886 129.272 88.072L129.276 88.1164C129.28 88.1553 129.281 88.1942 129.281 88.2331C129.283 88.3257 129.281 88.4183 129.278 88.509V88.5479C129.278 88.5812 129.276 88.6146 129.274 88.6497C129.265 88.7942 129.248 88.9368 129.226 89.072L121.674 136.424C121.648 136.59 121.524 136.724 121.361 136.763C121.326 136.774 121.293 136.779 121.259 136.779ZM117.889 131.063L121.006 135.311L128.4 88.9442C128.419 88.8331 128.431 88.7146 128.439 88.5942C128.441 88.5738 128.441 88.5572 128.441 88.5386L128.443 88.4812C128.443 88.4812 128.443 88.4812 128.443 88.4794C128.446 88.4034 128.448 88.3275 128.446 88.2534C128.446 88.2275 128.444 88.2016 128.443 88.1757L128.439 88.122C128.435 88.0553 128.431 87.9886 128.424 87.9238C128.42 87.8905 128.415 87.8572 128.409 87.8238L128.394 87.7294C128.393 87.709 128.389 87.6886 128.385 87.6683L128.369 87.5997C128.361 87.5701 128.354 87.5386 128.346 87.509C128.328 87.4368 128.309 87.3683 128.287 87.2997L128.263 87.2238C128.261 87.2183 128.254 87.196 128.252 87.1905C128.239 87.1646 128.23 87.1442 128.222 87.122C128.187 87.0294 128.152 86.9497 128.117 86.8775C128.107 86.859 128.1 86.8405 128.093 86.8238C128.076 86.796 128.065 86.7794 128.056 86.7609C128.024 86.7016 127.989 86.6442 127.954 86.5868C127.943 86.5683 127.931 86.5516 127.922 86.5331C127.891 86.4831 127.865 86.446 127.837 86.409L125.472 83.1849C125.47 83.2294 125.47 83.2738 125.469 83.3183V83.359C125.469 83.3923 125.467 83.4257 125.465 83.459C125.456 83.6072 125.439 83.746 125.417 83.8831L117.889 131.063Z" fill="#F7F7F8"/>
<path d="M149.963 111.197L144.9 142.945H115.572L117.452 131.168L120.635 111.197H137.133H140.867H144.596H149.963Z" fill="#D4D4D8"/>
<path d="M144.9 143.363H115.572C115.45 143.363 115.335 143.309 115.256 143.216C115.176 143.124 115.143 143.002 115.161 142.881L120.224 111.133C120.256 110.931 120.431 110.781 120.635 110.781H149.963C150.085 110.781 150.2 110.835 150.28 110.928C150.359 111.02 150.393 111.142 150.374 111.263L145.311 143.011C145.28 143.215 145.106 143.363 144.9 143.363ZM116.061 142.529H144.544L149.474 111.615H120.991L116.061 142.529Z" fill="#F7F7F8"/>
<path d="M121.172 79.4481C123.672 79.4481 125.387 81.4018 125.004 83.8147L117.452 131.167L115.574 142.944H48.613C46.113 142.944 44.3963 140.991 44.7796 138.578L54.2093 79.4481L54.9056 75.0796C55.2907 72.6684 57.6296 70.7129 60.1315 70.7129H77.5222C78.7815 70.7129 79.8426 71.2073 80.5352 72.0073C81.2185 72.7962 81.5463 73.8814 81.3556 75.0777C80.9704 77.4907 82.6852 79.4462 85.1852 79.4462H121.172V79.4481ZM102.733 117.552L104.759 104.843H67.0519L65.0241 117.552H102.733Z" fill="#D4D4D8"/>
<path d="M115.572 143.362H48.613C47.2593 143.362 46.0704 142.841 45.2648 141.899C44.4852 140.984 44.1667 139.782 44.3685 138.514L54.4963 75.0155C54.9111 72.4136 57.4407 70.2988 60.1333 70.2988H77.5241C78.8667 70.2988 80.0481 70.8099 80.8518 71.7377C81.6463 72.6544 81.9722 73.8655 81.7685 75.147C81.6056 76.1729 81.8556 77.1377 82.4759 77.8636C83.1185 78.6173 84.0815 79.0322 85.187 79.0322H121.172C122.526 79.0322 123.715 79.5507 124.519 80.4933C125.298 81.4081 125.617 82.6099 125.415 83.8803L115.985 143.01C115.952 143.214 115.778 143.362 115.572 143.362ZM60.1333 71.1322C57.8315 71.1322 55.6722 72.934 55.3185 75.147L45.1907 138.645C45.0278 139.669 45.2778 140.632 45.8981 141.358C46.5426 142.114 47.5056 142.528 48.613 142.528H115.217L124.591 83.7507C124.754 82.7266 124.504 81.7618 123.883 81.0359C123.241 80.2822 122.276 79.8673 121.17 79.8673H85.187C83.8333 79.8673 82.6463 79.3488 81.8407 78.4062C81.0611 77.4914 80.7426 76.2877 80.9444 75.0173C81.1093 73.9822 80.8519 73.0118 80.2222 72.284C79.5778 71.5414 78.6204 71.1322 77.5241 71.1322H60.1333ZM102.733 117.969H65.0241C64.9018 117.969 64.787 117.915 64.7074 117.823C64.6278 117.73 64.5944 117.608 64.613 117.488L66.6407 104.778C66.6722 104.577 66.8481 104.427 67.0519 104.427H104.759C104.881 104.427 104.996 104.48 105.076 104.573C105.156 104.665 105.189 104.788 105.17 104.908L103.143 117.617C103.111 117.819 102.937 117.969 102.733 117.969ZM65.513 117.136H102.378L104.272 105.26H67.4074L65.513 117.136Z" fill="#F7F7F8"/>
<path d="M149.963 111.197L153.772 116.39L148.709 148.138L144.9 142.945L149.963 111.197Z" fill="#D4D4D8"/>
<path d="M148.709 148.554C148.578 148.554 148.454 148.493 148.374 148.383L144.565 143.191C144.498 143.102 144.472 142.989 144.489 142.878L149.552 111.13C149.578 110.963 149.702 110.83 149.865 110.791C150.028 110.752 150.2 110.813 150.298 110.95L154.107 116.143C154.174 116.232 154.2 116.345 154.183 116.456L149.12 148.204C149.094 148.37 148.97 148.504 148.807 148.543C148.774 148.55 148.743 148.554 148.709 148.554ZM145.339 142.839L148.456 147.087L153.335 116.496L150.219 112.248L145.339 142.839Z" fill="#F7F7F8"/>
<path d="M148.709 148.139L144.9 142.946H115.572H48.613C47.2407 142.946 46.1037 142.357 45.4222 141.428L49.2315 146.62C49.9148 147.55 51.05 148.139 52.4241 148.139H119.383H148.709Z" fill="#D4D4D8"/>
<path d="M148.709 148.555H52.4222C50.9685 148.555 49.6815 147.938 48.8944 146.866L45.0852 141.674C44.95 141.488 44.9889 141.227 45.1741 141.09C45.3593 140.955 45.6204 140.994 45.7574 141.179C46.387 142.037 47.4278 142.529 48.613 142.529H144.9C145.033 142.529 145.157 142.592 145.235 142.699L149.044 147.892C149.137 148.018 149.152 148.187 149.08 148.327C149.011 148.468 148.867 148.555 148.709 148.555ZM47.2074 143.157L49.5667 146.374C50.1963 147.231 51.237 147.724 52.4222 147.724H147.887L144.689 143.364H48.613C48.1204 143.362 47.6482 143.292 47.2074 143.157Z" fill="#F7F7F8"/>
<path d="M159.03 88.9154C160.551 88.9154 161.785 87.6817 161.785 86.1599C161.785 84.638 160.551 83.4043 159.03 83.4043C157.508 83.4043 156.274 84.638 156.274 86.1599C156.274 87.6817 157.508 88.9154 159.03 88.9154Z" fill="#D4D4D8"/>
<path d="M46.4444 98.6615C47.9663 98.6615 49.2 97.4278 49.2 95.9059C49.2 94.3841 47.9663 93.1504 46.4444 93.1504C44.9226 93.1504 43.6889 94.3841 43.6889 95.9059C43.6889 97.4278 44.9226 98.6615 46.4444 98.6615Z" fill="#D4D4D8"/>
<path d="M47.8241 100.89C48.36 100.89 48.7944 100.456 48.7944 99.9196C48.7944 99.3837 48.36 98.9492 47.8241 98.9492C47.2882 98.9492 46.8537 99.3837 46.8537 99.9196C46.8537 100.456 47.2882 100.89 47.8241 100.89Z" fill="#D4D4D8"/>
<path d="M70.1222 65.7998C72.7405 65.7998 74.863 63.6773 74.863 61.0591C74.863 58.4409 72.7405 56.3184 70.1222 56.3184C67.504 56.3184 65.3815 58.4409 65.3815 61.0591C65.3815 63.6773 67.504 65.7998 70.1222 65.7998Z" fill="#D4D4D8"/>
<path d="M65.3833 58.7199C66.6301 58.7199 67.6407 57.7092 67.6407 56.4625C67.6407 55.2158 66.6301 54.2051 65.3833 54.2051C64.1366 54.2051 63.1259 55.2158 63.1259 56.4625C63.1259 57.7092 64.1366 58.7199 65.3833 58.7199Z" fill="#D4D4D8"/>
<path d="M141.846 42.5488C148.435 42.5488 152.952 47.697 151.939 54.0525C150.926 60.4044 144.767 65.5544 138.178 65.5544C131.591 65.5544 127.074 60.4062 128.087 54.0525C129.1 47.697 135.259 42.5488 141.846 42.5488ZM142.485 47.1562C142.667 46.3933 142.128 45.7359 141.346 45.7359C141.311 45.7359 141.276 45.7377 141.241 45.7396C140.476 45.7896 139.802 46.4248 139.735 47.1562L138.724 58.671C138.702 58.9322 138.881 59.1451 139.156 59.1636C139.169 59.1655 139.183 59.1655 139.196 59.1655C139.483 59.1655 139.757 58.9507 139.822 58.671L142.485 47.1562ZM138.685 62.3655C139.389 62.3655 140.044 61.8173 140.154 61.1377C140.261 60.4618 139.78 59.9099 139.078 59.9099C138.376 59.9099 137.717 60.4599 137.609 61.1377C137.5 61.8173 137.983 62.3655 138.685 62.3655Z" fill="#D4D4D8"/>
<path d="M138.178 65.9698C134.815 65.9698 131.869 64.6865 129.881 62.3587C127.957 60.1032 127.174 57.131 127.676 53.9865C128.719 47.4495 135.076 42.1328 141.846 42.1328C145.209 42.1328 148.157 43.4161 150.144 45.7458C152.069 48.0013 152.852 50.9754 152.35 54.1198C151.307 60.6532 144.95 65.9698 138.178 65.9698ZM141.846 42.9661C135.467 42.9661 129.48 47.9698 128.498 54.118C128.035 57.0161 128.752 59.7513 130.515 61.818C132.341 63.9587 135.063 65.1365 138.178 65.1365C144.557 65.1365 150.546 60.1347 151.528 53.9865C151.991 51.0865 151.274 48.3513 149.511 46.2847C147.683 44.1439 144.961 42.9661 141.846 42.9661ZM138.685 62.7828C138.222 62.7828 137.796 62.5939 137.517 62.2661C137.239 61.9421 137.126 61.518 137.196 61.0735C137.324 60.268 138.02 59.6217 138.831 59.5124C138.709 59.4606 138.6 59.3828 138.513 59.281C138.361 59.105 138.291 58.8754 138.311 58.6384L139.322 47.1236C139.406 46.1791 140.237 45.3902 141.215 45.3273C141.257 45.3236 141.302 45.3217 141.346 45.3217C141.852 45.3217 142.313 45.5365 142.609 45.9124C142.902 46.2828 143.004 46.7717 142.889 47.2532L140.23 58.768C140.144 59.1421 139.841 59.4421 139.478 59.5458C139.78 59.6217 140.048 59.7828 140.244 60.0124C140.522 60.3384 140.635 60.7606 140.565 61.205C140.424 62.0902 139.598 62.7828 138.685 62.7828ZM139.076 60.3273C138.58 60.3273 138.094 60.7291 138.019 61.2032C137.987 61.4032 138.033 61.5884 138.15 61.7235C138.274 61.868 138.463 61.9476 138.685 61.9476C139.181 61.9476 139.667 61.5458 139.743 61.0717C139.774 60.8717 139.728 60.6865 139.611 60.5495C139.487 60.4069 139.298 60.3273 139.076 60.3273ZM141.346 46.1532C141.322 46.1532 141.296 46.155 141.272 46.1569C140.709 46.1939 140.198 46.6698 140.152 47.1958L139.141 58.7106C139.139 58.7236 139.141 58.7347 139.144 58.7384C139.148 58.7439 139.163 58.7495 139.185 58.7513C139.185 58.7513 139.185 58.7513 139.187 58.7513C139.294 58.7513 139.398 58.6698 139.419 58.581L142.078 47.0661V47.0643C142.133 46.8273 142.091 46.6032 141.956 46.431C141.817 46.2495 141.6 46.1532 141.346 46.1532Z" fill="#F7F7F8"/>
<path d="M141.346 45.7363C142.128 45.7363 142.665 46.3937 142.485 47.1567L139.826 58.6715C139.761 58.9511 139.487 59.166 139.2 59.166C139.187 59.166 139.172 59.166 139.159 59.1641C138.885 59.1456 138.704 58.9326 138.728 58.6715L139.739 47.1567C139.804 46.4234 140.478 45.79 141.244 45.74C141.278 45.7363 141.313 45.7363 141.346 45.7363Z" fill="#F7F7F8"/>
<path d="M139.2 59.5833C139.176 59.5833 139.152 59.5833 139.128 59.5814C138.885 59.5648 138.665 59.4592 138.513 59.2796C138.361 59.1036 138.291 58.874 138.311 58.637L139.322 47.1222C139.406 46.1777 140.237 45.3888 141.215 45.3259C141.257 45.3222 141.302 45.3203 141.346 45.3203C141.852 45.3203 142.313 45.5351 142.609 45.9111C142.902 46.2814 143.004 46.7703 142.889 47.2536L140.23 58.7666C140.124 59.2314 139.68 59.5833 139.2 59.5833ZM141.346 46.1536C141.322 46.1536 141.296 46.1555 141.272 46.1574C140.709 46.1944 140.198 46.6703 140.152 47.1962L139.141 58.7111C139.139 58.724 139.141 58.7351 139.144 58.7388C139.148 58.7444 139.163 58.7499 139.185 58.7518C139.185 58.7518 139.185 58.7518 139.187 58.7518C139.294 58.7518 139.398 58.6703 139.419 58.5814L142.078 47.0666C142.135 46.8277 142.091 46.6018 141.956 46.4314C141.817 46.2499 141.6 46.1536 141.346 46.1536Z" fill="#F7F7F8"/>
<path d="M139.076 59.9102C139.78 59.9102 140.261 60.4602 140.152 61.1379C140.044 61.8157 139.387 62.3657 138.683 62.3657C137.981 62.3657 137.498 61.8176 137.607 61.1379C137.717 60.462 138.376 59.9102 139.076 59.9102Z" fill="#F7F7F8"/>
<path d="M138.685 62.7831C138.222 62.7831 137.796 62.5942 137.517 62.2665C137.239 61.9424 137.126 61.5183 137.196 61.0739C137.337 60.1887 138.163 59.4961 139.076 59.4961C139.539 59.4961 139.965 59.685 140.244 60.0128C140.522 60.3387 140.635 60.7609 140.565 61.2072C140.424 62.0905 139.598 62.7831 138.685 62.7831ZM139.076 60.3276C138.58 60.3276 138.094 60.7294 138.019 61.2035C137.987 61.4035 138.033 61.5887 138.15 61.7239C138.274 61.8683 138.463 61.9479 138.685 61.9479C139.181 61.9479 139.667 61.5461 139.743 61.072C139.774 60.872 139.728 60.6868 139.611 60.5498C139.487 60.4072 139.298 60.3276 139.076 60.3276Z" fill="#F7F7F8"/>
</svg>
