<svg width="201" height="200" viewBox="0 0 201 200" fill="none" xmlns="http://www.w3.org/2000/svg">
<rect x="0.5" width="200" height="200" rx="10" fill="white"/>
<path d="M9.875 8.75V17.4895V26.229V34.9685V43.708V52.4475V61.187V69.9265H18.6145H27.354H36.0935H44.833H53.5725H62.312H71.0515V61.187V52.4475V43.708V34.9685V26.229V17.4895V8.75H62.312H53.5725H44.833H36.0935H27.354H18.6145H9.875ZM79.791 8.75V17.4895V26.229H88.5305V17.4895H97.27V8.75H88.5305H79.791ZM97.27 17.4895V26.229H106.009V17.4895H97.27ZM106.009 26.229V34.9685H114.749H123.488V26.229V17.4895V8.75H114.749V17.4895V26.229H106.009ZM106.009 34.9685H97.27H88.5305H79.791V43.708H88.5305H97.27V52.4475H88.5305V61.187H97.27V69.9265H106.009V61.187H114.749V69.9265H106.009V78.666H97.27V87.4055H106.009H114.749V96.145H123.488V87.4055V78.666V69.9265V61.187V52.4475H114.749V43.708H106.009V34.9685ZM114.749 96.145H106.009V104.884H97.27V113.624V122.363H106.009V131.103V139.842H97.27H88.5305V131.103H97.27V122.363H88.5305V113.624V104.884H79.791V96.145H88.5305V104.884H97.27V96.145V87.4055H88.5305H79.791V78.666H71.0515H62.312H53.5725V87.4055H44.833V96.145H36.0935V87.4055H44.833V78.666H36.0935H27.354V87.4055H18.6145V96.145V104.884V113.624H27.354V104.884H36.0935H44.833H53.5725V96.145H62.312V87.4055H71.0515V96.145H62.312V104.884H71.0515V113.624H62.312V122.363H71.0515H79.791V131.103V139.842V148.582H88.5305V157.321H97.27H106.009H114.749V166.061H106.009H97.27H88.5305V157.321H79.791V166.061V174.8H88.5305V183.54H79.791V192.279H88.5305H97.27V183.54H106.009V192.279H114.749H123.488H132.228H140.967V183.54H149.707V192.279H158.446H167.186H175.925V183.54H167.186H158.446V174.8H149.707V166.061H140.967V174.8H132.228H123.488V183.54H114.749V174.8H123.488V166.061V157.321V148.582H132.228V139.842H123.488H114.749V131.103H123.488V122.363V113.624V104.884H114.749V96.145ZM140.967 166.061V157.321H132.228V166.061H140.967ZM158.446 174.8H167.186H175.925V166.061H167.186H158.446V174.8ZM175.925 166.061H184.665V157.321V148.582V139.842V131.103H175.925H167.186H158.446V122.363H149.707V131.103H140.967V139.842V148.582H149.707V139.842H158.446V148.582V157.321H167.186H175.925V166.061ZM149.707 122.363V113.624H140.967H132.228V122.363H140.967H149.707ZM158.446 122.363H167.186V113.624V104.884V96.145H175.925V104.884H184.665V113.624H193.404V104.884V96.145H184.665V87.4055H193.404V78.666H184.665H175.925V87.4055H167.186V78.666H158.446V87.4055H149.707V96.145H158.446V104.884V113.624V122.363ZM149.707 96.145H140.967V104.884H149.707V96.145ZM184.665 113.624H175.925V122.363H184.665V113.624ZM62.312 113.624V104.884H53.5725V113.624H62.312ZM53.5725 113.624H44.833H36.0935H27.354V122.363H36.0935H44.833H53.5725V113.624ZM18.6145 113.624H9.875V122.363H18.6145V113.624ZM18.6145 87.4055V78.666H9.875V87.4055H18.6145ZM79.791 78.666H88.5305V69.9265V61.187H79.791V69.9265V78.666ZM132.228 8.75V17.4895V26.229V34.9685V43.708V52.4475V61.187V69.9265H140.967H149.707H158.446H167.186H175.925H184.665H193.404V61.187V52.4475V43.708V34.9685V26.229V17.4895V8.75H184.665H175.925H167.186H158.446H149.707H140.967H132.228ZM18.6145 17.4895H27.354H36.0935H44.833H53.5725H62.312V26.229V34.9685V43.708V52.4475V61.187H53.5725H44.833H36.0935H27.354H18.6145V52.4475V43.708V34.9685V26.229V17.4895ZM140.967 17.4895H149.707H158.446H167.186H175.925H184.665V26.229V34.9685V43.708V52.4475V61.187H175.925H167.186H158.446H149.707H140.967V52.4475V43.708V34.9685V26.229V17.4895ZM27.354 26.229V34.9685V43.708V52.4475H36.0935H44.833H53.5725V43.708V34.9685V26.229H44.833H36.0935H27.354ZM149.707 26.229V34.9685V43.708V52.4475H158.446H167.186H175.925V43.708V34.9685V26.229H167.186H158.446H149.707ZM132.228 78.666V87.4055H140.967V78.666H132.228ZM9.875 131.103V139.842V148.582V157.321V166.061V174.8V183.54V192.279H18.6145H27.354H36.0935H44.833H53.5725H62.312H71.0515V183.54V174.8V166.061V157.321V148.582V139.842V131.103H62.312H53.5725H44.833H36.0935H27.354H18.6145H9.875ZM18.6145 139.842H27.354H36.0935H44.833H53.5725H62.312V148.582V157.321V166.061V174.8V183.54H53.5725H44.833H36.0935H27.354H18.6145V174.8V166.061V157.321V148.582V139.842ZM27.354 148.582V157.321V166.061V174.8H36.0935H44.833H53.5725V166.061V157.321V148.582H44.833H36.0935H27.354ZM184.665 174.8V183.54H193.404V174.8H184.665Z" fill="#18181B"/>
</svg>
