<svg width="24" height="24" viewBox="0 0 24 24" fill="none" xmlns="http://www.w3.org/2000/svg">
<path d="M23.2507 12.0683C23.2346 14.2237 22.3732 16.2866 20.8517 17.8133C20.8157 17.8488 20.7729 17.8766 20.7259 17.8952C20.6788 17.9137 20.6285 17.9225 20.578 17.9211C20.5275 17.9197 20.4778 17.9081 20.4318 17.887C20.3859 17.8659 20.3447 17.8357 20.3107 17.7983L9.73012 6.15736C9.69608 6.11997 9.66995 6.07609 9.65331 6.02835C9.63666 5.98062 9.62984 5.93 9.63326 5.87956C9.63667 5.82912 9.65025 5.77989 9.67318 5.73483C9.69611 5.68977 9.72791 5.64981 9.76668 5.61736C11.2639 4.38943 13.1461 3.72852 15.0823 3.7508C19.6086 3.79486 23.2864 7.54111 23.2507 12.0683ZM5.05574 3.24642C4.98988 3.17218 4.90993 3.11174 4.82054 3.06862C4.73115 3.0255 4.63409 3.00056 4.53498 2.99522C4.43588 2.98989 4.3367 3.00428 4.2432 3.03756C4.1497 3.07084 4.06373 3.12235 3.99028 3.1891C3.91683 3.25585 3.85736 3.33651 3.81532 3.42642C3.77327 3.51632 3.74949 3.61367 3.74535 3.71283C3.7412 3.81199 3.75678 3.91099 3.79118 4.00409C3.82558 4.09718 3.87812 4.18253 3.94574 4.25517L7.62543 8.3033L7.6198 8.31361C6.75959 8.18757 5.88226 8.24999 5.04856 8.49653C4.21485 8.74306 3.44467 9.16784 2.79135 9.74144C2.13803 10.315 1.61717 11.0238 1.26483 11.8186C0.912485 12.6134 0.737075 13.4753 0.750741 14.3445C0.800429 17.637 3.54824 20.2508 6.84449 20.2508H15.0007C16.0199 20.2512 17.0302 20.0621 17.9801 19.693L18.9457 20.7552C19.0122 20.8283 19.0924 20.8877 19.1818 20.9297C19.2712 20.9718 19.368 20.9958 19.4667 21.0003C19.5654 21.0048 19.664 20.9898 19.7569 20.9561C19.8498 20.9224 19.9351 20.8707 20.0079 20.8039C20.151 20.6622 20.2337 20.4707 20.2388 20.2694C20.2438 20.0681 20.1709 19.8726 20.0351 19.7239L5.05574 3.24642Z" fill="#5A42DE"/>
</svg>
