<svg width="24" height="24" viewBox="0 0 24 24" fill="none" xmlns="http://www.w3.org/2000/svg">
<path d="M20.0046 20.805C19.8574 20.9388 19.6631 21.0086 19.4644 20.9991C19.2657 20.9896 19.079 20.9016 18.9452 20.7544L18.7333 20.5219C18.6669 21.0674 18.4031 21.5698 17.9917 21.9342C17.5803 22.2987 17.0498 22.4999 16.5002 22.5H7.50019C6.90345 22.5 6.33116 22.2629 5.9092 21.841C5.48724 21.419 5.25019 20.8467 5.25019 20.25V5.68969L3.94519 4.25438C3.87756 4.18173 3.82503 4.09639 3.79063 4.00329C3.75623 3.9102 3.74065 3.8112 3.74479 3.71204C3.74894 3.61288 3.77272 3.51552 3.81477 3.42562C3.85681 3.33572 3.91628 3.25505 3.98973 3.18831C4.06318 3.12156 4.14915 3.07005 4.24265 3.03677C4.33615 3.00349 4.43533 2.9891 4.53443 2.99443C4.63354 2.99976 4.7306 3.02471 4.81999 3.06783C4.90938 3.11095 4.98932 3.17138 5.05519 3.24562L20.0552 19.7456C20.1889 19.8928 20.2588 20.0871 20.2493 20.2858C20.2398 20.4845 20.1517 20.6712 20.0046 20.805ZM17.4452 14.6447C17.547 14.7567 17.6803 14.8353 17.8277 14.8701C17.975 14.9049 18.1294 14.8944 18.2706 14.8398C18.4118 14.7852 18.5331 14.6892 18.6187 14.5644C18.7044 14.4395 18.7502 14.2917 18.7502 14.1403V3.75C18.7502 3.15326 18.5131 2.58097 18.0912 2.15901C17.6692 1.73705 17.0969 1.5 16.5002 1.5H7.19081C7.04554 1.50001 6.90339 1.54222 6.78165 1.62149C6.6599 1.70076 6.5638 1.81368 6.50502 1.94654C6.44624 2.07939 6.42731 2.22646 6.45053 2.36987C6.47375 2.51328 6.53811 2.64686 6.63581 2.75437L17.4452 14.6447Z" fill="#5A42DE"/>
</svg>
