<svg width="16" height="16" viewBox="0 0 16 16" fill="none" xmlns="http://www.w3.org/2000/svg">
<path opacity="0.5" d="M2 6.66658C2 4.15242 2 2.89535 2.78105 2.1143C3.5621 1.33325 4.81917 1.33325 7.33333 1.33325H8.66667C11.1808 1.33325 12.4379 1.33325 13.2189 2.1143C14 2.89535 14 4.15242 14 6.66658V9.33325C14 11.8474 14 13.1045 13.2189 13.8855C12.4379 14.6666 11.1808 14.6666 8.66667 14.6666H7.33333C4.81917 14.6666 3.5621 14.6666 2.78105 13.8855C2 13.1045 2 11.8474 2 9.33325V6.66658Z" fill="#5A42DE"/>
<path d="M11.0126 11.0008C11.1293 10.9098 11.2351 10.804 11.4467 10.5923L14.085 7.95408C14.1487 7.89035 14.1195 7.78048 14.0343 7.75088C13.7229 7.64288 13.3178 7.44002 12.9389 7.06108C12.5599 6.68215 12.3571 6.27702 12.2491 5.96561C12.2195 5.88039 12.1096 5.8512 12.0459 5.91498L9.40761 8.55322C9.19594 8.76488 9.09014 8.87068 8.99914 8.98735C8.89181 9.12502 8.79974 9.27388 8.72468 9.43148C8.66101 9.56502 8.61368 9.70702 8.51908 9.99095L8.39675 10.3578L8.20228 10.9411L8.01994 11.4881C7.97341 11.6279 8.00975 11.7819 8.11388 11.8861C8.21808 11.9902 8.37208 12.0265 8.51181 11.98L9.05881 11.7977L9.64214 11.6032L10.009 11.4809C10.2929 11.3863 10.4349 11.3389 10.5685 11.2753C10.7261 11.2002 10.8749 11.1081 11.0126 11.0008Z" fill="#5A42DE"/>
<path d="M14.911 7.12821C15.4742 6.56511 15.4742 5.65216 14.911 5.08907C14.348 4.52597 13.435 4.52597 12.8719 5.08907L12.7871 5.17389C12.7052 5.25573 12.6682 5.37005 12.6886 5.48399C12.7015 5.55565 12.7253 5.66043 12.7687 5.78546C12.8554 6.03551 13.0192 6.36374 13.3278 6.67228C13.6364 6.98088 13.9646 7.14468 14.2146 7.23141C14.3397 7.27481 14.4444 7.29861 14.5161 7.31148C14.63 7.33195 14.7444 7.29488 14.8262 7.21301L14.911 7.12821Z" fill="#5A42DE"/>
<path fill-rule="evenodd" clip-rule="evenodd" d="M4.83301 6C4.83301 5.72386 5.05687 5.5 5.33301 5.5H9.66634C9.94247 5.5 10.1663 5.72386 10.1663 6C10.1663 6.27614 9.94247 6.5 9.66634 6.5H5.33301C5.05687 6.5 4.83301 6.27614 4.83301 6ZM4.83301 8.66667C4.83301 8.39053 5.05687 8.16667 5.33301 8.16667H7.33301C7.60914 8.16667 7.83301 8.39053 7.83301 8.66667C7.83301 8.9428 7.60914 9.16667 7.33301 9.16667H5.33301C5.05687 9.16667 4.83301 8.9428 4.83301 8.66667ZM4.83301 11.3333C4.83301 11.0572 5.05687 10.8333 5.33301 10.8333H6.33301C6.60915 10.8333 6.83301 11.0572 6.83301 11.3333C6.83301 11.6095 6.60915 11.8333 6.33301 11.8333H5.33301C5.05687 11.8333 4.83301 11.6095 4.83301 11.3333Z" fill="#5A42DE"/>
</svg>
