<svg width="88" height="69" viewBox="0 0 88 69" fill="none" xmlns="http://www.w3.org/2000/svg">
<path d="M78.4659 55.9883L80.422 59.1085L71.4737 60.6679L69.5176 57.5477L78.4659 55.9883Z" fill="#D4D4D8"/>
<path d="M71.4736 60.938C71.3816 60.938 71.2948 60.8913 71.2455 60.8109L69.2894 57.6907C69.2414 57.6142 69.2349 57.5196 69.2712 57.438C69.3075 57.3563 69.3827 57.298 69.4709 57.2824L78.4192 55.723C78.5281 55.7035 78.6357 55.7528 78.694 55.8448L80.6501 58.965C80.6981 59.0415 80.7046 59.1361 80.6683 59.2178C80.632 59.2994 80.5568 59.3578 80.4687 59.3733L71.5203 60.9328C71.5048 60.9367 71.4892 60.938 71.4736 60.938ZM69.9596 57.7452L71.6059 60.3715L79.9812 58.9118L78.3349 56.2855L69.9596 57.7452Z" fill="#F7F7F8"/>
<path d="M79.4903 23.4492L78.7359 29.6442C77.6522 38.5459 77.5601 47.397 78.4662 55.9875L69.5166 57.5457L73.4094 44.234L79.4903 23.4492Z" fill="#D4D4D8"/>
<path d="M69.517 57.8146C69.4405 57.8146 69.3679 57.7822 69.3161 57.7252C69.2539 57.6552 69.2318 57.5592 69.2577 57.4698L79.2314 23.3733C79.2703 23.2385 79.4077 23.1568 79.5452 23.1854C79.6826 23.2139 79.7759 23.3422 79.759 23.4822L79.0046 29.6772C77.9235 38.5542 77.8327 47.3963 78.735 55.9596C78.7505 56.1009 78.6533 56.2292 78.5133 56.2539L69.565 57.8133C69.5481 57.8133 69.5326 57.8146 69.517 57.8146ZM78.8244 26.6854L69.8968 57.2054L78.1711 55.7639C77.2922 47.2381 77.392 38.4415 78.4679 29.6111L78.8244 26.6854Z" fill="#F7F7F8"/>
<path d="M81.4463 26.5733L79.4902 23.4531L78.7358 29.6481C77.6521 38.5498 77.5601 47.4009 78.4662 55.9915L80.4223 59.1116C79.5175 50.5211 79.6082 41.6713 80.6919 32.7683L81.4463 26.5733Z" fill="#D4D4D8"/>
<path d="M80.4214 59.3787C80.3306 59.3787 80.2438 59.332 80.1932 59.2516L78.2371 56.1314C78.2151 56.0964 78.2021 56.0576 78.1969 56.0161C77.2908 47.4126 77.3816 38.529 78.4679 29.6118L79.2223 23.4168C79.2366 23.304 79.3195 23.2107 79.431 23.1861C79.5425 23.1614 79.6579 23.2094 79.7175 23.3066L81.6736 26.4268C81.706 26.4787 81.7203 26.5409 81.7125 26.6031L80.9581 32.7981C79.8769 41.6751 79.7862 50.5172 80.6884 59.0805C80.7014 59.205 80.6275 59.3229 80.5082 59.3631C80.481 59.3748 80.4512 59.3787 80.4214 59.3787ZM78.7271 55.8994L80.0377 57.9916C79.256 49.7472 79.3856 41.2551 80.4227 32.7346L81.1655 26.6342L79.6644 24.24L79.0019 29.6792C77.9247 38.5342 77.8327 47.3555 78.7271 55.8994Z" fill="#F7F7F8"/>
<path d="M68.2944 61.7266L70.2506 64.8467H67.9561L66 61.7266H68.2944Z" fill="#D4D4D8"/>
<path d="M70.2508 65.1165H67.9576C67.8643 65.1165 67.7787 65.0685 67.7295 64.9894L65.7734 61.8693C65.7215 61.7863 65.7189 61.6813 65.7656 61.5957C65.8135 61.5102 65.903 61.457 66.0015 61.457H68.2947C68.388 61.457 68.4735 61.505 68.5228 61.5841L70.4789 64.7043C70.5308 64.7872 70.5334 64.8922 70.4867 64.9778C70.4387 65.0633 70.348 65.1165 70.2508 65.1165ZM68.1054 64.5772H69.7634L68.1456 61.9963H66.4889L68.1054 64.5772Z" fill="#F7F7F8"/>
<path d="M80.0147 21.6602L79.491 23.4503L73.4101 44.2352L69.5173 57.5468L68.2949 61.7274L70.251 64.8476L71.4734 60.667L75.3662 47.3553L81.4471 26.5705L81.9708 24.7803L80.0147 21.6602Z" fill="#D4D4D8"/>
<path d="M70.2508 65.1185C70.1587 65.1185 70.0719 65.0718 70.0226 64.9914L68.0665 61.8712C68.025 61.8064 68.0146 61.7261 68.0367 61.6522L79.7565 21.585C79.7863 21.4826 79.8732 21.4087 79.9782 21.3931C80.0832 21.3788 80.1869 21.4268 80.2439 21.5175L82.2 24.6377C82.2415 24.7026 82.2519 24.7829 82.2298 24.8568L70.5087 64.924C70.4789 65.0264 70.3921 65.1003 70.2871 65.1159C70.2754 65.1172 70.2624 65.1185 70.2508 65.1185ZM68.5876 61.6872L70.16 64.1968L81.6776 24.8218L80.1052 22.3122L68.5876 61.6872Z" fill="#F7F7F8"/>
<path d="M80.0143 21.6602L79.4906 23.4503L73.4096 44.2352L69.5169 57.5468L68.2944 61.7274H66L70.3348 46.9133L77.7211 21.6602H80.0143Z" fill="#D4D4D8"/>
<path d="M68.2947 61.9971H66.0016C65.916 61.9971 65.8369 61.9569 65.7864 61.8895C65.7358 61.8221 65.719 61.734 65.7436 61.6523L70.0771 46.8382L77.4634 21.5851C77.4971 21.4697 77.6021 21.3906 77.7227 21.3906H80.0158C80.1014 21.3906 80.1805 21.4308 80.231 21.4982C80.2816 21.5656 80.2984 21.6538 80.2738 21.7354L68.554 61.8027C68.5203 61.918 68.414 61.9971 68.2947 61.9971ZM66.3606 61.4579H68.0925L79.6555 21.9299H77.9236L70.5931 46.9886L66.3606 61.4579Z" fill="#F7F7F8"/>
<path d="M38.6018 4.57141C38.603 4.54549 38.603 4.51956 38.603 4.49363C38.603 4.47808 38.6018 4.46382 38.6005 4.44956C38.5992 4.42623 38.5979 4.40419 38.5953 4.38215C38.594 4.3666 38.5914 4.35104 38.5888 4.33549C38.5875 4.32123 38.5862 4.30697 38.5836 4.29271C38.5823 4.28752 38.581 4.28363 38.581 4.27975C38.5719 4.23049 38.5616 4.18123 38.5473 4.13456C38.546 4.13197 38.546 4.12938 38.546 4.12678C38.5434 4.11771 38.5395 4.10993 38.5369 4.10215C38.5279 4.07364 38.5175 4.04512 38.5058 4.0179C38.5032 4.01271 38.5019 4.00623 38.4993 3.99975C38.4955 3.99197 38.4916 3.98419 38.4877 3.97641C38.4786 3.95567 38.4682 3.93623 38.4579 3.91678C38.454 3.90901 38.4501 3.90123 38.4462 3.89345C38.4384 3.88049 38.4306 3.86752 38.4229 3.85456L36.4668 0.734375C36.4797 0.753819 36.4901 0.775858 36.5018 0.796599C36.5121 0.816043 36.5225 0.836783 36.5316 0.856227C36.5381 0.86919 36.5445 0.88345 36.5497 0.89771C36.5614 0.924932 36.5718 0.95345 36.5808 0.981968C36.5847 0.992338 36.5886 1.00271 36.5912 1.01438C36.6055 1.06104 36.6171 1.109 36.6249 1.15956C36.6288 1.17771 36.6314 1.19586 36.634 1.2153C36.6366 1.23086 36.6379 1.24641 36.6405 1.26197C36.643 1.28401 36.6443 1.30734 36.6456 1.32937C36.6469 1.34363 36.6469 1.35919 36.6482 1.37345C36.6482 1.39938 36.6482 1.4253 36.6469 1.45123C36.6469 1.46419 36.6469 1.47586 36.6456 1.48882C36.643 1.52771 36.6392 1.5679 36.634 1.60808L36.3838 3.44493L38.3399 6.56512L38.5901 4.72826C38.5953 4.68808 38.5992 4.64919 38.6018 4.60901C38.6018 4.59734 38.6018 4.58438 38.6018 4.57141Z" fill="#D4D4D8"/>
<path d="M38.3396 6.83472C38.2476 6.83472 38.1607 6.78806 38.1114 6.70769L36.1553 3.5875C36.1216 3.53435 36.1087 3.47083 36.1164 3.40732L36.3666 1.57047C36.3705 1.53806 36.3744 1.50435 36.3757 1.47195V1.44213C36.377 1.4201 36.377 1.39806 36.377 1.37732L36.3757 1.35398C36.3757 1.35269 36.3744 1.34102 36.3744 1.33973C36.3731 1.32158 36.3731 1.30343 36.3705 1.28528L36.3653 1.25028C36.3627 1.23343 36.3601 1.21787 36.3589 1.20361C36.3511 1.16213 36.342 1.12324 36.3316 1.08954L36.3226 1.06491C36.3148 1.04287 36.307 1.02084 36.2979 0.998799L36.2837 0.967689C36.2772 0.952133 36.2694 0.936577 36.2603 0.922318L36.2539 0.910651C36.2474 0.898985 36.2409 0.887316 36.2344 0.875649V0.874355C36.1553 0.748615 36.1929 0.581393 36.32 0.502319C36.4457 0.423245 36.6129 0.460837 36.692 0.586577L38.6481 3.70676C38.6585 3.72232 38.6676 3.73787 38.6766 3.75473C38.6831 3.76639 38.6883 3.77676 38.6935 3.78713C38.7051 3.80917 38.7181 3.8338 38.7298 3.85973C38.7337 3.8675 38.7389 3.87787 38.744 3.88824C38.7466 3.89473 38.7531 3.91158 38.7557 3.91935C38.7661 3.94398 38.779 3.97769 38.7907 4.01269C38.7946 4.02047 38.7985 4.03084 38.8011 4.0425C38.8024 4.04899 38.805 4.05676 38.8063 4.06325C38.8192 4.10732 38.8322 4.16176 38.8439 4.2188C38.8464 4.22787 38.8477 4.23565 38.849 4.24473C38.8516 4.25639 38.8529 4.26935 38.8542 4.28232L38.5885 4.33028L38.8568 4.30565C38.8594 4.31991 38.8607 4.33547 38.862 4.35102C38.8646 4.37695 38.8659 4.40417 38.8672 4.43139C38.8685 4.45602 38.8698 4.46898 38.8698 4.48324C38.8698 4.51565 38.8698 4.54547 38.8685 4.57658V4.57787V4.58695C38.8685 4.59861 38.8685 4.60898 38.8672 4.62065C38.8646 4.66602 38.8607 4.71269 38.8542 4.75936L38.6066 6.60139C38.5911 6.71417 38.5068 6.80491 38.3966 6.82824C38.3772 6.83343 38.3577 6.83472 38.3396 6.83472ZM36.6635 3.38398L38.1724 5.79121L38.3227 4.69195C38.3266 4.65954 38.3305 4.62584 38.3318 4.59343L38.3331 4.56232C38.3344 4.54158 38.3344 4.51954 38.3344 4.4988L38.3318 4.4625C38.3305 4.44435 38.3305 4.4262 38.3279 4.40806L38.3201 4.34195C38.3189 4.33547 38.3176 4.32898 38.3163 4.32121C38.3098 4.28491 38.3007 4.24602 38.2903 4.21102C38.2903 4.20843 38.289 4.20713 38.289 4.20454C38.2864 4.19936 38.2851 4.19287 38.2826 4.18639C38.2748 4.16435 38.267 4.14232 38.2579 4.12158C38.2566 4.11769 38.254 4.11121 38.2514 4.10472C38.2489 4.09954 38.245 4.09176 38.2437 4.08917C38.2372 4.07491 38.2294 4.05935 38.2216 4.0451C38.219 4.04121 38.2113 4.02565 38.21 4.02176L38.1957 3.99843L36.8709 1.88417L36.6635 3.38398Z" fill="#F7F7F8"/>
<path d="M35.6301 0.269531C36.2848 0.269531 36.7346 0.868421 36.6335 1.60731L36.3833 3.44416L35.2529 11.7405C35.1518 12.4806 34.5399 13.0782 33.8853 13.0782H31.6855C31.0309 13.0782 30.5811 12.4793 30.6822 11.7405L31.8125 3.44416L32.0627 1.60731C32.1638 0.867125 32.7757 0.269531 33.4303 0.269531H35.6301Z" fill="#F7F7F8"/>
<path d="M33.8842 13.348H31.6844C31.3176 13.348 30.9831 13.1976 30.7446 12.9241C30.4711 12.6117 30.3505 12.167 30.4141 11.7043L31.7946 1.57111C31.9152 0.689633 32.6333 0 33.4292 0H35.6291C35.9959 0 36.3304 0.150373 36.5689 0.423891C36.8424 0.736299 36.963 1.18093 36.8994 1.64371L35.5189 11.7769C35.3996 12.6583 34.6815 13.348 33.8842 13.348ZM33.4305 0.53926C32.9068 0.53926 32.413 1.03445 32.33 1.64371L30.9494 11.7769C30.9079 12.0854 30.9818 12.3744 31.1517 12.5689C31.2891 12.7257 31.4731 12.8087 31.6857 12.8087H33.8855C34.4092 12.8087 34.9031 12.3135 34.9861 11.7043L36.3667 1.57111C36.4081 1.2626 36.3342 0.974816 36.1644 0.779075C36.027 0.622223 35.843 0.53926 35.6304 0.53926H33.4305Z" fill="#F7F7F8"/>
<path d="M25.0827 21.6573H20.7777C20.4627 21.6573 20.1723 21.5886 19.9144 21.4629C19.8405 21.4266 19.7705 21.3864 19.7018 21.3423C19.5657 21.2529 19.4412 21.1466 19.331 21.0247C19.2481 20.934 19.1729 20.8342 19.1055 20.7266L21.0616 23.8467C21.4194 24.4171 22.0144 24.7775 22.7338 24.7775H27.0388L25.0827 21.6573Z" fill="#D4D4D8"/>
<path d="M27.0384 25.0484H22.7334C21.9466 25.0484 21.2544 24.6634 20.8331 23.9906L18.8782 20.8717C18.8782 20.8717 18.8782 20.8717 18.8782 20.8704C18.7992 20.7447 18.8368 20.5774 18.9638 20.4984C19.0895 20.4193 19.2568 20.4569 19.3358 20.5839C19.3942 20.6772 19.4603 20.7641 19.5329 20.8432C19.6288 20.9482 19.7364 21.0402 19.8518 21.1167C19.9101 21.1556 19.971 21.1906 20.0345 21.2204C20.2627 21.3319 20.5129 21.3876 20.7799 21.3876H25.0849C25.1782 21.3876 25.2638 21.4356 25.3131 21.5147L27.2692 24.6348C27.321 24.7178 27.3236 24.8228 27.2769 24.9084C27.2264 24.9952 27.1369 25.0484 27.0384 25.0484ZM20.1162 21.8322L21.2893 23.7054C21.6095 24.2161 22.1358 24.5104 22.7321 24.5104H26.5497L24.9319 21.9295H20.776C20.5479 21.9282 20.3262 21.8958 20.1162 21.8322Z" fill="#F7F7F8"/>
<path d="M76.9221 4.57271C76.9234 4.54678 76.9234 4.52085 76.9234 4.49493C76.9234 4.47937 76.9221 4.46512 76.9208 4.44956C76.9195 4.42752 76.9182 4.40419 76.9156 4.38215C76.9143 4.3666 76.9117 4.35104 76.9091 4.33549C76.9078 4.32123 76.9065 4.30697 76.9039 4.294C76.9026 4.28882 76.9013 4.28493 76.9013 4.27974C76.8923 4.23048 76.8819 4.18252 76.8676 4.13586C76.8663 4.13326 76.8663 4.13067 76.8663 4.12808C76.8637 4.1203 76.8598 4.11252 76.8572 4.10345C76.8482 4.07493 76.8378 4.04641 76.8261 4.01919C76.8235 4.014 76.8223 4.00752 76.8197 4.00104C76.8158 3.99326 76.8119 3.98548 76.808 3.97771C76.7989 3.95697 76.7885 3.93752 76.7782 3.91678C76.7743 3.909 76.7704 3.90123 76.7665 3.89345C76.7587 3.88049 76.751 3.86752 76.7432 3.85456L74.7871 0.734375C74.8 0.753819 74.8104 0.775854 74.8221 0.796595C74.8324 0.816039 74.8428 0.83678 74.8519 0.857521C74.8584 0.870484 74.8648 0.884744 74.87 0.899003C74.8817 0.926225 74.8921 0.954744 74.9011 0.984559C74.905 0.99493 74.9089 1.0053 74.9115 1.01567C74.9258 1.06234 74.9374 1.1103 74.9452 1.16085C74.9491 1.179 74.9517 1.19715 74.9543 1.2166C74.9569 1.23215 74.9582 1.24771 74.9608 1.26326C74.9634 1.2853 74.9647 1.30863 74.966 1.33067C74.9673 1.34622 74.9686 1.36048 74.9686 1.37604C74.9686 1.40197 74.9685 1.42789 74.9673 1.45382C74.9673 1.46678 74.9673 1.47974 74.966 1.49271C74.9634 1.53159 74.9595 1.57178 74.9543 1.61067L74.7041 3.44752L76.6602 6.56771L76.9104 4.73085C76.9156 4.69067 76.9195 4.65178 76.9221 4.61289C76.9221 4.59863 76.9221 4.58567 76.9221 4.57271Z" fill="#D4D4D8"/>
<path d="M76.6589 6.83568C76.5669 6.83568 76.48 6.78902 76.4308 6.70865L74.4747 3.58846C74.441 3.53532 74.428 3.4718 74.4358 3.40828L74.686 1.57143C74.6899 1.53902 74.6937 1.50532 74.695 1.47421V1.4431C74.6963 1.42106 74.6963 1.40032 74.6963 1.37957L74.6938 1.34328C74.6925 1.32513 74.6925 1.30698 74.6899 1.29013L74.6873 1.26421C74.6834 1.23828 74.6821 1.22273 74.6795 1.20847C74.673 1.16958 74.6639 1.13069 74.6523 1.09439C74.6523 1.0931 74.6445 1.07365 74.6445 1.07235C74.6367 1.04902 74.6289 1.02698 74.6199 1.00495C74.616 0.994577 74.6108 0.985501 74.6069 0.975131C74.5991 0.958279 74.5913 0.942724 74.5836 0.927168C74.5732 0.906428 74.5654 0.893463 74.5576 0.8805C74.4786 0.754759 74.5175 0.587539 74.6432 0.509761C74.7689 0.430687 74.9349 0.469576 75.0152 0.595317L76.9713 3.7155C76.9817 3.73235 76.9908 3.74791 77.0012 3.76476C77.005 3.77254 77.0115 3.78291 77.0167 3.79458C77.0284 3.81661 77.0413 3.84124 77.053 3.86717C77.0582 3.87624 77.0634 3.88661 77.0673 3.89698C77.0699 3.90347 77.0763 3.91902 77.0776 3.9255C77.0893 3.95272 77.1023 3.98772 77.1139 4.02272C77.1165 4.02921 77.1204 4.03958 77.1243 4.04995C77.1256 4.05513 77.1282 4.06291 77.1295 4.07069C77.1437 4.11606 77.1554 4.1692 77.1671 4.22754C77.1684 4.23402 77.1697 4.2405 77.171 4.24698C77.1736 4.26513 77.1762 4.27939 77.1775 4.29235C77.1813 4.32087 77.1839 4.33902 77.1852 4.35717C77.1878 4.38439 77.1891 4.41161 77.1904 4.43883C77.1917 4.46087 77.193 4.47643 77.193 4.49328C77.193 4.5218 77.193 4.55291 77.1917 4.58273V4.5918C77.1917 4.60346 77.1917 4.61643 77.1904 4.62809C77.1878 4.67346 77.1839 4.72013 77.1775 4.7668L76.926 6.60235C76.9104 6.71513 76.8262 6.80587 76.716 6.8292C76.6965 6.83439 76.6784 6.83568 76.6589 6.83568ZM74.9841 3.38495L76.493 5.79217L76.6434 4.69291C76.6473 4.6605 76.6512 4.6268 76.6525 4.59569V4.56458V4.56328C76.6537 4.54254 76.6537 4.5218 76.6537 4.50106L76.6525 4.47772C76.6525 4.47643 76.6512 4.46476 76.6512 4.46476C76.6499 4.44661 76.6499 4.42847 76.6473 4.41161L76.6395 4.35198C76.6395 4.35069 76.6382 4.34161 76.6356 4.33254C76.6278 4.28846 76.6187 4.25087 76.6084 4.21587C76.6084 4.21458 76.6071 4.21198 76.6071 4.21069C76.6045 4.2042 76.6019 4.19772 76.6006 4.19124C76.5928 4.16791 76.585 4.14587 76.576 4.12513C76.5747 4.12254 76.5721 4.11606 76.5708 4.10957C76.5669 4.10309 76.563 4.09402 76.5617 4.09143C76.5552 4.07717 76.5475 4.06161 76.5397 4.04606C76.5371 4.04217 76.5306 4.02791 76.5293 4.02402C76.5254 4.01754 76.5202 4.00847 76.5137 3.99809L75.1889 1.88384L74.9841 3.38495Z" fill="#F7F7F8"/>
<path d="M73.9495 0.269531C74.6041 0.269531 75.0552 0.868421 74.9541 1.60731L74.7039 3.44416L73.5735 11.7405C73.4724 12.4806 72.8593 13.0782 72.2047 13.0782H70.0048C69.3502 13.0782 68.9004 12.4793 69.0015 11.7405L70.1319 3.44416L70.3821 1.60731C70.4832 0.867125 71.0963 0.269531 71.7497 0.269531H73.9495Z" fill="#F7F7F8"/>
<path d="M72.2036 13.3493H70.0038C69.6369 13.3493 69.3025 13.1989 69.064 12.9241C68.7904 12.6117 68.6699 12.167 68.7334 11.7043L70.114 1.57111C70.2319 0.705185 70.9656 0 71.7486 0H73.9484C74.3153 0 74.6497 0.15037 74.8895 0.425185C75.163 0.737592 75.2836 1.18222 75.2201 1.645L73.8395 11.7781C73.7203 12.6596 73.0008 13.3493 72.2036 13.3493ZM71.7499 0.540553C71.2353 0.540553 70.731 1.04611 70.6493 1.645L69.2688 11.7781C69.2273 12.0854 69.3012 12.3744 69.471 12.5702C69.6084 12.727 69.7925 12.81 70.0051 12.81H72.2049C72.7208 12.81 73.2251 12.3044 73.3067 11.7056L74.6873 1.57241C74.7288 1.26519 74.6549 0.97611 74.4851 0.780369C74.3477 0.623517 74.1636 0.540553 73.951 0.540553H71.7499Z" fill="#F7F7F8"/>
<path d="M77.7217 21.6602L79.6765 24.7803H27.0391L25.083 21.6602H77.7217Z" fill="#D4D4D8"/>
<path d="M79.6761 25.0501H27.0387C26.9453 25.0501 26.8598 25.0021 26.8105 24.923L24.8544 21.8029C24.8026 21.7199 24.8 21.6149 24.8466 21.5293C24.8946 21.4438 24.984 21.3906 25.0826 21.3906H77.72C77.8133 21.3906 77.8989 21.4386 77.9481 21.5177L79.9042 24.6378C79.9561 24.7208 79.9587 24.8258 79.912 24.9114C79.8653 24.9969 79.7746 25.0501 79.6761 25.0501ZM27.1877 24.5108H79.1887L77.5709 21.9299H25.57L27.1877 24.5108Z" fill="#F7F7F8"/>
<path d="M87.2426 8.93021C87.2439 8.87835 87.2465 8.8265 87.2452 8.77595C87.2452 8.74613 87.2426 8.71632 87.2413 8.6865C87.2388 8.64113 87.2362 8.59576 87.2323 8.55039C87.2297 8.51928 87.2245 8.48946 87.2206 8.45835C87.2167 8.42983 87.2141 8.40131 87.2102 8.37409C87.2076 8.35854 87.2038 8.34298 87.2012 8.32742C87.1973 8.30539 87.1934 8.28465 87.1882 8.26391C87.1778 8.21465 87.1662 8.16669 87.1532 8.11872C87.148 8.10057 87.1441 8.08372 87.1389 8.06557C87.1363 8.0578 87.135 8.05131 87.1325 8.04353C87.1273 8.02668 87.1195 8.01113 87.1143 7.99428C87.0949 7.93724 87.0741 7.88021 87.0508 7.82446C87.0456 7.8128 87.043 7.79983 87.0378 7.78946C87.0313 7.77391 87.0223 7.75835 87.0145 7.7428C86.995 7.70132 86.9756 7.66113 86.9536 7.62224C86.9458 7.60668 86.9393 7.59113 86.9302 7.57687C86.9147 7.55095 86.8991 7.52502 86.8836 7.49909L84.9275 4.37891C84.9521 4.41909 84.9741 4.46057 84.9975 4.50335C85.0182 4.54224 85.0389 4.58372 85.0584 4.62391C85.0713 4.65113 85.083 4.67835 85.0947 4.70557C85.118 4.76002 85.1388 4.81706 85.1582 4.87539C85.166 4.89872 85.175 4.92206 85.1828 4.94668C85.188 4.96483 85.1919 4.98169 85.1971 4.99983C85.21 5.0478 85.2217 5.09576 85.2321 5.14502C85.236 5.16576 85.2412 5.18779 85.245 5.20854C85.2528 5.25131 85.2593 5.29539 85.2658 5.34076C85.2697 5.37187 85.2749 5.40168 85.2775 5.4328C85.2813 5.47687 85.2839 5.52224 85.2865 5.56891C85.2878 5.59872 85.2904 5.62854 85.2904 5.65835C85.2917 5.70891 85.2904 5.76076 85.2878 5.81261C85.2865 5.83854 85.2878 5.86316 85.2865 5.88909C85.2813 5.96687 85.2749 6.04594 85.2632 6.12632L83.5106 18.9869C83.4989 19.0685 83.4834 19.1502 83.4665 19.2306C83.4613 19.2513 83.4575 19.2721 83.4523 19.2941C83.4354 19.3654 83.416 19.4367 83.3939 19.5067C83.3913 19.5145 83.3888 19.5235 83.3862 19.5313C83.3615 19.6078 83.333 19.683 83.3032 19.7582C83.2954 19.7776 83.2876 19.7971 83.2786 19.8165C83.2526 19.8787 83.2241 19.9396 83.1943 19.9993C83.1878 20.0122 83.1813 20.0265 83.1749 20.0395C83.1606 20.068 83.1425 20.0952 83.1269 20.1237C83.0958 20.1808 83.0647 20.2365 83.0297 20.2909C83.0076 20.3272 82.983 20.3609 82.9597 20.3959C82.9325 20.4348 82.9065 20.4737 82.878 20.5113C82.8508 20.5476 82.821 20.5826 82.7925 20.6176C82.7665 20.6487 82.7419 20.6811 82.7147 20.7109C82.6836 20.7459 82.6512 20.7796 82.6175 20.8134C82.5915 20.8406 82.5656 20.8691 82.5384 20.895C82.506 20.9274 82.471 20.9559 82.436 20.9871C82.4062 21.013 82.3776 21.0402 82.3478 21.0648C82.3167 21.0908 82.2843 21.1128 82.2519 21.1374C82.2156 21.1646 82.178 21.1932 82.1404 21.2191C82.1132 21.2372 82.0847 21.2541 82.0562 21.2709C82.0069 21.3021 81.9589 21.3319 81.9084 21.3591C81.8475 21.3928 81.7865 21.4252 81.723 21.4524C81.723 21.4524 81.723 21.4524 81.7217 21.4524C81.6569 21.4809 81.5908 21.5069 81.5234 21.5302C81.4975 21.5393 81.4715 21.5471 81.4443 21.5561C81.3976 21.5704 81.3497 21.5846 81.3017 21.5963C81.2745 21.6028 81.2473 21.6093 81.22 21.6158C81.1695 21.6261 81.1189 21.6339 81.0671 21.6417C81.0438 21.6456 81.0191 21.6495 80.9958 21.6521C80.9206 21.6598 80.8454 21.665 80.7702 21.665H80.0119H77.7188L79.6749 24.7852H81.968H82.7263C82.8015 24.7852 82.8767 24.78 82.9519 24.7722C82.9765 24.7696 82.9999 24.7658 83.0232 24.7619C83.0737 24.7554 83.1256 24.7463 83.1762 24.7359C83.2034 24.7308 83.2306 24.7243 83.2578 24.7165C83.3058 24.7048 83.3538 24.6919 83.4004 24.6763C83.4263 24.6685 83.4536 24.6595 83.4795 24.6504C83.4938 24.6452 83.508 24.6426 83.521 24.6374C83.5741 24.618 83.626 24.5959 83.6778 24.5739C83.6778 24.5739 83.6778 24.5739 83.6791 24.5739C83.731 24.5506 83.7828 24.5259 83.8334 24.4987C83.8437 24.4935 83.8541 24.4858 83.8645 24.4806C83.9151 24.4534 83.963 24.4235 84.0123 24.3924C84.0343 24.3795 84.0563 24.3678 84.0771 24.3535C84.0836 24.3496 84.09 24.3445 84.0952 24.3393C84.1328 24.3134 84.1691 24.2861 84.2054 24.2576C84.2326 24.2382 84.2599 24.22 84.2858 24.198C84.291 24.1941 84.2962 24.1889 84.3013 24.1837C84.3312 24.1591 84.3597 24.1319 84.3895 24.1059C84.418 24.0813 84.4465 24.058 84.4737 24.0321C84.4802 24.0269 84.4854 24.0204 84.4919 24.0139C84.5191 23.988 84.545 23.9595 84.571 23.9322C84.5969 23.9063 84.6228 23.8804 84.6488 23.8532C84.6552 23.8454 84.6617 23.8376 84.6682 23.8298C84.6954 23.8 84.72 23.7676 84.746 23.7365C84.768 23.7093 84.7913 23.6846 84.8121 23.6574C84.8186 23.6484 84.825 23.6393 84.8315 23.6302C84.86 23.5926 84.886 23.5537 84.9119 23.5148C84.93 23.4876 84.9508 23.463 84.9676 23.4358C84.9728 23.428 84.9767 23.4189 84.9819 23.4111C85.0156 23.3567 85.048 23.3009 85.0791 23.2439C85.0921 23.2206 85.1063 23.1998 85.118 23.1765C85.1206 23.1713 85.1232 23.1648 85.1258 23.1596C85.1323 23.1467 85.1387 23.1324 85.1452 23.1195C85.175 23.0598 85.2036 22.9989 85.2295 22.9367C85.2373 22.9172 85.2463 22.8978 85.2541 22.8784C85.2593 22.8641 85.2671 22.8498 85.2723 22.8356C85.2956 22.7746 85.3176 22.7137 85.3371 22.6515C85.3397 22.6437 85.3423 22.6346 85.3449 22.6269C85.3669 22.5569 85.385 22.4856 85.4032 22.4143C85.4084 22.3935 85.4136 22.3728 85.4175 22.3508C85.4343 22.2704 85.4499 22.19 85.4615 22.1071L87.2141 9.2465C87.2245 9.16613 87.2323 9.08706 87.2375 9.00928C87.2426 8.98076 87.2413 8.95613 87.2426 8.93021Z" fill="#D4D4D8"/>
<path d="M82.7291 25.0509H79.6764C79.583 25.0509 79.4975 25.0029 79.4482 24.9239L77.4921 21.8037C77.4403 21.7207 77.4377 21.6157 77.4843 21.5302C77.5323 21.4446 77.6217 21.3915 77.7203 21.3915H80.773C80.8327 21.3915 80.8975 21.3876 80.9714 21.3798C80.983 21.3785 80.9934 21.3772 81.0051 21.3746L81.0336 21.3707C81.079 21.3642 81.123 21.3578 81.1684 21.3487C81.193 21.3435 81.2164 21.3383 81.2397 21.3318C81.2825 21.3215 81.324 21.3098 81.3654 21.2968C81.394 21.2878 81.4147 21.2813 81.4354 21.2748C81.5067 21.2502 81.5625 21.2281 81.613 21.2061C81.6143 21.2061 81.6156 21.2048 81.6156 21.2048C81.6714 21.1802 81.7258 21.1516 81.779 21.1218C81.8243 21.0972 81.8684 21.07 81.9125 21.0415L81.9449 21.022C81.9591 21.0129 81.9734 21.0039 81.9877 20.9948C82.0149 20.9766 82.0408 20.9559 82.068 20.9365L82.1199 20.8976C82.1393 20.8833 82.1588 20.8691 82.1769 20.8548C82.1951 20.8392 82.2132 20.8237 82.2314 20.8081L82.2793 20.7666C82.304 20.7459 82.3286 20.7239 82.3519 20.7018C82.3688 20.685 82.3869 20.6668 82.4038 20.6487L82.4349 20.6163C82.4621 20.5891 82.488 20.5618 82.514 20.5333C82.5334 20.5113 82.5516 20.4892 82.5684 20.4672L82.5853 20.4465C82.6177 20.4076 82.641 20.3791 82.663 20.3479C82.6851 20.3181 82.7058 20.2883 82.7266 20.2572L82.7525 20.2183C82.7693 20.195 82.7862 20.1703 82.8017 20.1457C82.8329 20.0952 82.8627 20.0446 82.8912 19.9928L82.9119 19.9565C82.9197 19.9435 82.9275 19.9305 82.934 19.9163L82.9521 19.8787C82.9793 19.8242 83.0053 19.7685 83.0286 19.7115L83.0506 19.6583C83.0804 19.5831 83.1064 19.5144 83.1258 19.4509C83.1258 19.4483 83.131 19.4315 83.1323 19.4289C83.153 19.3628 83.1699 19.2979 83.1854 19.2318L83.1984 19.1748C83.2166 19.0892 83.2295 19.0192 83.2386 18.9518L84.9912 6.09127C85.0003 6.02127 85.008 5.94868 85.0119 5.87479C85.0119 5.86313 85.0132 5.85016 85.0132 5.8385V5.80479C85.0145 5.75683 85.0158 5.71016 85.0158 5.6635C85.0158 5.64535 85.0145 5.6285 85.0132 5.61035L85.0119 5.58442C85.0093 5.54165 85.008 5.50146 85.0041 5.46127C85.0016 5.43924 84.999 5.4172 84.9951 5.39516L84.9925 5.37961C84.9873 5.33942 84.9821 5.30053 84.9743 5.26164C84.9704 5.2422 84.9666 5.22405 84.9627 5.20461C84.9536 5.16053 84.9419 5.11775 84.9303 5.07498L84.9173 5.02701C84.9147 5.01664 84.9108 5.00627 84.9069 4.9959L84.8966 4.96609C84.8797 4.91424 84.8603 4.86368 84.8408 4.81442C84.8304 4.78979 84.8201 4.76646 84.8084 4.74312C84.7916 4.70683 84.7734 4.67053 84.754 4.63553L84.7449 4.61868C84.728 4.58757 84.7112 4.55646 84.693 4.52665C84.614 4.4009 84.6529 4.23368 84.7786 4.1546C84.9056 4.07553 85.0716 4.11312 85.1506 4.24016L87.1067 7.36035C87.1249 7.38887 87.1417 7.41868 87.1586 7.44849C87.1664 7.46275 87.1741 7.47701 87.1806 7.49127C87.2091 7.54442 87.2312 7.58979 87.2532 7.63646C87.2649 7.6585 87.2727 7.67405 87.2791 7.68961C87.2843 7.69998 87.2895 7.71424 87.2934 7.72849C87.3193 7.78942 87.3414 7.85164 87.3634 7.91646C87.3725 7.93979 87.379 7.95535 87.3841 7.9709C87.3854 7.97479 87.3893 7.99035 87.3906 7.99424L87.4062 8.05257C87.4204 8.10572 87.4334 8.15887 87.4451 8.21331C87.4503 8.23794 87.4554 8.25998 87.4593 8.28331L87.4619 8.29757C87.4645 8.31053 87.4671 8.3235 87.4697 8.33646C87.4736 8.3572 87.4762 8.37924 87.4788 8.40257L87.4853 8.45183C87.4891 8.47776 87.4917 8.50368 87.4956 8.5309C87.5008 8.57887 87.5034 8.62942 87.506 8.67868L87.5073 8.70461C87.5086 8.72924 87.5099 8.75257 87.5112 8.7772C87.5125 8.83164 87.5112 8.88738 87.5086 8.94442C87.5086 8.94442 87.5086 8.94442 87.5086 8.94572V8.97164C87.5086 8.99109 87.5086 9.01053 87.5073 9.02998C87.5021 9.11813 87.4943 9.20498 87.4827 9.28794L85.7301 22.1485C85.7197 22.2276 85.7041 22.3118 85.6821 22.4129C85.6769 22.4363 85.6717 22.4596 85.6666 22.4829C85.6484 22.5594 85.6277 22.6359 85.6043 22.7124L85.5966 22.7409C85.5758 22.807 85.5525 22.8731 85.5265 22.9392C85.5227 22.9509 85.5175 22.9613 85.5136 22.9716L85.4851 23.0416C85.454 23.1155 85.4228 23.1816 85.3904 23.2465L85.3593 23.3087C85.3503 23.3255 85.3399 23.3437 85.3295 23.3605L85.3178 23.3813C85.2841 23.4422 85.2491 23.5031 85.2128 23.5615C85.2077 23.5705 85.2025 23.5809 85.196 23.59C85.1843 23.6094 85.1701 23.6289 85.1558 23.6483L85.126 23.6911C85.1014 23.7274 85.0754 23.7637 85.0495 23.7987C85.0417 23.8103 85.0353 23.8194 85.0288 23.8285C85.0132 23.8492 84.9964 23.8674 84.9808 23.8868L84.9432 23.9322C84.9212 23.9594 84.8978 23.9879 84.8745 24.0139C84.8667 24.0242 84.8603 24.032 84.8538 24.0398C84.8343 24.0618 84.8149 24.0813 84.7941 24.1007L84.7488 24.1474C84.7267 24.1694 84.706 24.1928 84.6827 24.2135C84.6775 24.2187 84.671 24.2265 84.6632 24.2329C84.6425 24.2524 84.6217 24.2705 84.5997 24.2887L84.5491 24.3328C84.5245 24.3548 84.5012 24.3755 84.4753 24.3963C84.4714 24.4002 84.4649 24.4053 84.4584 24.4105C84.4377 24.4274 84.4182 24.4416 84.3975 24.4559L84.3482 24.4922C84.3158 24.5168 84.2834 24.5415 84.2497 24.5635C84.2445 24.5674 84.2367 24.5739 84.2277 24.5791C84.2121 24.5894 84.194 24.5998 84.1758 24.6102L84.1577 24.6205C84.1045 24.6542 84.0514 24.6866 83.9956 24.7165C83.984 24.7242 83.9736 24.7307 83.9619 24.7359C83.9049 24.7657 83.8479 24.7929 83.7908 24.8189C83.7895 24.8189 83.7882 24.8202 83.7869 24.8202C83.7312 24.8448 83.6741 24.8681 83.6158 24.8902C83.6041 24.8941 83.5912 24.8992 83.5782 24.9031C83.5432 24.9148 83.516 24.9239 83.4888 24.9316C83.4304 24.9498 83.3773 24.9641 83.3241 24.9783C83.2943 24.9861 83.2645 24.9926 83.2334 24.9991C83.1777 25.0107 83.1206 25.0198 83.0623 25.0276L83.0403 25.0302C83.0208 25.0328 83.0014 25.0366 82.9806 25.0379C82.8912 25.0457 82.8082 25.0509 82.7291 25.0509ZM79.8267 24.5116H82.7291C82.7888 24.5116 82.8536 24.5078 82.9275 24.5C82.9391 24.4987 82.9508 24.4974 82.9612 24.4948L82.9897 24.4909C83.0351 24.4844 83.0791 24.4779 83.1245 24.4689C83.1491 24.4637 83.1725 24.4585 83.1958 24.452C83.2386 24.4416 83.2801 24.43 83.3228 24.417C83.3501 24.4079 83.3721 24.4015 83.3929 24.395L83.4227 24.3859C83.4784 24.3665 83.5238 24.347 83.5704 24.3263C83.5717 24.3263 83.573 24.325 83.573 24.325C83.6184 24.3042 83.6651 24.2822 83.7091 24.2589C83.7169 24.2537 83.7273 24.2472 83.7364 24.242C83.7817 24.2174 83.8258 24.1902 83.8699 24.1629C83.8828 24.1552 83.8958 24.1474 83.9088 24.1396C83.9153 24.1357 83.923 24.1318 83.9295 24.1279C83.9321 24.1253 83.9386 24.1202 83.9451 24.1163C83.9723 24.0981 83.9969 24.0787 84.0228 24.0592L84.0851 24.0139C84.0967 24.0048 84.1084 23.997 84.1201 23.9879L84.1343 23.975C84.1538 23.9594 84.1706 23.9439 84.1888 23.9283L84.2497 23.8752C84.264 23.8635 84.2782 23.8505 84.2925 23.8376C84.2951 23.835 84.3041 23.8246 84.308 23.822C84.3262 23.8052 84.3417 23.7883 84.3586 23.7715L84.413 23.7157C84.426 23.7028 84.4403 23.6885 84.4519 23.6755C84.4584 23.6678 84.4636 23.66 84.4701 23.6535C84.4882 23.6328 84.5064 23.6107 84.5245 23.5887L84.5712 23.5329C84.5815 23.5213 84.5919 23.5083 84.6023 23.4953C84.6075 23.4863 84.614 23.4785 84.6191 23.4707C84.6412 23.4409 84.6619 23.4111 84.6827 23.3813L84.7216 23.3268C84.7293 23.3152 84.7384 23.3048 84.7462 23.2918C84.7501 23.2841 84.7553 23.2763 84.7604 23.2685C84.7916 23.2192 84.8201 23.1674 84.8499 23.1155C84.8577 23.1026 84.8654 23.0896 84.8719 23.0766C84.8771 23.0689 84.881 23.0611 84.8849 23.0533L84.9108 23.0002C84.938 22.9444 84.964 22.8887 84.9886 22.8316L85.0275 22.7396C85.0495 22.6839 85.069 22.6281 85.0871 22.5711L85.0949 22.5452C85.1143 22.4842 85.1312 22.4181 85.1467 22.352C85.1519 22.3326 85.1558 22.3131 85.1597 22.295C85.1779 22.2081 85.1908 22.1368 85.1999 22.072L86.9525 9.21146C86.9615 9.14146 86.9693 9.06887 86.9732 8.99498C86.9732 8.98331 86.9732 8.97294 86.9745 8.96127L86.9758 8.92498C86.9771 8.87831 86.9784 8.83164 86.9784 8.78627C86.9784 8.76812 86.9771 8.75127 86.9758 8.73572L86.9745 8.70461C86.9719 8.66442 86.9706 8.62294 86.9667 8.58275C86.9641 8.56201 86.9616 8.54257 86.959 8.52312L86.9512 8.4622C86.9499 8.44924 86.9486 8.43627 86.946 8.42331L86.9253 8.3222C86.9162 8.27942 86.9058 8.23664 86.8941 8.19386L86.8812 8.1459C86.8799 8.14331 86.8773 8.13035 86.876 8.12646C86.8682 8.10701 86.863 8.09405 86.8591 8.08109C86.8423 8.03183 86.8241 7.98127 86.8034 7.93201C86.7982 7.92035 86.7943 7.90998 86.7904 7.89831C86.7814 7.88146 86.7762 7.87109 86.771 7.86072C86.7541 7.82313 86.736 7.78812 86.7166 7.75312C86.7101 7.74146 86.7049 7.73109 86.6997 7.71942C86.6829 7.6896 86.6699 7.66627 86.6556 7.64424L85.5564 5.89165C85.5564 5.89683 85.5564 5.90072 85.5551 5.9059C85.5499 5.99405 85.5421 6.0809 85.5304 6.16386L83.7778 19.0244C83.7675 19.1048 83.7506 19.1916 83.7299 19.2889C83.7247 19.3109 83.7195 19.3342 83.7143 19.3563C83.6962 19.4341 83.6754 19.5118 83.6521 19.587L83.6456 19.6103C83.6197 19.6907 83.5912 19.7711 83.5549 19.8592L83.5328 19.9111C83.5004 19.9876 83.4693 20.0537 83.4382 20.1185L83.4162 20.1639C83.4058 20.1846 83.3941 20.2053 83.3812 20.2274L83.3656 20.2546C83.3319 20.3155 83.2982 20.3765 83.2606 20.4348C83.2412 20.4659 83.2204 20.4957 83.1997 20.5255L83.1751 20.5618C83.1491 20.5994 83.1245 20.6357 83.0973 20.672C83.0701 20.7083 83.0416 20.7433 83.013 20.7783L82.9897 20.8068C82.9677 20.8353 82.9443 20.8626 82.9197 20.8898C82.8899 20.9248 82.8575 20.9572 82.8251 20.9909L82.7965 21.0207C82.7745 21.0441 82.7525 21.0674 82.7291 21.0894C82.6993 21.1179 82.6695 21.1452 82.6384 21.1724L82.5956 21.2113C82.571 21.2333 82.5477 21.2541 82.5217 21.2748C82.4971 21.2955 82.4712 21.315 82.444 21.3344L82.3973 21.3694C82.3636 21.3953 82.3299 21.42 82.2949 21.4433C82.2741 21.4576 82.2521 21.4718 82.2301 21.4848L82.2041 21.5003C82.151 21.5341 82.0965 21.5665 82.0421 21.5976C81.9825 21.63 81.9125 21.6676 81.8386 21.7C81.8347 21.7013 81.8308 21.7039 81.8269 21.7052C81.7608 21.7337 81.696 21.7596 81.6195 21.7868C81.5923 21.7959 81.5664 21.805 81.5391 21.8128C81.4795 21.8309 81.4264 21.8465 81.3732 21.8594C81.3434 21.8672 81.3136 21.8737 81.2825 21.8802C81.2254 21.8918 81.1684 21.9009 81.1114 21.9087L81.0893 21.9113C81.0699 21.9139 81.0504 21.9165 81.031 21.9191C80.939 21.9281 80.856 21.9333 80.7769 21.9333H78.2116L79.8267 24.5116Z" fill="#F7F7F8"/>
<path d="M36.2364 34.293L38.1926 37.4132H23.3448L21.3887 34.293H36.2364Z" fill="#D4D4D8"/>
<path d="M38.1921 37.6829H23.3443C23.251 37.6829 23.1654 37.6349 23.1162 37.5558L21.1601 34.4357C21.1082 34.3527 21.1056 34.2477 21.1523 34.1621C21.2003 34.0766 21.2897 34.0234 21.3882 34.0234H36.236C36.3293 34.0234 36.4149 34.0714 36.4641 34.1505L38.4203 37.2707C38.4721 37.3536 38.4747 37.4586 38.428 37.5442C38.3801 37.6297 38.2906 37.6829 38.1921 37.6829ZM23.4934 37.1436H37.7047L36.0869 34.5627H21.8756L23.4934 37.1436Z" fill="#F7F7F8"/>
<path d="M79.6763 24.7803L77.7215 21.6602L70.3417 46.89L66.0017 61.7274L65.2188 64.4029L67.1736 67.5231L67.9565 64.8476L72.2939 50.0218L79.6763 24.7803Z" fill="#D4D4D8"/>
<path d="M67.2643 68.1748L64.9258 64.4428L70.2899 46.108L77.6308 21.0078L79.9693 24.7399L79.9356 24.8565L72.5532 50.098L67.2643 68.1748ZM65.5104 64.3624L67.0828 66.8721L79.3834 24.8215L77.811 22.3119L70.3936 47.6726L65.5104 64.3624Z" fill="#F7F7F8"/>
<path d="M70.3186 46.9258L66.0019 61.7269L65.219 64.4024H49.7334L70.3186 46.9258Z" fill="#D4D4D8"/>
<path d="M65.2187 64.6713H49.7332C49.6204 64.6713 49.5193 64.6013 49.4804 64.495C49.4415 64.3887 49.4726 64.2695 49.5595 64.1969L70.1446 46.7202C70.2354 46.6437 70.3663 46.6346 70.4661 46.6995C70.5659 46.7643 70.6113 46.8874 70.5789 47.0015L66.2622 61.8026L65.4793 64.4795C65.443 64.5922 65.338 64.6713 65.2187 64.6713ZM50.4669 64.132H65.0152L65.7411 61.6496L69.8063 47.7119L50.4669 64.132Z" fill="#F7F7F8"/>
<path d="M25.0829 21.6602H77.7216L70.3353 46.9133L54.8458 46.9263L49.7332 64.4029H12.5801L15.1364 55.6646H29.9842L36.2362 34.2926H21.3884L25.0829 21.6602Z" fill="#F7F7F8"/>
<path d="M49.7328 64.6727H12.5797C12.4941 64.6727 12.4151 64.6325 12.3645 64.5651C12.3139 64.4977 12.2971 64.4095 12.3217 64.3278L14.878 55.5895C14.9117 55.4741 15.0167 55.3951 15.1373 55.3951H29.7828L35.8767 34.5623H21.388C21.3025 34.5623 21.2234 34.5221 21.1728 34.4547C21.1223 34.3873 21.1054 34.2991 21.1301 34.2175L24.8258 21.5851C24.8595 21.4697 24.9645 21.3906 25.0851 21.3906H77.7225C77.808 21.3906 77.8871 21.4308 77.9377 21.4982C77.9882 21.5656 78.0051 21.6538 77.9804 21.7354L70.5941 46.9886C70.5604 47.104 70.4554 47.183 70.3362 47.183L55.049 47.196L49.9934 64.4795C49.9584 64.5936 49.8521 64.6727 49.7328 64.6727ZM12.9401 64.1334H49.5306L54.5862 46.8499C54.6199 46.7345 54.7249 46.6554 54.8441 46.6554L70.1314 46.6425L77.3595 21.9286H25.2847L21.7471 34.0217H36.2358C36.3214 34.0217 36.4004 34.0619 36.451 34.1293C36.5015 34.1967 36.5184 34.2849 36.4938 34.3666L30.2417 55.7386C30.208 55.854 30.103 55.933 29.9825 55.933H15.3382L12.9401 64.1334Z" fill="#F7F7F8"/>
<path d="M38.225 21.5352L38.1887 21.6583L38.0837 22.0161L33.6465 37.184L33.5052 37.665L29.0693 52.8329L28.928 53.3152L25.6846 64.4011H25.2607L28.5041 53.3152L28.6454 52.8342L33.0813 37.6663L33.2226 37.1853L37.6598 22.0161L37.7635 21.6583L37.7998 21.5352H38.225Z" fill="#F7F7F8"/>
<path d="M52.0111 21.5234L51.9709 21.6608L51.8711 22.0044L47.4339 37.1723L47.2939 37.6533H47.2926L42.8567 52.8225L42.7154 53.3034L39.4682 64.4036H39.043L42.2915 53.3034L42.4315 52.8225L46.8687 37.6545L47.0087 37.1736L51.4459 22.0044H51.4472L51.547 21.6608L51.5859 21.5234H52.0111Z" fill="#F7F7F8"/>
<path d="M65.7982 21.5078L65.7541 21.6595L65.6582 21.9887L61.221 37.1567L61.081 37.6376L56.6425 52.8069L56.5025 53.2878L53.2514 64.4023H52.8262L56.0786 53.2878L56.2186 52.8069L60.6558 37.6389L60.7971 37.158L65.233 21.99L65.3302 21.6595L65.3743 21.5078H65.7982Z" fill="#F7F7F8"/>
<path d="M73.192 37.1445L73.0507 37.6255L61.0807 37.6371L60.6556 37.6384L47.2933 37.6514H47.292L46.8681 37.6527L33.5046 37.6656L33.0807 37.6669L20.3965 37.6799L20.5378 37.199L33.222 37.186L33.6459 37.1847L47.0082 37.1718L47.4333 37.1705L60.7969 37.1575L61.2207 37.1562L73.192 37.1445Z" fill="#F7F7F8"/>
<path d="M68.6149 52.793L68.4736 53.2739L56.5023 53.2869H56.0784L42.7149 53.3011H42.291L28.9275 53.3154H28.5036L15.8193 53.3283L15.9606 52.8474L28.6449 52.8344L29.0688 52.8332L42.431 52.8202H42.8562L56.2184 52.8059H56.6423L68.6149 52.793Z" fill="#F7F7F8"/>
<path d="M65.2188 64.4023H49.7332H12.5801L14.5362 67.5225H51.6893H67.1736L65.2188 64.4023Z" fill="#D4D4D8"/>
<path d="M67.1732 67.791H14.5357C14.4424 67.791 14.3569 67.743 14.3076 67.6639L12.3515 64.545C12.2996 64.4621 12.297 64.3571 12.3437 64.2715C12.3917 64.186 12.4811 64.1328 12.5796 64.1328H65.217C65.3104 64.1328 65.3959 64.1808 65.4452 64.2598L67.4013 67.38C67.4532 67.463 67.4557 67.568 67.4091 67.6535C67.3624 67.7378 67.2717 67.791 67.1732 67.791ZM14.6848 67.2517H66.6857L65.068 64.6708H13.067L14.6848 67.2517Z" fill="#F7F7F8"/>
<path d="M21.3885 34.293H36.2362L29.9842 55.665H15.1364H0.270508L6.52254 34.293H21.3885ZM30.1035 40.1769C30.3666 40.1769 30.6116 39.937 30.6518 39.6415C30.692 39.3446 30.5131 39.1061 30.25 39.1061H9.37569C9.11384 39.1061 8.86884 39.3459 8.82866 39.6415C8.78847 39.937 8.96866 40.1769 9.22921 40.1769H30.1035ZM28.9653 44.0709C29.2285 44.0709 29.4735 43.8311 29.5137 43.5356C29.5538 43.2387 29.375 43.0002 29.1118 43.0002H8.23754C7.97569 43.0002 7.73069 43.24 7.69051 43.5356C7.65032 43.8311 7.83051 44.0709 8.09106 44.0709H28.9653ZM27.8259 47.9663C28.089 47.9663 28.334 47.7265 28.3742 47.4309C28.4144 47.1354 28.2342 46.8956 27.9724 46.8956H14.2135C13.9503 46.8956 13.7053 47.1354 13.6651 47.4309C13.625 47.7278 13.8038 47.9663 14.067 47.9663H27.8259Z" fill="#D4D4D8"/>
<path d="M29.9838 55.9347H0.270121C0.184565 55.9347 0.10549 55.8945 0.0549349 55.8271C0.00437936 55.7597 -0.0124727 55.6716 0.0121569 55.5899L6.26419 34.2179C6.2979 34.1025 6.4029 34.0234 6.52345 34.0234H36.2372C36.3227 34.0234 36.4018 34.0636 36.4523 34.131C36.5029 34.1984 36.5197 34.2866 36.4951 34.3682L30.2431 55.7403C30.2094 55.8557 30.1031 55.9347 29.9838 55.9347ZM0.629193 55.3955H29.7816L35.8755 34.5627H6.72438L0.629193 55.3955ZM27.8255 48.236H14.0666C13.8722 48.236 13.6946 48.1557 13.5688 48.0105C13.4288 47.8497 13.3666 47.6255 13.3977 47.3934C13.456 46.9631 13.8138 46.626 14.2131 46.626H27.9707C28.1651 46.626 28.3427 46.7064 28.4697 46.8516C28.6097 47.0123 28.672 47.2366 28.6409 47.4673C28.5812 47.8977 28.2235 48.236 27.8255 48.236ZM14.2131 47.1653C14.1003 47.1653 13.9564 47.2897 13.9318 47.4673C13.9214 47.5451 13.937 47.6138 13.9746 47.6566C13.9979 47.6838 14.029 47.6968 14.0666 47.6968H27.8255C27.9383 47.6968 28.0822 47.5723 28.1068 47.3934C28.1172 47.317 28.1016 47.2482 28.064 47.2055C28.0407 47.1782 28.0096 47.1653 27.972 47.1653H14.2131ZM28.9649 44.3407H8.09068C7.89623 44.3407 7.71993 44.2603 7.5929 44.1151C7.4529 43.9544 7.39068 43.7301 7.42179 43.4994C7.48012 43.0677 7.8379 42.7307 8.23586 42.7307H29.1088C29.3033 42.7307 29.4809 42.811 29.6066 42.9562C29.7466 43.117 29.8088 43.3412 29.7777 43.5733C29.7207 44.0036 29.3629 44.3407 28.9649 44.3407ZM8.23716 43.2699C8.12438 43.2699 7.98179 43.3944 7.95716 43.5733C7.94679 43.6497 7.96234 43.7184 7.99993 43.7612C8.02327 43.7884 8.05308 43.8014 8.09068 43.8014H28.9636C29.0764 43.8014 29.2203 43.677 29.2449 43.4994C29.2553 43.4216 29.2397 43.3529 29.2022 43.3101C29.1788 43.2829 29.1477 43.2699 29.1101 43.2699H8.23716ZM30.1031 40.4466H9.23012C9.03568 40.4466 8.85938 40.3662 8.73234 40.221C8.59234 40.0603 8.53012 39.836 8.56123 39.6053C8.61956 39.1736 8.97734 38.8366 9.3753 38.8366H30.2496C30.444 38.8366 30.6216 38.917 30.7473 39.0621C30.8873 39.2229 30.9496 39.4471 30.9185 39.6792C30.8601 40.1095 30.501 40.4466 30.1031 40.4466ZM9.3753 39.3758C9.26253 39.3758 9.11994 39.5003 9.09531 39.6792C9.08494 39.7557 9.10049 39.8244 9.13808 39.8671C9.16142 39.8944 9.19123 39.9073 9.22882 39.9073H30.1018C30.2146 39.9073 30.3585 39.7829 30.3831 39.6053C30.3935 39.5275 30.3779 39.4588 30.3403 39.416C30.317 39.3888 30.2859 39.3758 30.2483 39.3758H9.3753Z" fill="#F7F7F8"/>
<path d="M29.9842 55.6641H15.1364H0.270508L2.22532 58.7842H17.0925H31.9403L29.9842 55.6641Z" fill="#D4D4D8"/>
<path d="M31.9402 59.054H2.2252C2.13186 59.054 2.04631 59.006 1.99705 58.9269L0.0409355 55.8068C-0.0109164 55.7238 -0.0135086 55.6188 0.033158 55.5332C0.081121 55.4477 0.170564 55.3945 0.269083 55.3945H29.9828C30.0761 55.3945 30.1617 55.4425 30.2109 55.5216L32.167 58.6418C32.2189 58.7247 32.2215 58.8297 32.1748 58.9153C32.1282 59.0008 32.0374 59.054 31.9402 59.054ZM2.37427 58.5147H31.4515L29.8337 55.9338H0.756492L2.37427 58.5147Z" fill="#F7F7F8"/>
<path d="M36.2364 34.2891L38.1925 37.4092L31.9405 58.7813L29.9844 55.6611L36.2364 34.2891Z" fill="#D4D4D8"/>
<path d="M31.9402 59.0522C31.8482 59.0522 31.7613 59.0055 31.7121 58.9252L29.7559 55.805C29.7145 55.7402 29.7041 55.6598 29.7261 55.5859L35.9782 34.2139C36.008 34.1115 36.0948 34.0376 36.1998 34.022C36.3048 34.0078 36.4085 34.0557 36.4656 34.1465L38.4217 37.2666C38.4632 37.3315 38.4735 37.4118 38.4515 37.4857L32.1995 58.8578C32.1697 58.9602 32.0828 59.034 31.9778 59.0496C31.9648 59.0522 31.9519 59.0522 31.9402 59.0522ZM30.2771 55.6222L31.8495 58.1318L37.8993 37.452L36.3269 34.9424L30.2771 55.6222Z" fill="#F7F7F8"/>
<path d="M70.3176 46.9258L49.7324 64.4024L54.845 46.9258H70.3176Z" fill="#D4D4D8"/>
<path d="M49.7329 64.6735C49.6823 64.6735 49.6304 64.6592 49.5864 64.6294C49.4866 64.5646 49.4412 64.4414 49.4749 64.3274L54.5875 46.8507C54.6212 46.7353 54.7262 46.6562 54.8467 46.6562H70.3193C70.4321 46.6562 70.5332 46.7263 70.5721 46.8326C70.611 46.9388 70.5799 47.0581 70.493 47.1307L49.9079 64.6074C49.8573 64.6527 49.7951 64.6735 49.7329 64.6735ZM55.0477 47.1968L50.2436 63.6157L69.583 47.1968H55.0477Z" fill="#F7F7F8"/>
<path d="M83.2558 3.44531C84.5651 3.44531 85.4634 4.64439 85.2625 6.12346L83.5099 18.984C83.309 20.4618 82.0827 21.6609 80.7734 21.6609H80.0151H77.7219H25.0832H20.7782C19.4677 21.6609 18.5694 20.4618 18.7703 18.984L20.5229 6.12346C20.7251 4.64439 21.9501 3.44531 23.2607 3.44531H31.8136L30.6832 11.7416C30.5821 12.4818 31.0307 13.0794 31.6866 13.0794H33.8864C34.541 13.0794 35.1542 12.4805 35.254 11.7416L36.3844 3.44531H70.1321L69.0018 11.7416C68.9006 12.4818 69.3505 13.0794 70.0051 13.0794H72.2049C72.8595 13.0794 73.4727 12.4805 73.5738 11.7416L74.7042 3.44531H83.2558Z" fill="#D4D4D8"/>
<path d="M80.7731 21.9293H20.7779C20.122 21.9293 19.527 21.661 19.1005 21.1723C18.6053 20.6045 18.3875 19.7943 18.5029 18.9465L20.2555 6.08596C20.4746 4.48115 21.8214 3.17578 23.2603 3.17578H31.8133C31.8911 3.17578 31.965 3.20948 32.0168 3.26782C32.0687 3.32615 32.092 3.40393 32.0803 3.48171L30.95 11.778C30.9085 12.0865 30.9824 12.3756 31.1522 12.57C31.2896 12.7269 31.4737 12.8099 31.6863 12.8099H33.8861C34.4098 12.8099 34.9037 12.3147 34.9866 11.7054L36.117 3.40911C36.1351 3.27559 36.2492 3.17578 36.384 3.17578H70.1318C70.2096 3.17578 70.2835 3.20948 70.3353 3.26782C70.3859 3.32615 70.4092 3.40393 70.3988 3.48171L69.2685 11.778C69.227 12.0852 69.3009 12.3743 69.4707 12.57C69.6081 12.7269 69.7922 12.8099 70.0048 12.8099H72.2046C72.7205 12.8099 73.2248 12.3043 73.3064 11.7054L74.4368 3.40911C74.455 3.27559 74.569 3.17578 74.7038 3.17578H83.2568C83.9114 3.17578 84.5064 3.44411 84.9329 3.93282C85.4281 4.5006 85.6459 5.31208 85.5305 6.15985L83.7779 19.0204C83.5575 20.6239 82.2107 21.9293 80.7731 21.9293ZM23.2603 3.71504C22.082 3.71504 20.9737 4.81171 20.7896 6.15985L19.037 19.0204C18.9424 19.7126 19.1135 20.3686 19.5062 20.8184C19.829 21.1878 20.2801 21.3913 20.7779 21.3913H80.7731C81.9514 21.3913 83.0585 20.296 83.2425 18.9478L84.9951 6.08726C85.0898 5.39374 84.9187 4.73782 84.5259 4.288C84.2044 3.91856 83.7533 3.71633 83.2555 3.71633H74.9385L73.8392 11.7793C73.7187 12.6608 73.0005 13.3504 72.2033 13.3504H70.0035C69.6366 13.3504 69.3022 13.2 69.0637 12.9252C68.7901 12.6128 68.6696 12.1682 68.7331 11.7054L69.822 3.71504H36.62L35.5207 11.778C35.4001 12.6595 34.682 13.3491 33.8861 13.3491H31.6863C31.3194 13.3491 30.985 13.1987 30.7464 12.9252C30.4729 12.6128 30.3524 12.1682 30.4159 11.7054L31.5048 3.71504H23.2603Z" fill="#F7F7F8"/>
<path d="M27.9707 46.8945C28.2339 46.8945 28.4128 47.1343 28.3726 47.4299C28.3324 47.7268 28.0874 47.9653 27.8243 47.9653H14.0667C13.8035 47.9653 13.6246 47.7255 13.6648 47.4299C13.705 47.1343 13.95 46.8945 14.2132 46.8945H27.9707Z" fill="#D4D4D8"/>
<path d="M27.8253 48.235H14.0664C13.8719 48.235 13.6944 48.1546 13.5686 48.0094C13.4286 47.8487 13.3664 47.6244 13.3975 47.3924C13.4558 46.962 13.8136 46.625 14.2129 46.625H27.9705C28.1649 46.625 28.3425 46.7054 28.4695 46.8506C28.6095 47.0113 28.6718 47.2356 28.6406 47.4663C28.581 47.8967 28.2232 48.235 27.8253 48.235ZM14.2129 47.1643C14.1001 47.1643 13.9562 47.2887 13.9316 47.4663C13.9212 47.5441 13.9368 47.6128 13.9744 47.6556C13.9977 47.6828 14.0288 47.6957 14.0664 47.6957H27.8253C27.9381 47.6957 28.0819 47.5713 28.1066 47.3924C28.1169 47.3159 28.1014 47.2472 28.0638 47.2044C28.0405 47.1772 28.0094 47.1643 27.9718 47.1643H14.2129Z" fill="#D4D4D8"/>
<path d="M30.2499 39.1055C30.513 39.1055 30.6919 39.3453 30.6517 39.6408C30.6115 39.9364 30.3665 40.1762 30.1034 40.1762H9.23041C8.96856 40.1762 8.78967 39.9364 8.82986 39.6408C8.87004 39.344 9.11504 39.1055 9.37689 39.1055H30.2499Z" fill="#D4D4D8"/>
<path d="M30.1034 40.4459H9.23045C9.03601 40.4459 8.85971 40.3656 8.73267 40.2204C8.59267 40.0596 8.53045 39.8354 8.56156 39.6046C8.6199 39.173 8.97767 38.8359 9.37564 38.8359H30.2486C30.443 38.8359 30.6206 38.9163 30.7464 39.0615C30.8864 39.2222 30.9486 39.4465 30.9175 39.6785C30.8605 40.1089 30.5014 40.4459 30.1034 40.4459ZM9.37564 39.3752C9.26286 39.3752 9.12027 39.4996 9.09564 39.6785C9.08527 39.755 9.10082 39.8237 9.13842 39.8665C9.16175 39.8937 9.19156 39.9067 9.22916 39.9067H30.1021C30.2149 39.9067 30.3588 39.7822 30.3834 39.6046C30.3938 39.5269 30.3782 39.4582 30.3406 39.4154C30.3173 39.3882 30.2862 39.3752 30.2486 39.3752H9.37564Z" fill="#D4D4D8"/>
<path d="M29.1102 43C29.3734 43 29.5522 43.2398 29.5121 43.5354C29.4719 43.8309 29.2269 44.0707 28.9637 44.0707H8.09077C7.82891 44.0707 7.65002 43.8309 7.69021 43.5354C7.73039 43.2385 7.97539 43 8.23725 43H29.1102Z" fill="#D4D4D8"/>
<path d="M28.9651 44.3405H8.0908C7.89636 44.3405 7.72006 44.2601 7.59302 44.1149C7.45302 43.9542 7.3908 43.7299 7.42191 43.4992C7.48025 43.0675 7.83802 42.7305 8.23599 42.7305H29.109C29.3034 42.7305 29.481 42.8108 29.6067 42.956C29.7467 43.1168 29.809 43.341 29.7778 43.5731C29.7208 44.0034 29.363 44.3405 28.9651 44.3405ZM8.23728 43.2697C8.12451 43.2697 7.98191 43.3942 7.95728 43.5731C7.94691 43.6495 7.96247 43.7182 8.00006 43.761C8.02339 43.7882 8.05321 43.8012 8.0908 43.8012H28.9638C29.0765 43.8012 29.2204 43.6768 29.2451 43.4992C29.2554 43.4214 29.2399 43.3527 29.2023 43.3099C29.179 43.2827 29.1478 43.2697 29.1103 43.2697H8.23728Z" fill="#D4D4D8"/>
</svg>
