<svg width="200" height="200" viewBox="0 0 200 200" fill="none" xmlns="http://www.w3.org/2000/svg">
<path d="M100 163.598C137.759 163.598 168.369 151.59 168.369 136.777C168.369 121.965 137.759 109.957 100 109.957C62.2411 109.957 31.6315 121.965 31.6315 136.777C31.6315 151.59 62.2411 163.598 100 163.598Z" fill="#F7F7F8"/>
<path d="M163.181 71.9766L167.306 77.6006L151.807 122.736L147.683 117.112L163.181 71.9766Z" fill="#D4D4D8"/>
<path d="M151.807 123.153C151.676 123.153 151.55 123.09 151.472 122.982L147.346 117.358C147.265 117.249 147.244 117.106 147.289 116.977L162.787 71.8434C162.837 71.6971 162.965 71.5897 163.119 71.5675C163.272 71.5434 163.426 71.6082 163.517 71.7323L167.643 77.3564C167.724 77.4656 167.744 77.6082 167.7 77.7378L152.202 122.871C152.152 123.017 152.024 123.125 151.87 123.147C151.85 123.151 151.828 123.153 151.807 123.153ZM148.148 117.04L151.674 121.845L166.843 77.6712L163.317 72.8656L148.148 117.04Z" fill="#F7F7F8"/>
<path d="M167.133 70.0625L171.259 75.6866L154.798 124.651L150.374 119.027L167.133 70.0625Z" fill="#D4D4D8"/>
<path d="M154.798 125.067C154.672 125.067 154.55 125.01 154.47 124.908L150.046 119.284C149.959 119.173 149.933 119.025 149.98 118.892L166.739 69.9267C166.789 69.7804 166.917 69.673 167.07 69.6489C167.224 69.6267 167.378 69.6897 167.468 69.8138L171.594 75.4378C171.674 75.5471 171.696 75.6878 171.654 75.8175L155.193 124.782C155.144 124.927 155.018 125.034 154.868 125.06C154.846 125.066 154.822 125.067 154.798 125.067ZM150.841 118.947L154.648 123.788L170.794 75.76L167.268 70.9526L150.841 118.947Z" fill="#F7F7F8"/>
<path d="M150.374 119.027H63.6019L28.7408 136.533H115.813L150.374 119.027ZM137.148 123.094L131.77 125.761L126.387 128.429L120.032 131.577H119.524L115.043 133.798H39.6815L44.163 131.577H43.6463L49.2722 128.79L54.4111 126.244L59.7889 123.577L66.1445 120.427H71.9426H77.7371H83.5352H89.3296H95.1278H100.924H106.72H112.517H118.313H124.109H129.906H136.73H142.526L137.148 123.094Z" fill="#D4D4D8"/>
<path d="M115.813 136.948H28.7407C28.5481 136.948 28.3796 136.815 28.3352 136.628C28.2907 136.441 28.3815 136.246 28.5537 136.159L63.413 118.654C63.4704 118.624 63.5352 118.609 63.6 118.609H150.372C150.565 118.609 150.733 118.741 150.778 118.93C150.822 119.117 150.733 119.311 150.561 119.398L116.002 136.904C115.943 136.933 115.878 136.948 115.813 136.948ZM30.5 136.115H115.715L148.628 119.443H63.7L30.5 136.115ZM115.043 134.213H39.6815C39.487 134.213 39.3204 134.08 39.2759 133.891C39.2315 133.702 39.3241 133.509 39.4963 133.422L43.2296 131.572C43.2315 131.419 43.3185 131.272 43.4611 131.202L65.9593 120.05C66.0167 120.022 66.0796 120.008 66.1444 120.008H142.53C142.722 120.008 142.891 120.141 142.935 120.33C142.98 120.519 142.887 120.711 142.715 120.798L120.217 131.95C120.159 131.978 120.096 131.993 120.031 131.993H119.62L115.226 134.17C115.17 134.198 115.107 134.213 115.043 134.213ZM41.4611 133.38H114.946L119.341 131.202C119.398 131.174 119.461 131.159 119.526 131.159H119.937L140.754 120.841H66.2426L44.5796 131.578C44.5778 131.732 44.4907 131.878 44.3481 131.948L41.4611 133.38Z" fill="#F7F7F8"/>
<path d="M115.813 136.535H28.7407V143.168H115.813V136.535Z" fill="#D4D4D8"/>
<path d="M115.813 143.584H28.7407C28.5111 143.584 28.3241 143.397 28.3241 143.167V136.534C28.3241 136.304 28.5111 136.117 28.7407 136.117H115.813C116.043 136.117 116.23 136.304 116.23 136.534V143.167C116.23 143.397 116.043 143.584 115.813 143.584ZM29.1574 142.751H115.396V136.951H29.1574V142.751Z" fill="#F7F7F8"/>
<path d="M136.733 120.426H129.911H124.113H118.317H112.52H106.724H100.928H95.1296H89.3315H83.537H77.7389H71.9444H66.1444L59.7907 123.576L54.4129 126.242L49.2741 128.789L43.6463 131.576L39.2296 133.798H115.393L120.031 131.576L126.385 128.428L131.767 125.759L137.144 123.094L142.53 120.426H136.733Z" fill="#D4D4D8"/>
<path d="M115.393 134.215H39.2296C39.037 134.215 38.8685 134.082 38.8241 133.895C38.7796 133.708 38.8704 133.514 39.0426 133.427L43.4593 131.206L65.9593 120.054C66.0167 120.027 66.0796 120.012 66.1444 120.012H142.53C142.724 120.012 142.891 120.145 142.935 120.334C142.98 120.523 142.887 120.715 142.715 120.802L120.217 131.954L115.57 134.178C115.515 134.201 115.454 134.215 115.393 134.215ZM40.987 133.382H115.296L119.852 131.202L140.75 120.843H66.2407L43.8296 131.951L40.987 133.382Z" fill="#F7F7F8"/>
<path d="M130.77 126L125.385 128.669H119.589L124.972 126H130.77Z" fill="#D4D4D8"/>
<path d="M125.385 129.038H119.589C119.417 129.038 119.267 128.92 119.228 128.753C119.189 128.586 119.27 128.412 119.424 128.336L124.807 125.668C124.859 125.642 124.915 125.629 124.972 125.629H130.77C130.943 125.629 131.093 125.747 131.131 125.914C131.17 126.081 131.089 126.255 130.935 126.331L125.55 128.999C125.498 129.025 125.443 129.038 125.385 129.038ZM121.17 128.297H125.3L129.191 126.37H125.059L121.17 128.297Z" fill="#F7F7F8"/>
<path d="M89.3574 120.668L83.9759 123.336H78.1815L83.5629 120.668H89.3574Z" fill="#D4D4D8"/>
<path d="M83.9759 123.706H78.1815C78.0093 123.706 77.8593 123.588 77.8204 123.421C77.7815 123.254 77.863 123.08 78.0167 123.004L83.4 120.336C83.4518 120.31 83.5074 120.297 83.5648 120.297H89.3593C89.5315 120.297 89.6815 120.415 89.7204 120.582C89.7592 120.749 89.6778 120.923 89.5241 120.999L84.1407 123.667C84.0889 123.693 84.0333 123.706 83.9759 123.706ZM79.763 122.965H83.8889L87.7778 121.038H83.6518L79.763 122.965Z" fill="#F7F7F8"/>
<path d="M124.141 120.668L118.757 123.336H112.961L118.344 120.668H124.141Z" fill="#D4D4D8"/>
<path d="M118.757 123.706H112.961C112.789 123.706 112.639 123.588 112.6 123.421C112.561 123.254 112.643 123.08 112.796 123.004L118.18 120.336C118.231 120.31 118.287 120.297 118.344 120.297H124.141C124.313 120.297 124.463 120.415 124.502 120.582C124.541 120.749 124.459 120.923 124.306 120.999L118.922 123.667C118.872 123.693 118.815 123.706 118.757 123.706ZM114.543 122.965H118.672L122.561 121.038H118.431L114.543 122.965Z" fill="#F7F7F8"/>
<path d="M96.4018 128.668L91.024 131.335H67.8351L73.2148 128.668H79.0092H84.8092H90.6055H96.4018Z" fill="#D4D4D8"/>
<path d="M91.0241 131.704H67.8352C67.6629 131.704 67.5129 131.586 67.4741 131.419C67.4352 131.252 67.5167 131.078 67.6704 131.002L73.05 128.336C73.1018 128.31 73.1574 128.297 73.2148 128.297H96.4018C96.5741 128.297 96.7241 128.415 96.7629 128.582C96.8018 128.749 96.7204 128.923 96.5666 128.999L91.1889 131.665C91.137 131.691 91.0815 131.704 91.0241 131.704ZM69.4166 130.964H90.937L94.8204 129.038H73.3018L69.4166 130.964Z" fill="#F7F7F8"/>
<path d="M55.8222 128.668L50.4463 131.335H44.6481L50.0278 128.668H55.8222Z" fill="#D4D4D8"/>
<path d="M50.4463 131.704H44.65C44.4778 131.704 44.3278 131.586 44.2889 131.419C44.25 131.252 44.3315 131.078 44.4852 131.002L49.8648 128.336C49.9166 128.31 49.9722 128.297 50.0296 128.297H55.8241C55.9963 128.297 56.1463 128.415 56.1852 128.582C56.2241 128.749 56.1426 128.923 55.9889 128.999L50.6092 131.665C50.5592 131.691 50.5018 131.704 50.4463 131.704ZM46.2296 130.964H50.3574L54.2407 129.038H50.1148L46.2296 130.964Z" fill="#F7F7F8"/>
<path d="M61.2055 126L55.8222 128.669H50.0277L55.411 126H61.2055Z" fill="#D4D4D8"/>
<path d="M55.8222 129.038H50.0277C49.8555 129.038 49.7055 128.92 49.6666 128.753C49.6277 128.586 49.7092 128.412 49.8629 128.336L55.2462 125.668C55.2981 125.642 55.3537 125.629 55.4111 125.629H61.2055C61.3777 125.629 61.5277 125.747 61.5666 125.914C61.6055 126.081 61.524 126.255 61.3703 126.331L55.987 128.999C55.937 129.025 55.8796 129.038 55.8222 129.038ZM51.6092 128.297H55.7351L59.624 126.37H55.4981L51.6092 128.297Z" fill="#F7F7F8"/>
<path d="M61.6222 128.668L56.2425 131.335H50.4462L55.8222 128.668H61.6222Z" fill="#D4D4D8"/>
<path d="M56.2425 131.704H50.4463C50.274 131.704 50.124 131.586 50.0851 131.419C50.0462 131.252 50.1277 131.078 50.2814 131.002L55.6592 128.336C55.7111 128.31 55.7666 128.297 55.824 128.297H61.6222C61.7944 128.297 61.9444 128.415 61.9833 128.582C62.0222 128.749 61.9407 128.923 61.787 128.999L56.4074 131.665C56.3555 131.691 56.3 131.704 56.2425 131.704ZM52.0259 130.964H56.1555L60.0407 129.038H55.9092L52.0259 130.964Z" fill="#F7F7F8"/>
<path d="M67.0037 126L61.6222 128.669H55.8222L61.2055 126H67.0037Z" fill="#D4D4D8"/>
<path d="M61.6222 129.038H55.8241C55.6518 129.038 55.5018 128.92 55.4629 128.753C55.4241 128.586 55.5055 128.412 55.6592 128.336L61.0426 125.668C61.0944 125.642 61.15 125.629 61.2074 125.629H67.0055C67.1778 125.629 67.3278 125.747 67.3667 125.914C67.4055 126.081 67.3241 126.255 67.1704 126.331L61.787 128.999C61.7352 129.025 61.6796 129.038 61.6222 129.038ZM57.4037 128.297H61.5352L65.4241 126.37H61.2926L57.4037 128.297Z" fill="#F7F7F8"/>
<path d="M72.3814 123.336L67.0037 126.001H61.2055H55.4111L60.7889 123.336H66.587H72.3814Z" fill="#D4D4D8"/>
<path d="M67.0037 126.372H55.4111C55.2389 126.372 55.0889 126.254 55.05 126.087C55.0111 125.92 55.0926 125.746 55.2463 125.67L60.6241 123.004C60.6759 122.978 60.7315 122.965 60.7889 122.965H72.3815C72.5537 122.965 72.7037 123.083 72.7426 123.25C72.7815 123.417 72.7 123.591 72.5463 123.667L67.1685 126.333C67.1185 126.359 67.0611 126.372 67.0037 126.372ZM56.9926 125.632H66.9185L70.8018 123.706H60.8759L56.9926 125.632Z" fill="#F7F7F8"/>
<path d="M72.7981 126L67.4166 128.669H61.6222L67.0037 126H72.7981Z" fill="#D4D4D8"/>
<path d="M67.4167 129.038H61.6222C61.45 129.038 61.3 128.92 61.2611 128.753C61.2222 128.586 61.3037 128.412 61.4574 128.336L66.8407 125.668C66.8926 125.642 66.9481 125.629 67.0055 125.629H72.8C72.9722 125.629 73.1222 125.747 73.1611 125.914C73.2 126.081 73.1185 126.255 72.9648 126.331L67.5815 128.999C67.5296 129.025 67.4741 129.038 67.4167 129.038ZM63.2037 128.297H67.3296L71.2185 126.37H67.0926L63.2037 128.297Z" fill="#F7F7F8"/>
<path d="M78.1814 123.336L72.7981 126.001H67.0037L72.3814 123.336H78.1814Z" fill="#D4D4D8"/>
<path d="M72.7981 126.372H67.0037C66.8315 126.372 66.6815 126.254 66.6426 126.087C66.6037 125.92 66.6852 125.746 66.8389 125.67L72.2166 123.004C72.2685 122.978 72.3241 122.965 72.3815 122.965H78.1796C78.3518 122.965 78.5018 123.083 78.5407 123.25C78.5796 123.417 78.4981 123.591 78.3444 123.667L72.9629 126.335C72.9129 126.359 72.8555 126.372 72.7981 126.372ZM68.5852 125.632H72.7129L76.6 123.706H72.4703L68.5852 125.632Z" fill="#F7F7F8"/>
<path d="M83.563 120.668L78.1815 123.336H72.3815L77.7648 120.668H83.563Z" fill="#D4D4D8"/>
<path d="M78.1815 123.706H72.3833C72.2111 123.706 72.0611 123.588 72.0222 123.421C71.9833 123.254 72.0648 123.08 72.2185 123.004L77.6018 120.336C77.6537 120.31 77.7092 120.297 77.7667 120.297H83.5648C83.737 120.297 83.887 120.415 83.9259 120.582C83.9648 120.749 83.8833 120.923 83.7296 120.999L78.3463 123.667C78.2944 123.693 78.2389 123.706 78.1815 123.706ZM73.9629 122.965H78.0944L81.9833 121.038H77.8518L73.9629 122.965Z" fill="#F7F7F8"/>
<path d="M73.2147 128.668L67.8351 131.335H62.0388L67.4166 128.668H73.2147Z" fill="#D4D4D8"/>
<path d="M67.8351 131.704H62.0388C61.8666 131.704 61.7166 131.586 61.6777 131.419C61.6388 131.252 61.7203 131.078 61.874 131.002L67.2518 128.336C67.3037 128.31 67.3592 128.297 67.4166 128.297H73.2148C73.387 128.297 73.537 128.415 73.5759 128.582C73.6148 128.749 73.5333 128.923 73.3796 128.999L68 131.665C67.9481 131.691 67.8925 131.704 67.8351 131.704ZM63.6203 130.964H67.75L71.6351 129.038H67.5037L63.6203 130.964Z" fill="#F7F7F8"/>
<path d="M78.5981 126L73.2148 128.669H67.4166L72.7981 126H78.5981Z" fill="#D4D4D8"/>
<path d="M73.2148 129.038H67.4166C67.2444 129.038 67.0944 128.92 67.0555 128.753C67.0166 128.586 67.0981 128.412 67.2518 128.336L72.6352 125.668C72.687 125.642 72.7426 125.629 72.8 125.629H78.5981C78.7703 125.629 78.9203 125.747 78.9592 125.914C78.9981 126.081 78.9166 126.255 78.7629 126.331L73.3796 128.999C73.3296 129.025 73.2722 129.038 73.2148 129.038ZM68.9981 128.297H73.1296L77.0185 126.37H72.887L68.9981 128.297Z" fill="#F7F7F8"/>
<path d="M83.9759 123.336L78.5982 126.001H72.7982L78.1815 123.336H83.9759Z" fill="#D4D4D8"/>
<path d="M78.5982 126.372H72.8C72.6278 126.372 72.4778 126.254 72.4389 126.087C72.4 125.92 72.4815 125.746 72.6352 125.67L78.0167 123.004C78.0685 122.978 78.1241 122.965 78.1815 122.965H83.9759C84.1482 122.965 84.2982 123.083 84.337 123.25C84.3759 123.417 84.2944 123.591 84.1407 123.667L78.763 126.333C78.7111 126.359 78.6556 126.372 78.5982 126.372ZM74.3815 125.632H78.5111L82.3944 123.706H78.2685L74.3815 125.632Z" fill="#F7F7F8"/>
<path d="M84.3926 126L79.0092 128.669H73.2148L78.5981 126H84.3926Z" fill="#D4D4D8"/>
<path d="M79.0092 129.038H73.2148C73.0426 129.038 72.8926 128.92 72.8537 128.753C72.8148 128.586 72.8963 128.412 73.05 128.336L78.4333 125.668C78.4852 125.642 78.5407 125.629 78.5981 125.629H84.3926C84.5648 125.629 84.7148 125.747 84.7537 125.914C84.7926 126.081 84.7111 126.255 84.5574 126.331L79.1741 128.999C79.1241 129.025 79.0667 129.038 79.0092 129.038ZM74.7963 128.297H78.9222L82.8111 126.37H78.6852L74.7963 128.297Z" fill="#F7F7F8"/>
<path d="M89.774 123.336L84.3925 126.001H78.5981L83.9759 123.336H89.774Z" fill="#D4D4D8"/>
<path d="M84.3925 126.372H78.5981C78.4259 126.372 78.2759 126.254 78.237 126.087C78.1981 125.92 78.2796 125.746 78.4333 125.67L83.8111 123.004C83.8629 122.978 83.9185 122.965 83.9759 122.965H89.774C89.9462 122.965 90.0963 123.083 90.1351 123.25C90.174 123.417 90.0925 123.591 89.9388 123.667L84.5574 126.333C84.5055 126.359 84.45 126.372 84.3925 126.372ZM80.1796 125.632H84.3074L88.1944 123.706H84.0648L80.1796 125.632Z" fill="#F7F7F8"/>
<path d="M90.1907 126L84.8092 128.669H79.0092L84.3926 126H90.1907Z" fill="#D4D4D8"/>
<path d="M84.8092 129.038H79.0111C78.8388 129.038 78.6888 128.92 78.65 128.753C78.6111 128.586 78.6925 128.412 78.8463 128.336L84.2296 125.668C84.2814 125.642 84.337 125.629 84.3944 125.629H90.1925C90.3648 125.629 90.5148 125.747 90.5537 125.914C90.5925 126.081 90.5111 126.255 90.3574 126.331L84.974 128.999C84.9222 129.025 84.8666 129.038 84.8092 129.038ZM80.5907 128.297H84.7222L88.6111 126.37H84.4796L80.5907 128.297Z" fill="#F7F7F8"/>
<path d="M95.5704 123.336L90.1907 126.001H84.3926L89.7741 123.336H95.5704Z" fill="#D4D4D8"/>
<path d="M90.1907 126.372H84.3926C84.2204 126.372 84.0704 126.254 84.0315 126.087C83.9926 125.92 84.0741 125.746 84.2278 125.67L89.6093 123.004C89.6611 122.978 89.7167 122.965 89.7741 122.965H95.5704C95.7426 122.965 95.8926 123.083 95.9315 123.25C95.9704 123.417 95.8889 123.591 95.7352 123.667L90.3556 126.333C90.3056 126.359 90.2482 126.372 90.1907 126.372ZM85.9741 125.632H90.1037L93.9889 123.706H89.8611L85.9741 125.632Z" fill="#F7F7F8"/>
<path d="M95.9907 126L90.6055 128.669H84.8092L90.1907 126H95.9907Z" fill="#D4D4D8"/>
<path d="M90.6055 129.038H84.8092C84.637 129.038 84.487 128.92 84.4481 128.753C84.4092 128.586 84.4907 128.412 84.6444 128.336L90.0277 125.668C90.0796 125.642 90.1352 125.629 90.1926 125.629H95.9907C96.1629 125.629 96.3129 125.747 96.3518 125.914C96.3907 126.081 96.3092 126.255 96.1555 126.331L90.7703 128.999C90.7185 129.025 90.6629 129.038 90.6055 129.038ZM86.3889 128.297H90.5185L94.4092 126.37H90.2777L86.3889 128.297Z" fill="#F7F7F8"/>
<path d="M101.369 123.336L95.9907 126.001H90.1907L95.5704 123.336H101.369Z" fill="#D4D4D8"/>
<path d="M95.9907 126.372H90.1926C90.0204 126.372 89.8704 126.254 89.8315 126.087C89.7926 125.92 89.8741 125.746 90.0278 125.67L95.4074 123.004C95.4593 122.978 95.5148 122.965 95.5722 122.965H101.369C101.541 122.965 101.691 123.083 101.73 123.25C101.769 123.417 101.687 123.591 101.533 123.667L96.1555 126.333C96.1037 126.359 96.0481 126.372 95.9907 126.372ZM91.7722 125.632H95.9037L99.787 123.706H95.6574L91.7722 125.632Z" fill="#F7F7F8"/>
<path d="M106.75 120.668L101.369 123.336H95.5704L100.954 120.668H106.75Z" fill="#D4D4D8"/>
<path d="M101.369 123.706H95.5722C95.4 123.706 95.25 123.588 95.2111 123.421C95.1722 123.254 95.2537 123.08 95.4074 123.004L100.791 120.336C100.843 120.31 100.898 120.297 100.956 120.297H106.752C106.924 120.297 107.074 120.415 107.113 120.582C107.152 120.749 107.07 120.923 106.917 120.999L101.533 123.667C101.481 123.693 101.426 123.706 101.369 123.706ZM97.1518 122.965H101.281L105.17 121.038H101.041L97.1518 122.965Z" fill="#F7F7F8"/>
<path d="M101.785 126L96.4018 128.669H90.6055L95.9907 126H101.785Z" fill="#D4D4D8"/>
<path d="M96.4018 129.038H90.6055C90.4333 129.038 90.2833 128.92 90.2444 128.753C90.2055 128.586 90.287 128.412 90.4407 128.336L95.8259 125.668C95.8778 125.642 95.9333 125.629 95.9907 125.629H101.785C101.957 125.629 102.107 125.747 102.146 125.914C102.185 126.081 102.104 126.255 101.95 126.331L96.5667 128.999C96.5148 129.025 96.4593 129.038 96.4018 129.038ZM92.187 128.297H96.3148L100.204 126.37H96.0778L92.187 128.297Z" fill="#F7F7F8"/>
<path d="M107.165 123.336L101.785 126.001H95.9907L101.369 123.336H107.165Z" fill="#D4D4D8"/>
<path d="M101.785 126.372H95.9907C95.8185 126.372 95.6685 126.254 95.6296 126.087C95.5907 125.92 95.6722 125.746 95.8259 125.67L101.204 123.004C101.256 122.978 101.311 122.965 101.369 122.965H107.165C107.337 122.965 107.487 123.083 107.526 123.25C107.565 123.417 107.483 123.591 107.33 123.667L101.95 126.333C101.898 126.359 101.843 126.372 101.785 126.372ZM97.5704 125.632H101.696L105.581 123.706H101.454L97.5704 125.632Z" fill="#F7F7F8"/>
<path d="M112.546 120.668L107.165 123.336H101.369L106.75 120.668H112.546Z" fill="#D4D4D8"/>
<path d="M107.165 123.706H101.368C101.196 123.706 101.046 123.588 101.007 123.421C100.968 123.254 101.05 123.08 101.204 123.004L106.587 120.336C106.639 120.31 106.694 120.297 106.752 120.297H112.548C112.72 120.297 112.87 120.415 112.909 120.582C112.948 120.749 112.867 120.923 112.713 120.999L107.33 123.667C107.278 123.693 107.222 123.706 107.165 123.706ZM102.948 122.965H107.078L110.967 121.038H106.837L102.948 122.965Z" fill="#F7F7F8"/>
<path d="M102.198 128.668L96.8185 131.335H91.024L96.4018 128.668H102.198Z" fill="#D4D4D8"/>
<path d="M96.8185 131.704H91.0241C90.8518 131.704 90.7018 131.586 90.663 131.419C90.6241 131.252 90.7056 131.078 90.8593 131.002L96.237 128.336C96.2889 128.31 96.3444 128.297 96.4018 128.297H102.198C102.37 128.297 102.52 128.415 102.559 128.582C102.598 128.749 102.517 128.923 102.363 128.999L96.9833 131.665C96.9315 131.691 96.8759 131.704 96.8185 131.704ZM92.6056 130.964H96.7315L100.617 129.038H96.4889L92.6056 130.964Z" fill="#F7F7F8"/>
<path d="M107.583 126L102.198 128.669H96.4019L101.785 126H107.583Z" fill="#D4D4D8"/>
<path d="M102.198 129.038H96.4018C96.2296 129.038 96.0796 128.92 96.0407 128.753C96.0018 128.586 96.0833 128.412 96.237 128.336L101.62 125.668C101.672 125.642 101.728 125.629 101.785 125.629H107.583C107.756 125.629 107.906 125.747 107.944 125.914C107.983 126.081 107.902 126.255 107.748 126.331L102.363 128.999C102.313 129.025 102.256 129.038 102.198 129.038ZM97.9833 128.297H102.113L106.004 126.37H101.872L97.9833 128.297Z" fill="#F7F7F8"/>
<path d="M112.961 123.336L107.583 126.001H101.785L107.165 123.336H112.961Z" fill="#D4D4D8"/>
<path d="M107.583 126.372H101.785C101.613 126.372 101.463 126.254 101.424 126.087C101.385 125.92 101.467 125.746 101.62 125.67L107 123.004C107.052 122.978 107.107 122.965 107.165 122.965H112.961C113.133 122.965 113.283 123.083 113.322 123.25C113.361 123.417 113.28 123.591 113.126 123.667L107.748 126.333C107.696 126.359 107.641 126.372 107.583 126.372ZM103.367 125.632H107.498L111.381 123.706H107.252L103.367 125.632Z" fill="#F7F7F8"/>
<path d="M118.344 120.668L112.961 123.336H107.165L112.546 120.668H118.344Z" fill="#D4D4D8"/>
<path d="M112.961 123.706H107.165C106.993 123.706 106.843 123.588 106.804 123.421C106.765 123.254 106.846 123.08 107 123.004L112.383 120.336C112.435 120.31 112.491 120.297 112.548 120.297H118.344C118.517 120.297 118.667 120.415 118.706 120.582C118.744 120.749 118.663 120.923 118.509 120.999L113.126 123.667C113.074 123.693 113.019 123.706 112.961 123.706ZM108.746 122.965H112.876L116.765 121.038H112.635L108.746 122.965Z" fill="#F7F7F8"/>
<path d="M107.996 128.668L102.618 131.335H96.8185L102.198 128.668H107.996Z" fill="#D4D4D8"/>
<path d="M102.618 131.704H96.8203C96.6481 131.704 96.4981 131.586 96.4592 131.419C96.4203 131.252 96.5018 131.078 96.6555 131.002L102.035 128.336C102.087 128.31 102.143 128.297 102.2 128.297H107.996C108.168 128.297 108.318 128.415 108.357 128.582C108.396 128.749 108.315 128.923 108.161 128.999L102.781 131.665C102.731 131.691 102.674 131.704 102.618 131.704ZM98.4 130.964H102.531L106.415 129.038H102.285L98.4 130.964Z" fill="#F7F7F8"/>
<path d="M113.378 126L107.996 128.669H102.198L107.583 126H113.378Z" fill="#D4D4D8"/>
<path d="M107.996 129.038H102.2C102.028 129.038 101.878 128.92 101.839 128.753C101.8 128.586 101.881 128.412 102.035 128.336L107.42 125.668C107.472 125.642 107.528 125.629 107.585 125.629H113.38C113.552 125.629 113.702 125.747 113.741 125.914C113.78 126.081 113.698 126.255 113.544 126.331L108.161 128.999C108.109 129.025 108.052 129.038 107.996 129.038ZM103.78 128.297H107.907L111.796 126.37H107.67L103.78 128.297Z" fill="#F7F7F8"/>
<path d="M113.793 128.668L108.413 131.335H102.619L107.996 128.668H113.793Z" fill="#D4D4D8"/>
<path d="M108.413 131.704H102.618C102.446 131.704 102.296 131.586 102.257 131.419C102.218 131.252 102.3 131.078 102.454 131.002L107.831 128.336C107.883 128.31 107.939 128.297 107.996 128.297H113.793C113.965 128.297 114.115 128.415 114.154 128.582C114.193 128.749 114.111 128.923 113.957 128.999L108.576 131.665C108.526 131.691 108.468 131.704 108.413 131.704ZM104.198 130.964H108.324L112.209 129.038H108.081L104.198 130.964Z" fill="#F7F7F8"/>
<path d="M119.178 126L113.793 128.669H107.996L113.378 126H119.178Z" fill="#D4D4D8"/>
<path d="M113.793 129.038H107.996C107.824 129.038 107.674 128.92 107.635 128.753C107.596 128.586 107.678 128.412 107.831 128.336L113.215 125.668C113.267 125.642 113.322 125.629 113.38 125.629H119.178C119.35 125.629 119.5 125.747 119.539 125.914C119.578 126.081 119.496 126.255 119.343 126.331L113.957 128.999C113.906 129.025 113.85 129.038 113.793 129.038ZM109.576 128.297H113.706L117.596 126.37H113.465L109.576 128.297Z" fill="#F7F7F8"/>
<path d="M129.937 120.668L124.556 123.336H118.757L124.141 120.668H129.937Z" fill="#D4D4D8"/>
<path d="M124.556 123.706H118.759C118.587 123.706 118.437 123.588 118.398 123.421C118.359 123.254 118.441 123.08 118.594 123.004L123.978 120.336C124.03 120.31 124.085 120.297 124.143 120.297H129.939C130.111 120.297 130.261 120.415 130.3 120.582C130.339 120.749 130.257 120.923 130.104 120.999L124.72 123.667C124.668 123.693 124.611 123.706 124.556 123.706ZM120.339 122.965H124.469L128.357 121.038H124.228L120.339 122.965Z" fill="#F7F7F8"/>
<path d="M119.589 128.668L114.211 131.335H108.413L113.793 128.668H119.589Z" fill="#D4D4D8"/>
<path d="M114.211 131.704H108.413C108.241 131.704 108.091 131.586 108.052 131.419C108.013 131.252 108.094 131.078 108.248 131.002L113.628 128.336C113.68 128.31 113.735 128.297 113.793 128.297H119.589C119.761 128.297 119.911 128.415 119.95 128.582C119.989 128.749 119.907 128.923 119.754 128.999L114.376 131.665C114.324 131.691 114.268 131.704 114.211 131.704ZM109.994 130.964H114.126L118.009 129.038H113.88L109.994 130.964Z" fill="#F7F7F8"/>
<path d="M124.972 126L119.589 128.669H113.793L119.178 126H124.972Z" fill="#D4D4D8"/>
<path d="M119.589 129.038H113.793C113.62 129.038 113.47 128.92 113.431 128.753C113.393 128.586 113.474 128.412 113.628 128.336L119.013 125.668C119.065 125.642 119.12 125.629 119.178 125.629H124.972C125.144 125.629 125.294 125.747 125.333 125.914C125.372 126.081 125.291 126.255 125.137 126.331L119.754 128.999C119.702 129.025 119.646 129.038 119.589 129.038ZM115.374 128.297H119.502L123.391 126.37H119.265L115.374 128.297Z" fill="#F7F7F8"/>
<path d="M130.352 123.336L124.972 126.001H119.178H113.378H107.583L112.961 123.336H118.757H124.556H130.352Z" fill="#D4D4D8"/>
<path d="M124.972 126.372H107.585C107.413 126.372 107.263 126.254 107.224 126.087C107.185 125.92 107.267 125.746 107.42 125.67L112.798 123.004C112.85 122.978 112.906 122.965 112.963 122.965H130.354C130.526 122.965 130.676 123.083 130.715 123.25C130.754 123.417 130.672 123.591 130.518 123.667L125.139 126.333C125.085 126.359 125.028 126.372 124.972 126.372ZM109.165 125.632H124.885L128.77 123.706H113.048L109.165 125.632Z" fill="#F7F7F8"/>
<path d="M135.733 120.668L130.352 123.336H124.556L129.937 120.668H135.733Z" fill="#D4D4D8"/>
<path d="M130.352 123.706H124.556C124.383 123.706 124.233 123.588 124.194 123.421C124.156 123.254 124.237 123.08 124.391 123.004L129.774 120.336C129.826 120.31 129.881 120.297 129.939 120.297H135.735C135.907 120.297 136.057 120.415 136.096 120.582C136.135 120.749 136.054 120.923 135.9 120.999L130.517 123.667C130.465 123.693 130.409 123.706 130.352 123.706ZM126.135 122.965H130.265L134.154 121.038H130.024L126.135 122.965Z" fill="#F7F7F8"/>
<path d="M125.385 128.668L120.006 131.335H114.211L119.589 128.668H125.385Z" fill="#D4D4D8"/>
<path d="M120.006 131.704H114.211C114.039 131.704 113.889 131.586 113.85 131.419C113.811 131.252 113.893 131.078 114.046 131.002L119.424 128.336C119.476 128.31 119.531 128.297 119.589 128.297H125.385C125.557 128.297 125.707 128.415 125.746 128.582C125.785 128.749 125.704 128.923 125.55 128.999L120.17 131.665C120.118 131.691 120.063 131.704 120.006 131.704ZM115.793 130.964H119.918L123.804 129.038H119.676L115.793 130.964Z" fill="#F7F7F8"/>
<path d="M136.148 123.336L130.77 126.001H124.972L130.352 123.336H136.148Z" fill="#D4D4D8"/>
<path d="M130.77 126.372H124.972C124.8 126.372 124.65 126.254 124.611 126.087C124.572 125.92 124.654 125.746 124.807 125.67L130.187 123.004C130.239 122.978 130.294 122.965 130.352 122.965H136.148C136.32 122.965 136.47 123.083 136.509 123.25C136.548 123.417 136.467 123.591 136.313 123.667L130.935 126.333C130.883 126.359 130.828 126.372 130.77 126.372ZM126.554 125.632H130.685L134.568 123.706H130.439L126.554 125.632Z" fill="#F7F7F8"/>
<path d="M141.531 120.668L136.148 123.336H130.352L135.733 120.668H141.531Z" fill="#D4D4D8"/>
<path d="M136.148 123.706H130.352C130.18 123.706 130.03 123.588 129.991 123.421C129.952 123.254 130.033 123.08 130.187 123.004L135.57 120.336C135.622 120.31 135.678 120.297 135.735 120.297H141.531C141.704 120.297 141.854 120.415 141.893 120.582C141.931 120.749 141.85 120.923 141.696 120.999L136.313 123.667C136.261 123.693 136.206 123.706 136.148 123.706ZM131.931 122.965H136.061L139.95 121.038H135.82L131.931 122.965Z" fill="#F7F7F8"/>
<path d="M77.7648 120.668L72.3814 123.336H66.587L71.9703 120.668H77.7648Z" fill="#D4D4D8"/>
<path d="M72.3814 123.706H66.587C66.4148 123.706 66.2648 123.588 66.2259 123.421C66.187 123.254 66.2685 123.08 66.4222 123.004L71.8055 120.336C71.8574 120.31 71.9129 120.297 71.9703 120.297H77.7648C77.937 120.297 78.087 120.415 78.1259 120.582C78.1648 120.749 78.0833 120.923 77.9296 120.999L72.5463 123.667C72.4963 123.693 72.4388 123.706 72.3814 123.706ZM68.1685 122.965H72.2944L76.1833 121.038H72.0574L68.1685 122.965Z" fill="#F7F7F8"/>
<path d="M71.9703 120.668L66.587 123.336H60.7888L66.1721 120.668H71.9703Z" fill="#D4D4D8"/>
<path d="M66.587 123.706H60.7888C60.6166 123.706 60.4666 123.588 60.4277 123.421C60.3888 123.254 60.4703 123.08 60.624 123.004L66.0074 120.336C66.0592 120.31 66.1148 120.297 66.1722 120.297H71.9703C72.1425 120.297 72.2925 120.415 72.3314 120.582C72.3703 120.749 72.2888 120.923 72.1351 120.999L66.7518 123.667C66.7018 123.693 66.6444 123.706 66.587 123.706ZM62.3703 122.965H66.5018L70.3907 121.038H66.2592L62.3703 122.965Z" fill="#F7F7F8"/>
<path d="M95.1574 120.668L89.774 123.336H83.9759L89.3574 120.668H95.1574Z" fill="#D4D4D8"/>
<path d="M89.7741 123.706H83.9759C83.8037 123.706 83.6537 123.588 83.6148 123.421C83.5759 123.254 83.6574 123.08 83.8111 123.004L89.1944 120.336C89.2463 120.31 89.3018 120.297 89.3592 120.297H95.1574C95.3296 120.297 95.4796 120.415 95.5185 120.582C95.5574 120.749 95.4759 120.923 95.3222 120.999L89.9389 123.667C89.8889 123.693 89.8315 123.706 89.7741 123.706ZM85.5574 122.965H89.6889L93.5778 121.038H89.4444L85.5574 122.965Z" fill="#F7F7F8"/>
<path d="M100.954 120.668L95.5703 123.336H89.774L95.1574 120.668H100.954Z" fill="#D4D4D8"/>
<path d="M95.5704 123.706H89.7741C89.6018 123.706 89.4518 123.588 89.413 123.421C89.3741 123.254 89.4556 123.08 89.6093 123.004L94.9926 120.336C95.0444 120.31 95.1 120.297 95.1574 120.297H100.954C101.126 120.297 101.276 120.415 101.315 120.582C101.354 120.749 101.272 120.923 101.119 120.999L95.7352 123.667C95.6852 123.693 95.6278 123.706 95.5704 123.706ZM91.3556 122.965H95.4852L99.3741 121.038H95.2444L91.3556 122.965Z" fill="#F7F7F8"/>
<path d="M67.4166 128.668L62.0389 131.335H56.2426L61.6222 128.668H67.4166Z" fill="#D4D4D8"/>
<path d="M62.0389 131.704H56.2426C56.0703 131.704 55.9204 131.586 55.8815 131.419C55.8426 131.252 55.9241 131.078 56.0778 131.002L61.4574 128.336C61.5092 128.31 61.5648 128.297 61.6222 128.297H67.4166C67.5889 128.297 67.7389 128.415 67.7778 128.582C67.8166 128.749 67.7352 128.923 67.5815 128.999L62.2037 131.665C62.1518 131.691 62.0963 131.704 62.0389 131.704ZM57.8241 130.964H61.9518L65.8352 129.038H61.7092L57.8241 130.964Z" fill="#F7F7F8"/>
<path d="M163.181 71.9766L147.683 117.112H67.6037L71.063 107.004H90.0093L102.824 71.9766H163.181Z" fill="#F7F7F8"/>
<path d="M147.683 117.527H67.6037C67.4685 117.527 67.3426 117.462 67.2648 117.353C67.187 117.244 67.1667 117.103 67.2093 116.975L70.6685 106.868C70.7259 106.699 70.8852 106.586 71.063 106.586H89.7167L102.433 71.8327C102.493 71.6679 102.65 71.5586 102.824 71.5586H163.18C163.315 71.5586 163.441 71.6234 163.519 71.7327C163.596 71.8419 163.617 71.9827 163.574 72.1104L148.076 117.244C148.019 117.414 147.861 117.527 147.683 117.527ZM68.1852 116.694H147.385L162.598 72.3938H103.117L90.4 107.146C90.3408 107.31 90.1833 107.42 90.0093 107.42H71.3611L68.1852 116.694Z" fill="#F7F7F8"/>
<path d="M167.133 70.0625L150.374 119.027H63.6555L67.7703 107.005H71.0629L67.6037 117.112H147.683L163.181 71.9773H102.824L103.526 70.0625H167.133Z" fill="#D4D4D8"/>
<path d="M150.374 119.445H63.6555C63.5203 119.445 63.3944 119.38 63.3166 119.271C63.2389 119.161 63.2185 119.021 63.2611 118.893L67.3759 106.871C67.4333 106.702 67.5926 106.589 67.7703 106.589H71.0629C71.1981 106.589 71.3241 106.654 71.4018 106.763C71.4796 106.873 71.5 107.013 71.4574 107.141L68.187 116.697H147.387L162.6 72.3966H102.824C102.689 72.3966 102.561 72.3299 102.483 72.2188C102.406 72.1077 102.387 71.9651 102.433 71.8373L103.133 69.9225C103.193 69.7577 103.35 69.6484 103.524 69.6484H167.131C167.267 69.6484 167.393 69.7133 167.47 69.8225C167.548 69.9318 167.568 70.0725 167.526 70.2003L150.767 119.165C150.709 119.332 150.552 119.445 150.374 119.445ZM64.2389 118.611H150.076L166.55 70.4799H103.817L103.42 71.5614H163.18C163.315 71.5614 163.441 71.6262 163.518 71.7355C163.596 71.8447 163.617 71.9855 163.574 72.1133L148.076 117.247C148.018 117.415 147.859 117.528 147.681 117.528H67.6037C67.4685 117.528 67.3426 117.463 67.2648 117.354C67.187 117.245 67.1666 117.104 67.2092 116.976L70.4796 107.421H68.0685L64.2389 118.611Z" fill="#F7F7F8"/>
<path d="M150.374 119.027L154.798 124.651L115.813 143.166V136.533L150.374 119.027Z" fill="#D4D4D8"/>
<path d="M115.813 143.583C115.735 143.583 115.657 143.56 115.591 143.518C115.47 143.442 115.396 143.309 115.396 143.166V136.533C115.396 136.375 115.485 136.233 115.624 136.16L150.185 118.655C150.363 118.564 150.578 118.612 150.702 118.77L155.126 124.394C155.204 124.494 155.233 124.623 155.204 124.748C155.174 124.872 155.091 124.975 154.976 125.029L115.991 143.544C115.935 143.568 115.874 143.583 115.813 143.583ZM116.23 136.788V142.507L154.148 124.499L150.257 119.553L116.23 136.788Z" fill="#F7F7F8"/>
<path d="M90.6593 43.8753C90.6593 43.7975 90.6556 43.7216 90.6482 43.6457C90.6463 43.6346 90.6463 43.6235 90.6445 43.6124C90.6371 43.5549 90.6297 43.4975 90.6186 43.442C90.6167 43.4309 90.6111 43.4216 90.6093 43.4105C90.5963 43.3457 90.5778 43.2846 90.5574 43.2216C90.55 43.2012 90.5482 43.179 90.5408 43.1587C90.5389 43.1531 90.5371 43.1494 90.5352 43.1438C90.5241 43.1124 90.5074 43.0809 90.4945 43.0512C90.4797 43.0161 90.4649 42.979 90.4482 42.9438C90.4445 42.9364 90.4408 42.9309 90.4371 42.9235C90.426 42.9012 90.4111 42.8809 90.3982 42.8586C90.3797 42.8272 90.363 42.7957 90.3445 42.7661C90.3297 42.7438 90.3148 42.7235 90.3 42.7012L87.026 38.2383C87.063 38.2883 87.0945 38.342 87.126 38.3957C87.1389 38.4179 87.1519 38.4383 87.1648 38.4605C87.1871 38.5012 87.2037 38.5457 87.2223 38.5883C87.2352 38.6198 87.25 38.6494 87.263 38.6809C87.2723 38.7068 87.2778 38.7327 87.2871 38.7587C87.3074 38.8198 87.326 38.8827 87.3389 38.9475C87.3537 39.0142 87.3648 39.0809 87.3741 39.1494C87.376 39.1605 87.376 39.1716 87.3778 39.1827C87.3852 39.2568 87.3889 39.3346 87.3889 39.4124C87.3889 39.4198 87.3889 39.4272 87.3889 39.4346C87.3871 39.5161 87.3815 39.5975 87.3723 39.6809C87.3704 39.6975 87.3686 39.7124 87.3667 39.729C87.3556 39.8124 87.3408 39.8957 87.3204 39.9809C87.3167 39.9957 87.313 40.0105 87.3093 40.0253C87.2871 40.1142 87.263 40.2049 87.2315 40.2957C87.1908 40.4142 87.1426 40.5309 87.0889 40.6457C87.0815 40.6624 87.0723 40.6809 87.063 40.6975C87.0093 40.8068 86.9519 40.9142 86.8871 41.0198C86.8871 41.0198 86.8871 41.0198 86.8871 41.0216C86.826 41.1216 86.7574 41.2198 86.6852 41.3161C86.6667 41.342 86.6463 41.3679 86.6278 41.392C86.5704 41.4661 86.5111 41.5383 86.45 41.6086C86.4352 41.6253 86.4223 41.642 86.4093 41.6568C86.3352 41.7383 86.2574 41.8179 86.1778 41.8957C86.1574 41.9161 86.1352 41.9346 86.1148 41.9531C86.0519 42.0105 85.9871 42.0679 85.9223 42.1216C85.8963 42.1438 85.8704 42.1642 85.8426 42.1864C85.763 42.2494 85.6815 42.3105 85.5982 42.3698C85.5871 42.3772 85.5778 42.3846 85.5667 42.392C85.4685 42.4587 85.3686 42.5216 85.2667 42.5809C85.2408 42.5957 85.2167 42.6087 85.1908 42.6235C85.0834 42.6827 84.9741 42.7401 84.863 42.7901C84.8556 42.7938 84.85 42.7975 84.8426 42.7994C84.8204 42.8087 84.7982 42.8179 84.7778 42.8272C84.7185 42.8531 84.6593 42.8772 84.6 42.9012C84.5685 42.9124 84.5389 42.9235 84.5074 42.9327C84.4574 42.9512 84.4056 42.9679 84.3537 42.9846C84.3037 42.9994 84.2537 43.0124 84.2019 43.0272C84.1648 43.0364 84.126 43.0475 84.0889 43.0568C84.0352 43.0698 83.9834 43.079 83.9297 43.0883C83.8945 43.0957 83.8593 43.1031 83.8241 43.1087C83.7648 43.1179 83.7056 43.1235 83.6482 43.1309C83.6186 43.1346 83.5889 43.1383 83.5593 43.142C83.4704 43.1494 83.3815 43.1531 83.2945 43.1531C83.1834 43.1531 83.0778 43.1457 82.9741 43.1346C82.3408 42.392 81.6445 41.6827 81.1574 41.0179C81.15 41.1105 81.1519 41.1994 81.1556 41.2883C81.1556 41.3068 81.1574 41.3253 81.1574 41.3438C81.163 41.429 81.1741 41.5124 81.1889 41.5938C81.1889 41.5975 81.1889 41.6031 81.1908 41.6068C81.1926 41.6161 81.1963 41.6235 81.1982 41.6309C81.2167 41.7179 81.2389 41.8031 81.2685 41.8846C81.2704 41.8883 81.2704 41.892 81.2723 41.8957C81.2723 41.8975 81.2741 41.8975 81.2741 41.8994C81.2982 41.9642 81.326 42.029 81.3574 42.0901C81.3611 42.0957 81.363 42.1031 81.3648 42.1087C81.3704 42.1216 81.3797 42.1327 81.3871 42.1457C81.4074 42.1827 81.4297 42.2198 81.4519 42.2549C81.4574 42.2642 81.463 42.2753 81.4704 42.2864C81.4852 42.3068 81.5 42.329 81.5148 42.3494L82.9815 44.3494L84.7889 46.8124C85.1519 47.3068 85.7723 47.6124 86.5704 47.6124C86.6593 47.6124 86.7463 47.6087 86.8352 47.6012C86.8648 47.5994 86.8945 47.5938 86.9241 47.5901C86.9834 47.5846 87.0408 47.5772 87.1 47.5679C87.1352 47.5624 87.1704 47.5549 87.2056 47.5475C87.2593 47.5383 87.313 47.5272 87.3648 47.5161C87.4019 47.5068 87.4408 47.4957 87.4778 47.4864C87.5278 47.4735 87.5797 47.4605 87.6297 47.4438C87.6371 47.442 87.6445 47.4401 87.6519 47.4383C87.6963 47.4253 87.7389 47.4086 87.7815 47.392C87.813 47.3809 87.8426 47.3716 87.8741 47.3605C87.9334 47.3383 87.9926 47.3124 88.0519 47.2864C88.0741 47.2772 88.0963 47.2698 88.1167 47.2586C88.1185 47.2586 88.1204 47.2568 88.1223 47.2568C88.1278 47.2549 88.1315 47.2512 88.1371 47.2494C88.2482 47.1994 88.3574 47.142 88.4648 47.0827C88.4797 47.0753 88.4945 47.0679 88.5074 47.0605C88.5186 47.0549 88.5297 47.0457 88.5408 47.0401C88.6426 46.9809 88.7426 46.9179 88.8408 46.8512C88.8426 46.8494 88.8445 46.8494 88.8463 46.8475C88.8556 46.842 88.863 46.8346 88.8723 46.829C88.9556 46.7716 89.0371 46.7105 89.1167 46.6457C89.1278 46.6364 89.1408 46.6272 89.1537 46.6179C89.1686 46.6068 89.1815 46.5938 89.1963 46.5809C89.263 46.5253 89.326 46.4698 89.3889 46.4105C89.4037 46.3975 89.4204 46.3846 89.4352 46.3698C89.4408 46.3642 89.4463 46.3587 89.4519 46.3531C89.5315 46.2753 89.6093 46.1975 89.6834 46.1142C89.6871 46.1105 89.6908 46.1068 89.6945 46.1031C89.7056 46.0901 89.7148 46.0772 89.726 46.0661C89.7871 45.9957 89.8463 45.9235 89.9037 45.8494C89.9149 45.8364 89.926 45.8235 89.9371 45.8105C89.9463 45.7994 89.9537 45.7864 89.9611 45.7735C90.0315 45.6772 90.1 45.579 90.163 45.479C90.2278 45.3735 90.2852 45.2661 90.3389 45.1568C90.3482 45.1401 90.3556 45.1235 90.3648 45.1049C90.3704 45.092 90.3778 45.079 90.3834 45.0661C90.4297 44.9642 90.4723 44.8605 90.5074 44.7549C90.5389 44.6642 90.5648 44.5735 90.5852 44.4846C90.5889 44.4698 90.5926 44.4549 90.5963 44.4401C90.6148 44.3549 90.6315 44.2716 90.6426 44.1883C90.6445 44.1716 90.6463 44.1568 90.6482 44.1401C90.6574 44.0568 90.6648 43.9735 90.6648 43.8938C90.6593 43.8901 90.6593 43.8827 90.6593 43.8753Z" fill="#D4D4D8"/>
<path d="M86.5593 48.0343C85.6519 48.0343 84.9 47.6898 84.4407 47.0639L81.1667 42.601C81.1481 42.575 81.1296 42.5491 81.113 42.5232C81.1019 42.5084 81.0944 42.4917 81.0852 42.4769C81.0611 42.4398 81.0352 42.3954 81.0093 42.3491C81.0019 42.338 80.9926 42.3213 80.9833 42.3047C80.9796 42.2954 80.9722 42.2824 80.9667 42.2713C80.9296 42.1973 80.9 42.1269 80.8741 42.0584C80.8704 42.051 80.8685 42.0436 80.8667 42.038C80.8648 42.0324 80.863 42.0232 80.8593 42.0158C80.8296 41.9287 80.8037 41.8361 80.7815 41.7361C80.7778 41.7213 80.7741 41.7065 80.7704 41.6917C80.7685 41.6843 80.7667 41.6732 80.7667 41.6621C80.75 41.5713 80.7389 41.475 80.7315 41.3769L80.7278 41.3213C80.7222 41.1917 80.7241 41.0899 80.7296 40.9917C80.7426 40.8176 80.8611 40.6695 81.0296 40.6213C81.1982 40.5732 81.3778 40.6343 81.4815 40.775C81.7852 41.1898 82.1778 41.6287 82.5944 42.0917C82.7833 42.301 82.9759 42.5176 83.1667 42.7361C83.2852 42.7417 83.3982 42.738 83.513 42.7287L83.5926 42.7195C83.6556 42.7121 83.7019 42.7084 83.7481 42.701C83.763 42.6991 83.7796 42.6954 83.7963 42.6917L83.8667 42.6769C83.9056 42.6695 83.9444 42.6621 83.9833 42.6528C84.0037 42.6473 84.0241 42.6417 84.0444 42.6361L84.1111 42.6176C84.1482 42.6084 84.1833 42.5991 84.2204 42.5861C84.2667 42.5713 84.3111 42.5565 84.3556 42.5399L84.4426 42.5102C84.4963 42.4899 84.55 42.4658 84.6037 42.4436L84.6815 42.4102C84.7741 42.3676 84.8722 42.3176 84.9796 42.2584L85.05 42.2195C85.1537 42.1584 85.2426 42.1028 85.3241 42.0473C85.3278 42.0454 85.35 42.0287 85.3537 42.0269C85.4296 41.9732 85.5037 41.9176 85.5778 41.8602C85.6019 41.8417 85.6259 41.8213 85.65 41.801C85.7093 41.751 85.7685 41.6991 85.8259 41.6473L85.8833 41.5936C85.9556 41.5232 86.0278 41.451 86.0944 41.3769L86.1315 41.3324C86.187 41.2695 86.2407 41.2028 86.2926 41.1361C86.3111 41.1139 86.3278 41.0898 86.3444 41.0676C86.4185 40.9658 86.4759 40.8824 86.5259 40.8028C86.5278 40.801 86.5278 40.7991 86.5296 40.7973C86.5796 40.7139 86.6315 40.6213 86.6833 40.5139L86.7056 40.4676C86.7574 40.3584 86.7982 40.2584 86.8315 40.1602C86.8556 40.0898 86.8778 40.0121 86.9 39.925C86.9 39.9232 86.9056 39.9047 86.9056 39.9047L86.9093 39.8861C86.9259 39.8139 86.9389 39.7436 86.9481 39.6732L86.9519 39.6417C86.9611 39.5621 86.9667 39.4936 86.9667 39.4269V39.4084C86.9667 39.3454 86.963 39.2824 86.9574 39.2213C86.9574 39.2176 86.9556 39.201 86.9556 39.1991C86.95 39.1398 86.9389 39.0861 86.9278 39.0343C86.9167 38.9843 86.9019 38.9343 86.887 38.8861L86.8741 38.8417C86.8648 38.8139 86.8593 38.8028 86.8556 38.7917L86.8296 38.7343C86.8185 38.7084 86.8074 38.6824 86.7944 38.6565L86.7648 38.6065C86.7407 38.5658 86.7167 38.5232 86.6889 38.4861C86.5537 38.301 86.5926 38.0398 86.7778 37.9047C86.963 37.7695 87.2241 37.8084 87.3593 37.9936L90.6333 42.4565C90.6519 42.4824 90.6704 42.5084 90.6889 42.5361C90.7093 42.5658 90.7259 42.5954 90.7426 42.6269L90.7667 42.6676C90.7778 42.6843 90.787 42.7028 90.7982 42.7213C90.8056 42.7324 90.8111 42.7436 90.8185 42.7565C90.8352 42.7899 90.85 42.825 90.8648 42.8602L90.887 42.9121C90.8982 42.938 90.9111 42.9639 90.9204 42.9898C90.9241 43.001 90.9296 43.0121 90.9333 43.0195C90.9426 43.0454 90.95 43.0713 90.9556 43.0973C90.9778 43.1676 90.9982 43.238 91.0148 43.3121C91.0204 43.3306 91.0241 43.3473 91.0278 43.3658C91.0407 43.4324 91.05 43.501 91.0593 43.5695L91.063 43.6028C91.0722 43.6973 91.0759 43.788 91.0759 43.8769C91.0759 43.8843 91.0759 43.9028 91.0759 43.9065C91.0741 43.9954 91.0685 44.0898 91.0556 44.1954L91.0482 44.251C91.0352 44.3473 91.0185 44.4454 90.9963 44.5398L90.987 44.5769C90.9556 44.7047 90.9259 44.8047 90.8944 44.8991C90.8556 45.0158 90.8074 45.1324 90.7556 45.2473C90.75 45.2602 90.7444 45.2732 90.737 45.2843L90.7148 45.3306C90.6407 45.4806 90.5778 45.5973 90.513 45.7047C90.513 45.7065 90.5111 45.7065 90.5111 45.7084C90.45 45.8084 90.3796 45.9102 90.2907 46.0306C90.2833 46.0417 90.2741 46.0565 90.263 46.0713C90.2519 46.0843 90.2407 46.0991 90.2296 46.1121C90.1648 46.1954 90.1 46.2732 90.0333 46.351C90.0222 46.3658 90.0111 46.3787 90 46.3917C89.9944 46.3973 89.9833 46.4102 89.9759 46.4158C89.9093 46.4898 89.8241 46.5787 89.7333 46.6639C89.7315 46.6658 89.7241 46.675 89.7148 46.6824C89.7019 46.6954 89.6889 46.7065 89.6741 46.7176C89.5963 46.788 89.5278 46.8491 89.4556 46.9084C89.437 46.925 89.4241 46.9361 89.4111 46.9473C89.3982 46.9584 89.3852 46.9676 89.3722 46.9769C89.2833 47.0473 89.1963 47.1139 89.1056 47.1769C89.1 47.1824 89.0889 47.1898 89.0796 47.1973C89.0759 47.201 89.0704 47.2047 89.0648 47.2065C88.9667 47.2732 88.863 47.338 88.7444 47.4065C88.7352 47.4139 88.7204 47.4213 88.7074 47.4287C88.6926 47.438 88.6778 47.4454 88.6611 47.4528C88.537 47.5213 88.4222 47.5806 88.3111 47.6306C88.3019 47.6343 88.2926 47.6399 88.287 47.6417C88.263 47.6528 88.2463 47.6584 88.2278 47.6658L88.2093 47.6732C88.1444 47.701 88.0796 47.7287 88.0148 47.7528C87.9907 47.7621 87.9667 47.7695 87.9444 47.7787L87.8778 47.8028C87.8426 47.8158 87.8056 47.8287 87.7704 47.8398C87.763 47.8417 87.7463 47.8473 87.7389 47.8491C87.6982 47.8621 87.6482 47.875 87.6 47.888L87.5444 47.9028C87.5148 47.9121 87.4833 47.9195 87.4537 47.9269C87.4037 47.938 87.3519 47.9491 87.3019 47.9584L87.2426 47.9695C87.2148 47.975 87.1852 47.9806 87.1574 47.9861C87.0981 47.9954 87.037 48.0028 86.9778 48.0084L86.9333 48.0139C86.9093 48.0176 86.8852 48.0195 86.8611 48.0213C86.7593 48.0306 86.6593 48.0343 86.5593 48.0343ZM82.8963 43.5473L85.1148 46.5713C85.413 46.9769 85.9259 47.201 86.5611 47.201C86.637 47.201 86.7148 47.1973 86.7926 47.1917L86.8722 47.1824C86.9352 47.175 86.9796 47.1713 87.0259 47.1639C87.0426 47.1621 87.0593 47.1584 87.0741 47.1547L87.1463 47.1398C87.1852 47.1324 87.2222 47.125 87.2611 47.1158C87.2815 47.1121 87.3 47.1065 87.3204 47.101L87.3852 47.0824C87.4222 47.0732 87.4611 47.0621 87.4981 47.051C87.5037 47.0491 87.5222 47.0436 87.5278 47.0417C87.5426 47.0361 87.5685 47.0269 87.5944 47.0176L87.7204 46.9732C87.7741 46.9528 87.8278 46.9306 87.8815 46.9065L87.9407 46.8824C87.9389 46.8824 87.95 46.8769 87.9611 46.8732C88.0519 46.8306 88.15 46.7806 88.2593 46.7213C88.2722 46.7139 88.287 46.7065 88.3019 46.6991C88.3056 46.6954 88.3167 46.688 88.3296 46.6824C88.4333 46.6232 88.5222 46.5658 88.6037 46.5102C88.6056 46.5084 88.6074 46.5065 88.6111 46.5065C88.6185 46.501 88.6296 46.4936 88.6352 46.4898C88.7093 46.438 88.7833 46.3824 88.8574 46.3232C88.8685 46.3139 88.8796 46.3065 88.8907 46.2973C88.9074 46.2824 88.9185 46.2732 88.9296 46.2639C88.9907 46.2139 89.0482 46.1621 89.1056 46.1084C89.1167 46.0991 89.1278 46.088 89.1407 46.0787C89.1463 46.0732 89.1574 46.0621 89.163 46.0565C89.2352 45.988 89.3056 45.9139 89.3741 45.8398C89.3759 45.838 89.3796 45.8324 89.3833 45.8287C89.3944 45.8158 89.4019 45.8047 89.4111 45.7954C89.4667 45.7324 89.5204 45.6658 89.5722 45.5991C89.5815 45.588 89.5907 45.575 89.6 45.5639C89.6056 45.5547 89.6148 45.5417 89.6241 45.5287C89.6982 45.4287 89.7556 45.3436 89.8056 45.2639C89.8056 45.2621 89.8074 45.2621 89.8074 45.2602C89.8593 45.1769 89.9093 45.0824 89.9611 44.975L89.9981 44.8991C90.0407 44.8047 90.0778 44.7121 90.1093 44.6213C90.1333 44.551 90.1556 44.4732 90.1778 44.3861L90.1833 44.3639C90.2037 44.275 90.2167 44.2028 90.2259 44.1324L90.2296 44.1028C90.2389 44.0213 90.2444 43.9528 90.2463 43.8861V43.8676C90.2463 43.8047 90.2426 43.7417 90.237 43.6806C90.237 43.6769 90.2352 43.6602 90.2352 43.6584C90.2296 43.6139 90.2241 43.5732 90.2167 43.5324C90.213 43.5195 90.2093 43.5065 90.2056 43.4936C90.1944 43.4417 90.1796 43.3936 90.1648 43.3454C90.1593 43.3287 90.1537 43.3102 90.15 43.2936C90.1481 43.2898 90.1482 43.288 90.1463 43.2843C90.1426 43.2713 90.137 43.2602 90.1315 43.2491L90.0963 43.1676C90.0926 43.1565 90.0889 43.1473 90.0833 43.1361C90.0796 43.1287 90.0741 43.1213 90.0704 43.1139L90.0204 43.0287C90.013 43.0176 90.0074 43.0047 90 42.9936C89.9889 42.9769 89.9778 42.9602 89.9648 42.9436L87.7537 39.9306C87.7444 39.9769 87.7352 40.0232 87.7259 40.0695L87.7167 40.1065C87.6852 40.2324 87.6574 40.3324 87.6241 40.4269C87.5815 40.5528 87.5278 40.6806 87.4648 40.8176L87.4444 40.8584C87.3722 41.0065 87.3074 41.1232 87.2426 41.2306C87.2407 41.2324 87.2389 41.2361 87.237 41.238C87.1759 41.338 87.1056 41.4398 87.0204 41.5565C87 41.5843 86.9778 41.6121 86.9574 41.6399C86.8944 41.7195 86.8296 41.7991 86.763 41.8769L86.7185 41.9287C86.6407 42.0158 86.5556 42.1028 86.4648 42.188L86.3963 42.251C86.3278 42.3139 86.2574 42.375 86.187 42.4343C86.1593 42.4584 86.1296 42.4806 86.1019 42.5047C86.0148 42.5732 85.9278 42.6398 85.837 42.7028L85.8019 42.7269C85.7037 42.7936 85.5982 42.8602 85.4759 42.9306L85.3926 42.9769C85.2648 43.0473 85.1482 43.1084 85.0352 43.1584L85.013 43.1695C84.9963 43.1769 84.9778 43.1843 84.9611 43.1917L84.9407 43.1991C84.8759 43.2269 84.8111 43.2547 84.7463 43.2787C84.7222 43.288 84.6981 43.2954 84.6741 43.3047L84.6444 43.3139C84.587 43.3343 84.5315 43.3547 84.4759 43.3713C84.4296 43.3861 84.3815 43.3991 84.3333 43.4121L84.2759 43.4269C84.2444 43.4361 84.2148 43.4436 84.1833 43.451C84.1333 43.4621 84.0815 43.4732 84.0315 43.4824L83.9722 43.4936C83.9444 43.4991 83.9167 43.5047 83.8889 43.5102C83.8278 43.5195 83.7667 43.5269 83.7056 43.5324L83.663 43.538C83.6389 43.5417 83.6148 43.5436 83.5907 43.5454C83.3722 43.5639 83.163 43.5639 82.9259 43.5361C82.913 43.5491 82.9037 43.5491 82.8963 43.5473Z" fill="#F7F7F8"/>
<path d="M85.2426 37.4375C86.8796 37.4375 87.7685 38.7171 87.2259 40.2949C87.1408 40.5449 87.0241 40.7875 86.8833 41.019C86.1315 42.2468 84.663 43.1542 83.2852 43.1542C81.9074 43.1542 81.0611 42.2468 81.1482 41.019C81.1648 40.7875 81.2148 40.5449 81.3 40.2949C81.8426 38.7171 83.6074 37.4375 85.2426 37.4375Z" fill="#D4D4D8"/>
<path d="M83.287 43.5695C82.4907 43.5695 81.7963 43.2955 81.3315 42.7955C80.8963 42.3288 80.6852 41.6862 80.7352 40.988C80.7556 40.7177 80.813 40.438 80.9093 40.1584C81.5111 38.3973 83.4148 37.0195 85.2444 37.0195C86.163 37.0195 86.9222 37.3714 87.3778 38.0121C87.8444 38.6658 87.9315 39.5251 87.6222 40.4288C87.5296 40.7029 87.4 40.9732 87.2407 41.2343C86.3981 42.6103 84.7722 43.5695 83.287 43.5695ZM85.2426 37.8547C83.7722 37.8547 82.1815 39.0103 81.6963 40.4306C81.6241 40.6418 81.5796 40.851 81.5648 41.0492C81.5315 41.5214 81.6611 41.9288 81.9407 42.2288C82.25 42.5621 82.7148 42.7362 83.2852 42.7362C84.4963 42.7362 85.8296 41.9399 86.5278 40.801C86.6555 40.5918 86.7574 40.3769 86.8315 40.1603C87.0518 39.5177 87.0037 38.9269 86.6981 38.4973C86.4037 38.0825 85.8852 37.8547 85.2426 37.8547Z" fill="#F7F7F8"/>
<path d="M57.6037 44.9258H60.7056C56.2259 57.4036 51.3537 69.8239 43.8852 82.4221L57.6037 44.9258Z" fill="#D4D4D8"/>
<path d="M43.8852 82.8393C43.8259 82.8393 43.7648 82.8263 43.7074 82.7986C43.513 82.706 43.4204 82.4819 43.4944 82.2782L57.213 44.7819C57.2722 44.6171 57.4296 44.5078 57.6037 44.5078H60.7056C60.8407 44.5078 60.9685 44.5745 61.0463 44.6856C61.1241 44.7967 61.1426 44.9393 61.0981 45.0652C56.1056 58.9726 51.3278 70.6837 44.2444 82.6337C44.1648 82.7652 44.0278 82.8393 43.8852 82.8393ZM57.8944 45.343L45.9722 77.93C51.6352 67.643 55.8037 57.3041 60.1111 45.343H57.8944Z" fill="#F7F7F8"/>
<path d="M99.7722 41.0195L103.046 45.4825L101.709 49.3899L98.4352 44.9269L99.7722 41.0195Z" fill="#D4D4D8"/>
<path d="M101.709 49.806C101.578 49.806 101.452 49.743 101.374 49.6356L98.1 45.1726C98.0185 45.0634 97.9982 44.9208 98.0426 44.7912L99.3815 40.8837C99.4315 40.7374 99.5593 40.63 99.713 40.606C99.8667 40.5837 100.02 40.6467 100.111 40.7708L103.385 45.2337C103.467 45.343 103.487 45.4856 103.443 45.6152L102.104 49.5226C102.054 49.6689 101.926 49.7763 101.772 49.8004C101.75 49.8041 101.73 49.806 101.709 49.806ZM98.9 44.8541L101.572 48.4986L102.581 45.5523L99.9093 41.9078L98.9 44.8541Z" fill="#F7F7F8"/>
<path d="M99.7722 41.0195L98.4333 44.9269L96.8352 49.5918H67.1592L68.7574 44.9269L70.0963 41.0195H81.1518C81.0629 42.2473 81.9111 43.1547 83.2889 43.1547C84.6666 43.1547 86.1352 42.2473 86.887 41.0195H99.7722Z" fill="#D4D4D8"/>
<path d="M96.837 50.0071H67.1593C67.0241 50.0071 66.8981 49.9423 66.8204 49.833C66.7426 49.7238 66.7222 49.583 66.7648 49.4553L69.7 40.883C69.7574 40.7145 69.9167 40.6016 70.0944 40.6016H81.15C81.2648 40.6016 81.3759 40.6497 81.4556 40.7349C81.5352 40.8201 81.5741 40.933 81.5667 41.0479C81.5333 41.5201 81.663 41.9275 81.9426 42.2275C82.2518 42.5608 82.7167 42.7349 83.287 42.7349C84.4981 42.7349 85.8315 41.9386 86.5296 40.7997C86.6056 40.6756 86.7407 40.6016 86.8852 40.6016H99.7741C99.9093 40.6016 100.035 40.6664 100.113 40.7756C100.191 40.8849 100.211 41.0256 100.169 41.1534L97.2333 49.7256C97.1741 49.8942 97.0148 50.0071 96.837 50.0071ZM67.7426 49.1738H96.5407L99.1907 41.4349H87.1111C86.2407 42.7016 84.7 43.5701 83.287 43.5701C82.4907 43.5701 81.7963 43.296 81.3315 42.796C80.9907 42.4312 80.787 41.9571 80.7389 41.4349H70.3926L67.7426 49.1738Z" fill="#F7F7F8"/>
<path d="M98.4352 44.9297H105.78C98.95 65.4371 92.7889 87.3297 82.0981 99.8427H37.513H31.8C36.5111 93.9852 40.4704 88.1871 43.8852 82.426C51.3537 69.8278 56.2259 57.4075 60.7055 44.9297H68.7574L67.1592 49.5945H96.837L98.4352 44.9297ZM91.2555 64.3593L91.5 62.8278H60.3037L60.0592 64.3593H91.2555ZM89.3092 69.2445L89.5537 67.713H58.3574L58.1129 69.2445H89.3092ZM87.3629 74.126L87.6074 72.5945H56.4092L56.1648 74.126H87.3629ZM93.2018 59.476L93.4463 57.9445H62.2518L62.0074 59.476H93.2018Z" fill="#F7F7F8"/>
<path d="M82.0963 100.256H31.8C31.6389 100.256 31.4926 100.164 31.424 100.019C31.3555 99.8747 31.374 99.7024 31.4759 99.5784C35.9666 93.9969 39.9092 88.3154 43.5277 82.2117C50.5777 70.321 55.337 58.6506 60.3129 44.7876C60.3722 44.6228 60.5296 44.5117 60.7055 44.5117H68.7574C68.8926 44.5117 69.0185 44.5765 69.0963 44.6858C69.174 44.7951 69.1944 44.9358 69.1518 45.0636L67.7426 49.1765H96.5407L98.0426 44.7932C98.1 44.6247 98.2592 44.5117 98.437 44.5117H105.781C105.915 44.5117 106.041 44.5765 106.12 44.6839C106.198 44.7932 106.22 44.9321 106.178 45.0599C105.302 47.6932 104.42 50.3932 103.568 53.0062C97.7777 70.7728 91.7889 89.1432 82.4166 100.112C82.3351 100.202 82.2185 100.256 82.0963 100.256ZM32.6666 99.4228H81.9037C91.0981 88.5636 97.0314 70.3562 102.772 52.7469C103.565 50.3136 104.383 47.8043 105.2 45.3432H98.7315L97.2296 49.7265C97.1722 49.895 97.0129 50.008 96.8351 50.008H67.1592C67.024 50.008 66.8981 49.9432 66.8203 49.8339C66.7426 49.7247 66.7222 49.5839 66.7648 49.4562L68.174 45.3432H60.9981C56.0407 59.1321 51.2796 70.7654 44.2444 82.6358C40.75 88.5284 36.9574 94.0284 32.6666 99.4228ZM87.3629 74.5413H56.1648C56.0426 74.5413 55.9277 74.4876 55.8481 74.3951C55.7685 74.3025 55.7352 74.1802 55.7537 74.0599L55.9981 72.5284C56.0296 72.3265 56.2055 72.1765 56.4092 72.1765H87.6055C87.7277 72.1765 87.8426 72.2302 87.9222 72.3228C88.0018 72.4154 88.0352 72.5376 88.0166 72.658L87.7722 74.1895C87.7407 74.3932 87.5666 74.5413 87.3629 74.5413ZM56.6537 73.708H87.0074L87.1185 73.0099H56.7648L56.6537 73.708ZM89.3092 69.6599H58.1129C57.9907 69.6599 57.8759 69.6062 57.7963 69.5136C57.7166 69.421 57.6833 69.2988 57.7018 69.1784L57.9463 67.6469C57.9777 67.4451 58.1537 67.2951 58.3574 67.2951H89.5537C89.6759 67.2951 89.7907 67.3488 89.8703 67.4413C89.95 67.5339 89.9833 67.6562 89.9648 67.7765L89.7203 69.308C89.6889 69.5099 89.5148 69.6599 89.3092 69.6599ZM58.6 68.8265H88.9537L89.0648 68.1284H58.7129L58.6 68.8265ZM91.2555 64.7747H60.0592C59.937 64.7747 59.8222 64.721 59.7426 64.6284C59.6629 64.5358 59.6296 64.4136 59.6481 64.2932L59.8926 62.7617C59.924 62.5599 60.1 62.4099 60.3037 62.4099H91.5C91.6222 62.4099 91.737 62.4636 91.8166 62.5562C91.8963 62.6488 91.9296 62.771 91.9111 62.8913L91.6666 64.4228C91.6352 64.6265 91.4611 64.7747 91.2555 64.7747ZM60.5481 63.9413H90.9018L91.0129 63.2432H60.6592L60.5481 63.9413ZM93.2018 59.8913H62.0074C61.8852 59.8913 61.7703 59.8376 61.6907 59.745C61.6111 59.6525 61.5777 59.5302 61.5963 59.4099L61.8407 57.8784C61.8722 57.6765 62.0481 57.5265 62.2518 57.5265H93.4463C93.5685 57.5265 93.6833 57.5802 93.7629 57.6728C93.8426 57.7654 93.8759 57.8876 93.8574 58.008L93.6129 59.5395C93.5814 59.7432 93.4074 59.8913 93.2018 59.8913ZM62.4944 59.058H92.8463L92.9574 58.3599H62.6055L62.4944 59.058Z" fill="#F7F7F8"/>
<path d="M90.4574 108.195H70.7296H68.1185H34.4556L37.7296 112.658H71.3908H74.0037H93.7315L90.4574 108.195Z" fill="#D4D4D8"/>
<path d="M93.7315 113.074H37.7296C37.5963 113.074 37.4722 113.011 37.3944 112.903L34.1204 108.44C34.0278 108.314 34.013 108.146 34.0852 108.005C34.1556 107.864 34.3 107.777 34.4574 107.777H90.4593C90.5926 107.777 90.7167 107.84 90.7944 107.948L94.0685 112.411C94.1611 112.537 94.1759 112.705 94.1037 112.846C94.0315 112.985 93.8889 113.074 93.7315 113.074ZM37.9407 112.24H92.9093L90.2463 108.611H35.2778L37.9407 112.24Z" fill="#F7F7F8"/>
<path d="M113.607 44.9258L101.183 78.8795L100.628 80.398L90.4574 108.192L93.7315 112.655L103.902 84.861L104.457 83.3424L116.881 49.3887L113.607 44.9258Z" fill="#D4D4D8"/>
<path d="M93.7315 113.071C93.6 113.071 93.474 113.008 93.3963 112.901L90.1222 108.438C90.0389 108.325 90.0185 108.179 90.0666 108.049L113.217 44.7806C113.27 44.6362 113.398 44.5325 113.55 44.5121C113.702 44.4899 113.854 44.5547 113.944 44.6788L117.218 49.1418C117.302 49.2547 117.322 49.401 117.274 49.5306L94.1222 112.797C94.0685 112.942 93.9407 113.045 93.7889 113.066C93.7703 113.07 93.75 113.071 93.7315 113.071ZM90.9259 108.125L93.6074 111.781L116.413 49.4529L113.731 45.7973L90.9259 108.125Z" fill="#F7F7F8"/>
<path d="M105.778 44.9258H113.631L101.207 78.8795L100.652 80.398L90.4815 108.192H70.7296H68.1167H34.4556L37.513 99.8369H82.0963C92.787 87.3239 98.95 65.4332 105.778 44.9258Z" fill="#D4D4D8"/>
<path d="M90.4833 108.61H34.4555C34.3203 108.61 34.1926 108.543 34.1148 108.432C34.037 108.321 34.0185 108.178 34.0648 108.05L37.1222 99.6948C37.1815 99.53 37.3389 99.4208 37.5129 99.4208H81.9037C91.0963 88.5615 97.0315 70.3541 102.772 52.7448C103.624 50.1319 104.506 47.43 105.383 44.793C105.441 44.6226 105.6 44.5078 105.778 44.5078H113.631C113.767 44.5078 113.894 44.5745 113.972 44.6856C114.05 44.7967 114.068 44.9393 114.022 45.0671L90.8741 108.336C90.8148 108.5 90.6574 108.61 90.4833 108.61ZM35.0518 107.776H90.1926L113.037 45.343H106.08C105.233 47.8856 104.387 50.4856 103.565 53.0041C97.7741 70.7708 91.7852 89.1411 82.4129 100.11C82.3333 100.202 82.2185 100.256 82.0963 100.256H37.8037L35.0518 107.776Z" fill="#F7F7F8"/>
<path d="M82.0963 99.8398H37.513H31.8L35.0722 104.303H40.7852H85.3704L82.0963 99.8398Z" fill="#D4D4D8"/>
<path d="M85.3704 104.718H35.0722C34.9389 104.718 34.8148 104.655 34.737 104.548L31.463 100.085C31.3704 99.9589 31.3556 99.7904 31.4278 99.6496C31.4981 99.5089 31.6426 99.4219 31.8 99.4219H82.0981C82.2315 99.4219 82.3556 99.4848 82.4333 99.5922L85.7074 104.055C85.8 104.181 85.8148 104.35 85.7426 104.49C85.6704 104.631 85.5278 104.718 85.3704 104.718ZM35.2833 103.885H84.5463L81.8833 100.255H32.6222L35.2833 103.885Z" fill="#F7F7F8"/>
<path d="M91.7166 94.9834C91.7944 94.8445 91.8703 94.7038 91.9481 94.563C92.1296 94.2352 92.3074 93.9056 92.487 93.5723C92.5703 93.4149 92.6537 93.2575 92.737 93.1001C92.9222 92.7501 93.1037 92.3964 93.2852 92.0389C93.35 91.9112 93.4148 91.7871 93.4796 91.6593C93.7222 91.1797 93.9611 90.6945 94.1981 90.2056C94.2463 90.1056 94.2926 90.0056 94.3407 89.9056C94.5315 89.5093 94.7203 89.1093 94.9074 88.7056C94.9852 88.5408 95.0611 88.3741 95.137 88.2075C95.2148 88.0371 95.2944 87.8686 95.3722 87.6982C95.4241 87.5852 95.4741 87.4686 95.5241 87.3556C95.737 86.8815 95.95 86.4038 96.1592 85.9223C96.2426 85.7334 96.3259 85.5445 96.4074 85.3556C96.6926 84.6908 96.9778 84.0223 97.2574 83.3445C97.2944 83.2556 97.3315 83.163 97.3685 83.0741C97.6129 82.4797 97.8555 81.8797 98.0963 81.276C98.1852 81.0538 98.2722 80.8315 98.3592 80.6075C98.5518 80.1167 98.7444 79.6223 98.9352 79.126C99.0222 78.8964 99.1111 78.6686 99.1981 78.4389C99.4148 77.8686 99.6296 77.2945 99.8444 76.7186C99.8963 76.5815 99.9463 76.4445 99.9981 76.3075C100.261 75.5926 100.522 74.8741 100.781 74.1519C100.852 73.9575 100.92 73.7593 100.991 73.5649C101.183 73.026 101.374 72.4852 101.565 71.9426C101.652 71.6964 101.737 71.4482 101.824 71.2001C102.007 70.6723 102.191 70.1445 102.372 69.6149C102.446 69.4001 102.52 69.1852 102.594 68.9686C102.844 68.2334 103.094 67.4982 103.343 66.7575C103.363 66.6964 103.383 66.6334 103.404 66.5723C103.635 65.8815 103.867 65.1908 104.096 64.4964C104.178 64.2501 104.259 64.0038 104.341 63.7575C104.515 63.2297 104.689 62.7019 104.863 62.1723C104.946 61.9204 105.03 61.6667 105.111 61.4149C105.307 60.8186 105.502 60.2223 105.696 59.626C105.746 59.4704 105.798 59.3167 105.848 59.1612C106.131 58.2908 106.417 57.4204 106.7 56.5501C106.893 55.9612 107.085 55.3704 107.278 54.7815C107.361 54.5241 107.446 54.2686 107.53 54.0112C107.707 53.4686 107.885 52.9278 108.063 52.3871C108.141 52.1482 108.22 51.9093 108.298 51.6704C108.548 50.9093 108.8 50.1501 109.052 49.3927L105.778 44.9297C105.526 45.6871 105.274 46.4445 105.024 47.2056C104.944 47.4464 104.867 47.6871 104.787 47.926C104.609 48.4667 104.431 49.0056 104.256 49.5464C104.172 49.8038 104.087 50.0593 104.004 50.3167C103.811 50.9056 103.618 51.4945 103.426 52.0852C103.143 52.9556 102.859 53.826 102.574 54.6964C102.524 54.8519 102.472 55.0056 102.422 55.1612C102.228 55.7593 102.031 56.3556 101.837 56.9519C101.754 57.2038 101.672 57.4538 101.589 57.7056C101.415 58.2371 101.239 58.7686 101.065 59.2982C100.983 59.5426 100.904 59.7871 100.822 60.0297C100.591 60.726 100.359 61.4223 100.126 62.1167C100.106 62.1741 100.087 62.2334 100.067 62.2927C99.8185 63.0315 99.5685 63.7667 99.3185 64.5019C99.2444 64.7204 99.1703 64.9352 99.0944 65.1538C98.9129 65.6834 98.7296 66.2112 98.5463 66.7389C98.4611 66.9871 98.3741 67.2334 98.287 67.4797C98.0963 68.0223 97.9055 68.5612 97.7129 69.1001C97.6426 69.2964 97.5722 69.4945 97.5018 69.6908C97.2426 70.413 96.9815 71.1297 96.7185 71.8445C96.6666 71.9852 96.6148 72.1223 96.5629 72.263C96.35 72.8371 96.1352 73.4093 95.9185 73.9778C95.8315 74.2075 95.7426 74.4371 95.6555 74.6649C95.4648 75.1612 95.2722 75.6556 95.0796 76.1464C94.9926 76.3686 94.9037 76.5926 94.8166 76.8149C94.5759 77.4186 94.3333 78.0186 94.0889 78.613C94.0518 78.7019 94.0148 78.7945 93.9778 78.8834C93.6981 79.5612 93.4148 80.2297 93.1278 80.8945C93.0463 81.0852 92.9629 81.2723 92.8796 81.463C92.6703 81.9445 92.4592 82.4223 92.2444 82.8964C92.1148 83.1815 91.987 83.4667 91.8574 83.7501C91.7815 83.9167 91.7037 84.0834 91.6278 84.2482C91.4407 84.6501 91.2518 85.0501 91.0611 85.4464C91.0129 85.5464 90.9648 85.6482 90.9166 85.7482C90.6796 86.2389 90.4407 86.7241 90.1981 87.2038C90.1352 87.3297 90.0703 87.4538 90.0055 87.5797C89.8241 87.9371 89.6407 88.2926 89.4555 88.6426C89.3722 88.8001 89.2889 88.9575 89.2055 89.1149C89.0278 89.4482 88.8481 89.7778 88.6666 90.1056C88.5889 90.2463 88.5129 90.3871 88.4352 90.526C88.1796 90.9834 87.9222 91.4352 87.6611 91.8797C87.6518 91.8964 87.6426 91.9112 87.6333 91.926C87.3833 92.3501 87.1315 92.7686 86.8778 93.1815C86.7778 93.3445 86.6759 93.5038 86.5741 93.6649C86.3963 93.9464 86.2185 94.2278 86.0389 94.5038C85.9296 94.6723 85.8185 94.8408 85.7074 95.0075C85.5315 95.2723 85.3537 95.5352 85.1741 95.7945C85.0611 95.9575 84.9481 96.1223 84.8352 96.2834C84.6481 96.5482 84.4611 96.8075 84.2722 97.0667C84.1648 97.213 84.0574 97.3612 83.95 97.5075C83.7463 97.7797 83.5407 98.0445 83.3333 98.3093C83.2315 98.4389 83.1315 98.5723 83.0296 98.7001C82.7203 99.0889 82.4074 99.4686 82.0889 99.8408L85.3629 104.304C85.6815 103.932 85.9944 103.55 86.3037 103.163C86.4055 103.035 86.5055 102.902 86.6074 102.772C86.7759 102.556 86.9463 102.343 87.1129 102.122C87.15 102.072 87.187 102.02 87.2241 101.97C87.3333 101.826 87.4389 101.678 87.5463 101.53C87.7352 101.27 87.9241 101.011 88.1092 100.746C88.2222 100.585 88.3352 100.42 88.4481 100.257C88.6259 99.9982 88.8037 99.7352 88.9796 99.4704C89.0907 99.3038 89.2018 99.1352 89.3129 98.9649C89.4926 98.6889 89.6704 98.4093 89.8463 98.1278C89.9481 97.9667 90.05 97.8056 90.15 97.6427C90.1852 97.5834 90.2222 97.5278 90.2592 97.4686C90.4778 97.113 90.6926 96.7519 90.9074 96.3871C90.9166 96.3704 90.9259 96.3556 90.9352 96.3408C91.2055 95.8926 91.4611 95.4408 91.7166 94.9834Z" fill="#D4D4D8"/>
<path d="M85.3704 104.717C85.3648 104.717 85.3593 104.717 85.3556 104.717C85.2278 104.711 85.1111 104.65 85.0352 104.546L81.7611 100.083C81.6463 99.9277 81.6555 99.7129 81.7796 99.5666C82.0778 99.2166 82.3833 98.8481 82.7111 98.4369C82.7722 98.361 82.8333 98.2814 82.8926 98.2036L83.013 98.0499C83.2185 97.7869 83.4222 97.524 83.6241 97.2555C83.7 97.1536 83.7741 97.0518 83.85 96.9481L83.9444 96.8184C84.1315 96.561 84.3185 96.3036 84.5037 96.0406C84.6167 95.8795 84.7278 95.7184 84.8407 95.5555C85.0185 95.2981 85.1944 95.0369 85.3704 94.774C85.4815 94.6073 85.5907 94.4425 85.7 94.274C85.8778 93.9999 86.0556 93.7203 86.2315 93.4407L86.3185 93.3018C86.3889 93.1888 86.4611 93.0758 86.5315 92.961C86.8074 92.5129 87.0537 92.1036 87.2833 91.7129L87.3111 91.6666C87.5463 91.2647 87.7981 90.824 88.0796 90.3184C88.1333 90.224 88.1852 90.1277 88.237 90.0332L88.3093 89.9018C88.4889 89.5758 88.6685 89.2462 88.8444 88.9147C88.9278 88.7592 89.0111 88.6018 89.0944 88.4444C89.2778 88.0944 89.4611 87.7407 89.6426 87.3851L89.7204 87.2332C89.7574 87.1592 89.7963 87.0851 89.8333 87.011C90.0778 86.524 90.3185 86.0369 90.5481 85.561L90.6907 85.261C90.8796 84.8666 91.0685 84.4684 91.2556 84.0666C91.3259 83.9166 91.3944 83.7666 91.4648 83.6147L91.4852 83.5684C91.6148 83.2869 91.7426 83.0018 91.8722 82.7166C92.0852 82.2444 92.2963 81.7684 92.5037 81.2888L92.5944 81.0814C92.6463 80.9629 92.6981 80.8425 92.75 80.724C93.0537 80.0203 93.3296 79.3647 93.5963 78.7184L93.7056 78.4481C93.95 77.8555 94.1907 77.2573 94.4315 76.6555C94.5 76.4832 94.5685 76.3092 94.637 76.1351L94.6944 75.9888C94.887 75.4981 95.0796 75.0055 95.2704 74.5092L95.3074 74.4129C95.3833 74.2166 95.4593 74.0203 95.5333 73.8221C95.75 73.2536 95.963 72.6832 96.1759 72.1092L96.3315 71.6925C96.5944 70.9795 96.8537 70.2629 97.113 69.5425L97.3241 68.9518C97.5167 68.4147 97.7074 67.874 97.8963 67.3332L98.1537 66.5925C98.337 66.0666 98.5185 65.5388 98.7 65.0092L98.9241 64.3592C99.1741 63.6258 99.4241 62.8906 99.6722 62.1518L99.7315 61.9777C99.9648 61.2851 100.196 60.5888 100.428 59.8925L100.67 59.161C100.846 58.6314 101.02 58.0999 101.194 57.5684L101.443 56.8147C101.639 56.2184 101.833 55.6221 102.028 55.024L103.859 49.411C104.037 48.8703 104.213 48.3295 104.391 47.7888L104.628 47.0684C104.878 46.3073 105.13 45.5481 105.381 44.7925C105.431 44.6444 105.557 44.5369 105.713 44.5129C105.867 44.4888 106.022 44.5518 106.113 44.6777L109.387 49.1406C109.467 49.2499 109.489 49.3907 109.446 49.5184C109.194 50.2758 108.943 51.0351 108.693 51.7944L108.457 52.5092C108.28 53.0499 108.102 53.5906 107.924 54.1332L106.093 59.7462C105.898 60.3444 105.702 60.9406 105.507 61.5369L105.259 62.2944C105.085 62.824 104.911 63.3518 104.737 63.8795L104.493 64.6184C104.263 65.3129 104.031 66.0055 103.8 66.6944L103.739 66.8795C103.491 67.6203 103.241 68.3573 102.989 69.0925L102.767 69.7388C102.585 70.2703 102.402 70.7981 102.219 71.3258L101.959 72.0684C101.769 72.6129 101.578 73.1536 101.385 73.6944L101.176 74.2832C100.917 75.0073 100.654 75.7277 100.391 76.4425L100.237 76.8536C100.022 77.4314 99.8074 78.0055 99.5907 78.5777C99.5167 78.7721 99.4426 78.9666 99.3685 79.161L99.3278 79.2666C99.137 79.7647 98.9444 80.2592 98.75 80.7518L98.6926 80.8999C98.6241 81.074 98.5556 81.2481 98.487 81.4221C98.2463 82.0277 98.0037 82.6277 97.7574 83.224L97.6463 83.4962C97.3778 84.1444 97.1 84.8036 96.7944 85.5129C96.7426 85.6332 96.6907 85.7536 96.637 85.8721L96.5444 86.0814C96.3333 86.5647 96.1222 87.0444 95.9074 87.5203L95.837 87.6777C95.8093 87.7407 95.7815 87.8036 95.7537 87.8647C95.7056 87.9684 95.6574 88.0721 95.6092 88.1758L95.4926 88.4295C95.4241 88.5777 95.3555 88.7277 95.287 88.8758C95.0981 89.2814 94.9093 89.6814 94.7167 90.0814L94.5741 90.3814C94.3426 90.8592 94.1 91.3499 93.8537 91.8425C93.8148 91.9184 93.7759 91.9944 93.737 92.0703L93.6593 92.224C93.4778 92.5814 93.2926 92.9369 93.1093 93.2888C93.0259 93.4481 92.9407 93.6055 92.8574 93.7647C92.6778 94.0999 92.4981 94.4314 92.3167 94.761L92.2444 94.8925C92.1907 94.9907 92.137 95.0869 92.0833 95.1832C91.7981 95.6925 91.5444 96.1369 91.3055 96.5443L91.2759 96.5925C91.0611 96.9592 90.8444 97.3221 90.6259 97.6795L90.5167 97.8536C90.4444 97.9703 90.3722 98.0869 90.2981 98.2018L90.2093 98.3425C90.0315 98.6258 89.8537 98.9073 89.6722 99.1851C89.5611 99.3555 89.45 99.524 89.337 99.6944C89.1593 99.961 88.9815 100.226 88.8018 100.487C88.6889 100.652 88.5741 100.817 88.4593 100.98C88.2722 101.246 88.0815 101.509 87.8907 101.768L87.7963 101.9C87.7204 102.005 87.6426 102.109 87.5667 102.213L87.5167 102.28C87.4963 102.309 87.4741 102.337 87.4537 102.365C87.3296 102.53 87.2037 102.689 87.0778 102.848L86.8278 103.168C86.7648 103.25 86.7018 103.333 86.637 103.413C86.3037 103.83 85.9944 104.207 85.687 104.565C85.6074 104.663 85.4926 104.717 85.3704 104.717ZM82.6278 99.8555L85.3944 103.626C85.5852 103.396 85.7815 103.155 85.987 102.898C86.0481 102.822 86.1093 102.743 86.1685 102.665L86.4241 102.337C86.5463 102.181 86.6685 102.026 86.7889 101.867L86.9 101.717C86.9759 101.617 87.05 101.515 87.1241 101.413L87.2204 101.281C87.4074 101.024 87.5944 100.767 87.7796 100.504C87.8926 100.342 88.0037 100.181 88.1167 100.018C88.2944 99.761 88.4704 99.4999 88.6444 99.2369C88.7555 99.0703 88.8648 98.9036 88.9741 98.7351C89.1518 98.461 89.3278 98.1832 89.5037 97.9036L89.5926 97.761C89.663 97.6481 89.7352 97.5351 89.8056 97.4203L89.913 97.2481C90.1296 96.8944 90.3444 96.5351 90.5556 96.1721L90.5833 96.124C90.8185 95.7221 91.0704 95.2814 91.3518 94.7777C91.4055 94.6832 91.4574 94.5869 91.5093 94.4925L91.5815 94.361C91.7611 94.0351 91.9407 93.7055 92.1167 93.374C92.2 93.2184 92.2833 93.061 92.3667 92.9036C92.55 92.5555 92.7315 92.2018 92.913 91.8481L92.9926 91.6925C93.0296 91.6184 93.0685 91.5444 93.1055 91.4703C93.3518 90.9832 93.5907 90.4962 93.8204 90.0221L93.963 89.724C94.1537 89.3277 94.3407 88.9295 94.5278 88.5277C94.5963 88.3814 94.6648 88.2332 94.7315 88.0851L94.85 87.8277C94.8963 87.7258 94.9444 87.624 94.9907 87.5221C95.0167 87.4629 95.0426 87.4036 95.0685 87.3444C95.0926 87.2888 95.1167 87.2332 95.1407 87.1795C95.3537 86.7073 95.5648 86.2295 95.7741 85.7499L95.8667 85.5388C95.9185 85.4203 95.9704 85.3036 96.0204 85.1851C96.3241 84.4795 96.6018 83.824 96.8667 83.1795L96.9759 82.9092C97.2204 82.3166 97.4611 81.7184 97.7019 81.1166C97.7704 80.9444 97.8389 80.7721 97.9056 80.5981L97.963 80.4499C98.1555 79.9592 98.3481 79.4666 98.5389 78.9703L98.5796 78.8647C98.6537 78.6721 98.7278 78.4795 98.8019 78.2851C99.0185 77.7166 99.2333 77.1425 99.4463 76.5684L99.6 76.1573C99.863 75.4444 100.124 74.7258 100.383 74.0055L100.593 73.4184C100.785 72.8795 100.976 72.3407 101.167 71.7981L101.426 71.0573C101.609 70.5314 101.791 70.0018 101.972 69.474L102.194 68.8295C102.444 68.0962 102.694 67.3592 102.943 66.6203L103.004 66.4351C103.235 65.7462 103.465 65.0536 103.694 64.361L103.939 63.6221C104.113 63.0944 104.287 62.5666 104.461 62.0369L104.709 61.2795C104.906 60.6832 105.1 60.0869 105.294 59.4907L107.126 53.8777C107.304 53.3351 107.481 52.7944 107.659 52.2536L107.894 51.5369C108.122 50.8444 108.352 50.1518 108.581 49.4629L105.913 45.824C105.746 46.3258 105.58 46.8295 105.415 47.3332L105.178 48.0536C105 48.5925 104.824 49.1332 104.646 49.674L102.815 55.2869C102.62 55.8851 102.424 56.4814 102.23 57.0777L101.981 57.8314C101.807 58.3629 101.631 58.8944 101.456 59.424L101.213 60.1555C100.981 60.8536 100.75 61.5499 100.517 62.2444L100.457 62.4203C100.209 63.1592 99.9593 63.8962 99.7093 64.6314L99.4852 65.2832C99.3037 65.8129 99.1204 66.3425 98.937 66.8703L98.6778 67.611C98.487 68.1536 98.2963 68.6944 98.1037 69.2332L97.8926 69.8258C97.6333 70.5481 97.3722 71.2684 97.1093 71.9814L96.9537 72.3999C96.7407 72.9758 96.5259 73.5499 96.3093 74.1184C96.2333 74.3166 96.1574 74.5147 96.0815 74.711L96.0444 74.8073C95.8537 75.3055 95.6611 75.7999 95.4667 76.2925L95.4093 76.4369C95.3407 76.6129 95.2722 76.7869 95.2019 76.961C94.9611 77.5666 94.7185 78.1666 94.4722 78.7629L94.3611 79.0351C94.0926 79.6851 93.813 80.3444 93.5093 81.0518C93.4574 81.174 93.4037 81.2944 93.35 81.4147L93.2593 81.6203C93.0481 82.1036 92.837 82.5814 92.6222 83.0573C92.4926 83.3444 92.363 83.6314 92.2333 83.9147L92.2222 83.961C92.1518 84.1129 92.0833 84.2647 92.013 84.4166C91.8241 84.8203 91.6352 85.2221 91.4444 85.6203L91.3 85.924C91.0685 86.4036 90.8259 86.8944 90.5778 87.3851C90.5389 87.461 90.5 87.5369 90.4611 87.6129L90.3852 87.7629C90.2018 88.1221 90.0185 88.4777 89.8333 88.8314C89.75 88.9907 89.6648 89.1481 89.5815 89.3055C89.4018 89.6407 89.2222 89.9721 89.0407 90.3018L88.9685 90.4332C88.9148 90.5314 88.8611 90.6277 88.8074 90.724C88.5222 91.2332 88.2685 91.6795 88.0296 92.0851L88.0018 92.1314C87.7685 92.5277 87.5204 92.9406 87.2407 93.3944C87.1685 93.511 87.0963 93.6277 87.0222 93.7425L86.9352 93.8814C86.7574 94.1647 86.5778 94.4481 86.3963 94.7258C86.2852 94.8962 86.1741 95.0647 86.063 95.2332C85.8852 95.4999 85.7074 95.7647 85.5259 96.0258C85.413 96.1906 85.2981 96.3555 85.1833 96.5184C84.9963 96.7851 84.8056 97.0481 84.6148 97.3073L84.5204 97.4351C84.4426 97.5406 84.3667 97.6462 84.2889 97.7499C84.0833 98.024 83.8759 98.2925 83.6667 98.5592L83.55 98.7092C83.487 98.7906 83.4241 98.874 83.3593 98.9536C83.1056 99.2777 82.863 99.574 82.6278 99.8555Z" fill="#F7F7F8"/>
<path d="M93.4463 57.9414L93.2018 59.4729H62.0074L62.2518 57.9414H93.4463Z" fill="#D4D4D8"/>
<path d="M93.2019 59.8883H62.0074C61.8852 59.8883 61.7704 59.8345 61.6907 59.742C61.6111 59.6494 61.5778 59.5271 61.5963 59.4068L61.8407 57.8753C61.8722 57.6734 62.0482 57.5234 62.2519 57.5234H93.4463C93.5685 57.5234 93.6833 57.5771 93.763 57.6697C93.8426 57.7623 93.8759 57.8845 93.8574 58.0049L93.613 59.5364C93.5815 59.7401 93.4074 59.8883 93.2019 59.8883ZM62.4945 59.0549H92.8463L92.9574 58.3568H62.6056L62.4945 59.0549Z" fill="#D4D4D8"/>
<path d="M89.5537 67.7109L89.3092 69.2424H58.1129L58.3574 67.7109H89.5537Z" fill="#D4D4D8"/>
<path d="M89.3092 69.6578H58.1129C57.9907 69.6578 57.8759 69.6041 57.7963 69.5115C57.7166 69.4189 57.6833 69.2967 57.7018 69.1763L57.9463 67.6448C57.9778 67.443 58.1537 67.293 58.3574 67.293H89.5537C89.6759 67.293 89.7907 67.3467 89.8703 67.4393C89.95 67.5319 89.9833 67.6541 89.9648 67.7744L89.7203 69.3059C89.6889 69.5096 89.5148 69.6578 89.3092 69.6578ZM58.6 68.8244H88.9537L89.0648 68.1263H58.7129L58.6 68.8244Z" fill="#D4D4D8"/>
<path d="M87.6074 72.5938L87.3629 74.1252H56.1648L56.4092 72.5938H87.6074Z" fill="#D4D4D8"/>
<path d="M87.363 74.5406H56.1648C56.0426 74.5406 55.9278 74.4869 55.8482 74.3943C55.7685 74.3017 55.7352 74.1795 55.7537 74.0591L55.9982 72.5276C56.0296 72.3258 56.2056 72.1758 56.4093 72.1758H87.6056C87.7278 72.1758 87.8426 72.2295 87.9222 72.3221C88.0019 72.4147 88.0352 72.5369 88.0167 72.6573L87.7722 74.1887C87.7426 74.3924 87.5667 74.5406 87.363 74.5406ZM56.6537 73.7073H87.0074L87.1185 73.0091H56.7648L56.6537 73.7073Z" fill="#D4D4D8"/>
<path d="M91.5 62.8281L91.2574 64.3596H60.0593L60.3037 62.8281H91.5Z" fill="#D4D4D8"/>
<path d="M91.2574 64.775H60.0593C59.9371 64.775 59.8223 64.7213 59.7426 64.6287C59.663 64.5361 59.6297 64.4139 59.6482 64.2935L59.8926 62.762C59.9241 62.5602 60.1 62.4102 60.3037 62.4102H91.5C91.6223 62.4102 91.7371 62.4639 91.8167 62.5564C91.8963 62.649 91.9297 62.7713 91.9111 62.8916L91.6667 64.4231C91.6352 64.6268 91.4611 64.775 91.2574 64.775ZM60.5482 63.9416H90.9019L91.013 63.2435H60.6593L60.5482 63.9416Z" fill="#D4D4D8"/>
<path d="M160.781 133.138C162.906 133.138 164.628 131.416 164.628 129.292C164.628 127.167 162.906 125.445 160.781 125.445C158.657 125.445 156.935 127.167 156.935 129.292C156.935 131.416 158.657 133.138 160.781 133.138Z" fill="#F7F7F8"/>
<path d="M165.58 131.9C167.704 131.9 169.426 130.178 169.426 128.053C169.426 125.929 167.704 124.207 165.58 124.207C163.455 124.207 161.733 125.929 161.733 128.053C161.733 130.178 163.455 131.9 165.58 131.9Z" fill="#F7F7F8"/>
<path d="M40.6556 120.195C41.663 120.195 42.4796 119.378 42.4796 118.371C42.4796 117.364 41.663 116.547 40.6556 116.547C39.6481 116.547 38.8315 117.364 38.8315 118.371C38.8315 119.378 39.6481 120.195 40.6556 120.195Z" fill="#F7F7F8"/>
<path d="M38.7093 121.511C39.7167 121.511 40.5333 120.695 40.5333 119.687C40.5333 118.68 39.7167 117.863 38.7093 117.863C37.7019 117.863 36.8852 118.68 36.8852 119.687C36.8852 120.695 37.7019 121.511 38.7093 121.511Z" fill="#F7F7F8"/>
<path d="M41.9871 59.476C43.5089 59.476 44.7426 58.2423 44.7426 56.7204C44.7426 55.1985 43.5089 53.9648 41.9871 53.9648C40.4652 53.9648 39.2315 55.1985 39.2315 56.7204C39.2315 58.2423 40.4652 59.476 41.9871 59.476Z" fill="#F7F7F8"/>
<path d="M116.882 64.3236C118.403 64.3236 119.637 63.0899 119.637 61.5681C119.637 60.0462 118.403 58.8125 116.882 58.8125C115.36 58.8125 114.126 60.0462 114.126 61.5681C114.126 63.0899 115.36 64.3236 116.882 64.3236Z" fill="#F7F7F8"/>
<path d="M118.259 66.5501C118.795 66.5501 119.23 66.1157 119.23 65.5797C119.23 65.0438 118.795 64.6094 118.259 64.6094C117.723 64.6094 117.289 65.0438 117.289 65.5797C117.289 66.1157 117.723 66.5501 118.259 66.5501Z" fill="#F7F7F8"/>
<path d="M166.676 104.524C167.816 104.524 168.741 103.6 168.741 102.459C168.741 101.319 167.816 100.395 166.676 100.395C165.536 100.395 164.611 101.319 164.611 102.459C164.611 103.6 165.536 104.524 166.676 104.524Z" fill="#F7F7F8"/>
<path d="M169.089 101.116C169.491 101.116 169.817 100.79 169.817 100.388C169.817 99.986 169.491 99.6602 169.089 99.6602C168.687 99.6602 168.361 99.986 168.361 100.388C168.361 100.79 168.687 101.116 169.089 101.116Z" fill="#F7F7F8"/>
<path d="M178.256 74.2744C180.874 74.2744 182.996 72.1519 182.996 69.5337C182.996 66.9155 180.874 64.793 178.256 64.793C175.637 64.793 173.515 66.9155 173.515 69.5337C173.515 72.1519 175.637 74.2744 178.256 74.2744Z" fill="#F7F7F8"/>
<path d="M173.515 67.1945C174.762 67.1945 175.772 66.1838 175.772 64.9371C175.772 63.6904 174.762 62.6797 173.515 62.6797C172.268 62.6797 171.257 63.6904 171.257 64.9371C171.257 66.1838 172.268 67.1945 173.515 67.1945Z" fill="#F7F7F8"/>
</svg>
