<svg width="200" height="200" viewBox="0 0 200 200" fill="none" xmlns="http://www.w3.org/2000/svg">
<path d="M100 163.598C137.759 163.598 168.369 151.59 168.369 136.777C168.369 121.965 137.759 109.957 100 109.957C62.2411 109.957 31.6315 121.965 31.6315 136.777C31.6315 151.59 62.2411 163.598 100 163.598Z" fill="#F7F7F8"/>
<path d="M102.246 57.3216C102.115 57.1438 101.965 56.9808 101.798 56.8345C101.209 56.3197 100.413 56.0234 99.5296 56.0234C99.2574 56.0234 98.9722 56.0531 98.6833 56.1123C98.5426 56.142 98.4056 56.179 98.2704 56.2197C98.2556 56.2234 98.2407 56.2271 98.2259 56.2308C98.1704 56.2494 98.1148 56.2697 98.0593 56.2901C98.0371 56.2975 98.013 56.3049 97.9908 56.3142C97.9 56.3494 97.8093 56.3864 97.7204 56.4253C97.7148 56.4271 97.7093 56.4308 97.7056 56.4327C97.5833 56.4883 97.4648 56.5494 97.3482 56.6142C97.3408 56.6179 97.3352 56.6216 97.3278 56.6253C97.3 56.642 97.2741 56.6605 97.2463 56.6771C97.1741 56.7216 97.1019 56.766 97.0315 56.8123C97.0185 56.8216 97.0037 56.829 96.9908 56.8383C96.963 56.8568 96.937 56.879 96.9093 56.8994C96.8519 56.942 96.7945 56.9827 96.737 57.0271C96.7204 57.0401 96.7019 57.0531 96.6833 57.066C96.6611 57.0845 96.6389 57.1049 96.6167 57.1234C96.563 57.1679 96.5111 57.2142 96.4593 57.2605C96.4389 57.279 96.4185 57.2957 96.3982 57.3142C96.3593 57.3512 96.3204 57.3882 96.2833 57.4271C96.2333 57.479 96.1852 57.5308 96.1371 57.5827C96.1241 57.5957 96.1148 57.6105 96.1019 57.6253C96.0463 57.6883 95.9926 57.7549 95.9408 57.8197C95.9222 57.8438 95.9 57.866 95.8833 57.8901C95.8778 57.8975 95.8741 57.9049 95.8685 57.9123C95.7889 58.0179 95.7148 58.1271 95.6463 58.2401C95.6426 58.2457 95.6389 58.2494 95.6352 58.2549C95.587 58.3345 95.5408 58.416 95.4963 58.4975C95.487 58.5142 95.4796 58.5327 95.4704 58.5494C95.4407 58.6086 95.4093 58.6679 95.3833 58.7271C95.3759 58.742 95.3722 58.7568 95.3648 58.7716C95.3519 58.8031 95.3389 58.8345 95.3259 58.8679C95.3 58.9308 95.2759 58.9938 95.2537 59.0568C95.2408 59.0901 95.2296 59.1253 95.2185 59.1586C95.1963 59.2253 95.1778 59.2901 95.1593 59.3568C95.1519 59.3883 95.1426 59.4179 95.1352 59.4494C95.1111 59.5457 95.0907 59.6438 95.0759 59.742C95.0333 60.0049 95.0185 60.2753 95.0389 60.5438L95.1352 61.9475L99.1389 67.4049L99.0426 66.0012C99.0222 65.7308 99.0371 65.4623 99.0796 65.1994C99.0945 65.1012 99.1167 65.0031 99.1389 64.9068C99.1463 64.8753 99.1556 64.8457 99.163 64.8142C99.1815 64.7475 99.2 64.6808 99.2204 64.616C99.2315 64.5827 99.2426 64.5475 99.2556 64.5142C99.2778 64.4512 99.3019 64.3883 99.3278 64.3253C99.3408 64.2938 99.3537 64.2623 99.3667 64.2308C99.4 64.1568 99.4352 64.0827 99.4722 64.0086C99.4815 63.992 99.4889 63.9734 99.4982 63.9568C99.5445 63.8697 99.5945 63.7827 99.6463 63.6975C99.7148 63.5864 99.7907 63.4771 99.8685 63.3697C99.8926 63.3382 99.9167 63.3086 99.9426 63.2771C99.9945 63.2105 100.048 63.1457 100.104 63.0827C100.163 63.016 100.222 62.9494 100.285 62.8845C100.343 62.8271 100.402 62.7734 100.461 62.7179C100.513 62.6716 100.565 62.6253 100.619 62.5808C100.657 62.5475 100.698 62.5142 100.739 62.4827C100.794 62.4383 100.852 62.3957 100.911 62.3549C100.952 62.3253 100.991 62.2957 101.033 62.2679C101.104 62.2216 101.176 62.1771 101.248 62.1327C101.283 62.1123 101.317 62.0901 101.352 62.0697C101.469 62.0049 101.587 61.9438 101.709 61.8882C101.804 61.8457 101.898 61.8049 101.996 61.7679C102.019 61.7586 102.043 61.7512 102.065 61.7438C102.135 61.7179 102.206 61.6957 102.278 61.6734C102.413 61.6327 102.55 61.5938 102.691 61.566C102.98 61.5068 103.265 61.4771 103.537 61.4771C104.422 61.4771 105.219 61.7734 105.806 62.2883C105.972 62.4345 106.122 62.5957 106.254 62.7753L102.246 57.3216Z" fill="#D4D4D8"/>
<path d="M99.137 67.7783C99.0222 67.7783 98.9093 67.7246 98.8389 67.6264L94.8352 62.1672C94.7944 62.1097 94.7685 62.0431 94.7648 61.9727L94.6685 60.569C94.6463 60.2838 94.6611 59.9838 94.7093 59.682C94.7259 59.582 94.7463 59.4783 94.7741 59.3616C94.7796 59.3375 94.787 59.3135 94.7926 59.2894L94.8 59.2616C94.8204 59.1894 94.8407 59.1153 94.8648 59.0449C94.8778 59.0079 94.8907 58.9709 94.9037 58.932C94.9278 58.8635 94.9537 58.7949 94.9833 58.7264L94.9926 58.7023C95.0037 58.6764 95.0148 58.6486 95.0259 58.6227L95.0463 58.5746C95.0741 58.5116 95.1056 58.4523 95.137 58.3912L95.1704 58.3264C95.2167 58.2375 95.2667 58.1486 95.3204 58.0616C95.3241 58.0542 95.3352 58.0394 95.3407 58.032C95.4037 57.9283 95.4852 57.8079 95.5722 57.6912C95.5722 57.6894 95.5815 57.6783 95.5889 57.6653C95.6019 57.6486 95.6167 57.6301 95.6333 57.6116L95.65 57.5912C95.7056 57.519 95.763 57.4486 95.8241 57.3801C95.8389 57.3597 95.85 57.3468 95.8611 57.3357C95.913 57.2783 95.9648 57.2227 96.0185 57.1672C96.0593 57.1264 96.1 57.0857 96.1426 57.0468C96.1593 57.032 96.1741 57.0172 96.1907 57.0042L96.2074 56.9894C96.2611 56.9394 96.3185 56.8894 96.3759 56.8412L96.3963 56.8227C96.413 56.8079 96.4296 56.7931 96.4482 56.7783C96.463 56.7672 96.4778 56.756 96.4926 56.7449C96.5648 56.6875 96.6278 56.6431 96.6907 56.5968L96.7148 56.5783C96.7352 56.5616 96.7556 56.5468 96.7778 56.532C96.7907 56.5227 96.8037 56.5153 96.8167 56.5061C96.8963 56.4523 96.9741 56.406 97.0519 56.3579L97.0759 56.3431C97.0963 56.3301 97.1185 56.3153 97.1407 56.3023C97.1481 56.2986 97.1648 56.2894 97.1722 56.2857C97.2889 56.219 97.4185 56.1542 97.5463 56.0949C97.5463 56.0949 97.563 56.0875 97.563 56.0857C97.6593 56.0431 97.7574 56.0023 97.8556 55.9653C97.8722 55.9598 97.8907 55.9523 97.9074 55.9468L97.9593 55.9283C98.0093 55.9097 98.0593 55.8931 98.1093 55.8764C98.1259 55.8709 98.1426 55.8672 98.1593 55.8635C98.3222 55.8135 98.4685 55.7764 98.6056 55.7486C98.9185 55.6857 99.2278 55.6523 99.5259 55.6523C100.48 55.6523 101.372 55.9727 102.039 56.5542C102.226 56.719 102.396 56.9023 102.541 57.1005L106.543 62.556L106.544 62.5579C106.665 62.7227 106.63 62.9542 106.465 63.0764C106.3 63.1968 106.069 63.1616 105.946 62.9968C105.833 62.8431 105.702 62.6986 105.554 62.5709C105.022 62.1061 104.304 61.8505 103.528 61.8505C103.278 61.8505 103.019 61.8783 102.756 61.932C102.643 61.956 102.519 61.9875 102.378 62.0301C102.311 62.0505 102.246 62.0709 102.181 62.0949L102.119 62.1172C102.03 62.1505 101.941 62.1875 101.856 62.2264C101.746 62.2764 101.635 62.332 101.526 62.3949C101.509 62.4042 101.493 62.4153 101.476 62.4264L101.431 62.4542C101.365 62.4949 101.298 62.5357 101.233 62.5783C101.202 62.5986 101.17 62.6209 101.141 62.6431L101.122 62.656C101.069 62.6949 101.015 62.7338 100.963 62.7746C100.926 62.8042 100.889 62.8338 100.852 62.8653C100.804 62.906 100.756 62.9486 100.707 62.9931L100.689 63.0098C100.641 63.0542 100.593 63.0986 100.546 63.1449C100.489 63.2042 100.433 63.2653 100.38 63.3264C100.328 63.3857 100.28 63.4449 100.231 63.506L100.202 63.5449C100.189 63.5597 100.176 63.5764 100.165 63.5912C100.091 63.6912 100.022 63.7931 99.9593 63.8912C99.9111 63.969 99.8648 64.0486 99.8222 64.1283L99.8 64.1746C99.7667 64.2412 99.7333 64.3079 99.7037 64.3764L99.6667 64.4635C99.6426 64.5209 99.6204 64.5764 99.6 64.6357C99.5889 64.6672 99.5778 64.6968 99.5685 64.7283C99.55 64.7875 99.5315 64.8486 99.5148 64.9079L99.4926 64.9912C99.4722 65.0783 99.4537 65.1653 99.4389 65.2542C99.4 65.4986 99.3889 65.7394 99.4056 65.9709L99.5019 67.3764C99.513 67.5412 99.4148 67.6931 99.2593 67.7486C99.2222 67.7709 99.1796 67.7783 99.137 67.7783ZM95.4963 61.8172L98.6815 66.1597L98.6722 66.0301C98.65 65.7449 98.6648 65.4449 98.713 65.1431C98.7296 65.0431 98.75 64.9375 98.7778 64.8227C98.7833 64.7986 98.7907 64.7746 98.7963 64.7505L98.8037 64.7209C98.8241 64.6486 98.8444 64.5764 98.8667 64.5042C98.8796 64.4672 98.8926 64.4283 98.9056 64.3912C98.9296 64.3227 98.9574 64.2542 98.9852 64.1857L98.9963 64.1598C99.0074 64.1338 99.0185 64.1079 99.0296 64.082C99.0648 64.0005 99.1037 63.9209 99.1444 63.8412L99.1722 63.7857C99.2222 63.6912 99.2759 63.5968 99.3333 63.506C99.4056 63.3875 99.487 63.269 99.5741 63.1523C99.5907 63.1283 99.6093 63.106 99.6278 63.082L99.6519 63.0505C99.7074 62.9783 99.7648 62.9079 99.8259 62.8394C99.8889 62.7672 99.9537 62.6949 100.022 62.6264C100.078 62.5709 100.135 62.5172 100.193 62.4653L100.211 62.4486C100.267 62.3986 100.322 62.3486 100.38 62.3005C100.422 62.2653 100.465 62.2283 100.509 62.1949C100.569 62.1468 100.631 62.1023 100.694 62.0579L100.713 62.0449C100.75 62.0172 100.787 61.9912 100.826 61.9653C100.902 61.9153 100.98 61.8672 101.057 61.819L101.093 61.7986C101.119 61.7838 101.143 61.7672 101.169 61.7523C101.296 61.6801 101.426 61.6153 101.554 61.556C101.656 61.5098 101.757 61.4672 101.863 61.4264L101.937 61.4005C102.013 61.3727 102.089 61.3486 102.167 61.3246C102.33 61.2746 102.476 61.2375 102.613 61.2079C103.343 61.0579 104.048 61.0875 104.689 61.2764L101.948 57.5412C101.835 57.3857 101.702 57.2431 101.556 57.1153C101.024 56.6505 100.304 56.3949 99.5296 56.3949C99.2796 56.3949 99.0204 56.4227 98.7574 56.4764C98.6426 56.5005 98.5222 56.532 98.3796 56.5746C98.3648 56.5783 98.35 56.582 98.3352 56.5857C98.2982 56.5968 98.2574 56.6116 98.2167 56.6264L98.1222 56.6598C98.037 56.6912 97.9537 56.7264 97.8722 56.7635C97.7482 56.8209 97.637 56.8783 97.5278 56.9394C97.5204 56.9431 97.5037 56.9523 97.4963 56.956C97.5 56.9542 97.4889 56.9616 97.4815 56.9672C97.4667 56.9764 97.45 56.9875 97.4333 56.9968C97.3648 57.0375 97.2981 57.0783 97.2333 57.1209C97.2222 57.1283 97.2093 57.1357 97.1981 57.1431C97.1852 57.1523 97.1759 57.1597 97.1667 57.1672L97.1222 57.2005C97.0685 57.2394 97.0148 57.2783 96.963 57.319C96.9518 57.3283 96.9389 57.3375 96.9259 57.3468L96.8926 57.3746C96.8796 57.3857 96.8667 57.3986 96.8519 57.4097C96.8037 57.4505 96.7556 57.4931 96.7074 57.5357L96.65 57.5857C96.6148 57.619 96.5796 57.6542 96.5445 57.6894C96.4982 57.7357 96.4537 57.7838 96.4093 57.8338C96.3963 57.8505 96.387 57.8616 96.3759 57.8727C96.3259 57.9301 96.2759 57.9912 96.2296 58.0505C96.2185 58.0653 96.2056 58.0801 96.1944 58.0931L96.1759 58.1153C96.1759 58.1153 96.1704 58.1246 96.163 58.1338C96.087 58.2357 96.0185 58.3357 95.9574 58.4357C95.9537 58.4412 95.9482 58.4505 95.9426 58.4561C95.8982 58.5283 95.8593 58.6005 95.8204 58.6727L95.7963 58.7209C95.7667 58.7801 95.7407 58.832 95.7167 58.882L95.6648 59.0098C95.6407 59.0672 95.6185 59.1227 95.5981 59.182C95.587 59.2135 95.5759 59.2449 95.5667 59.2746C95.5481 59.3338 95.5296 59.3949 95.5148 59.4542L95.4926 59.5375C95.4722 59.6246 95.4537 59.7116 95.4389 59.8005C95.4 60.0449 95.3889 60.2857 95.4056 60.5172L95.4963 61.8172Z" fill="#F7F7F8"/>
<path d="M104.061 65.2254L100.057 59.768C100.015 59.7106 99.9667 59.6569 99.913 59.6106C99.7204 59.4439 99.4648 59.3477 99.1815 59.3477C99.0908 59.3495 99 59.3588 98.9056 59.3773C98.8556 59.3884 98.8056 59.4014 98.7574 59.4162C98.7426 59.4217 98.7296 59.4273 98.7148 59.4328C98.6926 59.4402 98.6722 59.4495 98.6519 59.4569C98.6333 59.4643 98.613 59.4699 98.5944 59.4791C98.5611 59.494 98.5315 59.5106 98.5 59.5273C98.4926 59.531 98.4852 59.5347 98.4796 59.5384C98.4759 59.5402 98.4741 59.5421 98.4704 59.544C98.4333 59.5643 98.3982 59.5865 98.363 59.6106C98.3463 59.6217 98.3296 59.6347 98.3148 59.6477C98.3074 59.6532 98.2982 59.6606 98.2908 59.6662C98.2833 59.6717 98.2741 59.6773 98.2667 59.6828C98.2352 59.7088 98.2056 59.7347 98.1759 59.7625C98.1611 59.7754 98.1482 59.7902 98.1352 59.8032C98.1185 59.8199 98.1019 59.8384 98.0852 59.8551C98.0556 59.8865 98.0278 59.9217 98.0019 59.9551C98 59.9569 97.9982 59.9606 97.9963 59.9643C97.9907 59.9717 97.987 59.9791 97.9815 59.9865C97.9611 60.0162 97.9408 60.044 97.9222 60.0754C97.913 60.0902 97.9056 60.1069 97.8982 60.1217C97.887 60.1421 97.8759 60.1625 97.8648 60.1828C97.8574 60.1977 97.8482 60.2125 97.8408 60.2273C97.8296 60.2532 97.8204 60.281 97.8111 60.3069C97.8037 60.3254 97.7963 60.344 97.7889 60.3643C97.7685 60.4254 97.7519 60.4865 97.7426 60.5495C97.7296 60.6347 97.7259 60.7217 97.7315 60.8088L97.8093 61.9532L101.813 67.4106L101.735 66.2662C101.73 66.1791 101.733 66.0921 101.746 66.0069C101.756 65.944 101.772 65.8828 101.793 65.8217C101.798 65.8032 101.807 65.7847 101.815 65.7643C101.831 65.7217 101.848 65.681 101.869 65.6402C101.88 65.6199 101.891 65.5995 101.902 65.5791C101.928 65.5328 101.956 65.4884 101.987 65.4439C101.993 65.4365 101.996 65.4291 102.002 65.4217C102.044 65.3662 102.089 65.3106 102.139 65.2606C102.187 65.2106 102.239 65.1662 102.294 65.1217C102.302 65.1162 102.311 65.1088 102.319 65.1032C102.37 65.0643 102.426 65.0273 102.483 64.994C102.491 64.9902 102.498 64.9865 102.504 64.9828C102.554 64.9569 102.604 64.9328 102.657 64.9125C102.678 64.9032 102.7 64.8958 102.72 64.8884C102.781 64.8662 102.844 64.8477 102.911 64.8328C103.006 64.8143 103.096 64.8051 103.187 64.8032C103.47 64.8032 103.726 64.8995 103.919 65.0662C103.97 65.1162 104.019 65.168 104.061 65.2254Z" fill="#D4D4D8"/>
<path d="M101.811 67.7782C101.696 67.7782 101.583 67.7245 101.513 67.6264L97.5093 62.1671C97.4685 62.1097 97.4426 62.043 97.4389 61.9727L97.3611 60.8282C97.3537 60.7115 97.3574 60.5967 97.3759 60.4856C97.3889 60.4097 97.4074 60.3301 97.4352 60.243C97.4426 60.2227 97.45 60.2023 97.4574 60.1819L97.4685 60.1504C97.4778 60.1227 97.4889 60.0949 97.5 60.069C97.5074 60.0504 97.5185 60.0319 97.5278 60.0152C97.5426 59.9856 97.5556 59.9597 97.5704 59.9338C97.5815 59.9115 97.5907 59.893 97.6019 59.8764C97.6241 59.8393 97.65 59.8023 97.6759 59.7671C97.6815 59.7578 97.687 59.7486 97.6945 59.7393C97.7352 59.6856 97.7685 59.643 97.8056 59.6041C97.8259 59.5819 97.8463 59.5597 97.8667 59.5393C97.8815 59.5245 97.9 59.506 97.9167 59.4893C97.9519 59.456 97.9907 59.4227 98.0278 59.3912C98.0333 59.3875 98.0519 59.3727 98.0574 59.369L98.1 59.3356C98.1148 59.3245 98.1315 59.3115 98.1482 59.3004C98.1926 59.2708 98.237 59.243 98.2815 59.2171C98.2889 59.2134 98.3 59.2078 98.3074 59.2041L98.3222 59.1967C98.3574 59.1782 98.3963 59.156 98.437 59.1375C98.4574 59.1282 98.4778 59.1208 98.4982 59.1134C98.5352 59.0986 98.5611 59.0893 98.5889 59.0782C98.6074 59.0708 98.6241 59.0634 98.6426 59.0578C98.7037 59.0393 98.7648 59.0227 98.8278 59.0097C98.9407 58.9875 99.0519 58.9745 99.1704 58.9727C99.5445 58.9727 99.8889 59.0986 100.152 59.3264C100.228 59.393 100.294 59.4671 100.352 59.5449L104.354 65.0023C104.354 65.0023 104.354 65.0041 104.356 65.0041C104.476 65.169 104.441 65.4004 104.276 65.5227C104.111 65.643 103.88 65.6078 103.757 65.443C103.731 65.4078 103.702 65.3745 103.667 65.3449C103.539 65.2338 103.367 65.1727 103.18 65.1727C103.113 65.1745 103.043 65.1819 102.976 65.1949C102.939 65.2023 102.894 65.2152 102.835 65.2356C102.819 65.2412 102.802 65.2486 102.787 65.2541C102.748 65.269 102.709 65.2875 102.672 65.3078C102.669 65.3097 102.654 65.3171 102.65 65.319C102.617 65.3375 102.576 65.3653 102.531 65.3986L102.287 65.119L102.513 65.4115C102.467 65.4467 102.43 65.4819 102.394 65.5153C102.357 65.5541 102.322 65.5949 102.289 65.6393L102.278 65.656C102.254 65.6893 102.233 65.7227 102.215 65.7578C102.206 65.7727 102.198 65.7875 102.191 65.8041C102.176 65.8338 102.163 65.8634 102.152 65.893L102.143 65.9171C102.12 65.9819 102.109 66.0245 102.104 66.0615C102.094 66.1152 102.093 66.1764 102.096 66.2375L102.174 67.3819C102.185 67.5467 102.087 67.6986 101.931 67.7541C101.896 67.7708 101.854 67.7782 101.811 67.7782ZM98.1704 61.8171L101.361 66.1671C101.361 66.093 101.369 66.019 101.38 65.9467C101.393 65.8708 101.411 65.7912 101.439 65.7041C101.444 65.6838 101.454 65.6652 101.461 65.6449C101.487 65.5782 101.509 65.5245 101.535 65.4727C101.548 65.4467 101.563 65.4208 101.576 65.3949C101.609 65.3375 101.644 65.2801 101.683 65.2245C101.689 65.2171 101.696 65.206 101.704 65.1949C101.756 65.1264 101.813 65.0578 101.874 64.9967C101.93 64.9393 101.994 64.8838 102.065 64.8264C102.067 64.8245 102.085 64.8115 102.087 64.8097C102.165 64.7523 102.231 64.7078 102.3 64.669C102.306 64.6653 102.322 64.6578 102.328 64.6541C102.387 64.6227 102.45 64.593 102.517 64.5671C102.543 64.556 102.57 64.5467 102.596 64.5356C102.685 64.5041 102.759 64.4838 102.833 64.4671C102.898 64.4541 102.961 64.4449 103.028 64.4393L99.7593 59.9838C99.7333 59.9486 99.7037 59.9153 99.6685 59.8856C99.5408 59.7764 99.3685 59.7134 99.1815 59.7134C99.1148 59.7152 99.0444 59.7227 98.9778 59.7356C98.9426 59.743 98.9056 59.7523 98.8704 59.7634C98.863 59.7671 98.85 59.7727 98.8389 59.7764C98.8222 59.7819 98.8074 59.7893 98.7907 59.7949L98.7537 59.8078C98.7222 59.8208 98.6982 59.8338 98.6759 59.8467C98.6722 59.8486 98.6574 59.856 98.6519 59.8578C98.65 59.8597 98.6463 59.8615 98.6445 59.8615C98.6204 59.8764 98.5944 59.8912 98.5722 59.9078L98.5352 59.9356L98.2908 59.656L98.5185 59.9486C98.5148 59.9504 98.5 59.9634 98.4963 59.9653C98.4759 59.9819 98.4519 60.0023 98.4296 60.0227L98.3982 60.0541C98.3833 60.069 98.3704 60.0819 98.3593 60.0949C98.3389 60.1171 98.3204 60.1393 98.3019 60.1634C98.2982 60.1671 98.2963 60.1708 98.2944 60.1745C98.2926 60.1782 98.2852 60.1893 98.2815 60.193C98.2648 60.2152 98.25 60.2356 98.237 60.2578L98.2185 60.293C98.2093 60.3097 98.2019 60.3245 98.1945 60.3393L98.1463 60.4541C98.1241 60.519 98.113 60.5615 98.1074 60.5986C98.0982 60.6523 98.0963 60.7134 98.1 60.7745L98.1704 61.8171Z" fill="#F7F7F8"/>
<path d="M105.474 65.4984C105.469 65.4076 105.456 65.3187 105.439 65.2317C105.439 65.228 105.437 65.2243 105.435 65.2206C105.415 65.1243 105.391 65.0298 105.357 64.9391C105.33 64.8632 105.298 64.7891 105.261 64.7169C105.259 64.7113 105.256 64.7076 105.252 64.7021C105.243 64.6835 105.23 64.665 105.22 64.6465C105.198 64.6076 105.176 64.5669 105.152 64.5298C105.137 64.5076 105.12 64.4835 105.104 64.4613L101.1 59.0039C101.143 59.0632 101.18 59.1261 101.217 59.1891C101.228 59.2076 101.239 59.2243 101.248 59.2447C101.289 59.3206 101.324 59.4002 101.354 59.4817C101.387 59.5724 101.411 59.665 101.431 59.7632C101.45 59.8521 101.463 59.9446 101.469 60.0391L101.598 61.9502L105.602 67.4076L105.474 65.4984Z" fill="#D4D4D8"/>
<path d="M105.604 67.7802C105.489 67.7802 105.376 67.7265 105.306 67.6283L101.302 62.1691C101.261 62.1117 101.235 62.045 101.231 61.9746L101.102 60.0635C101.096 59.9876 101.087 59.9135 101.07 59.8357C101.054 59.7542 101.033 59.6765 101.007 59.6061C100.985 59.5431 100.957 59.4802 100.922 59.4154L100.896 59.3728C100.867 59.3209 100.837 59.2691 100.804 59.2246V59.2228C100.683 59.058 100.719 58.8265 100.883 58.7043C101.048 58.5839 101.28 58.6191 101.402 58.7839L101.404 58.7857L105.406 64.2413C105.426 64.2672 105.444 64.295 105.463 64.3228C105.489 64.3598 105.511 64.4005 105.533 64.4394L105.546 64.4617C105.561 64.4857 105.57 64.5024 105.58 64.5191C105.585 64.5283 105.591 64.5394 105.594 64.545C105.639 64.632 105.678 64.7209 105.711 64.8117C105.748 64.9135 105.778 65.0209 105.802 65.1339C105.804 65.145 105.807 65.1543 105.809 65.1635C105.828 65.2598 105.843 65.3654 105.848 65.4709L105.978 67.382C105.989 67.5468 105.891 67.6987 105.735 67.7542C105.689 67.7728 105.646 67.7802 105.604 67.7802ZM101.963 61.8191L105.148 66.1617L105.106 65.5246C105.1 65.4542 105.093 65.3839 105.08 65.3172C105.078 65.3098 105.076 65.3024 105.074 65.2968C105.057 65.2154 105.037 65.1394 105.011 65.0691C104.991 65.0098 104.965 64.9524 104.937 64.8987C104.933 64.8913 104.928 64.882 104.926 64.8783L104.885 64.808C104.872 64.7857 104.859 64.7617 104.846 64.7413C104.833 64.7228 104.82 64.7042 104.807 64.6876L101.889 60.708L101.963 61.8191Z" fill="#F7F7F8"/>
<path d="M78.7037 61.9531H93.8907L94.263 67.4087L77.2778 70.8883L78.7037 61.9531Z" fill="#F7F7F8"/>
<path d="M77.2778 71.2598C77.1833 71.2598 77.0907 71.2228 77.0222 71.158C76.9352 71.0746 76.8926 70.9524 76.913 70.832L78.3389 61.895C78.3667 61.7154 78.5222 61.582 78.7056 61.582H93.8926C94.087 61.582 94.2481 61.732 94.263 61.9265L94.6352 67.382C94.6481 67.5672 94.5222 67.732 94.3407 67.7709L77.3556 71.2524C77.3278 71.258 77.3018 71.2598 77.2778 71.2598ZM79.0185 62.3246L77.7278 70.4209L93.8704 67.1117L93.5444 62.3246H79.0185Z" fill="#F7F7F8"/>
<path d="M94.263 67.4062L98.2667 72.8637L81.2815 76.3451L77.2778 70.8859L94.263 67.4062Z" fill="#D4D4D8"/>
<path d="M81.2815 76.7169C81.1648 76.7169 81.0537 76.6614 80.9833 76.5651L76.9796 71.1058C76.9056 71.004 76.887 70.8706 76.9333 70.754C76.9796 70.6355 77.0815 70.5503 77.2037 70.5243L94.1889 67.0429C94.3296 67.0132 94.4759 67.0706 94.5611 67.1873L98.5648 72.6466C98.6389 72.7484 98.6574 72.8818 98.6111 72.9984C98.5648 73.1169 98.463 73.2021 98.3407 73.228L81.3556 76.7095C81.3315 76.7151 81.3056 76.7169 81.2815 76.7169ZM77.9185 71.1355L81.4407 75.9373L97.6278 72.6206L94.1056 67.8188L77.9185 71.1355Z" fill="#F7F7F8"/>
<path d="M96.9259 79.6512C96.537 79.3104 96.2852 78.8289 96.2463 78.2512L95.4889 67.1512L96.9 66.8623L97.2833 72.4697C97.3019 72.7437 97.5222 72.9308 97.8019 72.9308C97.8444 72.9308 97.8889 72.9271 97.9352 72.916C98.2741 72.8456 98.5315 72.5345 98.5093 72.2178L98.1259 66.6104L100.643 66.0938L101.402 77.1937C101.413 77.3734 101.404 77.5493 101.376 77.7252C101.285 78.29 100.996 78.8271 100.578 79.2549C100.156 79.6826 99.6074 79.9993 98.9889 80.1271C98.8 80.1641 98.6111 80.1845 98.4296 80.1845C97.8426 80.1863 97.3167 79.9919 96.9259 79.6512Z" fill="#D4D4D8"/>
<path d="M98.4259 80.5584C97.7667 80.5584 97.1482 80.3362 96.6833 79.9325L96.6815 79.9307C96.2 79.5084 95.9222 78.9362 95.8778 78.2788L95.1204 67.1788C95.1074 66.9936 95.2333 66.8288 95.4148 66.7899L96.8259 66.501C96.9296 66.4788 97.0389 66.5047 97.1241 66.5696C97.2093 66.6344 97.263 66.7325 97.2685 66.8399L97.6519 72.4473C97.6593 72.551 97.7593 72.5622 97.8019 72.5622C97.8204 72.5622 97.8407 72.5603 97.8611 72.5566C98.0315 72.5214 98.1482 72.364 98.1407 72.2473L97.7574 66.6399C97.7444 66.4547 97.8704 66.2899 98.0519 66.251L100.569 65.7344C100.674 65.7122 100.781 65.7381 100.867 65.8029C100.952 65.8677 101.006 65.9659 101.011 66.0733L101.77 77.1733C101.783 77.3807 101.772 77.5881 101.741 77.7881C101.641 78.414 101.32 79.0288 100.841 79.5196C100.348 80.0177 99.7333 80.3547 99.063 80.4955C98.8463 80.5381 98.6333 80.5584 98.4259 80.5584ZM97.1685 79.3751C97.6093 79.7566 98.25 79.9029 98.913 79.7696C99.4389 79.6603 99.9222 79.3936 100.311 79.001C100.683 78.6214 100.931 78.1492 101.007 77.6733C101.031 77.5251 101.039 77.3751 101.03 77.2233L100.3 66.5492L98.5167 66.914L98.8778 72.1992C98.913 72.701 98.5296 73.177 98.0093 73.2844C97.9407 73.2992 97.8704 73.3066 97.8019 73.3066C97.3185 73.3066 96.9463 72.9677 96.913 72.501L96.5593 67.3159L95.8815 67.4547L96.6167 78.2307C96.6481 78.6881 96.8389 79.0844 97.1685 79.3751Z" fill="#F7F7F8"/>
<path d="M95.1333 61.9531H96.5648L96.9 66.8679L95.4889 67.1568L95.1333 61.9531Z" fill="#F7F7F8"/>
<path d="M95.4889 67.5265C95.4093 67.5265 95.3296 67.5005 95.2648 67.4505C95.1796 67.3857 95.1259 67.2876 95.1204 67.1802L94.7648 61.9765C94.7574 61.8746 94.7944 61.7728 94.863 61.6987C94.9333 61.6246 95.0315 61.582 95.1333 61.582H96.563C96.7574 61.582 96.9185 61.732 96.9333 61.9265L97.2685 66.8413C97.2815 67.0265 97.1556 67.1913 96.9741 67.2302L95.563 67.5191C95.5389 67.5246 95.5148 67.5265 95.4889 67.5265ZM95.5296 62.3228L95.8296 66.708L96.5074 66.5691L96.2167 62.3228H95.5296Z" fill="#F7F7F8"/>
<path d="M108.278 67.7801C108.163 67.7801 108.05 67.7264 107.98 67.6282L103.976 62.169C103.935 62.1116 103.909 62.0449 103.906 61.9745L103.683 58.7227C103.678 58.6319 103.669 58.5431 103.656 58.4542L103.643 58.3708C103.633 58.3134 103.624 58.2542 103.613 58.1968C103.602 58.1394 103.587 58.0838 103.572 58.0282L103.548 57.9282C103.524 57.8412 103.496 57.7542 103.465 57.6708C103.42 57.5505 103.367 57.4245 103.298 57.2875L103.274 57.2375C103.22 57.1356 103.161 57.0319 103.094 56.9319C103.056 56.8727 103.024 56.8245 102.989 56.7782C102.869 56.6134 102.904 56.3819 103.069 56.2597C103.135 56.2116 103.211 56.1875 103.287 56.1875C103.402 56.1875 103.513 56.2394 103.585 56.3394L107.589 61.7986C107.626 61.8486 107.661 61.9005 107.696 61.9523C107.702 61.9616 107.717 61.9856 107.722 61.9949C107.794 62.106 107.867 62.2264 107.928 62.3449C107.935 62.356 107.941 62.3671 107.946 62.3801C107.952 62.3912 107.959 62.4079 107.967 62.4264C108.044 62.5801 108.109 62.7319 108.163 62.8782C108.2 62.9801 108.233 63.0838 108.263 63.1894C108.27 63.2153 108.276 63.2394 108.281 63.2653L108.289 63.2986C108.307 63.369 108.324 63.4394 108.339 63.5134C108.339 63.5153 108.343 63.5264 108.344 63.5375C108.354 63.5819 108.361 63.6282 108.367 63.6745C108.367 63.6745 108.387 63.7968 108.389 63.8208C108.404 63.9245 108.413 64.0301 108.42 64.1375L108.643 67.3875C108.654 67.5523 108.556 67.7042 108.4 67.7597C108.363 67.7727 108.32 67.7801 108.278 67.7801Z" fill="#D4D4D8"/>
<path d="M103.287 56.56L107.291 62.0192C107.324 62.0655 107.357 62.1118 107.389 62.16C107.396 62.1692 107.4 62.1804 107.407 62.1896C107.478 62.2989 107.544 62.41 107.606 62.5266C107.609 62.5341 107.613 62.5396 107.617 62.547C107.622 62.5581 107.626 62.5711 107.633 62.5841C107.702 62.7211 107.765 62.86 107.817 63.0063C107.85 63.0989 107.88 63.1952 107.907 63.2915C107.917 63.3248 107.924 63.3581 107.931 63.3915C107.948 63.4563 107.965 63.5211 107.978 63.5878C107.98 63.5952 107.981 63.6026 107.983 63.61C107.994 63.6655 108.002 63.7211 108.011 63.7766C108.017 63.8081 108.022 63.8378 108.026 63.8692C108.039 63.9655 108.048 64.0618 108.056 64.16L108.278 67.4118L104.274 61.9544L104.052 58.7026C104.044 58.6044 104.035 58.5063 104.022 58.4118C104.019 58.3804 104.011 58.3507 104.007 58.3192C103.998 58.2563 103.987 58.1933 103.976 58.1304C103.963 58.0637 103.946 57.9989 103.93 57.9341C103.92 57.9007 103.915 57.8674 103.906 57.8359C103.878 57.7396 103.848 57.6433 103.815 57.5507C103.761 57.4044 103.7 57.2655 103.631 57.1285C103.622 57.11 103.613 57.0915 103.604 57.0729C103.543 56.9563 103.476 56.8452 103.406 56.7359C103.365 56.6729 103.328 56.6155 103.287 56.56ZM103.885 56.1211L103.287 56.56L102.689 56.9989C102.72 57.0415 102.75 57.0859 102.778 57.1304C102.841 57.2285 102.896 57.3192 102.943 57.4081L102.948 57.4192L102.965 57.4544C103.028 57.5804 103.076 57.6915 103.115 57.7989C103.141 57.8729 103.167 57.9507 103.189 58.0322C103.191 58.0415 103.193 58.0507 103.196 58.06C103.2 58.0785 103.206 58.0952 103.209 58.1137C103.224 58.1692 103.237 58.2229 103.248 58.2748C103.259 58.3248 103.267 58.3766 103.274 58.4304L103.281 58.4804C103.283 58.4896 103.285 58.4989 103.285 58.5081C103.296 58.5933 103.304 58.6729 103.309 58.7507L103.531 62.0026C103.541 62.1433 103.591 62.2767 103.674 62.3896L107.678 67.847C107.82 68.0415 108.044 68.1489 108.276 68.1489C108.361 68.1489 108.446 68.1341 108.53 68.1044C108.839 67.9915 109.037 67.6878 109.015 67.3581L108.793 64.1063C108.785 63.997 108.774 63.8822 108.759 63.7674C108.756 63.7378 108.75 63.71 108.746 63.6822L108.743 63.6581L108.737 63.6248C108.73 63.5711 108.72 63.5174 108.709 63.4637C108.707 63.4526 108.704 63.4378 108.7 63.4229C108.685 63.3489 108.667 63.2785 108.65 63.21L108.643 63.1804C108.635 63.1489 108.628 63.1192 108.62 63.0896C108.587 62.9729 108.552 62.86 108.513 62.7526C108.456 62.597 108.389 62.4396 108.306 62.2711C108.296 62.2489 108.287 62.2285 108.276 62.2081C108.269 62.1952 108.261 62.1785 108.252 62.1637C108.187 62.0415 108.117 61.9211 108.039 61.8007C108.028 61.7822 108.017 61.7637 108.006 61.747C107.969 61.6915 107.93 61.6359 107.891 61.5822L103.885 56.1211Z" fill="#F7F7F8"/>
<path d="M97.8074 61.9531H100.359L100.643 66.1013L98.1259 66.6161L97.8074 61.9531Z" fill="#F7F7F8"/>
<path d="M98.1259 66.9857C98.0463 66.9857 97.9667 66.9598 97.9018 66.9098C97.8167 66.845 97.763 66.7468 97.7574 66.6394L97.4389 61.9765C97.4315 61.8746 97.4685 61.7728 97.537 61.6987C97.6074 61.6246 97.7055 61.582 97.8074 61.582H100.357C100.552 61.582 100.713 61.732 100.728 61.9265L101.011 66.0746C101.024 66.2598 100.898 66.4246 100.717 66.4635L98.2 66.9783C98.1759 66.9839 98.15 66.9857 98.1259 66.9857ZM98.2037 62.3228L98.4667 66.1691L100.25 65.8043L100.013 62.3246H98.2037V62.3228Z" fill="#F7F7F8"/>
<path d="M101.6 61.9531H103.031L103.278 65.5605L101.867 65.8494L101.6 61.9531Z" fill="#F7F7F8"/>
<path d="M101.867 66.2191C101.787 66.2191 101.707 66.1931 101.643 66.1431C101.557 66.0783 101.504 65.9802 101.498 65.8728L101.231 61.9765C101.224 61.8746 101.261 61.7728 101.33 61.6987C101.4 61.6246 101.498 61.582 101.6 61.582H103.031C103.226 61.582 103.387 61.732 103.402 61.9265L103.648 65.5339C103.661 65.7191 103.535 65.8839 103.354 65.9228L101.943 66.2117C101.917 66.2172 101.891 66.2191 101.867 66.2191ZM101.996 62.3228L102.207 65.4024L102.887 65.2635L102.687 62.3246H101.996V62.3228Z" fill="#F7F7F8"/>
<path d="M104.274 61.9531H138.978L129.172 123.436H113.346L110.911 138.703L110.594 138.966H108.846C110.096 138.261 110.92 136.912 110.798 135.568L108.219 107.04H120.491C121.026 107.04 121.528 106.622 121.609 106.105C121.693 105.586 121.324 105.17 120.789 105.17H108.05L107.357 97.5031H122.013C122.548 97.5031 123.05 97.0846 123.133 96.5661C123.215 96.0494 122.848 95.6309 122.313 95.6309H107.189L106.496 87.9642H123.535C124.07 87.9642 124.572 87.5457 124.656 87.0272C124.737 86.5105 124.37 86.092 123.835 86.092H106.343C106.367 84.4772 107.707 82.9328 109.444 82.5753C111.272 82.1994 112.659 80.5161 112.541 78.8124L112.515 78.4253H125.057C125.593 78.4253 126.094 78.0068 126.178 77.4883C126.259 76.9716 125.893 76.5531 125.357 76.5531H112.387L111.731 66.9624C111.631 65.4865 110.437 64.479 108.933 64.479C108.7 64.479 108.459 64.5031 108.215 64.5531L104.909 65.2309L104.507 65.3124L104.274 61.9531Z" fill="#F7F7F8"/>
<path d="M110.594 139.338H108.846C108.678 139.338 108.531 139.225 108.489 139.062C108.446 138.899 108.519 138.729 108.665 138.645C109.826 137.99 110.535 136.766 110.43 135.603L107.85 107.075C107.841 106.971 107.876 106.869 107.946 106.791C108.017 106.716 108.115 106.671 108.22 106.671H120.493C120.846 106.671 121.193 106.386 121.246 106.047C121.269 105.908 121.239 105.786 121.159 105.691C121.076 105.593 120.944 105.54 120.791 105.54H108.052C107.861 105.54 107.7 105.393 107.683 105.203L106.991 97.5359C106.981 97.4322 107.017 97.3304 107.087 97.2526C107.157 97.1767 107.256 97.1322 107.361 97.1322H122.017C122.37 97.1322 122.717 96.8452 122.77 96.5063C122.793 96.3693 122.761 96.2434 122.683 96.1508C122.6 96.0526 122.469 95.9989 122.317 95.9989H107.193C107.002 95.9989 106.841 95.8526 106.824 95.6619L106.131 87.9952C106.122 87.8915 106.157 87.7896 106.228 87.7119C106.298 87.6359 106.396 87.5915 106.502 87.5915H123.541C123.894 87.5915 124.241 87.3045 124.294 86.9656C124.317 86.8285 124.285 86.7026 124.207 86.61C124.124 86.5119 123.993 86.4582 123.841 86.4582H106.348C106.248 86.4582 106.154 86.4193 106.085 86.347C106.015 86.2767 105.978 86.1804 105.98 86.0822C106.007 84.2656 107.467 82.6008 109.378 82.2082C111.028 81.8693 112.285 80.3563 112.18 78.8341L112.154 78.447C112.146 78.3452 112.183 78.2433 112.252 78.1693C112.322 78.0952 112.42 78.0526 112.522 78.0526H125.065C125.419 78.0526 125.765 77.7656 125.819 77.4267C125.841 77.2896 125.809 77.1637 125.731 77.073C125.648 76.9748 125.517 76.9211 125.365 76.9211H112.394C112.2 76.9211 112.039 76.7711 112.024 76.5767L111.369 66.9859C111.283 65.7267 110.285 64.8489 108.939 64.8489C108.728 64.8489 108.511 64.8711 108.294 64.9156L104.587 65.6767C104.481 65.6989 104.374 65.673 104.289 65.6082C104.204 65.5433 104.15 65.4452 104.144 65.3378L103.915 61.9804C103.907 61.8785 103.944 61.7767 104.013 61.7026C104.083 61.6285 104.181 61.5859 104.283 61.5859H138.987C139.096 61.5859 139.198 61.6341 139.269 61.7156C139.339 61.7971 139.37 61.9063 139.352 62.0137L129.546 123.497C129.519 123.677 129.363 123.81 129.18 123.81H113.67L111.285 138.766C111.27 138.854 111.226 138.934 111.156 138.991L110.839 139.254C110.765 139.306 110.681 139.338 110.594 139.338ZM109.95 138.597H110.461L110.569 138.508L110.715 137.586C110.517 137.951 110.257 138.293 109.95 138.597ZM108.624 107.41L111.122 135.036L112.981 123.379C113.009 123.199 113.165 123.066 113.348 123.066H128.857L138.544 62.323H104.67L104.844 64.8619L108.137 64.1859C108.402 64.1322 108.67 64.1045 108.93 64.1045C110.656 64.1045 111.987 65.2933 112.098 66.9322L112.73 76.1785H125.354C125.722 76.1785 126.061 76.3285 126.285 76.5915C126.507 76.8508 126.598 77.1896 126.541 77.5433C126.43 78.2433 125.776 78.7933 125.056 78.7933H112.909C113.033 80.6693 111.513 82.5267 109.517 82.9359C108.1 83.2267 106.95 84.41 106.743 85.7193H123.831C124.2 85.7193 124.539 85.8693 124.763 86.1322C124.985 86.3915 125.076 86.7304 125.019 87.0841C124.907 87.7841 124.254 88.3341 123.533 88.3341H106.9L107.526 95.26H122.311C122.68 95.26 123.019 95.41 123.243 95.673C123.465 95.9322 123.556 96.2711 123.498 96.6248C123.387 97.3248 122.733 97.8748 122.013 97.8748H107.763L108.389 104.801H120.791C121.159 104.801 121.498 104.951 121.722 105.212C121.943 105.471 122.033 105.81 121.978 106.164C121.867 106.864 121.215 107.412 120.493 107.412H108.624V107.41Z" fill="#F7F7F8"/>
<path d="M125.354 76.5469C125.889 76.5469 126.257 76.9654 126.174 77.4821C126.091 78.0006 125.589 78.4191 125.054 78.4191H112.511L112.383 76.5469H125.354Z" fill="#D4D4D8"/>
<path d="M125.056 78.7908H112.513C112.319 78.7908 112.157 78.6408 112.143 78.4464L112.015 76.5741C112.007 76.4723 112.044 76.3704 112.113 76.2964C112.183 76.2223 112.281 76.1797 112.383 76.1797H125.352C125.72 76.1797 126.059 76.3297 126.283 76.5927C126.506 76.8519 126.596 77.1908 126.539 77.5445C126.428 78.2408 125.776 78.7908 125.056 78.7908ZM112.857 78.0501H125.054C125.407 78.0501 125.754 77.763 125.807 77.4241C125.83 77.2871 125.798 77.1612 125.72 77.0686C125.637 76.9704 125.506 76.9167 125.354 76.9167H112.781L112.857 78.0501Z" fill="#D4D4D8"/>
<path d="M123.831 86.0898C124.367 86.0898 124.735 86.5084 124.652 87.025C124.569 87.5436 124.067 87.9621 123.531 87.9621H106.493L106.346 86.3361C106.341 86.2547 106.339 86.1713 106.339 86.0898H123.831Z" fill="#D4D4D8"/>
<path d="M123.533 88.3317H106.494C106.304 88.3317 106.143 88.1854 106.126 87.9947L105.98 86.3688C105.972 86.2688 105.97 86.1762 105.972 86.0836C105.976 85.8817 106.141 85.7188 106.343 85.7188H123.835C124.204 85.7188 124.543 85.8688 124.767 86.1317C124.989 86.391 125.08 86.7299 125.022 87.0836C124.907 87.7836 124.256 88.3317 123.533 88.3317ZM106.831 87.591H123.533C123.887 87.591 124.233 87.3039 124.287 86.965C124.309 86.828 124.278 86.7021 124.2 86.6095C124.117 86.5113 123.985 86.4576 123.833 86.4576H106.731L106.831 87.591Z" fill="#D4D4D8"/>
<path d="M122.311 95.6289C122.846 95.6289 123.215 96.0474 123.131 96.5641C123.048 97.0826 122.546 97.5011 122.011 97.5011H107.356L107.187 95.6289H122.311Z" fill="#D4D4D8"/>
<path d="M122.011 97.8708H107.356C107.165 97.8708 107.004 97.7245 106.987 97.5337L106.819 95.6615C106.809 95.5578 106.844 95.456 106.915 95.3782C106.985 95.3023 107.083 95.2578 107.189 95.2578H122.313C122.681 95.2578 123.02 95.4078 123.244 95.6708C123.467 95.93 123.557 96.2689 123.5 96.6226C123.385 97.3226 122.733 97.8708 122.011 97.8708ZM107.694 97.13H122.011C122.365 97.13 122.711 96.843 122.765 96.5041C122.787 96.3671 122.756 96.2411 122.678 96.1486C122.594 96.0504 122.463 95.9967 122.311 95.9967H107.593L107.694 97.13Z" fill="#D4D4D8"/>
<path d="M120.789 105.168C121.324 105.168 121.693 105.585 121.609 106.103C121.528 106.62 121.026 107.038 120.491 107.038H108.219L108.05 105.168H120.789Z" fill="#D4D4D8"/>
<path d="M120.491 107.408H108.219C108.028 107.408 107.867 107.262 107.85 107.071L107.681 105.201C107.672 105.097 107.707 104.995 107.778 104.917C107.848 104.841 107.946 104.797 108.052 104.797H120.791C121.159 104.797 121.498 104.947 121.722 105.208C121.943 105.467 122.033 105.806 121.978 106.16C121.865 106.86 121.211 107.408 120.491 107.408ZM108.557 106.667H120.491C120.844 106.667 121.191 106.382 121.244 106.043C121.267 105.904 121.237 105.782 121.157 105.688C121.074 105.589 120.943 105.536 120.789 105.536H108.456L108.557 106.667Z" fill="#D4D4D8"/>
<path d="M138.978 61.9531L142.981 67.4105L133.176 128.896L129.172 123.436L138.978 61.9531Z" fill="#D4D4D8"/>
<path d="M133.176 129.267C133.059 129.267 132.948 129.211 132.878 129.115L128.874 123.655C128.815 123.576 128.791 123.476 128.807 123.378L138.613 61.8943C138.637 61.7462 138.746 61.6276 138.891 61.5925C139.035 61.5573 139.189 61.6128 139.276 61.7332L143.28 67.1925C143.339 67.2721 143.363 67.3721 143.346 67.4702L133.541 128.954C133.517 129.102 133.407 129.22 133.263 129.255C133.233 129.263 133.204 129.267 133.176 129.267ZM129.563 123.342L132.95 127.961L142.593 67.5054L139.206 62.8869L129.563 123.342Z" fill="#F7F7F8"/>
<path d="M129.172 123.438L110.913 138.704L113.346 123.438H129.172Z" fill="#D4D4D8"/>
<path d="M110.913 139.074C110.85 139.074 110.787 139.057 110.73 139.026C110.594 138.95 110.522 138.798 110.546 138.646L112.981 123.379C113.009 123.2 113.165 123.066 113.348 123.066H129.174C129.33 123.066 129.469 123.165 129.522 123.311C129.576 123.457 129.531 123.622 129.411 123.722L111.152 138.989C111.081 139.046 110.996 139.074 110.913 139.074ZM113.663 123.807L111.433 137.785L128.152 123.807H113.663Z" fill="#F7F7F8"/>
<path d="M129.172 123.438L133.176 128.897L114.915 144.163L110.913 138.704L129.172 123.438Z" fill="#D4D4D8"/>
<path d="M114.915 144.532C114.9 144.532 114.885 144.532 114.87 144.53C114.769 144.517 114.678 144.464 114.617 144.382L110.613 138.923C110.498 138.766 110.524 138.545 110.674 138.419L128.933 123.153C129.011 123.088 129.115 123.056 129.215 123.069C129.317 123.082 129.407 123.136 129.469 123.217L133.472 128.677C133.587 128.834 133.561 129.054 133.411 129.18L115.154 144.445C115.087 144.503 115.002 144.532 114.915 144.532ZM111.417 138.764L114.981 143.623L132.672 128.832L129.107 123.973L111.417 138.764Z" fill="#F7F7F8"/>
<path d="M110.913 138.703L114.915 144.162L110.594 138.968L110.913 138.703Z" fill="#D4D4D8"/>
<path d="M114.917 144.533C114.811 144.533 114.706 144.487 114.631 144.4L110.311 139.205C110.248 139.13 110.219 139.033 110.228 138.935C110.237 138.837 110.285 138.746 110.359 138.685L110.676 138.422C110.754 138.357 110.856 138.326 110.957 138.339C111.059 138.352 111.15 138.405 111.211 138.487L115.215 143.944C115.333 144.105 115.302 144.331 115.144 144.455C115.076 144.507 114.996 144.533 114.917 144.533Z" fill="#F7F7F8"/>
<path d="M110.594 138.969L114.915 144.163L112.85 144.426L108.846 138.969H110.594Z" fill="#D4D4D8"/>
<path d="M112.85 144.796C112.733 144.796 112.622 144.74 112.552 144.644L108.548 139.184C108.465 139.072 108.454 138.923 108.517 138.797C108.58 138.673 108.707 138.594 108.846 138.594H110.594C110.704 138.594 110.809 138.642 110.88 138.727L115.2 143.922C115.287 144.025 115.309 144.168 115.259 144.294C115.209 144.42 115.096 144.509 114.961 144.525L112.894 144.788C112.881 144.794 112.865 144.796 112.85 144.796ZM109.578 139.338L113.02 144.031L114.2 143.881L110.422 139.338H109.578Z" fill="#F7F7F8"/>
<path d="M109.406 138.586C109.322 138.653 109.235 138.717 109.146 138.779C109.054 138.842 108.957 138.903 108.859 138.958C108.854 138.962 108.85 138.964 108.844 138.967C108.741 139.027 108.635 139.08 108.526 139.129C108.387 139.191 108.243 139.247 108.096 139.293C107.969 139.334 107.839 139.367 107.707 139.395L66.25 147.893C66.0056 147.943 65.7648 147.967 65.5315 147.967C64.5685 147.967 63.7296 147.554 63.2278 146.867L67.2315 152.325C67.7352 153.012 68.5722 153.425 69.5352 153.425C69.7685 153.425 70.0093 153.401 70.2537 153.351L111.711 144.853C111.843 144.825 111.974 144.792 112.1 144.751C112.246 144.704 112.391 144.649 112.53 144.586C112.639 144.536 112.744 144.482 112.848 144.425C112.854 144.421 112.857 144.419 112.863 144.416C112.961 144.36 113.057 144.299 113.15 144.236C113.239 144.175 113.326 144.11 113.409 144.043L109.406 138.586Z" fill="#D4D4D8"/>
<path d="M69.5352 153.794C68.4648 153.794 67.5148 153.338 66.9315 152.544L62.9278 147.084C62.8074 146.919 62.8426 146.688 63.0074 146.566C63.1722 146.445 63.4037 146.481 63.5259 146.645C63.9685 147.247 64.6981 147.594 65.5315 147.594C65.7426 147.594 65.9593 147.571 66.1759 147.527L107.633 139.029C107.752 139.005 107.87 138.973 107.985 138.936C108.117 138.894 108.248 138.844 108.374 138.786C108.472 138.742 108.569 138.692 108.663 138.64C108.765 138.582 108.852 138.527 108.937 138.469C109.017 138.414 109.096 138.357 109.172 138.294C109.252 138.231 109.352 138.201 109.454 138.214C109.554 138.227 109.644 138.281 109.706 138.362L113.709 143.819C113.826 143.979 113.798 144.203 113.644 144.327C113.554 144.401 113.459 144.471 113.363 144.538C113.261 144.608 113.156 144.673 113.05 144.734L113.033 144.744C112.92 144.807 112.804 144.866 112.685 144.919C112.531 144.988 112.374 145.049 112.215 145.099C112.074 145.144 111.931 145.181 111.787 145.21L70.3296 153.708C70.063 153.766 69.7963 153.794 69.5352 153.794ZM64.6926 148.236L67.5296 152.105C67.9722 152.707 68.7018 153.053 69.5352 153.053C69.7463 153.053 69.963 153.031 70.1796 152.986L111.637 144.488C111.756 144.464 111.874 144.432 111.989 144.395C112.12 144.355 112.252 144.303 112.378 144.245C112.476 144.201 112.574 144.151 112.667 144.099C112.748 144.053 112.822 144.008 112.891 143.962L109.326 139.101C109.233 139.162 109.139 139.221 109.043 139.277C109.041 139.277 109.026 139.286 109.024 139.288C108.913 139.351 108.796 139.41 108.678 139.464C108.526 139.532 108.367 139.594 108.207 139.644C108.067 139.688 107.924 139.725 107.78 139.755L66.3222 148.253C65.7648 148.368 65.2018 148.36 64.6926 148.236Z" fill="#F7F7F8"/>
<path d="M110.798 135.569C110.92 136.914 110.096 138.262 108.846 138.967C108.496 139.165 108.113 139.312 107.709 139.395L66.2519 147.893C66.0074 147.943 65.7667 147.967 65.5333 147.967C64.0463 147.967 62.8611 146.984 62.737 145.53L57.0259 78.171C56.9093 76.4673 58.2963 74.7803 60.1241 74.4062L77.2796 70.8895L94.2648 67.408L95.0222 78.5099C95.0815 79.3543 95.4556 80.071 96.0278 80.5729C96.6019 81.0729 97.3759 81.3617 98.2407 81.3636C98.5093 81.3636 98.7852 81.334 99.0667 81.2766C99.9722 81.0914 100.791 80.621 101.411 79.9914C102.03 79.3617 102.457 78.5692 102.591 77.7321C102.631 77.4747 102.644 77.2117 102.626 76.9506L101.869 65.8506L103.28 65.5617L103.748 72.4432C103.767 72.7173 103.989 72.9025 104.269 72.9025C104.739 72.8192 104.996 72.5062 104.974 72.1914L104.504 65.3099L104.906 65.2284L108.211 64.5506C108.456 64.5006 108.696 64.4766 108.93 64.4766C110.435 64.4766 111.63 65.484 111.728 66.9599L112.383 76.5506L112.511 78.4229L112.537 78.8099C112.654 80.5136 111.267 82.1988 109.441 82.5729C107.704 82.9303 106.363 84.4729 106.339 86.0895C106.337 86.171 106.339 86.2543 106.346 86.3358L106.493 87.9618L107.185 95.6284L107.354 97.5006L108.046 105.167L108.215 107.038L110.798 135.569Z" fill="#D4D4D8"/>
<path d="M65.5333 148.337C63.8352 148.337 62.5056 147.17 62.3685 145.561L56.6574 78.2018C56.5278 76.3166 58.05 74.4536 60.05 74.0425L94.1907 67.0462C94.2963 67.024 94.4037 67.0499 94.4889 67.1147C94.5741 67.1795 94.6278 67.2777 94.6333 67.3851L95.3907 78.487C95.4407 79.2018 95.7537 79.8444 96.2704 80.2962C96.7852 80.7444 97.4852 80.9925 98.2407 80.9944C98.4796 80.9944 98.7333 80.9684 98.9926 80.9147C99.7907 80.7518 100.556 80.3314 101.146 79.7332C101.724 79.1462 102.106 78.4147 102.224 77.6758C102.261 77.4388 102.272 77.2055 102.256 76.9795L101.498 65.8758C101.485 65.6907 101.611 65.5258 101.793 65.4869L103.204 65.1981C103.307 65.1758 103.417 65.2018 103.502 65.2666C103.587 65.3314 103.641 65.4295 103.646 65.537L104.115 72.4184C104.12 72.5036 104.191 72.5258 104.239 72.5314C104.489 72.4777 104.611 72.3351 104.602 72.2184L104.131 65.3369C104.119 65.1518 104.244 64.9869 104.426 64.9481L108.133 64.187C108.4 64.1332 108.667 64.1055 108.926 64.1055C110.652 64.1055 111.983 65.2944 112.094 66.9332L112.904 78.7851C113.033 80.6629 111.511 82.5258 109.511 82.937C107.959 83.2555 106.728 84.6425 106.706 86.0962C106.704 86.1684 106.706 86.2388 106.711 86.311L111.161 135.537C111.293 136.985 110.433 138.494 109.022 139.291C108.63 139.513 108.211 139.67 107.776 139.759L66.3185 148.257C66.0611 148.309 65.7944 148.337 65.5333 148.337ZM93.9222 67.8573L60.1981 74.7684C58.5481 75.1073 57.2907 76.6221 57.3963 78.1462L63.1074 145.5C63.213 146.735 64.2093 147.598 65.5333 147.598C65.7444 147.598 65.9611 147.576 66.1778 147.531L107.635 139.033C107.993 138.959 108.339 138.83 108.665 138.646C109.826 137.991 110.535 136.768 110.43 135.604L105.978 86.3703C105.97 86.2703 105.969 86.1777 105.97 86.0851C105.998 84.2684 107.459 82.6036 109.369 82.211C111.019 81.8721 112.276 80.3592 112.17 78.8369L111.361 66.9851C111.276 65.7258 110.278 64.8481 108.931 64.8481C108.72 64.8481 108.504 64.8703 108.287 64.9147L104.896 65.611L105.344 72.1684C105.381 72.6962 104.957 73.1592 104.333 73.2684C104.313 73.2721 104.291 73.274 104.269 73.274C103.785 73.274 103.409 72.9351 103.378 72.4684L102.937 66.0092L102.257 66.1481L102.993 76.9258C103.013 77.2055 103 77.4981 102.954 77.7907C102.811 78.6795 102.357 79.5536 101.672 80.2499C100.98 80.9536 100.08 81.4462 99.1389 81.6388C98.8296 81.7018 98.5259 81.7332 98.2389 81.7332C97.3037 81.7314 96.4315 81.4184 95.7815 80.8518C95.1148 80.2684 94.713 79.4462 94.65 78.5351L93.9222 67.8573Z" fill="#F7F7F8"/>
<path d="M98.2389 81.7307C97.3056 81.7288 96.4333 81.4159 95.7833 80.8492C95.1167 80.2659 94.7148 79.4436 94.6519 78.5325L93.4426 60.8233C93.4167 60.4492 93.4333 60.0659 93.4944 59.6862C93.6815 58.5122 94.2815 57.3603 95.1852 56.4436C96.0981 55.514 97.287 54.8622 98.5333 54.6066C98.9333 54.5251 99.3315 54.4844 99.7185 54.4844C100.944 54.4844 102.091 54.8955 102.944 55.6399C103.819 56.4029 104.344 57.4807 104.422 58.6733L105.344 72.1622C105.38 72.664 104.998 73.1399 104.476 73.2473C104.406 73.2603 104.337 73.2677 104.27 73.2677C103.787 73.2677 103.413 72.9288 103.38 72.4622L102.459 58.9733C102.407 58.227 102.096 57.5844 101.557 57.114C101.026 56.6492 100.307 56.3936 99.5315 56.3936C99.2815 56.3936 99.0222 56.4214 98.7593 56.4751C97.9278 56.6455 97.163 57.0659 96.5481 57.6899C95.9556 58.2918 95.563 59.0418 95.4426 59.801C95.4037 60.0455 95.3926 60.2881 95.4093 60.5177L96.6185 78.227C96.65 78.6862 96.8407 79.0825 97.1722 79.3733C97.5018 79.6584 97.9482 79.8159 98.4278 79.8159C98.5852 79.8159 98.75 79.7992 98.9148 79.7659C99.4407 79.6566 99.9241 79.3899 100.313 78.9973C100.685 78.6177 100.933 78.1455 101.009 77.6696C101.033 77.5233 101.041 77.3714 101.031 77.2196L99.8759 60.3159C99.863 60.1418 99.7944 59.9955 99.6685 59.8862C99.5426 59.777 99.3685 59.714 99.1815 59.714C99.1148 59.7159 99.0444 59.7233 98.9778 59.7362C98.7593 59.7825 98.5574 59.8936 98.3963 60.0585C98.2389 60.2177 98.137 60.4103 98.1056 60.6029C98.0963 60.6566 98.0944 60.7177 98.0981 60.7788L98.8778 72.1936C98.913 72.6955 98.5296 73.1714 98.0093 73.2788C97.9407 73.2936 97.8704 73.301 97.8019 73.301C97.3185 73.301 96.9463 72.9622 96.913 72.4955L96.1333 61.0825C96.1204 60.8918 96.1296 60.6918 96.1611 60.4862C96.2574 59.8788 96.5685 59.2825 97.0333 58.8103C97.4981 58.3344 98.1093 57.9992 98.7519 57.8659C98.9648 57.8251 99.1704 57.8029 99.3667 57.8029C100.007 57.8029 100.606 58.0196 101.056 58.4103C101.519 58.8122 101.796 59.3807 101.839 60.0103L102.993 76.9177C103.013 77.1973 103 77.4899 102.954 77.7825C102.813 78.6714 102.357 79.5455 101.672 80.2418C100.98 80.9436 100.081 81.4381 99.1389 81.6307C98.8315 81.6992 98.5278 81.7307 98.2389 81.7307Z" fill="#D4D4D8"/>
<path d="M99.7167 54.8579C100.883 54.8579 101.926 55.2468 102.7 55.9227C103.472 56.5968 103.978 57.5598 104.052 58.7024L104.274 61.9542L104.504 65.3116L104.974 72.1931C104.996 72.5061 104.739 72.8209 104.4 72.8913C104.356 72.9005 104.311 72.9042 104.269 72.9042C103.989 72.9042 103.767 72.719 103.748 72.445L103.278 65.5635L103.031 61.9561L102.826 58.9561C102.767 58.0838 102.387 57.3561 101.798 56.8431C101.209 56.3283 100.413 56.032 99.5296 56.032C99.2574 56.032 98.9722 56.0616 98.6833 56.1209C97.75 56.3135 96.9204 56.7913 96.2815 57.4376C95.6444 58.0839 95.2093 58.8968 95.0741 59.7505C95.0315 60.0135 95.0167 60.2839 95.037 60.5524L95.1333 61.9561L95.4889 67.1598L96.2463 78.2598C96.2852 78.8376 96.537 79.3172 96.9259 79.6579C97.3167 79.9968 97.8426 80.1931 98.4259 80.1931C98.6074 80.1931 98.7963 80.1746 98.9852 80.1357C99.6037 80.0079 100.152 79.6913 100.574 79.2635C100.994 78.8357 101.283 78.2987 101.372 77.7339C101.4 77.5598 101.409 77.382 101.398 77.2024L100.639 66.1024L100.356 61.9542L100.243 60.2968C100.222 60.0116 100.1 59.7801 99.9093 59.6135C99.7167 59.4468 99.4611 59.3505 99.1778 59.3505C99.087 59.3524 98.9963 59.3616 98.9019 59.3801C98.5982 59.4431 98.3352 59.595 98.1278 59.8061C97.9222 60.0153 97.7796 60.2783 97.7352 60.5524C97.7222 60.6376 97.7185 60.7246 97.7241 60.8116L97.8019 61.9561L98.1204 66.619L98.5037 72.2264C98.5259 72.5431 98.2685 72.8542 97.9296 72.9246C97.8833 72.9339 97.8389 72.9376 97.7963 72.9376C97.5167 72.9376 97.2963 72.7505 97.2778 72.4764L96.8944 66.869L96.5593 61.9542L96.4982 61.0635C96.4852 60.8931 96.4963 60.7209 96.5222 60.5524C96.6093 60.0061 96.8889 59.4876 97.2926 59.0783C97.6944 58.6672 98.2315 58.3598 98.8222 58.2376C99.0056 58.2024 99.1852 58.182 99.3611 58.182C99.9278 58.182 100.431 58.3709 100.806 58.6987C101.181 59.0246 101.426 59.4931 101.463 60.045L101.593 61.9561L101.859 65.8524L102.617 76.9524C102.637 77.2135 102.622 77.4764 102.581 77.7339C102.448 78.5709 102.02 79.3616 101.402 79.9931C100.781 80.6227 99.963 81.0931 99.0574 81.2783C98.7759 81.3357 98.5 81.3653 98.2315 81.3653C97.3667 81.3635 96.5907 81.0746 96.0185 80.5746C95.4444 80.0727 95.0722 79.3561 95.013 78.5116L94.263 67.4079L93.8907 61.9524L93.813 60.8005C93.7889 60.4487 93.8056 60.095 93.8611 59.7468C94.0407 58.6209 94.6148 57.5542 95.45 56.7061C96.2852 55.8561 97.387 55.2227 98.6074 54.9727C98.9833 54.895 99.3556 54.8579 99.7167 54.8579ZM99.7167 54.1172C99.3056 54.1172 98.8833 54.1598 98.4593 54.245C97.1389 54.5153 95.8833 55.2042 94.9185 56.1857C93.963 57.1561 93.3259 58.3783 93.1278 59.6283C93.063 60.0357 93.0444 60.4468 93.0722 60.8505L93.15 62.0024L93.5222 67.4579L94.2796 78.5598C94.3518 79.5709 94.7982 80.482 95.537 81.1301C96.2556 81.7561 97.2148 82.1005 98.237 82.1042C98.5518 82.1042 98.8796 82.0709 99.2111 82.0024C100.226 81.795 101.193 81.2653 101.937 80.5116C102.676 79.7598 103.167 78.8135 103.32 77.8505C103.372 77.5283 103.385 77.2079 103.363 76.8968L103.087 72.8505C103.267 73.3209 103.724 73.6431 104.269 73.6431C104.359 73.6431 104.452 73.6338 104.544 73.6153C105.25 73.4709 105.761 72.8227 105.713 72.1394L105.243 65.2598L105.013 61.9024L104.791 58.6505C104.706 57.3598 104.135 56.1913 103.187 55.3635C102.265 54.5598 101.031 54.1172 99.7167 54.1172ZM95.7796 60.5468L95.7759 60.4987C95.7611 60.2913 95.7704 60.0802 95.8056 59.8635C95.9148 59.1783 96.2722 58.5005 96.8093 57.9524C97.3722 57.382 98.0722 56.9987 98.8315 56.8413C99.0685 56.7931 99.3037 56.7672 99.5296 56.7672C100.215 56.7672 100.848 56.9913 101.311 57.395C101.776 57.8005 102.044 58.3561 102.087 59.0005L102.117 59.4468C101.98 58.9376 101.698 58.482 101.296 58.1339C100.781 57.6839 100.096 57.4357 99.3667 57.4357C99.1463 57.4357 98.9167 57.4579 98.6852 57.5042C97.963 57.6542 97.2852 58.0246 96.7685 58.5542C96.25 59.0801 95.9056 59.7468 95.7963 60.4301C95.7907 60.4709 95.7852 60.5079 95.7796 60.5468ZM97.8019 73.6746C97.8963 73.6746 97.9907 73.6653 98.0833 73.645C98.7833 73.5005 99.2944 72.8542 99.2481 72.1709L98.8648 66.5635L98.5463 61.9005L98.4685 60.7561C98.4667 60.7246 98.4667 60.6913 98.4722 60.6635C98.4907 60.5487 98.5593 60.4227 98.6593 60.3209C98.7704 60.2061 98.9074 60.132 99.0574 60.1005C99.0944 60.0931 99.1389 60.0876 99.1889 60.0876C99.2852 60.0894 99.3667 60.1172 99.4278 60.169C99.4759 60.2116 99.5019 60.2672 99.5074 60.345L99.6204 62.0005L99.9037 66.1487L100.663 77.2487C100.67 77.3672 100.665 77.4913 100.644 77.6135C100.58 78.0135 100.369 78.4153 100.048 78.7413C99.713 79.082 99.2926 79.3116 98.837 79.4079C98.7018 79.4357 98.5611 79.4487 98.4278 79.4487C98.037 79.4487 97.6759 79.3227 97.413 79.095C97.1611 78.8727 97.013 78.5653 96.987 78.2061L96.6241 72.8857C96.8019 73.3542 97.2593 73.6746 97.8019 73.6746Z" fill="#F7F7F8"/>
<path d="M152.254 59.5664L152.619 61.8497C152.839 63.2183 153.778 64.2905 155.13 64.7127L157.387 65.4164L154.906 66.1201C153.42 66.5423 152.139 67.6146 151.481 68.9831L150.387 71.2664L150.02 68.9831C149.8 67.6146 148.861 66.5423 147.509 66.1201L145.254 65.4164L147.733 64.7127C149.219 64.2905 150.5 63.2183 151.157 61.8497L152.254 59.5664Z" fill="#D4D4D8"/>
<path d="M74.5926 50.5938L74.8722 52.3438C75.0407 53.3938 75.7611 54.216 76.7981 54.5382L78.5278 55.0771L76.6259 55.6178C75.487 55.94 74.5037 56.7623 74 57.8104L73.1611 59.5623L72.8815 57.8104C72.713 56.7604 71.9926 55.94 70.9556 55.6178L69.2259 55.0771L71.1278 54.5382C72.2667 54.216 73.25 53.3919 73.7537 52.3438L74.5926 50.5938Z" fill="#D4D4D8"/>
<path d="M121.839 111.176L121.994 112.152C122.089 112.735 122.491 113.194 123.069 113.374L124.031 113.674L122.972 113.974C122.337 114.155 121.789 114.613 121.507 115.196L121.039 116.172L120.883 115.196C120.789 114.613 120.389 114.154 119.811 113.974L118.846 113.674L119.907 113.374C120.543 113.192 121.089 112.735 121.37 112.152L121.839 111.176Z" fill="#D4D4D8"/>
<path d="M51.6685 124.25L51.8241 125.226C51.9185 125.811 52.3204 126.269 52.8981 126.448L53.8611 126.748L52.8019 127.048C52.1667 127.23 51.6185 127.687 51.337 128.272L50.8704 129.248L50.7148 128.272C50.6222 127.687 50.2204 127.23 49.6426 127.048L48.6796 126.748L49.7389 126.448C50.3741 126.269 50.9222 125.811 51.2019 125.226L51.6685 124.25Z" fill="#D4D4D8"/>
</svg>
