<svg width="200" height="200" viewBox="0 0 200 200" fill="none" xmlns="http://www.w3.org/2000/svg">
<path d="M100 163.596C137.759 163.596 168.369 151.588 168.369 136.775C168.369 121.963 137.759 109.955 100 109.955C62.2411 109.955 31.6315 121.963 31.6315 136.775C31.6315 151.588 62.2411 163.596 100 163.596Z" fill="#F7F7F8"/>
<path d="M139.859 83.9229H153.524H154.741L147.506 129.284L126.161 116.136L126.535 113.786H131.517L132.365 108.469H135.943L139.104 88.6525C141.163 88.6506 143.087 87.0414 143.404 85.058H139.678L139.859 83.9229Z" fill="#D4D4D8"/>
<path d="M147.506 129.654C147.439 129.654 147.37 129.636 147.311 129.599L125.967 116.451C125.839 116.373 125.772 116.225 125.794 116.077L126.169 113.727C126.196 113.547 126.352 113.414 126.535 113.414H131.2L131.998 108.408C132.026 108.228 132.181 108.095 132.365 108.095H135.628L138.739 88.5895C138.767 88.4098 138.922 88.2784 139.104 88.2765C140.833 88.2765 142.465 87.0302 142.941 85.4228H139.678C139.569 85.4228 139.467 85.3747 139.396 85.2932C139.326 85.2098 139.294 85.1024 139.313 84.995L139.494 83.8598C139.522 83.6802 139.678 83.5469 139.861 83.5469H154.743C154.852 83.5469 154.954 83.595 155.024 83.6765C155.094 83.7598 155.126 83.8672 155.107 83.9747L147.872 129.336C147.852 129.458 147.774 129.562 147.661 129.614C147.611 129.643 147.557 129.654 147.506 129.654ZM126.567 115.949L147.228 128.677L154.307 84.2913H140.176L140.113 84.6858H143.406C143.515 84.6858 143.617 84.7339 143.687 84.8154C143.757 84.8987 143.789 85.0061 143.77 85.1135C143.443 87.1635 141.53 88.8506 139.422 89.008L136.309 108.525C136.281 108.704 136.126 108.838 135.943 108.838H132.68L131.881 113.843C131.854 114.023 131.698 114.156 131.515 114.156H126.852L126.567 115.949Z" fill="#F7F7F8"/>
<path d="M147.506 129.284L150.639 133.555H127.198L124.065 129.284H147.506Z" fill="#D4D4D8"/>
<path d="M150.639 133.925H127.198C127.08 133.925 126.969 133.869 126.9 133.773L123.767 129.501C123.683 129.388 123.672 129.24 123.735 129.114C123.798 128.99 123.926 128.91 124.065 128.91H147.506C147.624 128.91 147.735 128.966 147.804 129.062L150.937 133.334C151.02 133.447 151.032 133.595 150.969 133.721C150.906 133.847 150.778 133.925 150.639 133.925ZM127.385 133.184H149.907L147.319 129.653H124.796L127.385 133.184Z" fill="#F7F7F8"/>
<path d="M126.161 116.136L147.506 129.284H124.065L126.161 116.136Z" fill="#D4D4D8"/>
<path d="M147.506 129.654H124.065C123.956 129.654 123.854 129.606 123.783 129.525C123.713 129.442 123.682 129.334 123.7 129.227L125.796 116.079C125.817 115.956 125.894 115.853 126.007 115.801C126.12 115.749 126.25 115.756 126.356 115.821L147.7 128.969C147.841 129.056 147.907 129.227 147.863 129.386C147.819 129.545 147.672 129.654 147.506 129.654ZM124.498 128.914H146.198L126.439 116.742L124.498 128.914Z" fill="#F7F7F8"/>
<path d="M106.874 37.5332C107.985 37.5332 108.746 38.3999 108.576 39.4721C108.406 40.5425 107.367 41.411 106.256 41.411C105.146 41.411 104.385 40.5425 104.556 39.4721C104.728 38.3999 105.765 37.5332 106.874 37.5332Z" fill="#D4D4D8"/>
<path d="M106.256 41.7816C105.6 41.7816 105.024 41.5279 104.63 41.0686C104.246 40.6205 104.091 40.0335 104.189 39.4149C104.387 38.1742 105.591 37.1631 106.872 37.1631C107.53 37.1631 108.107 37.4168 108.5 37.8779C108.882 38.326 109.039 38.9131 108.939 39.5316C108.745 40.7705 107.539 41.7816 106.256 41.7816ZM106.874 37.9038C105.941 37.9038 105.065 38.6335 104.922 39.5316C104.857 39.9316 104.956 40.3075 105.195 40.5872C105.445 40.8798 105.82 41.0409 106.256 41.0409C107.191 41.0409 108.067 40.3112 108.209 39.4131C108.274 39.0131 108.176 38.6372 107.937 38.3575C107.689 38.0649 107.311 37.9038 106.874 37.9038Z" fill="#F7F7F8"/>
<path d="M60.4167 75.6333L46.8667 67.2852H70.3074L69.526 72.187H60.9667L60.4167 75.6333Z" fill="#D4D4D8"/>
<path d="M60.4167 76.0039C60.3501 76.0039 60.2815 75.9854 60.2223 75.9484L46.6723 67.6002C46.5315 67.5132 46.4649 67.3428 46.5093 67.1836C46.5538 67.0243 46.7001 66.915 46.8649 66.915H70.3056C70.4149 66.915 70.5167 66.9632 70.5871 67.0447C70.6575 67.128 70.6889 67.2354 70.6704 67.3428L69.8889 72.2447C69.8612 72.4243 69.7056 72.5576 69.5223 72.5576H61.2778L60.7778 75.691C60.7575 75.8132 60.6797 75.9169 60.5667 75.9687C60.5223 75.9928 60.4704 76.0039 60.4167 76.0039ZM48.1741 67.6558L60.1389 75.0262L60.6019 72.128C60.6297 71.9484 60.7852 71.815 60.9686 71.815H69.213L69.876 67.6539H48.1741V67.6558Z" fill="#F7F7F8"/>
<path d="M142.23 39.0276C142.228 38.9961 142.226 38.9646 142.222 38.935C142.22 38.9146 142.217 38.8924 142.213 38.872C142.209 38.8535 142.207 38.8331 142.204 38.8146C142.202 38.8072 142.2 38.8016 142.198 38.7961C142.183 38.7276 142.167 38.6628 142.143 38.5979C142.141 38.5942 142.141 38.5905 142.141 38.5887C142.137 38.5776 142.131 38.5665 142.126 38.5553C142.111 38.5165 142.094 38.4776 142.076 38.4387C142.072 38.4313 142.069 38.422 142.065 38.4146C142.059 38.4035 142.052 38.3942 142.046 38.3831C142.031 38.3553 142.015 38.3276 141.998 38.2998C141.993 38.2887 141.987 38.2776 141.98 38.2683C141.967 38.2498 141.956 38.2331 141.943 38.2146L138.809 33.9424C138.83 33.9702 138.846 33.9979 138.865 34.0276C138.881 34.0553 138.898 34.0831 138.913 34.1109C138.922 34.1294 138.933 34.1479 138.943 34.1665C138.961 34.2035 138.978 34.2424 138.993 34.2831C138.998 34.2979 139.004 34.3109 139.009 34.3257C139.031 34.3887 139.05 34.4553 139.065 34.5239C139.07 34.5498 139.074 34.5739 139.08 34.5998C139.083 34.6202 139.087 34.6405 139.089 34.6628C139.093 34.6924 139.094 34.7239 139.096 34.7553C139.098 34.7757 139.1 34.7961 139.1 34.8165C139.1 34.8516 139.1 34.8868 139.098 34.922C139.098 34.9405 139.098 34.9572 139.096 34.9757C139.093 35.0294 139.087 35.0831 139.078 35.1387L135.037 60.4739L138.17 64.7461L142.211 39.4109C142.22 39.3553 142.226 39.3016 142.23 39.2479C142.231 39.2313 142.23 39.2128 142.231 39.1961C142.233 39.1609 142.233 39.1257 142.233 39.0905C142.233 39.0683 142.231 39.0479 142.23 39.0276Z" fill="#D4D4D8"/>
<path d="M138.172 65.115C138.056 65.115 137.944 65.0595 137.874 64.9632L134.741 60.691C134.682 60.6113 134.657 60.5113 134.674 60.4132L138.715 35.078C138.722 35.0354 138.726 34.991 138.73 34.9484V34.9076C138.732 34.8799 138.732 34.8521 138.732 34.8243L138.728 34.7762C138.726 34.7521 138.724 34.728 138.722 34.7039L138.717 34.6706C138.711 34.6373 138.707 34.6169 138.704 34.5984C138.693 34.5428 138.678 34.4928 138.663 34.4484C138.661 34.4465 138.65 34.4188 138.65 34.4169C138.639 34.3873 138.626 34.3576 138.611 34.3299C138.604 34.3151 138.596 34.3021 138.589 34.2873C138.578 34.265 138.565 34.2447 138.552 34.2243C138.533 34.1947 138.522 34.178 138.511 34.1613C138.391 33.9965 138.426 33.765 138.591 33.6447C138.756 33.5243 138.987 33.5595 139.107 33.7243C139.107 33.7243 139.107 33.7243 139.107 33.7262L142.239 37.9965C142.256 38.0188 142.27 38.041 142.285 38.0632C142.294 38.0762 142.302 38.091 142.311 38.1058C142.33 38.1354 142.35 38.1706 142.37 38.2058C142.378 38.2169 142.385 38.2299 142.393 38.2447C142.398 38.2558 142.409 38.278 142.413 38.2891C142.43 38.3225 142.45 38.3706 142.47 38.4206C142.476 38.4299 142.482 38.4447 142.487 38.4613C142.489 38.4688 142.493 38.478 142.494 38.4873C142.519 38.5558 142.539 38.6299 142.556 38.7076C142.559 38.7206 142.563 38.7317 142.565 38.7447C142.569 38.7632 142.572 38.7836 142.574 38.8021L142.209 38.8725L142.576 38.8243C142.58 38.8465 142.583 38.8688 142.585 38.8928C142.589 38.9299 142.593 38.9688 142.594 39.0058L142.596 39.0206C142.598 39.041 142.598 39.0595 142.6 39.0799C142.602 39.1225 142.6 39.1651 142.598 39.2076C142.598 39.2373 142.596 39.2539 142.596 39.2706C142.593 39.3354 142.585 39.4002 142.574 39.4669L138.533 64.8002C138.509 64.9484 138.4 65.0669 138.256 65.1021C138.23 65.1113 138.2 65.115 138.172 65.115ZM135.43 60.378L137.946 63.8095L141.846 39.3502C141.854 39.3058 141.857 39.2632 141.861 39.2206L141.863 39.1799C141.865 39.1521 141.865 39.1243 141.865 39.0965L141.861 39.0502C141.861 39.0502 141.861 39.0502 141.861 39.0484C141.859 39.0243 141.859 39.0002 141.856 38.978L141.844 38.8984C141.844 38.8984 141.841 38.8854 141.837 38.8669C141.826 38.8151 141.813 38.765 141.796 38.7206C141.794 38.7188 141.794 38.715 141.793 38.7113C141.791 38.7076 141.787 38.6984 141.783 38.6873C141.772 38.6576 141.759 38.628 141.746 38.6002C141.744 38.5947 141.739 38.5854 141.735 38.5762C141.732 38.5706 141.728 38.5632 141.724 38.5576C141.713 38.5354 141.7 38.515 141.687 38.4947C141.683 38.4891 141.672 38.4688 141.669 38.4632C141.665 38.4576 141.656 38.4447 141.646 38.4317L139.417 35.391L135.43 60.378Z" fill="#F7F7F8"/>
<path d="M58.7593 108.467L61.8908 112.739L61.0426 118.056L57.9111 113.785L58.7593 108.467Z" fill="#D4D4D8"/>
<path d="M61.0426 118.426C60.926 118.426 60.8148 118.371 60.7445 118.275L57.6111 114.002C57.5519 113.923 57.5278 113.823 57.5445 113.725L58.3926 108.408C58.4167 108.26 58.526 108.141 58.6704 108.106C58.8148 108.071 58.9685 108.127 59.0556 108.247L62.1889 112.519C62.2482 112.599 62.2722 112.699 62.2556 112.797L61.4074 118.114C61.3834 118.262 61.2741 118.38 61.1297 118.415C61.1019 118.423 61.0722 118.426 61.0426 118.426ZM58.3 113.691L60.8167 117.123L61.5 112.834L58.9834 109.402L58.3 113.691Z" fill="#F7F7F8"/>
<path d="M137.472 33.3057C138.52 33.3057 139.241 34.126 139.08 35.1371L135.039 60.4723C134.169 61.0742 133.354 61.7538 132.613 62.502L136.72 36.752C136.802 36.2464 136.443 35.8353 135.919 35.8353H78.376C77.8519 35.8353 77.3593 36.2464 77.2797 36.752L71.6279 72.1853H69.526L70.3075 67.2834L75.4353 35.1371C75.5964 34.126 76.5797 33.3057 77.626 33.3057H137.472Z" fill="#D4D4D8"/>
<path d="M71.6278 72.5579H69.526C69.4167 72.5579 69.3149 72.5097 69.2445 72.4282C69.1741 72.3449 69.1426 72.2375 69.1612 72.1301L75.0704 35.0819C75.2593 33.9005 76.4056 32.9375 77.6278 32.9375H137.474C138.1 32.9375 138.65 33.1801 139.026 33.619C139.391 34.0468 139.541 34.6079 139.446 35.1968L135.406 60.5319C135.389 60.6319 135.333 60.7208 135.25 60.7782C134.4 61.3653 133.6 62.0338 132.876 62.7634C132.763 62.8782 132.589 62.906 132.444 62.8338C132.302 62.7616 132.22 62.6042 132.246 62.4449L136.354 36.6949C136.374 36.5616 136.344 36.4412 136.27 36.3523C136.191 36.2579 136.065 36.206 135.919 36.206H78.376C78.0315 36.206 77.6982 36.4838 77.6445 36.8116L71.9926 72.2449C71.9649 72.4245 71.8093 72.5579 71.6278 72.5579ZM69.9612 71.8171H71.313L76.9149 36.6949C77.0241 36.006 77.6667 35.4653 78.3778 35.4653H135.919C136.282 35.4653 136.615 35.6134 136.835 35.8708C137.054 36.1264 137.143 36.4616 137.087 36.8116L133.152 61.4856C133.644 61.0486 134.161 60.6394 134.7 60.2597L138.715 35.0801C138.774 34.7079 138.685 34.3597 138.461 34.0986C138.23 33.8264 137.878 33.6764 137.472 33.6764H77.626C76.7538 33.6764 75.9334 34.3579 75.8001 35.1968L69.9612 71.8171Z" fill="#F7F7F8"/>
<path d="M60.4204 129.284H36.9797L62.5167 116.134L60.4204 129.284Z" fill="#D4D4D8"/>
<path d="M60.4204 129.654H36.9796C36.8093 129.654 36.6593 129.537 36.6204 129.371C36.5796 129.204 36.6593 129.032 36.8111 128.954L62.35 115.804C62.4741 115.739 62.6241 115.752 62.7371 115.834C62.85 115.915 62.9074 116.054 62.8852 116.191L60.7889 129.341C60.7574 129.521 60.6019 129.654 60.4204 129.654ZM38.5074 128.913H60.1037L62.0371 116.798L38.5074 128.913Z" fill="#F7F7F8"/>
<path d="M60.4204 129.284L63.5538 133.555H40.113L36.9797 129.284H60.4204Z" fill="#D4D4D8"/>
<path d="M63.5537 133.925H40.113C39.9945 133.925 39.8834 133.869 39.8148 133.773L36.6815 129.501C36.5982 129.388 36.5871 129.24 36.65 129.114C36.713 128.99 36.8408 128.91 36.9797 128.91H60.4204C60.5389 128.91 60.65 128.966 60.7185 129.062L63.8519 133.334C63.9352 133.447 63.9463 133.595 63.8834 133.721C63.8204 133.847 63.6926 133.925 63.5537 133.925ZM40.3 133.184H62.8222L60.2334 129.653H37.7111L40.3 133.184Z" fill="#F7F7F8"/>
<path d="M64.9926 113.785L68.126 118.056L63.9241 144.404L60.7908 140.131L64.9926 113.785Z" fill="#D4D4D8"/>
<path d="M63.9241 144.774C63.8074 144.774 63.6963 144.719 63.6259 144.623L60.4926 140.35C60.4333 140.271 60.4093 140.171 60.4259 140.073L64.6278 113.724C64.6519 113.576 64.7611 113.458 64.9056 113.423C65.05 113.387 65.2037 113.443 65.2908 113.563L68.4241 117.836C68.4833 117.915 68.5074 118.015 68.4908 118.113L64.2889 144.461C64.2648 144.61 64.1556 144.728 64.0111 144.763C63.9815 144.771 63.9537 144.774 63.9241 144.774ZM61.1815 140.037L63.6982 143.469L67.7371 118.15L65.2204 114.719L61.1815 140.037Z" fill="#F7F7F8"/>
<path d="M64.0593 145.371C63.9445 145.371 63.8333 145.319 63.7611 145.219L60.6278 140.949C60.4463 140.703 60.3759 140.393 60.4259 140.075C60.45 139.927 60.5593 139.808 60.7037 139.773C60.8482 139.738 61.0019 139.793 61.0889 139.914L64.2222 144.186C64.2815 144.266 64.3056 144.366 64.2889 144.464C64.2704 144.586 64.2926 144.695 64.3556 144.782C64.4759 144.947 64.4408 145.179 64.2759 145.301C64.2111 145.347 64.1352 145.371 64.0593 145.371Z" fill="#F7F7F8"/>
<mask id="mask0_3601_54456" style="mask-type:luminance" maskUnits="userSpaceOnUse" x="60" y="139" width="5" height="7">
<path d="M64.0593 145.371C63.9445 145.371 63.8333 145.319 63.7611 145.219L60.6278 140.949C60.4463 140.703 60.3759 140.393 60.4259 140.075C60.45 139.927 60.5593 139.808 60.7037 139.773C60.8482 139.738 61.0019 139.793 61.0889 139.914L64.2222 144.186C64.2815 144.266 64.3056 144.366 64.2889 144.464C64.2704 144.586 64.2926 144.695 64.3556 144.782C64.4759 144.947 64.4408 145.179 64.2759 145.301C64.2111 145.347 64.1352 145.371 64.0593 145.371Z" fill="white"/>
</mask>
<g mask="url(#mask0_3601_54456)">
<path d="M60.7908 140.132L63.9241 144.404C63.9075 144.508 63.9093 144.608 63.9278 144.7L60.7945 140.428C60.776 140.336 60.7741 140.236 60.7908 140.132Z" fill="#D4D4D8"/>
<path d="M63.9278 145.071C63.813 145.071 63.7 145.017 63.6297 144.919L60.4963 140.647C60.4648 140.603 60.4426 140.553 60.4315 140.499C60.4037 140.36 60.4019 140.217 60.4259 140.073C60.45 139.925 60.5593 139.806 60.7037 139.771C60.85 139.736 61.0019 139.792 61.0889 139.912L64.2222 144.184C64.2815 144.264 64.3056 144.364 64.2889 144.462C64.2797 144.519 64.2797 144.577 64.2908 144.629C64.3241 144.799 64.2352 144.969 64.0759 145.04C64.0278 145.06 63.9778 145.071 63.9278 145.071Z" fill="#F7F7F8"/>
<path d="M60.7945 140.429L63.9278 144.701C63.9352 144.74 63.9463 144.777 63.9593 144.814L60.826 140.542C60.813 140.506 60.8019 140.468 60.7945 140.429Z" fill="#D4D4D8"/>
<path d="M63.9593 145.185C63.8445 145.185 63.7315 145.131 63.6611 145.033L60.5278 140.761C60.5074 140.733 60.4908 140.701 60.4778 140.668C60.4574 140.614 60.4426 140.557 60.4315 140.499C60.3982 140.329 60.4871 140.159 60.6463 140.088C60.8056 140.018 60.9908 140.068 61.0945 140.209L64.2278 144.481C64.2593 144.525 64.2815 144.575 64.2926 144.629C64.2963 144.649 64.3019 144.668 64.3093 144.688C64.3723 144.862 64.2982 145.055 64.1352 145.142C64.0778 145.17 64.0186 145.185 63.9593 145.185Z" fill="#F7F7F8"/>
<path d="M60.826 140.542L63.9593 144.814C63.9704 144.844 63.9834 144.873 63.9964 144.901L60.863 140.629C60.8501 140.601 60.8371 140.573 60.826 140.542Z" fill="#D4D4D8"/>
<path d="M63.9964 145.271C63.8815 145.271 63.7704 145.218 63.6982 145.119L60.5649 140.847C60.5538 140.83 60.5427 140.814 60.5334 140.797C60.5112 140.755 60.4927 140.712 60.476 140.668C60.413 140.493 60.4871 140.301 60.6501 140.216C60.813 140.129 61.0149 140.175 61.1223 140.323L64.2556 144.595C64.276 144.623 64.2927 144.655 64.3056 144.688C64.3112 144.703 64.3167 144.718 64.3241 144.732C64.4112 144.905 64.3538 145.116 64.189 145.216C64.1315 145.253 64.063 145.271 63.9964 145.271Z" fill="#F7F7F8"/>
<path d="M60.863 140.629L63.9963 144.901C64.0093 144.927 64.0241 144.951 64.0389 144.975L60.9056 140.703C60.8908 140.679 60.8759 140.655 60.863 140.629Z" fill="#D4D4D8"/>
<path d="M64.0408 145.344C63.926 145.344 63.8148 145.292 63.7426 145.192L60.6093 140.92C60.576 140.871 60.5556 140.834 60.5352 140.795C60.4482 140.623 60.5056 140.412 60.6704 140.312C60.8352 140.21 61.05 140.253 61.163 140.408L64.2963 144.681C64.3074 144.697 64.3186 144.714 64.3278 144.731C64.3334 144.744 64.3408 144.755 64.35 144.768C64.4611 144.934 64.4204 145.162 64.2537 145.277C64.1871 145.323 64.113 145.344 64.0408 145.344Z" fill="#F7F7F8"/>
<path d="M60.9075 140.702L64.0408 144.974C64.0464 144.984 64.0538 144.993 64.0593 145L60.926 140.728C60.9186 140.719 60.913 140.711 60.9075 140.702Z" fill="#D4D4D8"/>
<path d="M64.0593 145.371C63.9482 145.371 63.8371 145.321 63.7649 145.225C63.7649 145.225 63.7649 145.223 63.763 145.223C63.763 145.221 63.7612 145.221 63.7612 145.219L60.6297 140.951C60.6204 140.938 60.6112 140.925 60.6019 140.912C60.489 140.745 60.5315 140.517 60.6964 140.403C60.8612 140.288 61.089 140.325 61.2075 140.486L64.3408 144.758C64.3445 144.764 64.3501 144.771 64.3538 144.777L64.3593 144.784C64.4797 144.949 64.4445 145.18 64.2797 145.301C64.2112 145.347 64.1353 145.371 64.0593 145.371Z" fill="#F7F7F8"/>
</g>
<path d="M64.7278 145.689C64.3315 145.689 63.9778 145.517 63.7593 145.219L60.6278 140.948C60.6278 140.948 60.6278 140.948 60.6259 140.946C60.5056 140.782 60.5408 140.55 60.7056 140.428C60.8704 140.308 61.1019 140.343 61.2241 140.508C61.3037 140.615 61.4352 140.676 61.5963 140.676C61.7148 140.676 61.8259 140.732 61.8945 140.828L65.0278 145.1C65.1111 145.213 65.1222 145.361 65.0593 145.487C64.9963 145.611 64.8685 145.689 64.7278 145.689Z" fill="#F7F7F8"/>
<mask id="mask1_3601_54456" style="mask-type:luminance" maskUnits="userSpaceOnUse" x="60" y="140" width="6" height="6">
<path d="M64.7278 145.689C64.3315 145.689 63.9778 145.517 63.7593 145.219L60.6278 140.948C60.6278 140.948 60.6278 140.948 60.6259 140.946C60.5056 140.782 60.5408 140.55 60.7056 140.428C60.8704 140.308 61.1019 140.343 61.2241 140.508C61.3037 140.615 61.4352 140.676 61.5963 140.676C61.7148 140.676 61.8259 140.732 61.8945 140.828L65.0278 145.1C65.1111 145.213 65.1222 145.361 65.0593 145.487C64.9963 145.611 64.8685 145.689 64.7278 145.689Z" fill="white"/>
</mask>
<g mask="url(#mask1_3601_54456)">
<path d="M61.5963 141.048L64.7297 145.32C64.4408 145.32 64.2019 145.196 64.0593 145.002L60.926 140.728C61.0686 140.924 61.3074 141.048 61.5963 141.048Z" fill="#D4D4D8"/>
<path d="M64.7278 145.689C64.3315 145.689 63.9778 145.517 63.7593 145.219L60.6278 140.948C60.6278 140.948 60.6278 140.948 60.6259 140.946C60.5056 140.782 60.5408 140.55 60.7056 140.428C60.8704 140.308 61.1019 140.343 61.2241 140.508C61.3037 140.615 61.4352 140.676 61.5963 140.676C61.7148 140.676 61.8259 140.732 61.8945 140.828L65.0278 145.1C65.1111 145.213 65.1222 145.361 65.0593 145.487C64.9963 145.611 64.8685 145.689 64.7278 145.689Z" fill="#F7F7F8"/>
</g>
<path d="M124.433 113.785L127.567 118.056L123.365 144.404L120.232 140.131L124.433 113.785Z" fill="#D4D4D8"/>
<path d="M123.365 144.774C123.248 144.774 123.137 144.719 123.067 144.623L119.933 140.35C119.874 140.271 119.85 140.171 119.867 140.073L124.069 113.724C124.093 113.576 124.202 113.458 124.346 113.423C124.491 113.387 124.644 113.443 124.731 113.563L127.865 117.836C127.924 117.915 127.948 118.015 127.931 118.113L123.73 144.461C123.706 144.61 123.596 144.728 123.452 144.763C123.422 144.771 123.393 144.774 123.365 144.774ZM120.622 140.037L123.139 143.469L127.178 118.15L124.661 114.719L120.622 140.037Z" fill="#F7F7F8"/>
<path d="M120.231 140.131L124.433 113.783H126.537L126.163 116.133L124.067 129.281L121.478 145.515C121.317 146.526 120.333 147.346 119.287 147.346H59.4389C58.3907 147.346 57.6704 146.526 57.8315 145.515L60.4204 129.281L62.5167 116.133L62.8907 113.783H64.9926L60.7907 140.131C60.7111 140.635 61.0704 141.046 61.5944 141.046H119.135C119.661 141.046 120.15 140.637 120.231 140.131Z" fill="#D4D4D8"/>
<path d="M119.283 147.717H59.4389C58.813 147.717 58.263 147.474 57.887 147.035C57.5222 146.607 57.3722 146.046 57.4667 145.457L62.5278 113.726C62.5556 113.546 62.7111 113.413 62.8944 113.413H64.9963C65.1056 113.413 65.2074 113.461 65.2778 113.543C65.3482 113.624 65.3796 113.733 65.3611 113.841L61.1593 140.189C61.1389 140.32 61.1685 140.441 61.2444 140.53C61.3259 140.624 61.4519 140.676 61.5982 140.676H119.139C119.481 140.676 119.815 140.4 119.869 140.072L124.07 113.724C124.098 113.544 124.254 113.411 124.437 113.411H126.539C126.648 113.411 126.75 113.459 126.82 113.541C126.891 113.622 126.922 113.732 126.904 113.839L121.841 145.574C121.654 146.756 120.506 147.717 119.283 147.717ZM63.2074 114.156L58.1963 145.574C58.137 145.946 58.2259 146.294 58.4482 146.556C58.6796 146.828 59.0315 146.978 59.437 146.978H119.283C120.156 146.978 120.976 146.296 121.109 145.457L126.102 114.156H124.75L120.598 140.191C120.489 140.88 119.846 141.419 119.137 141.419H61.5963C61.2333 141.419 60.8982 141.27 60.6778 141.011C60.4593 140.756 60.3704 140.422 60.4259 140.074L64.5593 114.156H63.2074Z" fill="#F7F7F8"/>
<path d="M46.8667 67.2852L60.4167 75.6333L55.1815 108.467H58.7592L57.9111 113.785H62.8926L62.5167 116.133L36.9796 129.283L46.8667 67.2852Z" fill="#D4D4D8"/>
<path d="M36.9796 129.654C36.9037 129.654 36.8259 129.63 36.763 129.584C36.65 129.502 36.5926 129.363 36.6148 129.226L46.5019 67.228C46.5222 67.1058 46.6 67.0021 46.713 66.9502C46.8259 66.8983 46.9556 66.9058 47.0611 66.9706L60.6111 75.3187C60.7389 75.3965 60.8056 75.5446 60.7833 75.6928L55.6148 108.098H58.7593C58.8685 108.098 58.9704 108.146 59.0408 108.228C59.1111 108.309 59.1426 108.419 59.1241 108.526L58.3445 113.415H62.8926C63.0019 113.415 63.1037 113.463 63.1741 113.545C63.2445 113.628 63.2759 113.735 63.2574 113.843L62.8833 116.193C62.8648 116.309 62.7926 116.409 62.687 116.463L37.1482 129.613C37.0945 129.641 37.037 129.654 36.9796 129.654ZM47.1463 67.8909L37.4611 128.619L62.1815 115.891L62.4593 114.156H57.9111C57.8019 114.156 57.7 114.108 57.6296 114.026C57.5593 113.943 57.5278 113.835 57.5463 113.728L58.3259 108.839H55.1815C55.0722 108.839 54.9704 108.791 54.9 108.709C54.8296 108.626 54.7982 108.519 54.8167 108.411L60.0148 75.8206L47.1463 67.8909Z" fill="#F7F7F8"/>
<path d="M135.917 35.8349C136.441 35.8349 136.8 36.246 136.719 36.7515L132.611 62.5015C130.372 64.7589 128.793 67.6237 128.294 70.7423L128.065 72.1849H71.6278L77.2797 36.7497C77.3611 36.2441 77.8519 35.833 78.376 35.833H135.917V35.8349ZM106.256 41.4108C107.367 41.4108 108.404 40.5423 108.576 39.4719C108.746 38.3997 107.985 37.533 106.874 37.533C105.765 37.533 104.728 38.3997 104.556 39.4719C104.385 40.5404 105.146 41.4108 106.256 41.4108Z" fill="#F7F7F8"/>
<path d="M128.067 72.5574H71.6278C71.5185 72.5574 71.4167 72.5093 71.3463 72.4278C71.2759 72.3463 71.2445 72.2371 71.263 72.1297L76.9148 36.6945C77.0241 36.0056 77.6667 35.4648 78.3778 35.4648H135.919C136.281 35.4648 136.615 35.613 136.835 35.8704C137.054 36.126 137.143 36.4611 137.087 36.8111L132.98 62.5611C132.967 62.6371 132.931 62.7093 132.876 62.763C130.624 65.0334 129.128 67.8889 128.663 70.8019L128.433 72.2445C128.404 72.4241 128.248 72.5574 128.067 72.5574ZM72.0611 71.8167H127.75L127.93 70.6852C128.42 67.613 129.919 64.7241 132.265 62.326L136.354 36.6926C136.374 36.5593 136.344 36.4389 136.27 36.35C136.191 36.2556 136.065 36.2037 135.919 36.2037H78.3759C78.0315 36.2037 77.6963 36.4815 77.6444 36.8093L72.0611 71.8167ZM106.256 41.7815C105.6 41.7815 105.024 41.5278 104.63 41.0685C104.246 40.6204 104.091 40.0334 104.189 39.4148C104.387 38.1741 105.591 37.1648 106.872 37.1648C107.53 37.1648 108.107 37.4185 108.5 37.8797C108.881 38.3278 109.039 38.9148 108.939 39.5334C108.743 40.7704 107.539 41.7815 106.256 41.7815ZM106.874 37.9037C105.941 37.9037 105.065 38.6334 104.922 39.5297C104.859 39.9297 104.956 40.3056 105.194 40.5852C105.444 40.8778 105.82 41.0389 106.256 41.0389C107.191 41.0389 108.067 40.3093 108.209 39.4111C108.274 39.0111 108.176 38.6352 107.937 38.3556C107.689 38.0648 107.311 37.9037 106.874 37.9037Z" fill="#F7F7F8"/>
<path d="M155.702 67.2852H157.394L155.774 68.1203C155.759 67.8389 155.735 67.5592 155.702 67.2852Z" fill="#D4D4D8"/>
<path d="M155.772 68.4911C155.707 68.4911 155.644 68.4744 155.587 68.4411C155.478 68.3781 155.407 68.2651 155.402 68.1392C155.389 67.8688 155.365 67.5966 155.333 67.3318C155.32 67.2262 155.354 67.1207 155.424 67.0411C155.494 66.9614 155.594 66.917 155.702 66.917H157.394C157.565 66.917 157.715 67.0337 157.754 67.2003C157.794 67.367 157.715 67.5392 157.563 67.617L155.943 68.4522C155.889 68.4763 155.83 68.4911 155.772 68.4911Z" fill="#F7F7F8"/>
<path d="M157.394 67.2852L160.526 71.5555L158.244 85.8685L155.111 81.5963L157.394 67.2852Z" fill="#D4D4D8"/>
<path d="M158.244 86.2393C158.128 86.2393 158.017 86.1837 157.946 86.0875L154.813 81.8152C154.754 81.7356 154.73 81.6356 154.746 81.5375L157.03 67.2263C157.054 67.0782 157.163 66.9597 157.307 66.9245C157.452 66.8893 157.606 66.9449 157.693 67.0652L160.826 71.3375C160.885 71.4171 160.909 71.5171 160.893 71.6152L158.609 85.9263C158.585 86.0745 158.476 86.193 158.331 86.2282C158.302 86.2356 158.272 86.2393 158.244 86.2393ZM155.502 81.5023L158.019 84.9338L160.137 71.6504L157.62 68.2189L155.502 81.5023Z" fill="#F7F7F8"/>
<path d="M155.772 68.1213L157.393 67.2861L155.109 81.5972L154.356 78.6935L155.624 70.7454C155.769 69.8472 155.815 68.9695 155.772 68.1213Z" fill="#D4D4D8"/>
<path d="M155.111 81.9673C154.943 81.9673 154.794 81.8543 154.754 81.6895L154 78.7858C153.987 78.7358 153.985 78.6839 153.993 78.6339L155.261 70.6858C155.398 69.8284 155.446 68.971 155.406 68.1376C155.398 67.9932 155.476 67.8561 155.606 67.7895L157.226 66.9543C157.35 66.8895 157.5 66.9024 157.613 66.9839C157.726 67.0654 157.783 67.2043 157.761 67.3413L155.478 81.6524C155.45 81.8265 155.306 81.9561 155.13 81.9636C155.122 81.9673 155.117 81.9673 155.111 81.9673ZM154.735 78.6747L155.024 79.7895L156.913 67.9487L156.152 68.3395C156.176 69.1469 156.122 69.9747 155.991 70.8006L154.735 78.6747Z" fill="#F7F7F8"/>
<path d="M139.104 88.6504L142.235 92.9226L139.078 112.739L135.944 108.467L139.104 88.6504Z" fill="#D4D4D8"/>
<path d="M139.078 113.11C138.961 113.11 138.85 113.055 138.78 112.958L135.646 108.686C135.587 108.606 135.563 108.506 135.58 108.408L138.739 88.5916C138.763 88.4434 138.872 88.3249 139.017 88.2897C139.161 88.2545 139.315 88.3101 139.402 88.4305L142.535 92.7027C142.594 92.7823 142.619 92.8823 142.602 92.9805L139.443 112.797C139.419 112.945 139.309 113.064 139.165 113.099C139.135 113.106 139.106 113.11 139.078 113.11ZM136.333 108.373L138.85 111.805L141.844 93.0157L139.328 89.5842L136.333 108.373Z" fill="#F7F7F8"/>
<path d="M139.859 83.9226L139.678 85.0578H135.952C135.635 87.0411 137.046 88.6522 139.104 88.6522L135.944 108.467H132.367H58.7593H51.1389L56.376 75.6318L56.926 72.1855H69.5278H71.6297H128.069L127.032 78.6911L126.593 79.4504H66.1611L65.9278 80.917H125.743L124.004 83.9207H126.194H139.859V83.9226ZM132.563 89.8318L132.796 88.3652H64.7389L64.5056 89.8318H132.563ZM117.156 98.7448L117.389 97.2781H77.3037L77.0704 98.7448H117.156Z" fill="#D4D4D8"/>
<path d="M135.944 108.838H51.1371C51.0278 108.838 50.9259 108.79 50.8556 108.708C50.7852 108.625 50.7537 108.517 50.7722 108.41L56.5593 72.1303C56.5871 71.9507 56.7426 71.8174 56.9259 71.8174H128.069C128.178 71.8174 128.28 71.8655 128.35 71.947C128.42 72.0303 128.452 72.1378 128.433 72.2452L127.396 78.7507C127.389 78.7952 127.374 78.8378 127.352 78.8785L126.913 79.6378C126.846 79.7526 126.724 79.8229 126.593 79.8229H66.4759L66.3611 80.5489H125.741C125.872 80.5489 125.996 80.6192 126.061 80.734C126.128 80.8489 126.128 80.9896 126.061 81.1044L124.644 83.5526H139.857C139.967 83.5526 140.069 83.6007 140.139 83.6822C140.209 83.7655 140.241 83.8729 140.222 83.9803L140.041 85.1155C140.011 85.2952 139.857 85.4285 139.674 85.4285H136.28C136.237 86.1452 136.448 86.8118 136.891 87.3285C137.415 87.9433 138.2 88.2822 139.1 88.2822C139.209 88.2822 139.311 88.3303 139.381 88.4118C139.452 88.4952 139.483 88.6026 139.465 88.71L136.306 108.527C136.281 108.706 136.126 108.838 135.944 108.838ZM51.5722 108.097H135.628L138.672 88.9989C137.732 88.9026 136.911 88.4878 136.33 87.8081C135.681 87.0489 135.417 86.0507 135.585 84.9989C135.613 84.8192 135.769 84.6859 135.952 84.6859H139.363L139.426 84.2915H124.004C123.872 84.2915 123.748 84.2211 123.683 84.1063C123.617 83.9915 123.617 83.8507 123.683 83.7359L125.1 81.2878H65.9278C65.8185 81.2878 65.7167 81.2396 65.6463 81.1581C65.5759 81.0748 65.5445 80.9674 65.563 80.86L65.7963 79.3933C65.8241 79.2137 65.9797 79.0803 66.163 79.0803H126.378L126.676 78.5655L127.635 72.5563H57.2408L51.5722 108.097ZM117.156 99.1155H77.0704C76.9611 99.1155 76.8593 99.0674 76.7889 98.9859C76.7185 98.9026 76.6871 98.7952 76.7056 98.6877L76.9389 97.2211C76.9667 97.0415 77.1222 96.9081 77.3056 96.9081H117.389C117.498 96.9081 117.6 96.9563 117.67 97.0378C117.741 97.1211 117.772 97.2285 117.754 97.3359L117.52 98.8026C117.493 98.9822 117.337 99.1155 117.156 99.1155ZM77.5037 98.3748H116.839L116.954 97.6489H77.6185L77.5037 98.3748ZM132.563 90.2026H64.5056C64.3963 90.2026 64.2945 90.1544 64.2241 90.0729C64.1537 89.9896 64.1222 89.8822 64.1408 89.7748L64.3741 88.3081C64.4019 88.1285 64.5574 87.9952 64.7408 87.9952H132.798C132.907 87.9952 133.009 88.0433 133.08 88.1248C133.15 88.2081 133.182 88.3155 133.163 88.4229L132.93 89.8896C132.9 90.0692 132.746 90.2026 132.563 90.2026ZM64.9389 89.4618H132.246L132.361 88.7359H65.0556L64.9389 89.4618Z" fill="#F7F7F8"/>
<path d="M132.367 108.467L135.498 112.739L134.65 118.056L131.519 113.785L132.367 108.467Z" fill="#D4D4D8"/>
<path d="M134.65 118.426C134.533 118.426 134.422 118.371 134.352 118.275L131.219 114.002C131.159 113.923 131.135 113.823 131.152 113.725L132 108.408C132.024 108.26 132.133 108.141 132.278 108.106C132.422 108.071 132.576 108.127 132.663 108.247L135.796 112.519C135.856 112.599 135.88 112.699 135.863 112.797L135.015 118.114C134.991 118.262 134.882 118.38 134.737 118.415C134.709 118.423 134.68 118.426 134.65 118.426ZM131.907 113.691L134.424 117.123L135.107 112.834L132.593 109.402L131.907 113.691Z" fill="#F7F7F8"/>
<path d="M119.283 147.346H59.439C58.863 147.346 58.3871 147.098 58.1019 146.709L61.2353 150.981C61.5223 151.372 61.9982 151.618 62.5723 151.618H122.419L119.283 147.346Z" fill="#D4D4D8"/>
<path d="M122.417 151.989H62.5723C61.9001 151.989 61.3038 151.702 60.9352 151.2L57.8019 146.928C57.6815 146.763 57.7167 146.532 57.8815 146.409C58.0463 146.289 58.2778 146.324 58.4001 146.489C58.626 146.798 59.0056 146.976 59.4389 146.976H119.285C119.404 146.976 119.515 147.032 119.583 147.128L122.717 151.4C122.8 151.513 122.811 151.661 122.748 151.787C122.685 151.911 122.557 151.989 122.417 151.989ZM59.2964 147.713L61.5334 150.761C61.7593 151.07 62.1389 151.248 62.5723 151.248H121.687L119.098 147.717H59.4389C59.3908 147.717 59.3426 147.717 59.2964 147.713Z" fill="#F7F7F8"/>
<path d="M126.161 116.135L124.065 129.284L121.476 145.517C121.463 145.595 121.444 145.671 121.424 145.745C121.419 145.767 121.411 145.787 121.404 145.809C121.385 145.867 121.365 145.922 121.341 145.976C121.333 145.995 121.326 146.013 121.317 146.034C121.283 146.104 121.248 146.174 121.207 146.241C121.196 146.259 121.183 146.276 121.172 146.295C121.146 146.334 121.122 146.372 121.094 146.409C121.076 146.434 121.057 146.458 121.037 146.482C121.015 146.508 120.994 146.535 120.972 146.561C120.95 146.587 120.928 146.611 120.904 146.635C120.883 146.658 120.863 146.678 120.841 146.7C120.817 146.724 120.789 146.746 120.763 146.771C120.743 146.789 120.72 146.809 120.698 146.826C120.672 146.848 120.644 146.869 120.617 146.889C120.593 146.908 120.57 146.926 120.544 146.943C120.519 146.959 120.493 146.976 120.467 146.993C120.437 147.011 120.407 147.032 120.378 147.048C120.356 147.061 120.333 147.072 120.311 147.084C120.272 147.104 120.233 147.126 120.193 147.145C120.172 147.154 120.15 147.163 120.13 147.172C120.074 147.196 120.017 147.219 119.957 147.237C119.933 147.245 119.909 147.254 119.885 147.261C119.865 147.267 119.843 147.272 119.822 147.278C119.785 147.287 119.746 147.296 119.707 147.306C119.685 147.309 119.665 147.315 119.643 147.319C119.602 147.326 119.561 147.332 119.52 147.335C119.502 147.337 119.481 147.341 119.463 147.343C119.404 147.348 119.343 147.352 119.281 147.352L122.415 151.624C122.476 151.624 122.535 151.621 122.596 151.615C122.615 151.613 122.635 151.609 122.654 151.608C122.694 151.602 122.735 151.596 122.776 151.591C122.798 151.587 122.819 151.584 122.841 151.578C122.88 151.571 122.917 151.561 122.956 151.55C122.976 151.545 122.998 151.539 123.019 151.534C123.03 151.53 123.041 151.528 123.052 151.524C123.065 151.521 123.078 151.513 123.091 151.509C123.148 151.489 123.206 151.469 123.261 151.445C123.274 151.439 123.287 151.435 123.3 151.43C123.309 151.426 123.317 151.421 123.324 151.417C123.365 151.398 123.404 151.378 123.443 151.356C123.459 151.346 123.478 151.339 123.494 151.33C123.5 151.326 123.504 151.324 123.509 151.321C123.539 151.302 123.569 151.284 123.598 151.265C123.619 151.252 123.641 151.239 123.661 151.224C123.665 151.221 123.67 151.217 123.674 151.215C123.698 151.198 123.722 151.18 123.746 151.161C123.769 151.145 123.793 151.128 123.813 151.111C123.819 151.108 123.822 151.104 123.828 151.098C123.85 151.08 123.87 151.061 123.893 151.043C123.913 151.024 123.935 151.008 123.954 150.989C123.959 150.984 123.965 150.978 123.969 150.972C123.991 150.952 124.011 150.93 124.031 150.908C124.048 150.889 124.069 150.872 124.085 150.854C124.091 150.848 124.094 150.841 124.1 150.835C124.122 150.809 124.144 150.784 124.165 150.756C124.18 150.737 124.196 150.721 124.209 150.702C124.213 150.696 124.217 150.691 124.22 150.685C124.248 150.648 124.274 150.609 124.298 150.571C124.307 150.556 124.32 150.541 124.33 150.524C124.331 150.522 124.331 150.519 124.333 150.517C124.374 150.45 124.411 150.38 124.443 150.309C124.446 150.304 124.45 150.296 124.452 150.291C124.457 150.278 124.461 150.265 124.467 150.252C124.491 150.196 124.511 150.141 124.53 150.085C124.537 150.063 124.544 150.043 124.55 150.021C124.572 149.946 124.591 149.871 124.602 149.793L127.191 133.559L129.287 120.411L129.661 118.061L126.528 113.789L126.161 116.135Z" fill="#D4D4D8"/>
<path d="M122.417 151.989C122.298 151.989 122.187 151.934 122.119 151.837L118.985 147.565C118.902 147.452 118.891 147.304 118.954 147.178C119.017 147.054 119.144 146.974 119.283 146.974C119.333 146.974 119.382 146.971 119.432 146.967L119.478 146.961C119.513 146.958 119.546 146.952 119.58 146.947L119.633 146.935C119.665 146.928 119.696 146.921 119.728 146.913L119.841 146.878C119.889 146.861 119.937 146.843 119.983 146.822L120.037 146.8C120.07 146.785 120.104 146.767 120.137 146.75L120.193 146.721C120.211 146.709 120.232 146.697 120.25 146.685L120.294 146.658C120.307 146.648 120.322 146.641 120.335 146.632C120.348 146.622 120.361 146.613 120.372 146.604L120.413 146.574C120.43 146.561 120.448 146.548 120.465 146.535L120.519 146.487C120.546 146.463 120.565 146.447 120.583 146.428C120.596 146.415 120.609 146.402 120.62 146.389L120.635 146.372C120.659 146.347 120.676 146.33 120.693 146.311C120.709 146.293 120.724 146.274 120.739 146.254L120.761 146.226C120.772 146.211 120.783 146.198 120.794 146.184C120.817 146.152 120.839 146.121 120.859 146.087L120.889 146.043C120.92 145.989 120.95 145.934 120.98 145.871L121 145.824C121.019 145.78 121.037 145.735 121.052 145.689L121.069 145.637C121.089 145.567 121.102 145.508 121.111 145.454L126.172 113.722C126.196 113.574 126.306 113.456 126.45 113.421C126.594 113.385 126.748 113.441 126.835 113.561L129.969 117.834C130.028 117.913 130.052 118.013 130.035 118.111L124.974 149.843C124.961 149.928 124.941 150.017 124.911 150.115C124.906 150.135 124.898 150.158 124.891 150.178C124.865 150.258 124.839 150.324 124.811 150.389C124.807 150.4 124.802 150.417 124.793 150.435C124.789 150.443 124.783 150.456 124.778 150.465C124.741 150.545 124.702 150.619 124.659 150.689C124.657 150.693 124.656 150.697 124.654 150.7C124.639 150.724 124.63 150.739 124.619 150.754C124.583 150.806 124.554 150.852 124.522 150.895C124.522 150.895 124.515 150.906 124.507 150.915C124.496 150.932 124.482 150.947 124.469 150.963L124.457 150.978C124.426 151.017 124.406 151.043 124.382 151.069C124.38 151.072 124.37 151.082 124.363 151.091C124.348 151.108 124.333 151.122 124.317 151.139L124.302 151.154C124.27 151.187 124.25 151.208 124.23 151.228L124.211 151.247C124.194 151.263 124.176 151.28 124.157 151.295L124.126 151.322C124.106 151.339 124.087 151.358 124.067 151.374C124.061 151.38 124.054 151.385 124.048 151.391C124.032 151.404 124.013 151.419 123.993 151.432L123.956 151.459C123.933 151.476 123.913 151.493 123.891 151.508C123.857 151.532 123.839 151.543 123.82 151.554L123.785 151.576C123.757 151.595 123.728 151.613 123.698 151.63L123.682 151.641C123.665 151.65 123.648 151.659 123.632 151.667C123.576 151.697 123.532 151.721 123.485 151.741C123.48 151.745 123.469 151.75 123.457 151.756C123.439 151.763 123.424 151.771 123.407 151.776C123.346 151.802 123.28 151.828 123.213 151.85C123.202 151.856 123.185 151.861 123.169 151.867C123.156 151.871 123.143 151.874 123.132 151.878C123.109 151.885 123.087 151.891 123.067 151.897C123.011 151.911 122.967 151.922 122.922 151.932C122.898 151.937 122.872 151.943 122.846 151.947C122.798 151.956 122.75 151.961 122.702 151.967C122.669 151.971 122.652 151.972 122.635 151.974C122.559 151.985 122.489 151.989 122.417 151.989ZM119.946 147.624L122.596 151.237L122.611 151.235C122.644 151.232 122.678 151.226 122.711 151.221L122.765 151.209C122.798 151.202 122.83 151.195 122.861 151.187L122.913 151.172C122.917 151.171 122.937 151.165 122.941 151.165C122.946 151.163 122.959 151.158 122.974 151.152C123.022 151.135 123.07 151.117 123.117 151.097C123.128 151.093 123.139 151.087 123.15 151.084C123.157 151.08 123.163 151.076 123.17 151.074C123.204 151.059 123.237 151.041 123.27 151.022L123.306 151.004C123.311 151 123.319 150.997 123.324 150.993C123.344 150.98 123.365 150.969 123.383 150.956L123.456 150.909C123.48 150.893 123.491 150.884 123.504 150.872L123.582 150.813C123.606 150.793 123.617 150.782 123.63 150.772L123.713 150.697C123.726 150.684 123.739 150.671 123.752 150.656L123.765 150.643L123.824 150.58C123.839 150.563 123.854 150.545 123.869 150.526L123.926 150.454C123.95 150.422 123.97 150.389 123.991 150.358L124.013 150.324C124.015 150.321 124.017 150.319 124.019 150.315C124.052 150.261 124.082 150.204 124.111 150.143C124.113 150.139 124.117 150.134 124.119 150.126C124.12 150.119 124.126 150.108 124.13 150.097C124.15 150.05 124.167 150.006 124.182 149.959L124.198 149.908C124.219 149.837 124.232 149.778 124.241 149.724L129.278 118.147L126.761 114.715L121.841 145.574C121.828 145.659 121.807 145.747 121.778 145.847C121.772 145.869 121.765 145.891 121.757 145.913C121.732 145.991 121.707 146.056 121.68 146.121C121.667 146.154 121.659 146.171 121.65 146.187C121.611 146.272 121.567 146.356 121.52 146.43C121.511 146.447 121.5 146.461 121.489 146.478C121.45 146.537 121.42 146.584 121.387 146.626C121.37 146.648 121.352 146.672 121.333 146.693L121.32 146.708C121.291 146.745 121.269 146.772 121.244 146.798C121.22 146.824 121.196 146.85 121.172 146.876L121.152 146.898C121.133 146.919 121.113 146.939 121.093 146.958C121.067 146.984 121.039 147.008 121.013 147.032L120.987 147.054C120.969 147.071 120.95 147.087 120.93 147.104C120.904 147.124 120.878 147.145 120.852 147.163L120.817 147.189C120.796 147.206 120.774 147.222 120.752 147.237C120.73 147.252 120.707 147.267 120.683 147.282L120.644 147.306C120.617 147.324 120.587 147.343 120.559 147.359C120.541 147.371 120.52 147.38 120.502 147.391L120.483 147.4C120.437 147.424 120.393 147.448 120.346 147.471C120.326 147.48 120.307 147.487 120.289 147.497C120.207 147.532 120.141 147.558 120.074 147.58L120.056 147.587C120.033 147.595 120.013 147.602 119.991 147.609C119.978 147.617 119.963 147.621 119.946 147.624Z" fill="#F7F7F8"/>
<path d="M154.741 83.9219L157.872 88.1922L150.639 133.553L147.506 129.283L154.741 83.9219Z" fill="#D4D4D8"/>
<path d="M150.639 133.924C150.522 133.924 150.411 133.869 150.341 133.772L147.207 129.5C147.148 129.42 147.124 129.32 147.141 129.222L154.376 83.8611C154.4 83.713 154.509 83.5944 154.654 83.5593C154.798 83.5241 154.952 83.5796 155.039 83.7L158.172 87.9722C158.232 88.0518 158.256 88.1518 158.239 88.25L151.004 133.611C150.98 133.759 150.87 133.878 150.726 133.913C150.696 133.922 150.667 133.924 150.639 133.924ZM147.896 129.189L150.413 132.62L157.483 88.287L154.967 84.8556L147.896 129.189Z" fill="#F7F7F8"/>
<path d="M158.244 85.8672L158.846 88.1912L155.713 83.9209L155.111 81.5968L154.357 78.6949L155.624 70.7449C155.767 69.8468 155.815 68.9709 155.772 68.1209C155.757 67.8394 155.733 67.5616 155.702 67.2857C155.676 67.0672 155.641 66.8523 155.604 66.6412C155.598 66.6042 155.591 66.569 155.583 66.5338C155.544 66.3301 155.5 66.1301 155.452 65.9301C155.443 65.8912 155.432 65.8505 155.422 65.8135C155.37 65.6116 155.313 65.4098 155.25 65.2116C155.246 65.2023 155.243 65.1912 155.241 65.182C155.187 65.0153 155.126 64.8523 155.063 64.6894C155.024 64.5838 154.982 64.482 154.939 64.3783C154.894 64.269 154.848 64.1616 154.8 64.0542C154.754 63.9523 154.707 63.8542 154.656 63.7523C154.604 63.6431 154.548 63.5357 154.489 63.4283C154.446 63.3468 154.404 63.269 154.359 63.1894C154.294 63.0783 154.23 62.9672 154.161 62.8579C154.115 62.7838 154.069 62.706 154.02 62.6338C153.915 62.4709 153.806 62.3079 153.693 62.1523L156.824 66.4227C156.917 66.5486 157.006 66.6727 157.091 66.8023C157.113 66.8338 157.133 66.869 157.154 66.9042C157.202 66.9764 157.248 67.0542 157.294 67.1283C157.363 67.2375 157.428 67.3486 157.493 67.4598C157.537 67.5394 157.58 67.6172 157.622 67.6986C157.65 67.7486 157.682 67.8005 157.707 67.8523C157.735 67.9098 157.761 67.9672 157.789 68.0227C157.837 68.1246 157.885 68.2227 157.933 68.3246C157.982 68.432 158.026 68.5394 158.072 68.6486C158.115 68.7523 158.156 68.8542 158.196 68.9598C158.215 69.006 158.235 69.0523 158.254 69.0986C158.296 69.2153 158.335 69.3357 158.372 69.4542C158.376 69.4635 158.38 69.4727 158.385 69.482C158.448 69.6801 158.504 69.882 158.557 70.0838C158.567 70.1246 158.578 70.1635 158.587 70.2023C158.63 70.3746 158.67 70.5486 158.704 70.7246C158.709 70.7505 158.713 70.7783 158.719 70.806C158.726 70.8431 158.732 70.8764 158.739 70.9135C158.778 71.1264 158.811 71.3394 158.837 71.5579C158.869 71.832 158.894 72.1116 158.907 72.3931C158.95 73.2412 158.904 74.119 158.759 75.019L157.493 82.9672L158.244 85.8672Z" fill="#D4D4D8"/>
<path d="M158.846 88.5639C158.732 88.5639 158.619 88.5102 158.548 88.412L155.415 84.1417C155.387 84.1046 155.367 84.0602 155.356 84.0157L154 78.788C153.987 78.738 153.985 78.6861 153.993 78.6361L155.259 70.6861C155.396 69.8306 155.444 68.9732 155.402 68.1398C155.389 67.8769 155.365 67.6046 155.333 67.3306C155.311 67.1417 155.28 66.938 155.237 66.7083C155.232 66.675 155.228 66.6472 155.22 66.6195C155.183 66.4232 155.141 66.2324 155.089 66.0176L155.061 65.9083C155.006 65.6935 154.952 65.5065 154.898 65.3343C154.893 65.3176 154.887 65.3028 154.883 65.2861C154.828 65.1158 154.763 64.9472 154.715 64.8195C154.676 64.7139 154.635 64.6158 154.594 64.5158C154.552 64.4102 154.507 64.3065 154.459 64.2046C154.415 64.1102 154.37 64.0139 154.322 63.9158C154.27 63.8083 154.219 63.7065 154.163 63.6046C154.119 63.5213 154.078 63.4454 154.035 63.3713C153.974 63.2676 153.913 63.1602 153.846 63.0546L153.817 63.0065C153.782 62.9509 153.746 62.8935 153.711 62.8398C153.598 62.6639 153.494 62.512 153.393 62.3713C153.272 62.2065 153.309 61.975 153.474 61.8546C153.639 61.7343 153.87 61.7695 153.991 61.9343L157.122 66.2046C157.226 66.3454 157.319 66.475 157.4 66.6009C157.422 66.6324 157.446 66.6732 157.47 66.7139C157.502 66.7583 157.541 66.8213 157.578 66.8843L157.609 66.9343C157.678 67.0417 157.743 67.1546 157.807 67.2676C157.861 67.362 157.906 67.4454 157.95 67.5287L157.967 67.5583C157.991 67.6009 158.015 67.6435 158.037 67.688C158.056 67.725 158.074 67.7639 158.091 67.8009L158.156 67.9361C158.193 68.0139 158.23 68.0917 158.267 68.1695C158.307 68.2583 158.343 68.3454 158.38 68.4324L158.409 68.5028C158.454 68.612 158.496 68.7176 158.537 68.8269L158.593 68.9639C158.637 69.088 158.676 69.2083 158.715 69.3269L158.724 69.3472C158.728 69.3546 158.73 69.3639 158.733 69.3732C158.793 69.562 158.85 69.7639 158.911 69.9935L158.943 70.1157C158.994 70.325 159.033 70.4954 159.065 70.6565C159.07 70.6769 159.076 70.712 159.08 70.7454C159.082 70.7528 159.085 70.7769 159.089 70.7991L159.096 70.8343C159.144 71.0935 159.178 71.312 159.202 71.5157C159.237 71.8083 159.261 72.0972 159.274 72.3769C159.319 73.262 159.267 74.1713 159.122 75.0787L157.867 82.9509L158.602 85.7787L159.204 88.1028C159.248 88.275 159.165 88.4546 159.004 88.5306C158.956 88.5509 158.9 88.5639 158.846 88.5639ZM156.054 83.7602L158.004 86.4176L157.132 83.0583C157.119 83.0083 157.117 82.9565 157.124 82.9065L158.391 74.9583C158.528 74.1009 158.576 73.2435 158.533 72.4102C158.52 72.1472 158.496 71.875 158.465 71.6009C158.443 71.4139 158.411 71.2102 158.369 70.9787C158.367 70.9695 158.361 70.9454 158.357 70.9213L158.35 70.8861C158.348 70.8787 158.346 70.8695 158.346 70.862C158.343 70.8398 158.341 70.8232 158.337 70.8083C158.306 70.6491 158.27 70.488 158.22 70.2917L158.191 70.1732C158.137 69.9657 158.083 69.7806 158.03 69.6083L158.022 69.5898C158.019 69.5824 158.017 69.5732 158.013 69.5657C157.976 69.4509 157.939 69.3361 157.898 69.2232L157.844 69.0917C157.804 68.988 157.765 68.8861 157.724 68.7861L157.694 68.7176C157.659 68.6361 157.626 68.5546 157.589 68.4732C157.556 68.4009 157.52 68.3287 157.485 68.2546L157.417 68.1102C157.402 68.0787 157.387 68.0454 157.37 68.0139C157.354 67.9824 157.337 67.9509 157.319 67.9195L157.294 67.875C157.248 67.788 157.207 67.712 157.165 67.638C157.102 67.5287 157.041 67.425 156.976 67.3213L156.943 67.2676C156.909 67.212 156.874 67.1565 156.839 67.1046C156.835 67.0991 156.832 67.0935 156.828 67.088C156.811 67.0602 156.796 67.0343 156.78 67.0083C156.7 66.888 156.617 66.7695 156.52 66.6398L155.733 65.5676C155.746 65.6157 155.759 65.6657 155.772 65.7157L155.802 65.8324C155.859 66.0657 155.904 66.2695 155.939 66.462C155.944 66.488 155.954 66.5324 155.961 66.5769C156.004 66.8158 156.037 67.0343 156.063 67.238C156.098 67.5306 156.122 67.8195 156.135 68.0991C156.18 68.9843 156.128 69.8935 155.983 70.7991L154.728 78.6732L156.054 83.7602Z" fill="#F7F7F8"/>
<path d="M132.367 108.467L131.519 113.785H126.537H124.433H64.9926H62.8926H57.9111L58.7593 108.467H132.367Z" fill="#D4D4D8"/>
<path d="M131.519 114.156H57.9111C57.8018 114.156 57.7 114.108 57.6296 114.026C57.5593 113.943 57.5278 113.836 57.5463 113.728L58.3944 108.412C58.4222 108.232 58.5778 108.099 58.7611 108.099H132.369C132.478 108.099 132.58 108.147 132.65 108.228C132.72 108.312 132.752 108.419 132.733 108.526L131.885 113.843C131.856 114.023 131.7 114.156 131.519 114.156ZM58.3444 113.415H131.202L131.931 108.839H59.0741L58.3444 113.415Z" fill="#F7F7F8"/>
<path d="M60.7907 140.131L64.9926 113.783H124.433L120.231 140.131C120.152 140.635 119.661 141.046 119.137 141.046H61.5963C61.0703 141.048 60.7111 140.637 60.7907 140.131Z" fill="#F7F7F8"/>
<path d="M119.137 141.419H61.5963C61.2333 141.419 60.8981 141.271 60.6778 141.011C60.4593 140.756 60.3704 140.422 60.4259 140.074L64.6278 113.726C64.6556 113.546 64.8111 113.413 64.9944 113.413H124.435C124.544 113.413 124.646 113.461 124.717 113.543C124.787 113.626 124.819 113.733 124.8 113.841L120.598 140.189C120.487 140.878 119.846 141.419 119.137 141.419ZM65.3093 114.156L61.1574 140.191C61.137 140.322 61.1667 140.443 61.2426 140.532C61.3241 140.626 61.45 140.678 61.5963 140.678H119.137C119.48 140.678 119.813 140.402 119.867 140.074L124 114.156H65.3093Z" fill="#F7F7F8"/>
<path d="M135.944 108.467H132.367H58.7593H51.1371L54.2704 112.739H61.8908H135.498H139.078L135.944 108.467Z" fill="#D4D4D8"/>
<path d="M139.078 113.11H54.2704C54.1519 113.11 54.0408 113.054 53.9723 112.958L50.8389 108.685C50.7556 108.573 50.7445 108.424 50.8074 108.298C50.8704 108.174 50.9982 108.095 51.1371 108.095H135.944C136.063 108.095 136.174 108.15 136.243 108.247L139.376 112.519C139.459 112.632 139.47 112.78 139.407 112.906C139.344 113.03 139.217 113.11 139.078 113.11ZM54.4574 112.369H138.344L135.756 108.837H51.8685L54.4574 112.369Z" fill="#F7F7F8"/>
<path d="M134.65 118.056H61.0445L57.9111 113.785H131.519L134.65 118.056Z" fill="#D4D4D8"/>
<path d="M134.65 118.426H61.0444C60.9259 118.426 60.8148 118.37 60.7463 118.274L57.613 114.004C57.5296 113.891 57.5185 113.743 57.5815 113.617C57.6444 113.493 57.7722 113.413 57.9111 113.413H131.519C131.637 113.413 131.748 113.469 131.817 113.565L134.95 117.835C135.033 117.948 135.044 118.096 134.981 118.222C134.919 118.348 134.791 118.426 134.65 118.426ZM61.2315 117.685H133.92L131.331 114.156H58.6426L61.2315 117.685Z" fill="#F7F7F8"/>
<path d="M126.589 79.4521L125.741 80.917H65.9278L66.1611 79.4521H126.589Z" fill="#F7F7F8"/>
<path d="M125.741 81.2875H65.9259C65.8167 81.2875 65.7148 81.2393 65.6445 81.1579C65.5741 81.0764 65.5426 80.9671 65.5611 80.8597L65.7945 79.393C65.8222 79.2134 65.9778 79.0801 66.1611 79.0801H126.589C126.72 79.0801 126.844 79.1504 126.909 79.2653C126.976 79.3801 126.976 79.5208 126.909 79.6356L126.061 81.1023C125.996 81.2171 125.874 81.2875 125.741 81.2875ZM66.3611 80.5467H125.528L125.948 79.8208H66.4759L66.3611 80.5467Z" fill="#F7F7F8"/>
<path d="M117.389 97.2783L117.156 98.745H77.0704L77.3038 97.2783H117.389Z" fill="#F7F7F8"/>
<path d="M117.156 99.1156H77.0704C76.9612 99.1156 76.8593 99.0675 76.7889 98.986C76.7186 98.9027 76.6871 98.7952 76.7056 98.6878L76.9389 97.2212C76.9667 97.0415 77.1223 96.9082 77.3056 96.9082H117.389C117.498 96.9082 117.6 96.9564 117.67 97.0378C117.741 97.1212 117.772 97.2286 117.754 97.336L117.52 98.8027C117.493 98.9823 117.337 99.1156 117.156 99.1156ZM77.5037 98.3749H116.839L116.954 97.6489H77.6186L77.5037 98.3749Z" fill="#F7F7F8"/>
<path d="M132.798 88.3652L132.563 89.8319H64.5056L64.739 88.3652H132.798Z" fill="#F7F7F8"/>
<path d="M132.563 90.2025H64.5056C64.3963 90.2025 64.2945 90.1544 64.2241 90.0729C64.1537 89.9914 64.1223 89.8822 64.1408 89.7747L64.3741 88.3081C64.4019 88.1284 64.5574 87.9951 64.7408 87.9951H132.798C132.907 87.9951 133.009 88.0433 133.08 88.1247C133.15 88.2062 133.182 88.3155 133.163 88.4229L132.93 89.8896C132.9 90.0692 132.746 90.2025 132.563 90.2025ZM64.9389 89.4618H132.246L132.361 88.7359H65.0556L64.9389 89.4618Z" fill="#F7F7F8"/>
<path d="M144.356 55.7266C145.409 55.7266 146.132 56.5488 145.97 57.5673C145.963 57.6099 145.954 57.6525 145.943 57.6969C148.891 58.1006 151.374 59.4488 153.109 61.4266C154.515 63.0266 155.428 65.0377 155.702 67.2858C155.735 67.5599 155.759 67.8395 155.772 68.121C155.815 68.9692 155.769 69.8469 155.624 70.7451L154.356 78.6932L155.109 81.5969L155.713 83.921H154.739H153.522H139.857H126.193H124.002L125.741 80.9173L126.589 79.4506L127.028 78.6914L128.065 72.1858L128.294 70.7432C128.793 67.6247 130.372 64.758 132.611 62.5025C133.354 61.7543 134.167 61.0747 135.037 60.4729C137.144 59.0173 139.585 58.0303 142.139 57.6932C142.143 57.6506 142.146 57.608 142.152 57.5655C142.317 56.5488 143.302 55.7266 144.356 55.7266Z" fill="#D4D4D8"/>
<path d="M155.715 84.2935H124.004C123.872 84.2935 123.748 84.2231 123.683 84.1083C123.617 83.9935 123.617 83.8527 123.683 83.7379L126.674 78.5694L127.932 70.6879C128.428 67.5787 129.956 64.6583 132.35 62.2435C133.107 61.4805 133.941 60.7824 134.83 60.1694C136.957 58.7009 139.367 57.7342 141.817 57.3676C142.07 56.2472 143.18 55.3564 144.356 55.3564C144.983 55.3564 145.537 55.599 145.915 56.0416C146.232 56.412 146.387 56.8842 146.361 57.3861C149.154 57.849 151.639 59.1879 153.387 61.1824C154.863 62.8639 155.791 64.9601 156.069 67.2416C156.104 67.525 156.128 67.8138 156.143 68.1027C156.187 68.9861 156.135 69.8953 155.991 70.8046L154.735 78.6768L156.074 83.8305C156.104 83.9416 156.078 84.0601 156.009 84.1509C155.937 84.2398 155.83 84.2935 155.715 84.2935ZM124.644 83.5527H155.235L153.998 78.7879C153.985 78.7379 153.983 78.6861 153.991 78.6361L155.259 70.6879C155.396 69.8305 155.444 68.9731 155.404 68.1398C155.391 67.8694 155.367 67.5972 155.335 67.3305C155.076 65.1972 154.211 63.2398 152.832 61.6694C151.098 59.6935 148.7 58.4472 145.893 58.062C145.789 58.0472 145.696 57.9916 145.637 57.9046C145.578 57.8194 145.557 57.712 145.582 57.6101C145.591 57.5694 145.598 57.5379 145.604 57.5064C145.663 57.1324 145.574 56.7805 145.35 56.5194C145.117 56.2453 144.763 56.0953 144.356 56.0953C143.478 56.0953 142.654 56.7805 142.52 57.6231C142.515 57.6564 142.513 57.6898 142.509 57.7231C142.496 57.8972 142.361 58.0379 142.189 58.062C139.759 58.3824 137.361 59.3213 135.25 60.7787C134.4 61.3657 133.6 62.0342 132.876 62.7639C130.624 65.0342 129.128 67.8898 128.663 70.8027L127.394 78.7509C127.387 78.7953 127.372 78.8379 127.35 78.8787L124.644 83.5527Z" fill="#F7F7F8"/>
<path d="M156.522 71.5469C157.176 71.5469 157.626 72.0598 157.526 72.6913C157.424 73.3247 156.813 73.8358 156.157 73.8358C155.502 73.8358 155.052 73.3228 155.152 72.6913C155.254 72.0598 155.867 71.5469 156.522 71.5469Z" fill="#D4D4D8"/>
<path d="M158.641 58.3213C159.369 58.3213 159.872 58.9361 159.702 59.6454L157.22 70.3917C157.159 70.6546 156.902 70.8528 156.635 70.8528C156.624 70.8528 156.611 70.8528 156.6 70.8509C156.344 70.8343 156.174 70.6343 156.196 70.3917L157.143 59.6454C157.202 58.9639 157.83 58.3713 158.546 58.325C158.576 58.3231 158.607 58.3213 158.641 58.3213Z" fill="#D4D4D8"/>
<path d="M159.106 55.3457C165.252 55.3457 169.465 60.1513 168.52 66.079C167.574 72.0087 161.828 76.8124 155.682 76.8124C149.533 76.8124 145.319 72.0087 146.265 66.079C147.211 60.1513 152.959 55.3457 159.106 55.3457Z" fill="#D4D4D8"/>
<path d="M155.683 77.3026C152.515 77.3026 149.737 76.0934 147.863 73.8971C146.048 71.7693 145.309 68.9656 145.782 66.0008C146.761 59.8545 152.739 54.8545 159.107 54.8545C162.274 54.8545 165.052 56.0637 166.926 58.26C168.741 60.3878 169.482 63.1915 169.007 66.1563C168.026 72.3026 162.05 77.3026 155.683 77.3026ZM159.106 55.836C153.2 55.836 147.657 60.4656 146.75 66.1545C146.324 68.8304 146.983 71.3526 148.609 73.2582C150.294 75.2323 152.806 76.3193 155.682 76.3193C161.585 76.3193 167.128 71.6897 168.035 66.0008C168.461 63.3249 167.802 60.8026 166.176 58.8971C164.493 56.9249 161.982 55.836 159.106 55.836Z" fill="#F7F7F8"/>
<path d="M159.7 59.6454C159.87 58.9361 159.367 58.3213 158.639 58.3213C158.607 58.3213 158.574 58.3231 158.541 58.325C157.824 58.3713 157.196 58.9639 157.137 59.6454L156.191 70.3917C156.169 70.6361 156.339 70.8343 156.594 70.8509C156.606 70.8509 156.619 70.8528 156.63 70.8528C156.898 70.8528 157.156 70.6546 157.215 70.3917L159.7 59.6454Z" fill="#F7F7F8"/>
<path d="M156.632 71.343C156.607 71.343 156.583 71.343 156.561 71.3412C156.307 71.3245 156.078 71.2116 155.917 71.0245C155.757 70.8393 155.682 70.5986 155.704 70.3486L156.65 59.6023C156.73 58.6745 157.546 57.8967 158.511 57.8356C158.552 57.8319 158.596 57.8301 158.641 57.8301C159.144 57.8301 159.604 58.0467 159.902 58.4227C160.193 58.793 160.294 59.2801 160.18 59.7579L157.698 70.5023C157.587 70.9819 157.13 71.343 156.632 71.343ZM158.641 58.8116C158.62 58.8116 158.6 58.8116 158.578 58.8134C158.1 58.8449 157.667 59.243 157.628 59.6856L156.691 70.3375C156.715 70.3208 156.735 70.2986 156.739 70.2782L159.222 59.5319C159.222 59.5301 159.222 59.5282 159.224 59.5282C159.269 59.3412 159.235 59.1634 159.13 59.0282C159.019 58.8893 158.844 58.8116 158.641 58.8116Z" fill="#F7F7F8"/>
<path d="M156.157 73.8377C156.811 73.8377 157.424 73.3248 157.526 72.6933C157.628 72.0599 157.178 71.5488 156.522 71.5488C155.867 71.5488 155.254 72.0618 155.152 72.6933C155.052 73.3266 155.5 73.8377 156.157 73.8377Z" fill="#F7F7F8"/>
<path d="M156.157 74.3289C155.694 74.3289 155.269 74.14 154.989 73.8122C154.711 73.4863 154.596 73.0603 154.667 72.6159C154.806 71.7418 155.62 71.0566 156.522 71.0566C156.983 71.0566 157.409 71.2455 157.689 71.5733C157.967 71.8992 158.082 72.3252 158.011 72.7715C157.87 73.6455 157.057 74.3289 156.157 74.3289ZM156.522 72.04C156.106 72.04 155.7 72.3752 155.637 72.7715C155.611 72.9307 155.646 73.0696 155.735 73.1752C155.83 73.2863 155.98 73.3474 156.156 73.3474C156.57 73.3474 156.976 73.0122 157.039 72.6159C157.065 72.4566 157.03 72.3177 156.941 72.2122C156.846 72.1011 156.698 72.04 156.522 72.04Z" fill="#F7F7F8"/>
<path d="M155.715 83.9229H154.741H153.522H139.859H126.194H124.004L127.135 88.1932H129.328H142.993H156.656H157.874H158.848L155.715 83.9229Z" fill="#D4D4D8"/>
<path d="M158.848 88.5637H127.135C127.017 88.5637 126.906 88.5082 126.837 88.4119L123.704 84.1415C123.62 84.0286 123.609 83.8804 123.672 83.7545C123.735 83.6304 123.863 83.5508 124.002 83.5508H155.713C155.831 83.5508 155.943 83.6063 156.011 83.7026L159.144 87.9749C159.228 88.0878 159.239 88.236 159.176 88.3619C159.115 88.486 158.987 88.5637 158.848 88.5637ZM127.324 87.823H158.117L155.528 84.2915H124.733L127.324 87.823Z" fill="#F7F7F8"/>
<path d="M146.176 90.441C146.189 90.415 146.202 90.3891 146.215 90.3632C146.224 90.3447 146.233 90.3261 146.243 90.3058C146.28 90.2243 146.313 90.1428 146.345 90.0595C146.348 90.0484 146.352 90.0372 146.356 90.0261C146.389 89.9317 146.42 89.8372 146.446 89.741C146.454 89.7132 146.461 89.6854 146.469 89.6576C146.496 89.5502 146.52 89.441 146.537 89.3298L143.404 85.0576C143.385 85.1687 143.361 85.2761 143.335 85.3854C143.328 85.4132 143.32 85.441 143.313 85.4687C143.287 85.565 143.256 85.6613 143.222 85.7539C143.219 85.765 143.215 85.7761 143.211 85.7872C143.172 85.891 143.128 85.991 143.082 86.091C143.069 86.1169 143.056 86.1428 143.043 86.1687C143.002 86.2521 142.957 86.3335 142.911 86.4132C142.9 86.4317 142.891 86.4502 142.88 86.4687C142.856 86.5076 142.83 86.5447 142.806 86.5817C142.756 86.6576 142.706 86.7335 142.652 86.8058C142.617 86.8539 142.578 86.9002 142.541 86.9465C142.498 86.9984 142.457 87.0502 142.413 87.1021C142.37 87.1521 142.324 87.1984 142.28 87.2447C142.239 87.2872 142.2 87.3298 142.157 87.3706C142.107 87.4187 142.057 87.4632 142.006 87.5095C141.965 87.5465 141.924 87.5835 141.882 87.6187C141.83 87.6613 141.774 87.7021 141.72 87.7428C141.674 87.778 141.63 87.8132 141.582 87.8465C141.532 87.8817 141.482 87.9113 141.43 87.9447C141.372 87.9817 141.315 88.0206 141.256 88.0539C141.213 88.0798 141.167 88.1002 141.124 88.1243C141.048 88.165 140.97 88.2058 140.893 88.2428C140.798 88.2872 140.702 88.3298 140.604 88.3669C140.604 88.3669 140.602 88.3669 140.602 88.3687C140.5 88.4076 140.395 88.441 140.289 88.4743C140.248 88.4872 140.207 88.4965 140.165 88.5076C140.091 88.528 140.017 88.5447 139.941 88.5613C139.898 88.5706 139.856 88.5798 139.813 88.5872C139.733 88.6021 139.654 88.6132 139.574 88.6224C139.537 88.6261 139.498 88.6317 139.461 88.6354C139.343 88.6465 139.224 88.6521 139.106 88.6521C138.915 88.6521 138.733 88.6335 138.556 88.6076L135.952 85.0576C135.935 85.165 135.924 85.2706 135.917 85.3761C135.915 85.4113 135.915 85.4447 135.913 85.4798C135.911 85.5502 135.907 85.6187 135.909 85.6872C135.911 85.728 135.915 85.7669 135.917 85.8076C135.92 85.8687 135.924 85.9298 135.932 85.9891C135.937 86.0298 135.943 86.0706 135.95 86.1113C135.956 86.1484 135.959 86.1872 135.967 86.2243C135.97 86.2465 135.978 86.2669 135.982 86.2891C135.987 86.3187 135.995 86.3465 136.002 86.3743C136.019 86.441 136.037 86.5058 136.057 86.5687C136.065 86.5928 136.072 86.6169 136.08 86.6391C136.083 86.6484 136.085 86.6595 136.089 86.6687C136.096 86.691 136.109 86.7113 136.117 86.7335C136.146 86.8113 136.18 86.8872 136.215 86.9613C136.222 86.9761 136.228 86.9928 136.235 87.0095C136.246 87.0317 136.261 87.0502 136.272 87.0724C136.302 87.128 136.333 87.1817 136.369 87.2354C136.382 87.2558 136.391 87.278 136.406 87.2965C136.43 87.3317 136.454 87.3669 136.48 87.4021L139.613 91.6743C139.613 91.6743 139.613 91.6724 139.611 91.6724L139.613 91.6743C140.174 92.4391 141.109 92.9243 142.239 92.9243C142.357 92.9243 142.476 92.9169 142.595 92.9076C142.632 92.9039 142.67 92.8984 142.707 92.8947C142.787 92.8854 142.869 92.8743 142.946 92.8595C142.989 92.8521 143.032 92.8428 143.074 92.8335C143.15 92.8169 143.224 92.8002 143.298 92.7798C143.339 92.7687 143.38 92.7576 143.422 92.7465C143.445 92.7409 143.465 92.7354 143.487 92.728C143.57 92.7021 143.654 92.6724 143.735 92.641H143.737C143.819 92.6095 143.898 92.5761 143.976 92.541C143.993 92.5335 144.009 92.5243 144.026 92.515C144.106 92.478 144.182 92.4372 144.257 92.3965C144.291 92.378 144.326 92.3632 144.359 92.3447C144.369 92.3391 144.38 92.3317 144.389 92.3261C144.448 92.291 144.506 92.2539 144.563 92.2169C144.606 92.191 144.648 92.1669 144.689 92.1372C144.698 92.1317 144.706 92.1243 144.715 92.1187C144.763 92.0854 144.807 92.0502 144.854 92.015C144.898 91.9817 144.943 91.9502 144.985 91.9169C144.995 91.9095 145.004 91.9002 145.013 91.8928C145.056 91.8576 145.096 91.8206 145.137 91.7835C145.178 91.7484 145.219 91.715 145.257 91.678C145.269 91.6669 145.278 91.6558 145.289 91.6465C145.332 91.6058 145.37 91.5632 145.411 91.5206C145.445 91.4854 145.482 91.4502 145.515 91.415C145.526 91.4039 145.535 91.3891 145.546 91.378C145.591 91.328 145.632 91.2761 145.674 91.2224C145.704 91.1872 145.733 91.1521 145.761 91.1169C145.769 91.1058 145.776 91.0947 145.783 91.0835C145.837 91.0113 145.887 90.9354 145.937 90.8595C145.957 90.8298 145.98 90.8002 145.998 90.7687C146.002 90.7613 146.007 90.7539 146.011 90.7465C146.022 90.728 146.032 90.7095 146.043 90.691C146.091 90.6039 146.135 90.5224 146.176 90.441Z" fill="#D4D4D8"/>
<path d="M142.237 93.2929C141.035 93.2929 139.972 92.7855 139.319 91.8985C139.317 91.8967 139.315 91.8929 139.313 91.8911L136.18 87.6189C136.152 87.58 136.124 87.5411 136.096 87.5004C136.083 87.4818 136.072 87.4615 136.061 87.4411C136.017 87.3707 135.982 87.3096 135.948 87.2485C135.93 87.217 135.917 87.1985 135.907 87.1763C135.898 87.1596 135.891 87.1411 135.883 87.1207C135.844 87.0392 135.807 86.9541 135.774 86.867C135.759 86.8374 135.75 86.8152 135.743 86.7929C135.741 86.7874 135.733 86.7652 135.732 86.7596C135.726 86.7411 135.719 86.7226 135.713 86.7041L135.706 86.6818C135.683 86.6096 135.661 86.5374 135.643 86.4633C135.635 86.4318 135.628 86.3985 135.62 86.367C135.611 86.3318 135.607 86.3133 135.604 86.2948C135.598 86.2652 135.594 86.2337 135.589 86.2041L135.58 86.1448C135.574 86.1078 135.567 86.0689 135.563 86.03C135.556 85.9633 135.55 85.8948 135.546 85.8263L135.544 85.7929C135.543 85.7596 135.541 85.7263 135.539 85.6929C135.537 85.617 135.539 85.5392 135.543 85.4633V85.43C135.543 85.4022 135.544 85.3763 135.546 85.3485C135.556 85.2263 135.569 85.1096 135.585 84.9967C135.609 84.8485 135.719 84.73 135.865 84.6948C136.011 84.6596 136.163 84.7152 136.25 84.8355L138.759 88.2578C138.996 88.2855 139.178 88.2855 139.426 88.2633C139.446 88.2615 139.465 88.2596 139.485 88.2559L139.528 88.2504C139.602 88.2411 139.674 88.2318 139.746 88.2189C139.785 88.2115 139.824 88.2041 139.863 88.1967C139.932 88.1818 140 88.1652 140.069 88.1485L140.087 88.1429C140.119 88.1337 140.15 88.1263 140.182 88.117C140.294 88.0837 140.383 88.0541 140.463 88.0226C140.465 88.0207 140.469 88.0207 140.47 88.0189C140.559 87.9837 140.648 87.9448 140.735 87.9041C140.807 87.8707 140.878 87.8337 140.948 87.7948L140.996 87.7689C141.02 87.7559 141.044 87.7429 141.069 87.73C141.111 87.7059 141.154 87.6781 141.194 87.6504L141.274 87.6004C141.306 87.58 141.337 87.5615 141.369 87.5392C141.398 87.5189 141.428 87.4966 141.456 87.4744L141.53 87.4189C141.569 87.3892 141.607 87.3596 141.644 87.33C141.67 87.3078 141.696 87.2855 141.722 87.2615L141.774 87.2152C141.817 87.1781 141.857 87.1411 141.898 87.1022C141.928 87.0744 141.954 87.0448 141.982 87.017L142.009 86.9874C142.059 86.9355 142.096 86.8966 142.133 86.8559C142.169 86.817 142.2 86.7763 142.233 86.7355L142.276 86.6837C142.302 86.6522 142.328 86.6189 142.354 86.5855C142.404 86.5189 142.448 86.4485 142.494 86.38L142.528 86.3281C142.539 86.3115 142.552 86.2948 142.561 86.2763L142.589 86.2263C142.632 86.1522 142.672 86.0781 142.709 86.0022L142.744 85.93C142.793 85.83 142.83 85.7392 142.861 85.6541C142.863 85.6504 142.87 85.6281 142.872 85.6226C142.904 85.5374 142.93 85.4504 142.954 85.3633C142.961 85.3374 142.967 85.3133 142.974 85.2874C143.004 85.1744 143.022 85.08 143.037 84.9929C143.061 84.8448 143.17 84.7263 143.317 84.6911C143.461 84.6559 143.615 84.7115 143.702 84.8318L146.835 89.1041C146.894 89.1837 146.919 89.2837 146.902 89.3818C146.885 89.4911 146.861 89.6059 146.826 89.7411C146.819 89.7726 146.809 89.8022 146.802 89.8337C146.77 89.9467 146.737 90.0485 146.702 90.1467L146.689 90.1837C146.656 90.2744 146.619 90.3633 146.578 90.4522C146.57 90.4689 146.563 90.4837 146.556 90.4985L146.513 90.5837L146.174 90.4337L146.506 90.5985C146.461 90.6892 146.413 90.7781 146.361 90.8652L146.313 90.9485C146.298 90.9744 146.282 90.9967 146.265 91.0207L146.246 91.0485C146.193 91.1318 146.139 91.2133 146.08 91.293C146.072 91.3041 146.065 91.317 146.056 91.33C146.035 91.3578 146.013 91.3837 145.991 91.4096L145.948 91.4615C145.907 91.5115 145.867 91.5633 145.824 91.6115C145.811 91.6263 145.802 91.6392 145.791 91.6522C145.767 91.68 145.741 91.7059 145.715 91.7318L145.654 91.7948C145.619 91.8318 145.583 91.867 145.548 91.9022C145.535 91.917 145.524 91.9263 145.513 91.9374C145.483 91.9652 145.454 91.9911 145.422 92.017L145.348 92.0818C145.315 92.1115 145.282 92.1411 145.248 92.1689C145.239 92.1781 145.228 92.1874 145.219 92.1948C145.187 92.2207 145.154 92.2448 145.12 92.2689L145.039 92.33C145.002 92.3578 144.965 92.3874 144.926 92.4133C144.919 92.4189 144.909 92.4263 144.898 92.4337C144.867 92.4541 144.835 92.4744 144.804 92.4929L144.728 92.5411C144.676 92.5744 144.626 92.6059 144.572 92.6374C144.563 92.6429 144.552 92.6504 144.539 92.6578C144.515 92.6726 144.487 92.6855 144.461 92.6985L144.43 92.7133C144.346 92.7578 144.263 92.8022 144.178 92.8411C144.157 92.8522 144.141 92.8615 144.124 92.8689C144.039 92.9078 143.952 92.943 143.865 92.9763C143.774 93.0115 143.685 93.0429 143.594 93.0707C143.576 93.0763 143.559 93.0818 143.541 93.0855C143.483 93.1022 143.444 93.1133 143.404 93.1226C143.309 93.1485 143.228 93.167 143.146 93.1837C143.1 93.1929 143.054 93.2022 143.007 93.2115C142.92 93.2263 142.833 93.2392 142.746 93.2485L142.709 93.2522C142.68 93.2559 142.652 93.2596 142.622 93.2615C142.485 93.2855 142.359 93.2929 142.237 93.2929ZM139.915 91.4578C140.435 92.1559 141.278 92.5522 142.239 92.5522C142.337 92.5522 142.443 92.5467 142.561 92.5355C142.58 92.5337 142.6 92.5318 142.62 92.5281L142.665 92.5226C142.737 92.5133 142.811 92.5041 142.883 92.4911C142.922 92.4837 142.961 92.4763 143 92.4689C143.069 92.4541 143.137 92.4374 143.204 92.4207C143.252 92.4078 143.283 92.3985 143.317 92.3892L143.359 92.3781C143.452 92.3485 143.528 92.3226 143.604 92.2948C143.68 92.2652 143.754 92.2355 143.826 92.2022C143.843 92.193 143.857 92.1855 143.87 92.1781C143.943 92.1448 144.013 92.1078 144.083 92.0689C144.102 92.0578 144.122 92.0485 144.143 92.0392C144.154 92.0337 144.167 92.0281 144.178 92.0207C144.185 92.0152 144.196 92.0096 144.206 92.0022C144.248 91.9781 144.289 91.9504 144.33 91.9244L144.424 91.8652C144.444 91.8541 144.463 91.8411 144.483 91.8281L144.506 91.8115C144.535 91.7911 144.565 91.7689 144.593 91.7467L144.689 91.6744C144.711 91.6578 144.733 91.6411 144.756 91.6244C144.761 91.6207 144.778 91.6041 144.783 91.6004C144.809 91.58 144.833 91.5578 144.859 91.5337L144.946 91.4578C144.967 91.4392 144.989 91.4226 145.007 91.4041C145.019 91.3929 145.026 91.3837 145.037 91.3744C145.067 91.3467 145.094 91.317 145.122 91.2874L145.196 91.2115C145.213 91.1948 145.23 91.1781 145.246 91.1596C145.256 91.1467 145.265 91.1355 145.274 91.1244C145.309 91.0837 145.343 91.0429 145.376 91.0004L145.391 90.9818C145.406 90.9652 145.419 90.9467 145.433 90.93C145.446 90.9152 145.459 90.9004 145.47 90.8837C145.476 90.8763 145.483 90.8633 145.491 90.8522C145.541 90.7855 145.587 90.7152 145.632 90.6448C145.643 90.6281 145.656 90.6096 145.669 90.5911C145.676 90.5818 145.683 90.5726 145.689 90.5615L145.73 90.4911C145.772 90.417 145.813 90.343 145.85 90.2689L145.857 90.2522L145.909 90.1448C145.943 90.0707 145.972 89.9967 146.002 89.9207C146.004 89.917 146.011 89.8929 146.013 89.8892C146.043 89.8059 146.07 89.7189 146.094 89.6318L146.115 89.5559C146.128 89.5041 146.139 89.4541 146.15 89.4096L143.57 85.8911L143.565 85.9096C143.526 86.0115 143.48 86.1207 143.424 86.2411L143.389 86.3133C143.337 86.4152 143.291 86.5041 143.239 86.5929L143.206 86.6522C143.187 86.6818 143.169 86.7096 143.15 86.7374L143.126 86.7744C143.072 86.8578 143.019 86.9392 142.959 87.0189C142.928 87.0615 142.896 87.1022 142.863 87.1411L142.822 87.1911C142.783 87.2411 142.743 87.2892 142.7 87.3374C142.657 87.3855 142.611 87.4337 142.567 87.48L142.528 87.5207C142.493 87.5578 142.459 87.5929 142.422 87.6281C142.374 87.6744 142.324 87.7189 142.274 87.7633L142.226 87.8059C142.193 87.8355 142.159 87.8652 142.124 87.8948C142.078 87.9337 142.03 87.9689 141.982 88.0041L141.913 88.0559C141.876 88.0837 141.839 88.1133 141.8 88.1392C141.759 88.167 141.719 88.1929 141.678 88.2189L141.606 88.2652C141.554 88.2985 141.502 88.3318 141.45 88.3615C141.417 88.3818 141.382 88.3985 141.348 88.417L141.307 88.4392C141.226 88.4837 141.143 88.5263 141.057 88.567C140.956 88.6152 140.854 88.6596 140.75 88.7004C140.743 88.7041 140.735 88.7059 140.728 88.7096C140.644 88.7411 140.537 88.7781 140.404 88.817C140.365 88.8281 140.328 88.8392 140.289 88.8485L140.27 88.8541C140.189 88.8763 140.107 88.8948 140.026 88.9115C139.98 88.9207 139.933 88.93 139.887 88.9392C139.8 88.9541 139.713 88.967 139.626 88.9763L139.591 88.98C139.561 88.9837 139.532 88.9874 139.502 88.9911C139.143 89.0226 138.878 89.0152 138.509 88.9615C138.411 88.9467 138.324 88.8948 138.265 88.8133L136.356 86.2096C136.361 86.23 136.365 86.2522 136.37 86.2726C136.385 86.33 136.402 86.3874 136.419 86.4429L136.439 86.5059C136.441 86.5115 136.446 86.53 136.448 86.5355C136.457 86.5541 136.465 86.5707 136.472 86.5892C136.498 86.6559 136.526 86.7226 136.559 86.7874C136.567 86.8022 136.574 86.8189 136.58 86.8337C136.593 86.8522 136.6 86.867 136.609 86.8837C136.635 86.9318 136.663 86.98 136.693 87.0263C136.702 87.0411 136.711 87.0578 136.72 87.0726C136.744 87.1115 136.767 87.1411 136.789 87.1726L139.917 91.4374C139.909 91.4504 139.911 91.4541 139.915 91.4578Z" fill="#F7F7F8"/>
<path d="M143.406 85.0557C143.089 87.039 141.165 88.6483 139.106 88.6501C137.048 88.6501 135.635 87.039 135.952 85.0557H139.678H143.406Z" fill="#D4D4D8"/>
<path d="M139.106 89.0207C137.983 89.0207 136.998 88.5893 136.33 87.8078C135.682 87.0485 135.417 86.0504 135.585 84.9985C135.613 84.8189 135.769 84.6855 135.952 84.6855H143.406C143.515 84.6855 143.617 84.7337 143.687 84.8152C143.757 84.8985 143.789 85.0059 143.77 85.1133C143.428 87.267 141.333 89.0207 139.106 89.0207ZM136.283 85.4263C136.241 86.143 136.452 86.8096 136.894 87.3263C137.419 87.9411 138.204 88.28 139.106 88.28C140.835 88.28 142.467 87.0337 142.943 85.4263H136.283Z" fill="#F7F7F8"/>
</svg>
