<svg width="26" height="26" viewBox="0 0 26 26" fill="none" xmlns="http://www.w3.org/2000/svg">
<path opacity="0.2" d="M25.9293 13.0003C25.9293 20.1422 20.1397 25.9319 12.9979 25.9319C5.856 25.9319 0.0664062 20.1422 0.0664062 13.0003C0.0664062 5.85844 5.856 0.0688477 12.9979 0.0688477C20.1397 0.0688477 25.9293 5.85844 25.9293 13.0003Z" fill="#505050"/>
<g opacity="0.8">
<path d="M12.9563 7L12.8765 7.27148V15.1493L12.9563 15.229L16.6131 13.0675L12.9563 7Z" fill="white"/>
<path d="M12.9566 7L9.2998 13.0675L12.9566 15.229V11.4054V7Z" fill="white"/>
<path d="M12.9566 16.4187L12.9116 16.4736V19.2798L12.9566 19.4113L16.6156 14.2583L12.9566 16.4187Z" fill="white"/>
<path d="M12.9566 19.4113V16.4187L9.2998 14.2583L12.9566 19.4113Z" fill="white"/>
<path d="M12.9565 15.2291L16.6133 13.0676L12.9565 11.4055V15.2291Z" fill="white"/>
<path d="M9.2998 13.0674L12.9565 15.2289V11.4053L9.2998 13.0674Z" fill="white"/>
</g>
</svg>
