<svg width="40" height="40" viewBox="0 0 40 40" fill="none" xmlns="http://www.w3.org/2000/svg">
<rect width="40" height="40" rx="20" fill="#EA580C"/>
<path d="M12.1875 20C12.0217 20 11.8628 19.9342 11.7456 19.8169C11.6283 19.6997 11.5625 19.5408 11.5625 19.375C11.5625 19.2092 11.6283 19.0503 11.7456 18.9331C11.8628 18.8158 12.0217 18.75 12.1875 18.75H14.375C14.5408 18.75 14.6997 18.6842 14.8169 18.5669C14.9342 18.4497 15 18.2908 15 18.125C15 17.9592 14.9342 17.8003 14.8169 17.6831C14.6997 17.5658 14.5408 17.5 14.375 17.5H13.125C12.6277 17.5 12.1508 17.3025 11.7992 16.9508C11.4475 16.5992 11.25 16.1223 11.25 15.625C11.25 15.1277 11.4475 14.6508 11.7992 14.2992C12.1508 13.9475 12.6277 13.75 13.125 13.75C13.125 13.5842 13.1908 13.4253 13.3081 13.3081C13.4253 13.1908 13.5842 13.125 13.75 13.125C13.9158 13.125 14.0747 13.1908 14.1919 13.3081C14.3092 13.4253 14.375 13.5842 14.375 13.75H15C15.1658 13.75 15.3247 13.8158 15.4419 13.9331C15.5592 14.0503 15.625 14.2092 15.625 14.375C15.625 14.5408 15.5592 14.6997 15.4419 14.8169C15.3247 14.9342 15.1658 15 15 15H13.125C12.9592 15 12.8003 15.0658 12.6831 15.1831C12.5658 15.3003 12.5 15.4592 12.5 15.625C12.5 15.7908 12.5658 15.9497 12.6831 16.0669C12.8003 16.1842 12.9592 16.25 13.125 16.25H14.375C14.8723 16.25 15.3492 16.4475 15.7008 16.7992C16.0525 17.1508 16.25 17.6277 16.25 18.125C16.25 18.6223 16.0525 19.0992 15.7008 19.4508C15.3492 19.8025 14.8723 20 14.375 20C14.375 20.1658 14.3092 20.3247 14.1919 20.4419C14.0747 20.5592 13.9158 20.625 13.75 20.625C13.5842 20.625 13.4253 20.5592 13.3081 20.4419C13.1908 20.3247 13.125 20.1658 13.125 20H12.1875ZM27.5 13.75H17.5C17.3342 13.75 17.1753 13.8158 17.0581 13.9331C16.9408 14.0503 16.875 14.2092 16.875 14.375C16.875 14.5408 16.9408 14.6997 17.0581 14.8169C17.1753 14.9342 17.3342 15 17.5 15H26.875V17.5H18.125C17.9592 17.5 17.8003 17.5658 17.6831 17.6831C17.5658 17.8003 17.5 17.9592 17.5 18.125C17.5 18.2908 17.5658 18.4497 17.6831 18.5669C17.8003 18.6842 17.9592 18.75 18.125 18.75H22.5V21.25H16.25C16.0842 21.25 15.9253 21.3158 15.8081 21.4331C15.6908 21.5503 15.625 21.7092 15.625 21.875C15.625 22.0408 15.6908 22.1997 15.8081 22.3169C15.9253 22.4342 16.0842 22.5 16.25 22.5H22.5V25H13.125V21.875C13.125 21.7092 13.0592 21.5503 12.9419 21.4331C12.8247 21.3158 12.6658 21.25 12.5 21.25C12.3342 21.25 12.1753 21.3158 12.0581 21.4331C11.9408 21.5503 11.875 21.7092 11.875 21.875V25C11.875 25.3315 12.0067 25.6495 12.2411 25.8839C12.4755 26.1183 12.7935 26.25 13.125 26.25H26.875C27.2065 26.25 27.5245 26.1183 27.7589 25.8839C27.9933 25.6495 28.125 25.3315 28.125 25V14.375C28.125 14.2092 28.0592 14.0503 27.9419 13.9331C27.8247 13.8158 27.6658 13.75 27.5 13.75Z" fill="white"/>
</svg>
