<svg width="21" height="20" viewBox="0 0 21 20" fill="none" xmlns="http://www.w3.org/2000/svg">
<path d="M11.5454 5.05151L12.4048 4.19214C12.743 3.85382 13.1446 3.58545 13.5865 3.40234C14.0285 3.21924 14.5022 3.125 14.9806 3.125C15.4589 3.125 15.9326 3.21924 16.3746 3.40234C16.8166 3.58545 17.2181 3.85382 17.5563 4.19214C17.8947 4.53036 18.163 4.93192 18.3461 5.37387C18.5292 5.81583 18.6235 6.28953 18.6235 6.76792C18.6235 7.24631 18.5292 7.72 18.3461 8.16196C18.163 8.60392 17.8947 9.00548 17.5563 9.3437L15.6516 11.2484L14.8438 12.0562C14.5052 12.3949 14.1031 12.6635 13.6606 12.8466C13.2181 13.0297 12.7438 13.1238 12.2649 13.1234C11.786 13.123 11.3118 13.0283 10.8696 12.8445C10.4274 12.6607 10.0257 12.3915 9.68758 12.0523C9.33762 11.7025 9.06285 11.2848 8.88014 10.8249C8.69743 10.3651 8.61063 9.8727 8.62508 9.37808" stroke="#71717A" stroke-width="1.5" stroke-linecap="round" stroke-linejoin="round"/>
<path d="M9.45461 14.9468L8.59524 15.8062C8.25662 16.1449 7.85455 16.4135 7.41202 16.5966C6.9695 16.7797 6.49522 16.8738 6.0163 16.8734C5.53739 16.873 5.06324 16.7783 4.621 16.5945C4.17875 16.4107 3.77709 16.1415 3.43899 15.8023C2.75773 15.1187 2.37559 14.1926 2.37647 13.2275C2.37735 12.2624 2.76117 11.337 3.44367 10.6546L6.15617 7.94214C6.4944 7.60382 6.89595 7.33545 7.33791 7.15234C7.77987 6.96924 8.25357 6.875 8.73195 6.875C9.21034 6.875 9.68404 6.96924 10.126 7.15234C10.568 7.33545 10.9695 7.60382 11.3077 7.94214C11.6591 8.29195 11.9351 8.71006 12.1187 9.17068C12.3022 9.63129 12.3894 10.1246 12.3749 10.6203" stroke="#71717A" stroke-width="1.5" stroke-linecap="round" stroke-linejoin="round"/>
</svg>
