<svg width="48" height="48" viewBox="0 0 48 48" fill="none" xmlns="http://www.w3.org/2000/svg">
<path d="M39 6H9C8.20435 6 7.44129 6.31607 6.87868 6.87868C6.31607 7.44129 6 8.20435 6 9V39C6 39.7957 6.31607 40.5587 6.87868 41.1213C7.44129 41.6839 8.20435 42 9 42H39C39.7957 42 40.5587 41.6839 41.1213 41.1213C41.6839 40.5587 42 39.7957 42 39V9C42 8.20435 41.6839 7.44129 41.1213 6.87868C40.5587 6.31607 39.7957 6 39 6ZM22.0613 28.0613L16.0613 34.0613C15.9219 34.2007 15.7565 34.3114 15.5744 34.3868C15.3923 34.4623 15.1971 34.5012 15 34.5012C14.8029 34.5012 14.6077 34.4623 14.4256 34.3868C14.2435 34.3114 14.0781 34.2007 13.9387 34.0613L10.9388 31.0613C10.6573 30.7798 10.4992 30.398 10.4992 30C10.4992 29.602 10.6573 29.2202 10.9388 28.9387C11.2202 28.6573 11.602 28.4992 12 28.4992C12.398 28.4992 12.7798 28.6573 13.0613 28.9387L15 30.8794L19.9387 25.9387C20.2202 25.6573 20.602 25.4992 21 25.4992C21.398 25.4992 21.7798 25.6573 22.0613 25.9387C22.3427 26.2202 22.5008 26.602 22.5008 27C22.5008 27.398 22.3427 27.7798 22.0613 28.0613ZM22.0613 16.0613L16.0613 22.0613C15.9219 22.2007 15.7565 22.3114 15.5744 22.3868C15.3923 22.4623 15.1971 22.5012 15 22.5012C14.8029 22.5012 14.6077 22.4623 14.4256 22.3868C14.2435 22.3114 14.0781 22.2007 13.9387 22.0613L10.9388 19.0613C10.7994 18.9219 10.6888 18.7564 10.6134 18.5743C10.538 18.3923 10.4992 18.1971 10.4992 18C10.4992 17.602 10.6573 17.2202 10.9388 16.9387C11.2202 16.6573 11.602 16.4992 12 16.4992C12.398 16.4992 12.7798 16.6573 13.0613 16.9387L15 18.8794L19.9387 13.9387C20.2202 13.6573 20.602 13.4992 21 13.4992C21.398 13.4992 21.7798 13.6573 22.0613 13.9387C22.3427 14.2202 22.5008 14.602 22.5008 15C22.5008 15.398 22.3427 15.7798 22.0613 16.0613ZM36 31.5H27C26.6022 31.5 26.2206 31.342 25.9393 31.0607C25.658 30.7794 25.5 30.3978 25.5 30C25.5 29.6022 25.658 29.2206 25.9393 28.9393C26.2206 28.658 26.6022 28.5 27 28.5H36C36.3978 28.5 36.7794 28.658 37.0607 28.9393C37.342 29.2206 37.5 29.6022 37.5 30C37.5 30.3978 37.342 30.7794 37.0607 31.0607C36.7794 31.342 36.3978 31.5 36 31.5ZM36 19.5H27C26.6022 19.5 26.2206 19.342 25.9393 19.0607C25.658 18.7794 25.5 18.3978 25.5 18C25.5 17.6022 25.658 17.2206 25.9393 16.9393C26.2206 16.658 26.6022 16.5 27 16.5H36C36.3978 16.5 36.7794 16.658 37.0607 16.9393C37.342 17.2206 37.5 17.6022 37.5 18C37.5 18.3978 37.342 18.7794 37.0607 19.0607C36.7794 19.342 36.3978 19.5 36 19.5Z" fill="#5A42DE"/>
</svg>
