<svg width="48" height="48" viewBox="0 0 48 48" fill="none" xmlns="http://www.w3.org/2000/svg">
<path d="M4.5 14.9999C4.5006 14.7371 4.57019 14.4792 4.70181 14.2518C4.83344 14.0244 5.02247 13.8356 5.25 13.7042L23.25 3.20423C23.4794 3.07047 23.7401 3 24.0056 3C24.2711 3 24.5319 3.07047 24.7612 3.20423L42.7612 13.7042C42.9877 13.8363 43.1755 14.0255 43.3061 14.2528C43.4367 14.4801 43.5054 14.7377 43.5054 14.9999C43.5054 15.262 43.4367 15.5196 43.3061 15.7469C43.1755 15.9742 42.9877 16.1634 42.7612 16.2955L24.7612 26.7955C24.5319 26.9292 24.2711 26.9997 24.0056 26.9997C23.7401 26.9997 23.4794 26.9292 23.25 26.7955L5.25 16.2955C5.02247 16.1641 4.83344 15.9753 4.70181 15.7479C4.57019 15.5205 4.5006 15.2626 4.5 14.9999ZM41.25 22.7042L24 32.7636L6.75 22.7042C6.40846 22.5342 6.01495 22.5007 5.64957 22.6105C5.28419 22.7204 4.97441 22.9653 4.78326 23.2955C4.59212 23.6257 4.53399 24.0163 4.6207 24.3879C4.70741 24.7594 4.93244 25.084 5.25 25.2955L23.25 35.7955C23.4794 35.9292 23.7401 35.9997 24.0056 35.9997C24.2711 35.9997 24.5319 35.9292 24.7612 35.7955L42.7612 25.2955C42.9341 25.1977 43.0859 25.0665 43.2076 24.9096C43.3294 24.7526 43.4188 24.5731 43.4707 24.3813C43.5225 24.1896 43.5357 23.9894 43.5096 23.7925C43.4834 23.5956 43.4184 23.4058 43.3183 23.2343C43.2183 23.0627 43.0851 22.9127 42.9266 22.793C42.7681 22.6732 42.5874 22.5862 42.395 22.5369C42.2025 22.4876 42.0022 22.477 41.8057 22.5057C41.6091 22.5344 41.4203 22.6019 41.25 22.7042ZM43.5 35.9999H40.5V32.9999C40.5 32.602 40.342 32.2205 40.0607 31.9392C39.7794 31.6579 39.3978 31.4999 39 31.4999C38.6022 31.4999 38.2206 31.6579 37.9393 31.9392C37.658 32.2205 37.5 32.602 37.5 32.9999V35.9999H34.5C34.1022 35.9999 33.7206 36.1579 33.4393 36.4392C33.158 36.7205 33 37.102 33 37.4999C33 37.8977 33.158 38.2792 33.4393 38.5605C33.7206 38.8418 34.1022 38.9999 34.5 38.9999H37.5V41.9999C37.5 42.3977 37.658 42.7792 37.9393 43.0605C38.2206 43.3418 38.6022 43.4999 39 43.4999C39.3978 43.4999 39.7794 43.3418 40.0607 43.0605C40.342 42.7792 40.5 42.3977 40.5 41.9999V38.9999H43.5C43.8978 38.9999 44.2794 38.8418 44.5607 38.5605C44.842 38.2792 45 37.8977 45 37.4999C45 37.102 44.842 36.7205 44.5607 36.4392C44.2794 36.1579 43.8978 35.9999 43.5 35.9999ZM26.25 40.4549L24 41.7674L6.75 31.7042C6.40846 31.5342 6.01495 31.5007 5.64957 31.6105C5.28419 31.7204 4.97441 31.9653 4.78326 32.2955C4.59212 32.6257 4.53399 33.0163 4.6207 33.3879C4.70741 33.7594 4.93244 34.084 5.25 34.2955L23.25 44.7955C23.4794 44.9292 23.7401 44.9997 24.0056 44.9997C24.2711 44.9997 24.5319 44.9292 24.7612 44.7955L27.7612 43.0461C27.9341 42.9483 28.0859 42.8171 28.2076 42.6602C28.3294 42.5033 28.4188 42.3237 28.4707 42.1319C28.5225 41.9402 28.5357 41.74 28.5096 41.5431C28.4834 41.3462 28.4184 41.1565 28.3183 40.9849C28.2183 40.8133 28.0851 40.6633 27.9266 40.5436C27.7681 40.4239 27.5874 40.3368 27.395 40.2875C27.2025 40.2382 27.0022 40.2276 26.8057 40.2563C26.6091 40.2851 26.4203 40.3525 26.25 40.4549Z" fill="#5A42DE"/>
</svg>
