<svg width="21" height="22" viewBox="0 0 21 22" fill="none" xmlns="http://www.w3.org/2000/svg">
<path d="M8.3125 12.5312C8.3125 13.38 8.96876 14.0625 9.77376 14.0625H11.4187C12.1187 14.0625 12.6875 13.4675 12.6875 12.7237C12.6875 11.9275 12.3375 11.6387 11.8213 11.455L9.1875 10.5362C8.67125 10.3525 8.32126 10.0725 8.32126 9.26746C8.32126 8.53246 8.88999 7.92871 9.58999 7.92871H11.235C12.04 7.92871 12.6963 8.61121 12.6963 9.45996" stroke="#F255E5" stroke-width="1.3125" stroke-linecap="round" stroke-linejoin="round"/>
<path d="M10.5 7.0625V14.9375" stroke="#F255E5" stroke-width="1.3125" stroke-linecap="round" stroke-linejoin="round"/>
<path d="M19.25 11C19.25 15.83 15.33 19.75 10.5 19.75C5.67 19.75 1.75 15.83 1.75 11C1.75 6.17 5.67 2.25 10.5 2.25" stroke="#F255E5" stroke-width="1.3125" stroke-linecap="round" stroke-linejoin="round"/>
<path d="M19.25 5.75V2.25H15.75" stroke="#F255E5" stroke-width="1.3125" stroke-linecap="round" stroke-linejoin="round"/>
<path d="M14.875 6.625L19.25 2.25" stroke="#F255E5" stroke-width="1.3125" stroke-linecap="round" stroke-linejoin="round"/>
</svg>
