<svg width="40" height="40" viewBox="0 0 40 40" fill="none" xmlns="http://www.w3.org/2000/svg">
<rect width="40" height="40" rx="20" fill="#7C3AED"/>
<path d="M23.125 20C23.125 20.6181 22.9417 21.2223 22.5983 21.7362C22.255 22.2501 21.7669 22.6506 21.1959 22.8871C20.6249 23.1236 19.9965 23.1855 19.3903 23.065C18.7842 22.9444 18.2273 22.6467 17.7903 22.2097C17.3533 21.7727 17.0556 21.2158 16.935 20.6097C16.8145 20.0035 16.8764 19.3751 17.1129 18.8041C17.3494 18.2331 17.7499 17.745 18.2638 17.4017C18.7777 17.0583 19.3819 16.875 20 16.875C20.8288 16.875 21.6237 17.2042 22.2097 17.7903C22.7958 18.3763 23.125 19.1712 23.125 20ZM29.375 15V25C29.375 25.1658 29.3092 25.3247 29.1919 25.4419C29.0747 25.5592 28.9158 25.625 28.75 25.625H11.25C11.0842 25.625 10.9253 25.5592 10.8081 25.4419C10.6908 25.3247 10.625 25.1658 10.625 25V15C10.625 14.8342 10.6908 14.6753 10.8081 14.5581C10.9253 14.4408 11.0842 14.375 11.25 14.375H28.75C28.9158 14.375 29.0747 14.4408 29.1919 14.5581C29.3092 14.6753 29.375 14.8342 29.375 15ZM28.125 18.6211C27.4153 18.4113 26.7694 18.0272 26.2461 17.5039C25.7228 16.9806 25.3387 16.3347 25.1289 15.625H14.8711C14.6613 16.3347 14.2772 16.9806 13.7539 17.5039C13.2306 18.0272 12.5847 18.4113 11.875 18.6211V21.3789C12.5847 21.5887 13.2306 21.9728 13.7539 22.4961C14.2772 23.0194 14.6613 23.6653 14.8711 24.375H25.1289C25.3387 23.6653 25.7228 23.0194 26.2461 22.4961C26.7694 21.9728 27.4153 21.5887 28.125 21.3789V18.6211Z" fill="white"/>
</svg>
