<svg width="19" height="19" viewBox="0 0 19 19" fill="none" xmlns="http://www.w3.org/2000/svg">
<path d="M9.51548 2.30371C6.89506 2.30371 4.76548 4.43329 4.76548 7.05371V9.34163C4.76548 9.82454 4.55964 10.5608 4.31423 10.9725L3.40381 12.4845C2.84173 13.4187 3.22964 14.4558 4.25881 14.8041C7.67089 15.9441 11.3521 15.9441 14.7642 14.8041C15.7221 14.4875 16.1417 13.3554 15.6192 12.4845L14.7088 10.9725C14.4713 10.5608 14.2655 9.82454 14.2655 9.34163V7.05371C14.2655 4.44121 12.128 2.30371 9.51548 2.30371Z" stroke="#292D32" stroke-width="1.1875" stroke-miterlimit="10" stroke-linecap="round"/>
<path d="M10.9804 2.53339C10.735 2.46214 10.4817 2.40672 10.2204 2.37506C9.46044 2.28006 8.7321 2.33547 8.05127 2.53339C8.28085 1.94756 8.85085 1.53589 9.51585 1.53589C10.1809 1.53589 10.7509 1.94756 10.9804 2.53339Z" stroke="#292D32" stroke-width="1.1875" stroke-miterlimit="10" stroke-linecap="round" stroke-linejoin="round"/>
<path d="M11.8904 15.0891C11.8904 16.3954 10.8216 17.4641 9.51538 17.4641C8.86621 17.4641 8.26455 17.1949 7.83705 16.7674C7.40955 16.3399 7.14038 15.7383 7.14038 15.0891" stroke="#292D32" stroke-width="1.1875" stroke-miterlimit="10"/>
</svg>
