<svg width="22" height="22" viewBox="0 0 22 22" fill="none" xmlns="http://www.w3.org/2000/svg">
<path d="M17.6915 7.25986V11.9807C17.6915 14.8041 16.0782 16.014 13.6582 16.014H5.60071C5.18821 16.014 4.79405 15.9774 4.42738 15.8949C4.19821 15.8582 3.97822 15.7941 3.77655 15.7207C2.40155 15.2074 1.56738 14.0157 1.56738 11.9807V7.25986C1.56738 4.43653 3.18071 3.22656 5.60071 3.22656H13.6582C15.7116 3.22656 17.1874 4.09739 17.5816 6.08656C17.6457 6.45322 17.6915 6.82903 17.6915 7.25986Z" stroke="#17BD5C" stroke-width="1.375" stroke-miterlimit="10" stroke-linecap="round" stroke-linejoin="round"/>
<path d="M20.4426 10.0102V14.7311C20.4426 17.5544 18.8293 18.7644 16.4093 18.7644H8.3518C7.67347 18.7644 7.05931 18.6728 6.52764 18.4711C5.43681 18.0678 4.6943 17.2336 4.42847 15.8953C4.79513 15.9778 5.1893 16.0144 5.6018 16.0144H13.6593C16.0793 16.0144 17.6926 14.8044 17.6926 11.9811V7.26022C17.6926 6.82938 17.656 6.44441 17.5826 6.08691C19.3243 6.45358 20.4426 7.68189 20.4426 10.0102Z" stroke="#17BD5C" stroke-width="1.375" stroke-miterlimit="10" stroke-linecap="round" stroke-linejoin="round"/>
<path d="M9.62363 12.0449C10.9602 12.0449 12.0436 10.9614 12.0436 9.62485C12.0436 8.28832 10.9602 7.20483 9.62363 7.20483C8.2871 7.20483 7.20361 8.28832 7.20361 9.62485C7.20361 10.9614 8.2871 12.0449 9.62363 12.0449Z" stroke="#17BD5C" stroke-width="1.375" stroke-miterlimit="10" stroke-linecap="round" stroke-linejoin="round"/>
<path d="M4.38184 7.6084V11.6418" stroke="#17BD5C" stroke-width="1.375" stroke-miterlimit="10" stroke-linecap="round" stroke-linejoin="round"/>
<path d="M14.8699 7.60864V11.642" stroke="#17BD5C" stroke-width="1.375" stroke-miterlimit="10" stroke-linecap="round" stroke-linejoin="round"/>
</svg>
