<svg width="30" height="31" viewBox="0 0 30 31" fill="none" xmlns="http://www.w3.org/2000/svg">
<path d="M22.5456 9.69491C22.4713 9.68252 22.3846 9.68252 22.3102 9.69491C20.6004 9.63296 19.2375 8.23291 19.2375 6.49833C19.2375 4.72659 20.6624 3.30176 22.4341 3.30176C24.2059 3.30176 25.6307 4.73898 25.6307 6.49833C25.6183 8.23291 24.2554 9.63296 22.5456 9.69491Z" stroke="#C7CEE6" stroke-width="1.85847" stroke-linecap="round" stroke-linejoin="round"/>
<path d="M21.2691 18.7148C22.9665 18.9997 24.8374 18.7024 26.1507 17.8227C27.8977 16.6581 27.8977 14.75 26.1507 13.5854C24.825 12.7057 22.9293 12.4083 21.2319 12.7057" stroke="#C7CEE6" stroke-width="1.85847" stroke-linecap="round" stroke-linejoin="round"/>
<path d="M7.64122 9.69491C7.71556 9.68252 7.80228 9.68252 7.87662 9.69491C9.58642 9.63296 10.9493 8.23291 10.9493 6.49833C10.9493 4.72659 9.52447 3.30176 7.75273 3.30176C5.98098 3.30176 4.55615 4.73898 4.55615 6.49833C4.56854 8.23291 5.93142 9.63296 7.64122 9.69491Z" stroke="#C7CEE6" stroke-width="1.85847" stroke-linecap="round" stroke-linejoin="round"/>
<path d="M8.91739 18.7148C7.21999 18.9997 5.34913 18.7024 4.03581 17.8227C2.28885 16.6581 2.28885 14.75 4.03581 13.5854C5.36152 12.7057 7.25716 12.4083 8.95456 12.7057" stroke="#C7CEE6" stroke-width="1.85847" stroke-linecap="round" stroke-linejoin="round"/>
<path d="M15.1125 18.9503C15.0382 18.9379 14.9515 18.9379 14.8771 18.9503C13.1673 18.8883 11.8044 17.4883 11.8044 15.7537C11.8044 13.982 13.2293 12.5571 15.001 12.5571C16.7728 12.5571 18.1976 13.9943 18.1976 15.7537C18.1852 17.4883 16.8223 18.9007 15.1125 18.9503Z" stroke="#C7CEE6" stroke-width="1.85847" stroke-linecap="round" stroke-linejoin="round"/>
<path d="M11.5068 22.8529C9.75979 24.0176 9.75979 25.9256 11.5068 27.0902C13.4891 28.4159 16.7353 28.4159 18.7176 27.0902C20.4646 25.9256 20.4646 24.0176 18.7176 22.8529C16.7476 21.5396 13.4891 21.5396 11.5068 22.8529Z" stroke="#C7CEE6" stroke-width="1.85847" stroke-linecap="round" stroke-linejoin="round"/>
</svg>
