<svg width="20" height="20" viewBox="0 0 20 20" fill="none" xmlns="http://www.w3.org/2000/svg">
<path d="M14.9997 5.96651C14.9497 5.95817 14.8913 5.95817 14.8413 5.96651C13.6913 5.92484 12.7747 4.98317 12.7747 3.81651C12.7747 2.62484 13.733 1.6665 14.9247 1.6665C16.1163 1.6665 17.0747 2.63317 17.0747 3.81651C17.0663 4.98317 16.1497 5.92484 14.9997 5.96651Z" stroke="#6A62E1" stroke-width="1.25" stroke-linecap="round" stroke-linejoin="round"/>
<path d="M14.1417 12.0331C15.2834 12.2247 16.5417 12.0247 17.425 11.4331C18.6 10.6497 18.6 9.3664 17.425 8.58306C16.5334 7.9914 15.2584 7.79139 14.1167 7.99139" stroke="#6A62E1" stroke-width="1.25" stroke-linecap="round" stroke-linejoin="round"/>
<path d="M4.97564 5.96675C5.02564 5.95842 5.08397 5.95842 5.13397 5.96675C6.28397 5.92508 7.20063 4.98342 7.20063 3.81675C7.20063 2.62508 6.2423 1.66675 5.05064 1.66675C3.85897 1.66675 2.90063 2.63342 2.90063 3.81675C2.90897 4.98342 3.82564 5.92508 4.97564 5.96675Z" stroke="#6A62E1" stroke-width="1.25" stroke-linecap="round" stroke-linejoin="round"/>
<path d="M5.83402 12.0333C4.69235 12.225 3.43402 12.025 2.55068 11.4333C1.37568 10.65 1.37568 9.36664 2.55068 8.58331C3.44235 7.99164 4.71735 7.79163 5.85901 7.99163" stroke="#6A62E1" stroke-width="1.25" stroke-linecap="round" stroke-linejoin="round"/>
<path d="M10.0004 12.1916C9.95039 12.1833 9.89206 12.1833 9.84206 12.1916C8.69206 12.1499 7.77539 11.2083 7.77539 10.0416C7.77539 8.84994 8.73372 7.8916 9.92539 7.8916C11.1171 7.8916 12.0754 8.85827 12.0754 10.0416C12.0671 11.2083 11.1504 12.1583 10.0004 12.1916Z" stroke="#6A62E1" stroke-width="1.25" stroke-linecap="round" stroke-linejoin="round"/>
<path d="M7.5751 14.8166C6.4001 15.5999 6.4001 16.8832 7.5751 17.6666C8.90843 18.5582 11.0918 18.5582 12.4251 17.6666C13.6001 16.8832 13.6001 15.5999 12.4251 14.8166C11.1001 13.9332 8.90843 13.9332 7.5751 14.8166Z" stroke="#6A62E1" stroke-width="1.25" stroke-linecap="round" stroke-linejoin="round"/>
</svg>
