<svg width="20" height="20" viewBox="0 0 20 20" fill="none" xmlns="http://www.w3.org/2000/svg">
<path d="M8.125 2.73454C9.35462 2.41531 10.6454 2.41531 11.875 2.73454" stroke="#A1A1AA" stroke-width="1.5" stroke-linecap="round" stroke-linejoin="round"/>
<path d="M2.77246 7.99199C3.11102 6.7678 3.75638 5.65025 4.64746 4.74512" stroke="#A1A1AA" stroke-width="1.5" stroke-linecap="round" stroke-linejoin="round"/>
<path d="M4.64746 15.2553C3.75615 14.3497 3.11078 13.2316 2.77246 12.0068L4.64746 15.2553Z" fill="#A1A1AA"/>
<path d="M4.64746 15.2553C3.75615 14.3497 3.11078 13.2316 2.77246 12.0068" stroke="#A1A1AA" stroke-width="1.5" stroke-linecap="round" stroke-linejoin="round"/>
<path d="M11.875 17.2656C10.6454 17.5848 9.35462 17.5848 8.125 17.2656H11.875Z" fill="#A1A1AA"/>
<path d="M11.875 17.2656C10.6454 17.5848 9.35462 17.5848 8.125 17.2656" stroke="#A1A1AA" stroke-width="1.5" stroke-linecap="round" stroke-linejoin="round"/>
<path d="M17.2275 12.0078C16.889 13.232 16.2436 14.3496 15.3525 15.2547L17.2275 12.0078Z" fill="#A1A1AA"/>
<path d="M17.2275 12.0078C16.889 13.232 16.2436 14.3496 15.3525 15.2547" stroke="#A1A1AA" stroke-width="1.5" stroke-linecap="round" stroke-linejoin="round"/>
<path d="M15.3525 4.74414C16.2438 5.64971 16.8892 6.76782 17.2275 7.99258" stroke="#A1A1AA" stroke-width="1.5" stroke-linecap="round" stroke-linejoin="round"/>
</svg>
