<svg width="60" height="60" viewBox="0 0 60 60" fill="none" xmlns="http://www.w3.org/2000/svg">
<path d="M48.75 9.375H11.25C10.2554 9.375 9.30161 9.77009 8.59835 10.4733C7.89509 11.1766 7.5 12.1304 7.5 13.125V26.25C7.5 38.6063 13.4813 46.0945 18.4992 50.2008C23.9039 54.6211 29.2805 56.1211 29.5148 56.1844C29.8371 56.272 30.177 56.272 30.4992 56.1844C30.7336 56.1211 36.1031 54.6211 41.5148 50.2008C46.5188 46.0945 52.5 38.6063 52.5 26.25V13.125C52.5 12.1304 52.1049 11.1766 51.4016 10.4733C50.6984 9.77009 49.7446 9.375 48.75 9.375ZM40.7062 25.7016L27.5812 38.8266C27.4071 39.0009 27.2003 39.1392 26.9727 39.2336C26.7451 39.3279 26.5011 39.3765 26.2547 39.3765C26.0083 39.3765 25.7643 39.3279 25.5367 39.2336C25.3091 39.1392 25.1023 39.0009 24.9281 38.8266L19.3031 33.2016C18.9513 32.8497 18.7536 32.3726 18.7536 31.875C18.7536 31.3774 18.9513 30.9003 19.3031 30.5484C19.655 30.1966 20.1321 29.999 20.6297 29.999C21.1272 29.999 21.6044 30.1966 21.9563 30.5484L26.25 34.8492L38.0484 23.0484C38.2226 22.8742 38.4295 22.736 38.6571 22.6418C38.8847 22.5475 39.1286 22.499 39.375 22.499C39.6214 22.499 39.8653 22.5475 40.0929 22.6418C40.3205 22.736 40.5274 22.8742 40.7016 23.0484C40.8758 23.2226 41.014 23.4295 41.1082 23.6571C41.2025 23.8847 41.251 24.1286 41.251 24.375C41.251 24.6214 41.2025 24.8653 41.1082 25.0929C41.014 25.3205 40.8758 25.5274 40.7016 25.7016H40.7062Z" fill="#5A42DE"/>
</svg>
