<svg width="48" height="48" viewBox="0 0 48 48" fill="none" xmlns="http://www.w3.org/2000/svg">
<path d="M40.0612 15.4388L29.5613 4.93875C29.4218 4.7995 29.2564 4.68908 29.0743 4.6138C28.8922 4.53851 28.697 4.49985 28.5 4.5H10.5C9.70435 4.5 8.94129 4.81607 8.37868 5.37868C7.81607 5.94129 7.5 6.70435 7.5 7.5V40.5C7.5 41.2957 7.81607 42.0587 8.37868 42.6213C8.94129 43.1839 9.70435 43.5 10.5 43.5H37.5C38.2956 43.5 39.0587 43.1839 39.6213 42.6213C40.1839 42.0587 40.5 41.2957 40.5 40.5V16.5C40.5002 16.303 40.4615 16.1078 40.3862 15.9257C40.3109 15.7436 40.2005 15.5782 40.0612 15.4388ZM29.5613 31.9387C29.7006 32.0781 29.8112 32.2436 29.8866 32.4257C29.962 32.6077 30.0008 32.8029 30.0008 33C30.0008 33.1971 29.962 33.3923 29.8866 33.5743C29.8112 33.7564 29.7006 33.9219 29.5613 34.0613C29.4219 34.2006 29.2564 34.3112 29.0743 34.3866C28.8923 34.462 28.6971 34.5008 28.5 34.5008C28.3029 34.5008 28.1077 34.462 27.9257 34.3866C27.7436 34.3112 27.5781 34.2006 27.4387 34.0613L24 30.6206L20.5613 34.0613C20.4219 34.2006 20.2564 34.3112 20.0743 34.3866C19.8923 34.462 19.6971 34.5008 19.5 34.5008C19.3029 34.5008 19.1077 34.462 18.9257 34.3866C18.7436 34.3112 18.5781 34.2006 18.4387 34.0613C18.2994 33.9219 18.1888 33.7564 18.1134 33.5743C18.038 33.3923 17.9992 33.1971 17.9992 33C17.9992 32.8029 18.038 32.6077 18.1134 32.4257C18.1888 32.2436 18.2994 32.0781 18.4387 31.9387L21.8794 28.5L18.4387 25.0613C18.1573 24.7798 17.9992 24.398 17.9992 24C17.9992 23.602 18.1573 23.2202 18.4387 22.9387C18.7202 22.6573 19.102 22.4992 19.5 22.4992C19.898 22.4992 20.2798 22.6573 20.5613 22.9387L24 26.3794L27.4387 22.9387C27.5781 22.7994 27.7436 22.6888 27.9257 22.6134C28.1077 22.538 28.3029 22.4992 28.5 22.4992C28.6971 22.4992 28.8923 22.538 29.0743 22.6134C29.2564 22.6888 29.4219 22.7994 29.5613 22.9387C29.7006 23.0781 29.8112 23.2436 29.8866 23.4257C29.962 23.6077 30.0008 23.8029 30.0008 24C30.0008 24.1971 29.962 24.3923 29.8866 24.5743C29.8112 24.7564 29.7006 24.9219 29.5613 25.0613L26.1206 28.5L29.5613 31.9387ZM28.5 16.5V8.25L36.75 16.5H28.5Z" fill="#5A42DE"/>
</svg>
